<?xml version="1.0" encoding="utf-8"?>
<!-- Generator: Adobe Illustrator 25.2.1, SVG Export Plug-In . SVG Version: 6.00 Build 0)  -->
<svg version="1.1" id="Capa_1" xmlns="http://www.w3.org/2000/svg" xmlns:xlink="http://www.w3.org/1999/xlink" x="0px" y="0px"
	 viewBox="0 0 36 36" style="enable-background:new 0 0 36 36;" xml:space="preserve">
<style type="text/css">
	.st0{fill:#FFCC4D;}
	.st1{fill:#664500;}
	.st2{fill:#F4900C;}
	path#nariz {
    animation: trecetrece 1s linear 0s infinite alternate;
}

@keyframes trecetrece {
    from {transform: translate(8px,0)}
    to {transform: translate(-8px,0)}
}
</style>
<circle class="st0" cx="16" cy="18" r="16"/>
<path class="st1" d="M11.5,13.5c0,1.7-1,3.1-2.2,3.1s-2.2-1.4-2.2-3.1c0-1.7,1-3.1,2.2-3.1C10.5,10.4,11.5,11.8,11.5,13.5z M23,13.5
	c0,1.7-1,3.1-2.2,3.1c-1.2,0-2.2-1.4-2.2-3.1c0-1.7,1-3.1,2.2-3.1C22,10.4,23,11.8,23,13.5z M10.1,29.4c1.8-4.4,11.5-4.4,11.5-2.6
	C21.6,27.6,14.5,25.9,10.1,29.4z"/>
<path class="st2" d="M25.2,17.5H17c-1.5,0-2.7,1.3-2.7,3c0,1.7,1.2,3,2.7,3h8.2V17.5z"/>
<path id="nariz" class="st2" d="M32.3,17.5H17c-1.5,0-2.7,1.3-2.7,3c0,1.7,1.2,3,2.7,3h15.3c1.5,0,2.7-1.3,2.7-3
	C35,18.8,33.8,17.5,32.3,17.5z"/>
<path class="st0" d="M17,23.5c-1.5,0-2.7-1.3-2.7-3c0-1.7,1.2-3,2.7-3h2.3v-1.1l-0.5-0.2l-0.7-0.5h-3.9l-2.1,1.1l-7.2,0l-0.9,7.4
	l5.1,1.2h3.1l7.1-0.2v-1.6H17z"/>
</svg>
