<svg xmlns="http://www.w3.org/2000/svg" width="805" height="600"><rect width="805" height="600" x="0" y="0" fill="#FFFFFF" id="backgorund"/><g transform="translate(27,25)" id="visualization"><g><rect x="0" y="0" height="2.905027932960894" width="5" fill="black"><title>Animation: 1</title></rect><rect x="0" y="7.905027932960894" height="5.810055865921755" width="5" fill="black"><title>Reality: 2</title></rect><rect x="0" y="18.71508379888265" height="5.810055865921754" width="5" fill="black"><title>Talk Show: 2</title></rect><rect x="0" y="29.525139664804403" height="14.525139664804438" width="5" fill="black"><title>Marvel: 5</title></rect><rect x="0" y="49.05027932960884" height="17.430167597765376" width="5" fill="black"><title>Family Live Action: 6</title></rect><rect x="0" y="71.48044692737422" height="26.14525139664812" width="5" fill="black"><title>Foreign Language: 9</title></rect><rect x="0" y="102.62569832402234" height="46.4804469273743" width="5" fill="black"><title>Docu-Series: 16</title></rect><rect x="728" y="12.5" height="55.195530726256976" width="5" fill="black"><title>2014: 19</title></rect><rect x="728" y="72.69553072625698" height="63.910614525139664" width="5" fill="black"><title>2013: 22</title></rect><rect x="728" y="141.60614525139664" height="75.53072625698331" width="5" fill="black"><title>2017: 26</title></rect><rect x="0" y="154.10614525139664" height="98.77094972067039" width="5" fill="black"><title>Drama: 34</title></rect><rect x="0" y="257.877094972067" height="113.29608938547483" width="5" fill="black"><title>Comedy: 39</title></rect><rect x="728" y="222.13687150837995" height="153.96648044692733" width="5" fill="black"><title>2016: 53</title></rect><rect x="728" y="381.1033519553073" height="171.3966480446927" width="5" fill="black"><title>2015: 59</title></rect><rect x="0" y="376.17318435754186" height="188.82681564245814" width="5" fill="black"><title>Family Animation: 65</title></rect></g><g fill="none" stroke-opacity="1"><g style="mix-blend-mode: multiply;"><path d="M5,1.452513966480447C366.5,1.452513966480447,366.5,13.952513966480447,728,13.952513966480447" stroke="#1f77b4" stroke-width="2.905027932960894"/><title>Animation → 2014: 1</title></g><g style="mix-blend-mode: multiply;"><path d="M5,281.11731843575416C366.5,281.11731843575416,366.5,113.3659217877095,728,113.3659217877095" stroke="#ff7f0e" stroke-width="5.810055865921788"/><title>Comedy → 2013: 2</title></g><g style="mix-blend-mode: multiply;"><path d="M5,268.0446927374302C366.5,268.0446927374302,366.5,34.287709497206706,728,34.287709497206706" stroke="#ff7f0e" stroke-width="20.335195530726256"/><title>Comedy → 2014: 7</title></g><g style="mix-blend-mode: multiply;"><path d="M5,353.7430167597766C366.5,353.7430167597766,366.5,465.34916201117323,728,465.34916201117323" stroke="#ff7f0e" stroke-width="34.86033519553072"/><title>Comedy → 2015: 12</title></g><g style="mix-blend-mode: multiply;"><path d="M5,317.4301675977654C366.5,317.4301675977654,366.5,302.02513966480456,728,302.02513966480456" stroke="#ff7f0e" stroke-width="37.76536312849162"/><title>Comedy → 2016: 13</title></g><g style="mix-blend-mode: multiply;"><path d="M5,291.2849162011173C366.5,291.2849162011173,366.5,189.53910614525142,728,189.53910614525142" stroke="#ff7f0e" stroke-width="14.52513966480447"/><title>Comedy → 2017: 5</title></g><g style="mix-blend-mode: multiply;"><path d="M5,143.29608938547486C366.5,143.29608938547486,366.5,415.96368715083804,728,415.96368715083804" stroke="#2ca02c" stroke-width="11.620111731843576"/><title>Docu-Series → 2015: 4</title></g><g style="mix-blend-mode: multiply;"><path d="M5,125.8659217877095C366.5,125.8659217877095,366.5,254.0921787709498,728,254.0921787709498" stroke="#2ca02c" stroke-width="23.24022346368715"/><title>Docu-Series → 2016: 8</title></g><g style="mix-blend-mode: multiply;"><path d="M5,108.43575418994412C366.5,108.43575418994412,366.5,167.75139664804473,728,167.75139664804473" stroke="#2ca02c" stroke-width="11.620111731843576"/><title>Docu-Series → 2017: 4</title></g><g style="mix-blend-mode: multiply;"><path d="M5,181.70391061452514C366.5,181.70391061452514,366.5,91.57821229050279,728,91.57821229050279" stroke="#d62728" stroke-width="37.76536312849162"/><title>Drama → 2013: 13</title></g><g style="mix-blend-mode: multiply;"><path d="M5,158.46368715083798C366.5,158.46368715083798,366.5,19.762569832402235,728,19.762569832402235" stroke="#d62728" stroke-width="8.71508379888268"/><title>Drama → 2014: 3</title></g><g style="mix-blend-mode: multiply;"><path d="M5,239.80446927374305C366.5,239.80446927374305,366.5,434.8463687150838,728,434.8463687150838" stroke="#d62728" stroke-width="26.145251396648046"/><title>Drama → 2015: 9</title></g><g style="mix-blend-mode: multiply;"><path d="M5,218.01675977653633C366.5,218.01675977653633,366.5,274.4273743016761,728,274.4273743016761" stroke="#d62728" stroke-width="17.43016759776536"/><title>Drama → 2016: 6</title></g><g style="mix-blend-mode: multiply;"><path d="M5,204.9441340782123C366.5,204.9441340782123,366.5,177.91899441340786,728,177.91899441340786" stroke="#d62728" stroke-width="8.71508379888268"/><title>Drama → 2017: 3</title></g><g style="mix-blend-mode: multiply;"><path d="M5,409.58100558659214C366.5,409.58100558659214,366.5,126.43854748603351,728,126.43854748603351" stroke="#9467bd" stroke-width="20.335195530726256"/><title>Family Animation → 2013: 7</title></g><g style="mix-blend-mode: multiply;"><path d="M5,387.7932960893854C366.5,387.7932960893854,366.5,56.07541899441341,728,56.07541899441341" stroke="#9467bd" stroke-width="23.24022346368715"/><title>Family Animation → 2014: 8</title></g><g style="mix-blend-mode: multiply;"><path d="M5,530.1396648044692C366.5,530.1396648044692,366.5,517.6396648044694,728,517.6396648044694" stroke="#9467bd" stroke-width="69.72067039106145"/><title>Family Animation → 2015: 24</title></g><g style="mix-blend-mode: multiply;"><path d="M5,467.68156424580997C366.5,467.68156424580997,366.5,348.5055865921789,728,348.5055865921789" stroke="#9467bd" stroke-width="55.19553072625698"/><title>Family Animation → 2016: 19</title></g><g style="mix-blend-mode: multiply;"><path d="M5,429.9162011173184C366.5,429.9162011173184,366.5,206.9692737430168,728,206.9692737430168" stroke="#9467bd" stroke-width="20.335195530726256"/><title>Family Animation → 2017: 7</title></g><g style="mix-blend-mode: multiply;"><path d="M5,59.21787709497197C366.5,59.21787709497197,366.5,397.0810055865922,728,397.0810055865922" stroke="#8c564b" stroke-width="14.52513966480447"/><title>Family Live Action → 2015: 5</title></g><g style="mix-blend-mode: multiply;"><path d="M5,50.50279329608929C366.5,50.50279329608929,366.5,151.7737430167598,728,151.7737430167598" stroke="#8c564b" stroke-width="2.905027932960894"/><title>Family Live Action → 2017: 1</title></g><g style="mix-blend-mode: multiply;"><path d="M5,94.72067039106136C366.5,94.72067039106136,366.5,407.2486033519553,728,407.2486033519553" stroke="#e377c2" stroke-width="5.810055865921788"/><title>Foreign Language → 2015: 2</title></g><g style="mix-blend-mode: multiply;"><path d="M5,86.00558659217867C366.5,86.00558659217867,366.5,236.66201117318445,728,236.66201117318445" stroke="#e377c2" stroke-width="11.620111731843576"/><title>Foreign Language → 2016: 4</title></g><g style="mix-blend-mode: multiply;"><path d="M5,75.83798882681556C366.5,75.83798882681556,366.5,157.5837988826816,728,157.5837988826816" stroke="#e377c2" stroke-width="8.71508379888268"/><title>Foreign Language → 2017: 3</title></g><g style="mix-blend-mode: multiply;"><path d="M5,39.692737430167526C366.5,39.692737430167526,366.5,385.46089385474863,728,385.46089385474863" stroke="#7f7f7f" stroke-width="8.71508379888268"/><title>Marvel → 2015: 3</title></g><g style="mix-blend-mode: multiply;"><path d="M5,33.88268156424574C366.5,33.88268156424574,366.5,229.3994413407822,728,229.3994413407822" stroke="#7f7f7f" stroke-width="2.905027932960894"/><title>Marvel → 2016: 1</title></g><g style="mix-blend-mode: multiply;"><path d="M5,30.97765363128485C366.5,30.97765363128485,366.5,148.8687150837989,728,148.8687150837989" stroke="#7f7f7f" stroke-width="2.905027932960894"/><title>Marvel → 2017: 1</title></g><g style="mix-blend-mode: multiply;"><path d="M5,12.262569832402235C366.5,12.262569832402235,366.5,223.5893854748604,728,223.5893854748604" stroke="#bcbd22" stroke-width="2.905027932960894"/><title>Reality → 2016: 1</title></g><g style="mix-blend-mode: multiply;"><path d="M5,9.35754189944134C366.5,9.35754189944134,366.5,143.05865921787708,728,143.05865921787708" stroke="#bcbd22" stroke-width="2.905027932960894"/><title>Reality → 2017: 1</title></g><g style="mix-blend-mode: multiply;"><path d="M5,23.07262569832399C366.5,23.07262569832399,366.5,226.4944134078213,728,226.4944134078213" stroke="#17becf" stroke-width="2.905027932960894"/><title>Talk Show → 2016: 1</title></g><g style="mix-blend-mode: multiply;"><path d="M5,20.167597765363094C366.5,20.167597765363094,366.5,145.96368715083798,728,145.96368715083798" stroke="#17becf" stroke-width="2.905027932960894"/><title>Talk Show → 2017: 1</title></g></g><g><text x="9" y="1.452513966480447" text-anchor="start"><tspan alignment-baseline="middle" x="9" style="font-family: Arial, sans-serif; font-size: 10px; fill: black; font-weight: bold;">Animation</tspan></text><text x="9" y="10.810055865921772" text-anchor="start"><tspan alignment-baseline="middle" x="9" style="font-family: Arial, sans-serif; font-size: 10px; fill: black; font-weight: bold;">Reality</tspan></text><text x="9" y="21.620111731843526" text-anchor="start"><tspan alignment-baseline="middle" x="9" style="font-family: Arial, sans-serif; font-size: 10px; fill: black; font-weight: bold;">Talk Show</tspan></text><text x="9" y="36.78770949720662" text-anchor="start"><tspan alignment-baseline="middle" x="9" style="font-family: Arial, sans-serif; font-size: 10px; fill: black; font-weight: bold;">Marvel</tspan></text><text x="9" y="57.76536312849153" text-anchor="start"><tspan alignment-baseline="middle" x="9" style="font-family: Arial, sans-serif; font-size: 10px; fill: black; font-weight: bold;">Family Live Action</tspan></text><text x="9" y="84.55307262569828" text-anchor="start"><tspan alignment-baseline="middle" x="9" style="font-family: Arial, sans-serif; font-size: 10px; fill: black; font-weight: bold;">Foreign Language</tspan></text><text x="9" y="125.86592178770948" text-anchor="start"><tspan alignment-baseline="middle" x="9" style="font-family: Arial, sans-serif; font-size: 10px; fill: black; font-weight: bold;">Docu-Series</tspan></text><text x="724" y="40.09776536312849" text-anchor="end"><tspan alignment-baseline="middle" x="724" style="font-family: Arial, sans-serif; font-size: 10px; fill: black; font-weight: bold;">2014</tspan></text><text x="724" y="104.65083798882681" text-anchor="end"><tspan alignment-baseline="middle" x="724" style="font-family: Arial, sans-serif; font-size: 10px; fill: black; font-weight: bold;">2013</tspan></text><text x="724" y="179.3715083798883" text-anchor="end"><tspan alignment-baseline="middle" x="724" style="font-family: Arial, sans-serif; font-size: 10px; fill: black; font-weight: bold;">2017</tspan></text><text x="9" y="203.49162011173183" text-anchor="start"><tspan alignment-baseline="middle" x="9" style="font-family: Arial, sans-serif; font-size: 10px; fill: black; font-weight: bold;">Drama</tspan></text><text x="9" y="314.52513966480444" text-anchor="start"><tspan alignment-baseline="middle" x="9" style="font-family: Arial, sans-serif; font-size: 10px; fill: black; font-weight: bold;">Comedy</tspan></text><text x="724" y="299.1201117318436" text-anchor="end"><tspan alignment-baseline="middle" x="724" style="font-family: Arial, sans-serif; font-size: 10px; fill: black; font-weight: bold;">2016</tspan></text><text x="724" y="466.80167597765364" text-anchor="end"><tspan alignment-baseline="middle" x="724" style="font-family: Arial, sans-serif; font-size: 10px; fill: black; font-weight: bold;">2015</tspan></text><text x="9" y="470.58659217877096" text-anchor="start"><tspan alignment-baseline="middle" x="9" style="font-family: Arial, sans-serif; font-size: 10px; fill: black; font-weight: bold;">Family Animation</tspan></text></g><g><text x="2.5" y="-4" text-anchor="middle" style="font-family: Arial, sans-serif; font-size: 12px; fill: rgb(123, 123, 123); font-weight: bold;">Genere</text><text x="730.5" y="8.5" text-anchor="middle" style="font-family: Arial, sans-serif; font-size: 12px; fill: rgb(123, 123, 123); font-weight: bold;">Premiere_Year</text></g></g></svg>