<?xml version="1.0" encoding="utf-8"?>
<!-- Generator: Adobe Illustrator 25.2.1, SVG Export Plug-In . SVG Version: 6.00 Build 0)  -->
<svg version="1.1" xmlns="http://www.w3.org/2000/svg" xmlns:xlink="http://www.w3.org/1999/xlink" x="0px" y="0px"
	 viewBox="0 0 1080 700" style="enable-background:new 0 0 1080 700;" xml:space="preserve">
<g id="Capa_1">
	<image style="overflow:visible;" width="1080" height="699" xlink:href="85B6F528.jpg" >
	</image>
	<g>
		<defs>
			<path id="SVGID_1_" d="M1080,602.29V232l-97.11,9c0,0-46.78,14.44-49.05,17.84c-2.27,3.4-29.49,19.28-34.03,46.5
				c-4.54,27.22-13.16,70.32-17.35,78.26c-4.19,7.94-23.48,35.16-29.15,19.28c-5.67-15.88-6.81-41.96-7.94-52.17
				c-1.13-10.21-22.68-45.37-29.49-49.9c-6.81-4.54-18.15-14.74-39.7-14.74s-58.98-10.21-74.86-10.21s-13.61-29.49-57.84,0
				c-44.23,29.49-27.22,4.54-72.59,48.77s-38.56,10.21-49.9,54.44s-11.34,65.03-18.15,86.95s-7.94,18.52-18.15,35.54
				c-10.21,17.01-18.28,22.68-18.28,22.68v175.8H1080V602.29z"/>
		</defs>
		<clipPath id="SVGID_2_">
			<use xlink:href="#SVGID_1_"  style="overflow:visible;"/>
		</clipPath>
		<g transform="matrix(1 0 0 1 0 -1.525879e-05)" style="clip-path:url(#SVGID_2_);">
			
				<image style="overflow:visible;" width="608" height="342" xlink:href="netflix-2.jpg"  transform="matrix(1.3685 0 0 1.3685 466.4286 232)">
			</image>
		</g>
	</g>
	<g>
		<defs>
			<path id="SVGID_3_" d="M0,619.04c0,0,0.83-26.67,7.49-25.56c6.66,1.11,23.3-23.3,23.3-23.3l22.19-22.19c0,0,2.22-4.44,6.66-18.86
				s11.1-41.06,12.21-45.5c1.11-4.44,4.44-41.06,5.55-51.04c1.11-9.99,14.43-54.37,15.54-57.7c1.11-3.33,13.32-34.4,13.32-34.4
				l5.55-38.84l14.43-8.88l27.74-4.69l14.43-15.29l28.85-5.55l13.32-22.19c0,0-21.08-26.63-21.08-38.84s1.11-25.52,1.11-25.52
				l9.99-29.96c0,0-7.77-7.77,9.99-15.54s31.07-17.75,43.28-17.75s19.97-11.1,36.62,0c16.64,11.1,26.63,1.11,36.62,21.08
				s15.54,51.04,15.54,51.04v35.51c0,0,1.11,3.33,5.55,2.22c4.44-1.11,15.54-24.41,15.54-24.41l9.99-29.96l7.77-5.55
				c36.62-9.99,36.62-9.99,36.62-9.99s9.99-8.88,27.74-5.55c17.75,3.33,21.7,13.32,21.7,13.32l10.48-19.97l13.32-23.3
				c0,0,23.3-23.3,31.07-23.3c7.77,0,26.63,7.77,28.85,11.1c2.22,3.33,9.99,19.97,9.99,19.97s11.1,6.66,15.54,12.21
				s8.88,11.1,11.1,15.54c2.22,4.44,15.54,22.19,15.54,26.63s-3.33,22.19,0,26.63c3.33,4.44,16.64-34.4,16.64-34.4
				s11.1-12.21,14.43-12.21c3.33,0,32.18,5.55,36.62,8.88c4.44,3.33,8.88,4.44,11.1,8.88s19.97-14.43,19.97-14.43l18.86-13.32
				c0,0,31.07,0,34.4,0c3.33,0,16.64,7.77,22.19,14.43c5.55,6.66,13.32,8.88,16.64,28.85c3.33,19.97,1.11,21.08,6.66,32.18
				c5.55,11.1,11.1,18.86,14.43,23.3c3.33,4.44,11.1,18.86,11.1,18.86l23.3,16.4c0,0,27.74,9.12,32.18,14.67
				c4.44,5.55,39.95,39.95,39.95,56.04s4.44,31.62,6.66,41.61c2.22,9.99,4.44,22.19,9.99,47.71c5.55,25.52,12.21,44.39,16.64,53.26
				c4.44,8.88,13.32,44.39,13.32,44.39s6.66,5.55,8.88,22.19c2.22,16.64,5.55,25.52,6.66,36.62c1.11,11.1-6.66,24.41,0,33.29
				c6.66,8.88,6.66,14.43,8.88,23.3c2.22,8.88,0,38.84,0,38.84H0L0,619.04z"/>
		</defs>
		<clipPath id="SVGID_4_">
			<use xlink:href="#SVGID_3_"  style="overflow:visible;"/>
		</clipPath>
		<g style="clip-path:url(#SVGID_4_);">
			
				<image style="overflow:visible;" width="1280" height="720" xlink:href="netflix-0.jpg"  transform="matrix(0.8631 0 0 0.8631 -84.8571 78.5978)">
			</image>
		</g>
	</g>
	<g>
		<defs>
			<path id="SVGID_5_" d="M387.76,698.43c0,0-4.99-36.17-6.24-42.4s-1.25-7.48-6.24-37.42c-4.99-29.93-6.24-42.4-6.24-42.4
				s0-38.66,0-46.15c0-7.48,11.22-2.49,0-47.39c-11.22-44.9-13.72-52.38-13.72-52.38s-16.21-24.94-19.96-27.44
				s3.74-4.99-17.46-11.22c-21.2-6.24-62.36-27.44-62.36-27.44s-31.18-13.72-42.4-14.97s-32.43-12.47-32.43-12.47
				s-14.97-9.98-18.71-19.96c-3.74-9.98-8.73-11.22-8.73-18.71c0-7.48,1.25-21.2,0-24.94s13.72-22.45,13.72-22.45l7.48-26.19
				c0,0,8.73-41.16,8.73-47.39c0-6.24,7.48-36.17,4.99-44.9S176.99,91.05,172,79.82c-4.99-11.22-21.2-34.23-32.43-43.93
				s-26.19-18.43-33.67-19.68S67.23,6.24,67.23,6.24L36.05,0H0l-0.07,698.43H387.76z"/>
		</defs>
		<clipPath id="SVGID_6_">
			<use xlink:href="#SVGID_5_"  style="overflow:visible;"/>
		</clipPath>
		<g style="clip-path:url(#SVGID_6_);">
			
				<image style="overflow:visible;" width="1280" height="720" xlink:href="netflix-3.jpg"  transform="matrix(0.97 0 0 0.97 -535.4376 0)">
			</image>
		</g>
	</g>
	<g>
		<defs>
			<path id="SVGID_7_" d="M0,619.04l241.27-55.03l-5.69-20.24c0,0,2.53-1.9-4.43-10.12c-6.96-8.22-12.02-7.59-16.45-13.92
				c-4.43-6.33-10.75-14.55-13.28-19.61c-2.53-5.06-6.96-22.14-6.96-22.14s-4.43-13.92-0.63-21.51c3.8-7.59,8.22-25.3,11.39-26.57
				c3.16-1.27,5.69-6.96,11.39-17.71c5.69-10.75,11.39-25.3,11.39-25.3s3.16-16.45,4.43-23.4c1.27-6.96,4.43-13.28,5.06-29.1
				c0.63-15.81,3.8-27.83,3.8-27.83v-17.08l3.16-13.92c0,0,0-11.39,0-22.14s0-24.67,0-24.67v-13.28c0,0,9.49-9.49,11.39-9.49
				s3.16-5.06,5.69,0s1.9,4.43,6.33,6.33c4.43,1.9,10.12,1.9,10.12,1.9l5.69-4.43l5.06-1.9l4.43-4.15c0,0-2.53-4.71-4.43-9.14
				c-1.9-4.43-1.9-4.43-1.9-4.43l-5.69-6.96c0,0,0.63-3.16,3.8-8.86s8.22-12.02,8.22-12.02l-5.06-12.02l-1.27-8.22l3.16-12.02
				l3.16-10.75v-12.65l11.39-13.28l10.75-11.39l15.81-5.69l16.45-3.16l18.34-3.8h8.22l15.81,3.8c0,0,5.69,0.63,10.75,5.06
				c5.06,4.43,8.86,3.8,10.12,6.96c1.27,3.16,9.49,10.12,9.49,10.12l6.96,5.69c0,0,6.33,3.8,8.86,7.59s7.59,15.18,8.22,17.71
				c0.63,2.53-1.27,11.39,0,16.45s-0.63,8.86-3.16,15.18s-7.59,13.28-9.49,19.61s-3.16,11.39-8.86,22.77s-3.8,1.9-5.69,11.39
				c-1.9,9.49-1.9,13.28-1.9,16.45s1.9,3.8,2.53,7.59c0.63,3.8,2.53,0,7.59,7.59c5.06,7.59,7.59,7.59,10.12,10.75
				c2.53,3.16,4.6,10.12,9.26,18.98c4.66,8.86,8.45,13.28,10.35,24.04c1.9,10.75,2.53,12.02,4.43,27.83c1.9,15.81,0.63-3.16,0,22.14
				c-0.63,25.3-5.06,34.79-7.59,49.97c-2.53,15.18-9.49,19.61-13.28,36.69s-5.69,11.39-6.96,30.99s-1.27,8.22-1.27,24.04
				s-5.06-3.8,0,20.87c5.06,24.67,20.87,44.91,26.57,53.76s17.08,9.49,30.99,18.98c13.92,9.49,10.12,3.8,43.01,12.02
				c32.89,8.22,25.93,3.16,65.15,5.69s80.96-1.9,84.13-1.9c3.16,0,25.93,1.27,27.83,0.63c1.9-0.63,8.22-7.59,18.34-9.49
				c10.12-1.9,23.4-14.55,23.4-16.45s4.43-30.99,4.43-30.99s3.16-17.08,2.53-20.87c-0.63-3.8-6.33-25.93-6.96-27.83
				c-0.63-1.9-3.16-27.83-3.16-27.83s-1.27-18.98-1.27-25.93s0-33.45-0.63-36.97c-0.63-3.51-0.63-34.51-0.63-34.51V338.2
				c0,0-1.27-24.67,0.63-25.93s6.96-8.22,7.59-13.28c0.63-5.06,0.63-7.59,7.59-20.87c6.96-13.28-0.63-5.06,8.22-17.08
				c8.86-12.02-4.43,1.9,8.86-12.02c13.28-13.92,1.27,3.16,14.55-16.45c13.28-19.61,12.65-14.55,13.28-19.61
				c0.63-5.06,9.49-37.95,9.49-39.85c0-1.9-3.8-30.36-3.8-30.36l-0.63-8.86c0,0-2.53-26.57-2.53-29.1c0-2.53,2.53-12.65,6.96-17.08
				c4.43-4.43,10.12-12.02,12.65-15.18c2.53-3.16,15.81-5.06,18.98-6.33c3.16-1.27,5.06-1.9,27.2-3.8c22.14-1.9,33.52-5.06,37.95,0
				S922.5,75.7,924.4,78.86s4.43,7.59,7.59,14.55c3.16,6.96,9.49,13.28,12.02,22.14c2.53,8.86,8.22,16.45,11.39,22.77
				c3.16,6.33,7.59,8.22,8.86,15.81c1.27,7.59,1.27,7.59,1.27,7.59s0.63-2.53,0.63,10.75c0,13.28,5.06-1.27-2.53,24.04
				s-2.53,5.69-10.12,30.36c-7.59,24.67-8.86,16.45-8.22,29.73c0.63,13.28-6.96-11.39,2.53,18.34s30.99,64.42,30.99,64.42
				s10.75,13.38,21.51,34.89c10.75,21.51,17.08,30.36,17.08,51.23c0,20.87,1.9,44.28,5.06,54.4c3.16,10.12,5.69,30.99,7.59,45.54
				c1.9,14.55,2.53,28.46,1.9,45.54c-0.63,17.08-8.22,32.26-9.49,41.75c-1.27,9.49-10.12,30.36,3.8,41.75
				c13.92,11.39,36.69,17.08,40.48,20.87c3.8,3.8,13.28,24.67,13.28,24.67H0L0,619.04z"/>
		</defs>
		<clipPath id="SVGID_8_">
			<use xlink:href="#SVGID_7_"  style="overflow:visible;"/>
		</clipPath>
		<g style="clip-path:url(#SVGID_8_);">
			
				<image style="overflow:visible;" width="1200" height="675" xlink:href="netflix-1.jpg"  transform="matrix(0.9839 0 0 0.9839 -0.0703 37.0527)">
			</image>
		</g>
	</g>
</g>
<g id="Capa_2">
</g>
</svg>
