<?xml version="1.0" encoding="utf-8"?>
<!-- Generator: Adobe Illustrator 23.0.2, SVG Export Plug-In . SVG Version: 6.00 Build 0)  -->
<svg version="1.1" id="Layer_1" xmlns="http://www.w3.org/2000/svg" xmlns:xlink="http://www.w3.org/1999/xlink" x="0px" y="0px"
	 viewBox="0 0 425 194.16576" style="enable-background:new 0 0 425 194.16576;" xml:space="preserve">
<style type="text/css">
    @import url('https://fonts.googleapis.com/css?family=Roboto:300,400,700');
	.st0{fill:none;}
	.st1{font-family:'Roboto';font-weight: 300;}
	.st2{font-size:15px;}
	.st3{fill:none;stroke:#000000;stroke-linecap:round;stroke-linejoin:round;stroke-miterlimit:10;}
	.st4{fill:#62B5D7;stroke:#000000;stroke-linecap:round;stroke-linejoin:round;stroke-miterlimit:10;}
	.st5{fill:#FFFFFF;stroke:#000000;stroke-linecap:round;stroke-linejoin:round;stroke-miterlimit:10;}
	.st6{fill:none;stroke:#000000;stroke-width:0.35;stroke-linecap:round;stroke-linejoin:round;stroke-miterlimit:10;}
	.st7{fill:#62B5D7;}
	.st8{fill:none;stroke:#000000;stroke-width:0.5;stroke-miterlimit:10;}
</style>
<g>
	<g>
		<rect x="47.16084" y="28.18693" class="st0" width="85.05571" height="55.12422"/>
		<text transform="matrix(1 0 0 1 68.55874 39.43726)"><tspan x="0" y="0" class="st1 st2">Dorsal </tspan><tspan x="-13.1543" y="18" class="st1 st2">plates of a </tspan><tspan x="-20.33203" y="36" class="st1 st2">Stegosaurus</tspan></text>
	</g>
	<g>
		<rect x="308.5498" y="28.18693" class="st0" width="80.07362" height="55.12422"/>
		<text transform="matrix(1 0 0 1 313.34616 39.43726)"><tspan x="0" y="0" class="st1 st2">Long arms </tspan><tspan x="18.5957" y="18" class="st1 st2">of an </tspan><tspan x="0.13867" y="36" class="st1 st2">Iguanodon</tspan></text>
	</g>
	<g>
		<rect x="158.38013" y="116.75876" class="st0" width="124.14595" height="55.12422"/>
		<text transform="matrix(1 0 0 1 167.70094 128.00908)"><tspan x="0" y="0" class="st1 st2">Overall shape of </tspan><tspan x="-3.99902" y="18" class="st1 st2">an old model of a </tspan><tspan x="-8.51465" y="36" class="st1 st2">Tyrannosaurus rex</tspan></text>
	</g>
	<g>
		<path class="st3" d="M52.10607,119.81755c0,0-4.0932-1.6372-4.45691-2.0011"/>
		<path class="st4" d="M31.18567,130.18675c0,0-0.1373-0.0753-0.3504-0.20241c-0.7524-0.4491-2.4492-1.5446-2.3783-2.25349
			c0.0909-0.9096,0.9096-4.275,1.0005-4.5478c0.0909-0.273,3.0016,0.6366,3.2746,0.8186
			c0.2728,0.1819,2.91059-7.7315,2.91059-7.7315s3.3654,0,3.8202-0.1819s1.3644-6.3671,1.3644-6.3671l7.0947,0.4548
			c0,0-0.4548-2.2739-0.7277-3.7292c-0.2728-1.4553-0.6367-3.6383-0.2728-4.09309c0.3638-0.4548,4.0021-0.90971,5.1846-0.6368
			c1.1824,0.273,2.91059,1.4553,3.36539,1.2735c0.4548-0.1819,1.0915-2.3649,1.0915-2.9107s-0.4548-1.3644-0.7277-2.7287
			c-0.2729-1.3644-0.7277-2.8197,0.1819-2.8197c0.9097,0,11.5518,4.2749,11.5518,4.2749s2.3648-10.64201,2.72871-10.1872
			c0.3638,0.4548,7.3676,4.8207,7.7313,4.9118c0.3639,0.0909,4.0023-6.1853,4.2751-6.2762
			c0.2729-0.0909,6.9128,5.7304,7.0947,6.6399c0.182,0.9096,2.2739,4.8208,2.365,4.548c0.0909-0.2729,4.7297-8.2772,5.5484-7.4586
			c0.8186,0.8187,4.8207,8.0953,4.8207,8.0953s4.0931-5.0027,4.6389-4.09309c0.5458,0.9096,3.4565,7.7314,3.7293,8.73199
			c0.2729,1.0005,0.54569,3.8201,0.54569,4.093c0,0.273-0.8185,2.183-1.27329,2.5469c-0.1924,0.1538-0.954,1.1047-1.7691,2.151
			c-1.1123,1.4279-2.3241,3.0336-2.3241,3.0336l1.6373,2.2739l0.6366-1.2734c0,0,0.9957-3.3515,0.9096-4.1841
			c-0.086-0.8326,2.6378-1.2734,3.1836-1.6372c0.54571-0.3638,4.366-6.0942,4.8208-5.6394c0.4548,0.4548,2.001,5.5484,2.001,6.0032
			c0,0.4548,4.0931-0.7276,4.5479-0.7276c0.4548,0,0,3.1835-0.18191,4.184c-0.1819,1.0006-0.7277,4.4569-0.9096,5.0028
			c-0.1819,0.5457-5.4574,5.0026-5.4574,5.0026l3.9112,3.3655c0,0,1.1824-4.8208,1.1824-5.0937
			c0-0.2729,4.7298-4.8208,4.91171-4.5479c0.1819,0.2728,0.5458,3.2745,0.5458,3.2745l2.6378-0.6367
			c0,0-0.4548,2.9106-0.4548,3.6383s-4.4233,5.5938-4.4233,5.5938l4.02981,1.87941l0.12059-3.47101l2.4559-3.18359l0.3638,3.4565
			l1.81911-2.0012c0,0,0.2729,2.5469,0.2729,2.8198c0,0.2728-1.63721,4.09309-1.63721,4.09309l3.0006-0.7247
			c0,0,0.00101-2.36789,0.0919-2.73169c0.091-0.36391,0.81871-2.36491,1.0006-2.0921l0.7276,2.4559l-1.0914,2.81969l-0.8187,1.45541
			c0,0-19.0102,0.45479-19.374,0.45479c-0.3639,0-38.4752-19.37409-38.4752-19.37409l-38.2933,13.46169L31.18567,130.18675z"/>
		<path class="st5" d="M5.17167,130.00485c0,0,0.273,0,2.6378,0.3638c2.3649,0.36389,16.8272,2.2739,27.2874-2.72871
			c10.46021-5.00269,12.0974-5.6394,16.7363-8.2772c4.6389-2.63779,15.9176-10.18729,29.4704-9.3687
			c13.5528,0.8187,25.0135,5.9123,28.5608,8.3682c3.5474,2.4558,8.4591,6.549,10.5511,8.55
			c2.092,2.0011,8.0043,5.2755,11.00589,5.7303c3.0016,0.4548,5.00272,0.4548,7.09471,0.18201
			c2.0921-0.2729,4.8208,0.81859,7.4586,1.09149c2.63779,0.2729,4.5479,1.27341,4.45699,2.63771
			c-0.09099,1.3644-0.8187,1.00069-0.8187,1.00069s-0.18188,0.9095-2.092,1.2733c-1.9101,0.3638-1.9101,0-2.9106,0.8186
			c-1.00061,0.8186-3.36551,0.0909-4.6389,0.4548c-1.27339,0.3638-1.8192,0.90959-3.27451,1.1825
			c-1.45529,0.2729-2.0011,0.1819-2.72879,0.4548c-0.7276,0.2729-6.367,1.0005-8.82291,1.63721
			c-2.4558,0.63669-2.7287,1.00049-2.2739,1.7282c0.4548,0.7276,2.91061,4.7298,4.18401,5.6394
			c1.27349,0.9095,2.18299,1.27339,2.45589,2.72879c0.2729,1.45531,0.36382,2.00101,0.2729,3.09261
			c-0.091,1.0914-0.1819,2.00099,0.6367,2.91049c0.81859,0.90961,1.3644,1.18251,1.9101,2.183
			c0.54581,1.00061,1.1825,1.45531,0.72771,2.00121c-0.4548,0.5457-1.91011-0.5459-1.91011-0.5459s-1.0006,0.6368-1.8192,0.36391
			c-0.8186-0.27281-2.5468-1.1824-3.8202-1.72821c-1.2735-0.5457-2.365-1.09149-2.00109-1.7282
			c0.36379-0.6367,0.90959-1.3644,0.63669-2.274c-0.2729-0.9095-0.5458-1.7282-1.1825-2.0919
			c-0.6367-0.36389-3.4563-3.18359-4.4569-3.2746c-1.0006-0.0909-2.9106-1.5462-3.3654-2.36479
			c-0.4548-0.81871-1.7282-3.54741-1.7282-3.54741s-2.9107,0-3.6383,1.5462c-0.72771,1.5464-0.54591,3.8203-0.54591,4.8208
			s0.182,1.6373,0.0911,3.1835c-0.0911,1.5464-0.9097,2.4559,0.1819,3.36549c1.0914,0.90961,1.8191,1.45531,2.9107,2.0011
			c1.0914,0.54581,1.3643,0.7276,2.2739,1.45531c0.9096,0.72769,1.8191,1.45529,1.4553,1.7282c-0.3639,0.2728-1.9101,0.091-2.183,0
			c-0.2729-0.0909-1.4553-0.1819-2.3649-0.1819c-0.90961,0-1.5463,0.54581-2.8197,0.1819c-1.2735-0.3638-2.183,0-2.8197-0.72769
			c-0.6368-0.72771-0.6368-1.1824-0.8186-1.91c-0.1819-0.72771-2.54691-4.548-2.8197-6.09421
			c-0.2729-1.5464-1.2734-4.72989-1.2734-5.0027c0-0.27289-0.0909-1.4554-0.0909-1.4554s-5.2756-1.27339-7.1858-1.3644
			c-1.9101-0.0909-4.7298-0.18179-4.7298-0.18179s-0.4548,2.092-0.4548,3.72919c0,1.6373-0.3638,4.36601,0,5.73041
			c0.3638,1.3643,0.4548,2.092,1.6372,3.0016c1.1825,0.90959,1.09161,1.27339,2.6378,2.092c1.5464,0.8187,2.9107,2.183,2.9107,2.183
			l-3.6384-0.1819c0,0-1.2733,0.1819-1.9101,0.1819c-0.6366,0-3.0925,0.2728-4.0021-0.0909
			c-0.9096-0.3638-1.4553-1.09151-2.3649-2.72881c-0.9095-1.63719-1.1825-1.7282-1.0915-3.63829
			c0.0909-1.91011-0.8186-3.1835-1.4553-4.09311c-0.6368-0.90959-1.9101-2.81979-2.2739-4.09309
			c-0.3639-1.27341-0.7277-2.8197-0.7277-2.8197s-4.453,0.1535-5.6395-0.6367c-0.0909,0.0909-1.1823,2.6378-2.6377,3.45641
			c-1.4553,0.8186-3.3654,0.2728-3.4565,0.6367c-0.0909,0.3638-2.001,2.183-2.8196,3.09259
			c-0.8187,0.9095-2.001,1.27341-2.001,2.4559c0,1.1824-0.2729,1.6371,0.2728,2.9106c0.5457,1.27341,0.2729,1.72821,1.4553,2.6377
			c1.1825,0.90961,1.8192,1.18251,2.092,1.9102c0.2729,0.7276,0.2729,1.09151,0.2729,1.09151s-2.5468-0.5457-3.0016-0.6367
			c-0.4548-0.091-1.1825-0.8186-1.1825-0.8186s-0.1818,0.8186-0.9095,0.8186c-0.7276,0-2.63781-0.2729-3.54741-2.36501
			c-0.9096-2.092-1.6373-5.18459-1.4553-5.91219c0.1819-0.72771,1.1825-1.45541,1.7282-2.6378
			c0.5457-1.18251,1.7282-3.63831,1.7282-3.63831s0.2728,0.091,0.6367-1.1824c0.3638-1.2735,1.5463-2.91069,2.365-3.9113
			c0.8185-1.00049,1.3643-1.36429,1.7281-2.092c0.3638-0.7276,1.5463-1.27341,0.7277-1.9101
			c-0.8187-0.63681-1.0006-0.63681-2.0011-1.18251c-1.0006-0.5457-3.0016-4.09309-3.0016-4.09309s-33.3816,3.72929-46.1157-1.5463
			C0.80577,128.27655,5.17167,130.00485,5.17167,130.00485z"/>
		<path class="st5" d="M21.27137,131.82394c0,0-5.6395-9.00479-6.8219-13.1888c0.1819-0.3639,9.0915,12.0573,9.0915,12.0573
			S23.00757,132.66354,21.27137,131.82394z"/>
		<path class="st5" d="M24.22367,130.61156c0,0,0.7769-9.15681-0.4056-12.24931c0-0.1819,3.1834,5.6586,2.5922,11.925
			C26.27937,130.30945,24.22367,130.61156,24.22367,130.61156z"/>
		<path class="st5" d="M16.26857,130.64156c0,0,0.182,1.27339-0.9096,1.3644c-1.0914,0.0909-1.93,0.1796-2.001-0.4548
			s-4.6389-7.8224-4.8208-10.2782c-0.1819-2.4559,1.3644,1.6371,2.4558,3.3653
			C12.08457,126.36655,16.26857,130.64156,16.26857,130.64156z"/>
		<path class="st5" d="M17.35997,131.02844c0,0,2.1831-6.84489-0.1818-13.12099c0.3638,0.4548,2.2739,3.8203,2.3649,6.2761
			c0.091,2.4559-0.3556,6.81261-0.3556,6.81261L17.35997,131.02844z"/>
		<path class="st6" d="M62.55326,125.88845c0.1385,1.5891,1.2132,2.9407,2.3977,4.00919
			c1.1844,1.06851,2.5341,1.97421,3.5249,3.2243c0.7586,0.95711,1.27579,2.07809,1.89259,3.1321
			c2.31061,3.94881,6.03951,6.99141,7.9519,11.14761"/>
		<path class="st6" d="M72.53786,146.60275c-0.5593-0.4939-1.1186-0.98781-1.6779-1.4816
			c-0.2776-0.24501-0.55849-0.494-0.7614-0.8036c-0.2747-0.4189-0.3887-0.92101-0.6037-1.3735
			c-0.3681-0.7753-1.0467-1.3978-1.8507-1.69809c-0.3902-0.14571-0.8481-0.2485-1.0609-0.60661"/>
		<path class="st6" d="M63.76546,133.09705c0.1777,1.0159,1.0364,1.7523,1.8398,2.3987
			c1.39381,1.1212,2.78761,2.2426,4.1813,3.36391c0.3292,0.26489,0.6613,0.5325,0.9246,0.86301
			c0.5338,0.66969,0.7395,1.53339,0.99091,2.3521c0.66309,2.1588,2.01779,4.411,4.22929,4.86859"/>
		<path class="st6" d="M77.05647,146.65395c-0.1063,0.1476-0.3377,0.035-0.4715-0.088c-1.1408-1.048-2.0271-2.3709-2.5623-3.82449"
			/>
		<path class="st6" d="M58.68217,129.27435c0.0313,1.6418,0.8824,3.2478,2.2232,4.19569c0.5851,0.4136,1.327,0.7115,2.0125,0.5033"
			/>
		<path class="st6" d="M57.85456,130.98994c0.2059,0.4823,0.2071,1.0294,0.3849,1.52281
			c0.3644,1.01079,1.3795,1.61119,2.3212,2.12869c0.0015-0.09019,0.003-0.1805,0.0045-0.27071"/>
		<path class="st6" d="M60.28307,129.92024c0.413,0.58281,0.9031,1.11081,1.4537,1.5661
			c0.3866,0.31961,0.8079,0.60851,1.1152,1.00511c0.3074,0.3965,0.4857,0.93889,0.3031,1.40619"/>
		<path class="st6" d="M63.34367,131.75195c-0.4999-1.0874-1.0805-2.13771-1.7354-3.1393"/>
		<path class="st6" d="M101.70236,141.69965c0.1156-0.37239,0.2313-0.7448,0.3469-1.11729c0.1439-0.463,0.2936-0.9377,0.5934-1.319
			c0.25951-0.33,0.61501-0.5686,0.9643-0.8017c0.4662-0.31081,0.94011-0.62561,1.4735-0.79721
			c0.3044-0.0981,0.62189-0.14729,0.9378-0.1962c0.8355-0.1292,1.6865-0.25859,2.5223-0.13139
			c0.8357,0.1273,1.6691,0.5536,2.0787,1.2932c-0.0849-0.06261-0.195-0.0898-0.29919-0.0741"/>
		<path class="st6" d="M102.05707,143.14975c0.08459,0.03641,0.0578,0.179-0.026,0.2171c-0.0838,0.03819-0.182,0.0042-0.2641-0.0377
			c-0.59641-0.3042-0.9048-0.9819-1.04581-1.63629c-0.3165-1.4689,0.01611-3.06561,0.8926-4.2859
			c0.5811-0.80881,1.371-1.43871,2.07671-2.1414c0.7056-0.7028,1.354-1.5316,1.5265-2.51241"/>
		<path class="st6" d="M102.83527,132.72685c-0.9049,1.43559-1.8098,2.87109-2.7147,4.3067
			c-0.2981,0.4729-0.5996,0.9532-0.7616,1.48819c-0.1656,0.5471-0.178,1.12991-0.1306,1.69951
			c0.1415,1.6983,0.904,3.4482,2.3796,4.3009"/>
		<path class="st6" d="M93.53036,147.90395c0.4945-1.08659,0.6716-2.34619,0.3265-3.489c-0.5756-1.9066-2.4841-3.2448-2.8467-5.2032
			c-0.2244-1.2119,0.1295-2.65489-0.7203-3.54739"/>
		<path class="st6" d="M89.14816,147.50525c0.6189-2.1131,0.66691-4.3904,0.13791-6.5278
			c-0.2141-0.8652-0.52251-1.71899-0.5546-2.60989c-0.0233-0.64891,0.1016-1.297,0.0709-1.94571
			c-0.0688-1.45399-0.899-2.7486-1.3252-4.14049c-0.4017-1.3125-0.4417-2.70941-0.77209-4.0417
			c-0.32961-1.329-0.94051-2.27611-0.9323-3.7272c0.0088-1.5671,0.451-3.1354,1.2942-4.4589"/>
		<path class="st6" d="M86.11427,119.44135c-0.429,0.3938-0.6319,0.9748-0.7584,1.5432c-0.4481,2.0142-0.1076,4.1933,0.9338,5.9746"
			/>
		<path class="st6" d="M87.63866,131.99036c-0.2573-0.88771-0.4048-1.8069-0.4384-2.73041
			c-0.0529-1.4577,0.1769-2.9092,0.40581-4.3498c0.05789-0.3637,0.11569-0.7273,0.17349-1.091"/>
		<path class="st6" d="M88.63986,128.45654c-0.11549,1.7588-0.23079,3.51781-0.3461,5.27661"/>
		<path class="st6" d="M65.20837,137.55185c1.2868,1.08051,3.0992,1.6781,3.8158,3.198c0.3078,0.6528,0.37521,1.4212,0.80721,1.9994
			"/>
		<path class="st6" d="M66.34676,143.86755c0.5369,0.24379,0.9769,0.694,1.20831,1.2365c0.1806,0.4234,0.2353,0.8898,0.3904,1.3233
			c0.2675,0.7476,0.8442,1.3793,1.5645,1.7135"/>
		<path class="st6" d="M64.15517,147.55045c0.2641,1.2186,1.1618,2.28151,2.319,2.74591"/>
		<path class="st6" d="M63.30637,149.10165c0.465,0.82739,1.1345,1.53889,1.9321,2.05339
			c0.0729,0.04701,0.2239-0.0208,0.1465-0.0602"/>
		<path class="st6" d="M59.82516,159.28435c0.0131-0.0649,0.11691-0.0654,0.1573-0.01289
			c0.0404,0.0524,0.0364,0.12509,0.0344,0.1913c-0.0422,1.36639,1.4279,2.29689,1.8106,3.60939
			c0.02161,0.0735-0.0518,0.19281-0.0896,0.12621"/>
		<path class="st6" d="M88.12307,161.65515c0.20139-0.0446,0.4044,0.05389,0.5842,0.15489
			c1.209,0.67851,2.27769,1.60571,3.1199,2.70691"/>
		<path class="st6" d="M108.76876,163.42065c1.06461-0.0764,2.15431,0.3076,2.93591,1.03459"/>
		<path class="st6" d="M111.66707,162.26015c1.05849,0.3311,1.9694,1.10851,2.46269,2.10181
			c0.00481-0.0842,0.00951-0.16861,0.01431-0.25281"/>
		<path class="st6" d="M128.31937,160.21326c1.015,0.68469,1.83699,1.6521,2.3488,2.76419
			c0.0325,0.07071,0.06279,0.1575,0.01891,0.2218c-0.04391,0.06419-0.18091,0.0174-0.145-0.05161"/>
		<path class="st6" d="M124.63857,158.56184c0.8906,0.26611,1.8198,0.40291,2.7494,0.40471
			c0.44111,0.0009,0.97111-0.08701,1.1439-0.4929"/>
		<path class="st6" d="M124.79227,157.62814c0.9806,0.3806,2.0972,0.3988,3.0897,0.05051"/>
		<path class="st6" d="M127.05226,155.88725c-0.4523,0.1069-0.82529,0.4198-1.2513,0.60559
			c-0.6686,0.29201-1.4742,0.2482-2.1072-0.11449"/>
		<path class="st6" d="M113.33247,146.28764c0.8516-0.2191,1.6265-0.72549,2.1688-1.41769
			c0.1171-0.14951,0.2262-0.30969,0.3778-0.42419c0.1301-0.0981,0.2853-0.15761,0.442-0.2021
			c0.88689-0.25211,1.8295-0.05971,2.7496,0.0004c0.7547,0.0493,1.5153,0.0079,2.2601-0.1234
			c0.2433-0.04291,0.495-0.10001,0.6866-0.256c0.1917-0.1559,0.3017-0.43921,0.1872-0.65811"/>
		<path class="st6" d="M113.29996,138.74875c0.5314,0.93919,0.553,2.14771,0.0557,3.1053
			c-0.3629,0.6983-0.96301,1.23981-1.4251,1.8766c-0.3902,0.5378-0.6797,1.14059-0.967,1.73959"/>
		<path class="st6" d="M101.93017,150.74385c-0.2675-0.5831,0.02409-1.2782,0.43839-1.76781
			c0.6471-0.76459,1.6058-1.25729,2.6042-1.33829"/>
		<path class="st6" d="M104.03487,146.57095c-1.2607,0.1301-2.366,1.18849-2.5508,2.44229
			c-0.11381-0.687-0.2196-1.47839-0.0752-2.15959c0.3995-1.8856,0.7991-3.7713,1.1987-5.6568"/>
		<path class="st6" d="M117.07466,139.64415c0.3126,0.89169-0.0508,1.87669-0.5229,2.69521
			c-0.4721,0.8185-1.0676,1.5959-1.2698,2.51889"/>
		<path class="st6" d="M116.60616,143.92555c0.0815-0.20421,0.1092-0.4295,0.0794-0.6472
			c0.29781,0.0705,0.5792-0.1572,0.7827-0.3858c0.9317-1.0463,1.40701-2.4857,1.2814-3.8811"/>
		<path class="st6" d="M118.77107,143.09184c1.285-0.83939,2.15949-2.2789,2.31219-3.8062"/>
		<path class="st6" d="M139.06416,134.83025c0.5076,0.1091,1.07249,0.1526,1.5132-0.1219
			c0.1138-0.07089,0.2148-0.1606,0.3266-0.2347c0.5433-0.3596,1.3373-0.2753,1.7928,0.1907
			c0.19659,0.201,0.33391,0.502,0.2294,0.76309c-0.1335,0.33351-0.62509,0.41031-0.91209,0.19411s-0.37511-0.6236-0.30231-0.97549"
			/>
		<path class="st6" d="M147.06616,135.45215c0.4881,0.0009,0.9743,0.1712,1.3564,0.4749"/>
		<path class="st6" d="M139.52057,138.59094c0.70479-0.04269,1.418-0.0871,2.0909-0.30099c0.4054-0.129,0.7892-0.3176,1.188-0.4657
			c1.35899-0.5049,2.8427-0.5262,4.2925-0.54131c0.6346-0.0067,1.27859-0.01219,1.89189,0.151"/>
		<path class="st6" d="M138.96666,137.91365c0.12511-0.1123,0.196-0.28239,0.1875-0.45039
			c-0.03079,0.15169-0.06149,0.3033-0.0923,0.4549"/>
		<path class="st6" d="M138.76176,136.19235c0.1142,1.3676,0.0571,2.7495-0.1693,4.1031
			c-0.02541-0.0948-0.05081-0.18961-0.07611-0.28441"/>
		<path class="st6" d="M137.63956,137.03246c0.4422,1.11369,0.3844,2.41539-0.15459,3.48569
			c-0.0056,0.01111-0.01131,0.02231-0.01691,0.03351"/>
		<path class="st6" d="M136.42566,137.10535c0.1347,0.767,0.2084,1.5446,0.22031,2.3232
			c0.0094,0.61531-0.1062,1.36281-0.67641,1.59441"/>
		<path class="st6" d="M132.66826,139.19756c0.17291,0.7715-0.04599,1.6205-0.57039,2.21219"/>
		<path class="st6" d="M67.88786,98.35515c0.232,2.4322-0.4896,4.9427-1.9776,6.8806c-0.1414,0.1842-0.2935,0.3713-0.3488,0.5968
			c-0.16579,0.675,0.5612,1.2006,1.1748,1.527c1.632,0.8683,3.327,1.9767,3.9185,3.7282c0.0022-0.1826,0.0044-0.3653,0.00671-0.5479
			"/>
		<path class="st6" d="M78.30647,93.72325c0.1302,0.0224-0.0257-0.226-0.1076-0.1221c-0.0819,0.104,0.0105,0.2513,0.0994,0.3491
			c1.8969,2.0872,3.7936,4.1743,5.6905,6.2614c0.4425,0.487,0.9132,1.0474,0.8859,1.7048
			c-0.0123,0.295-0.12659,0.5749-0.2392,0.8478c-0.967,2.3437-1.9341,4.6876-2.9011,7.03139
			c-0.0078-0.2074-0.0157-0.4147-0.02351-0.62209"/>
		<path class="st6" d="M71.62737,91.92275c0.6168,2.5738,1.2337,5.1477,1.8506,7.72169c0.6918,2.88641,1.3853,5.7828,1.6972,8.7346
			c0.0336-0.1535,0.067-0.307,0.1004-0.4605"/>
		<path class="st6" d="M70.93816,97.74505c1.3087,3.8933,2.6192,7.7932,3.5676,11.7896c-0.008-0.1198-0.01611-0.2396-0.0241-0.35941
			"/>
		<path class="st6" d="M70.39947,101.53375c0.48389,1.46239,0.9697,2.9297,1.6368,4.3181
			c0.6594,1.3726,1.5099,2.7168,1.62901,4.23489c-0.0008-0.12189-0.0015-0.2437-0.00211-0.36559"/>
		<path class="st6" d="M68.83817,104.16655c-0.1152,0.1607-0.0248,0.3826,0.0676,0.5574
			c0.7612,1.44109,1.5224,2.88219,2.28371,4.32339c0.2682,0.5078,0.6269,1.0791,1.1988,1.1317"/>
		<path class="st6" d="M76.60177,109.80415c0.3418-2.6809,0.4991-5.38531,0.4702-8.08771"/>
		<path class="st6" d="M78.59997,98.98585c0.3479,3.7676,0.0673,7.5925-0.82671,11.2691c-0.008-0.1786-0.016-0.3572-0.0239-0.5358"
			/>
		<path class="st6" d="M75.03446,98.80455c0.3488,0.7516,0.39301,1.6037,0.4314,2.4315c0.0889,1.9192,0.1771,3.83839,0.2653,5.7577"
			/>
		<path class="st6" d="M80.47867,99.99725c-0.3219,3.20049-0.8422,6.3811-1.5567,9.5174c0.0359-0.1129,0.0716-0.2259,0.1075-0.3389"
			/>
		<path class="st6" d="M82.13167,101.98745c0.1263,0.3854,0.0331,0.8042-0.0621,1.1983c-0.5078,2.1009-1.056,4.1921-1.6439,6.272"/>
		<path class="st6" d="M91.87047,98.48505c-0.1319-0.1073-0.29961,0.0812-0.36681,0.2374c-0.8295,1.9297-2.0821,3.6764-3.6437,5.081
			c-0.2541,0.2285-0.535,0.48289-0.56779,0.823c-0.01421,0.1483,0.0219,0.2964,0.05769,0.441
			c0.4718,1.90359,0.9437,3.8072,1.4155,5.7109c0.0344,0.1391,0.2543,0.2757,0.2649,0.1328"/>
		<path class="st6" d="M102.27717,99.00815c1.8499,3.158,2.883,6.7899,2.9724,10.4487c-1.995,1.2159-3.8053,2.7342-5.3503,4.4868
			c-0.06119-0.2585-0.00549-0.5423,0.149-0.7584"/>
		<path class="st6" d="M111.55907,112.71095c-0.7035,1.9696-1.3917,3.9446-2.0644,5.925c0.0074-0.2922,0.1092-0.5812,0.2867-0.8134"
			/>
		<path class="st6" d="M118.53807,111.36005c-0.045,1.8058-0.09,3.6117-0.1349,5.4175c-0.0117,0.4691-0.0353,0.9731-0.3213,1.345
			c-0.2151,0.2797-0.5461,0.4397-0.86,0.6008c-1.128,0.5791-2.1859,1.2944-3.1435,2.1256c-0.0099-0.1619-0.0199-0.32381-0.03-0.4857
			"/>
		<path class="st6" d="M112.62107,119.84195c1.8271-2.4954,3.68689-5.0554,4.5686-8.02"/>
		<path class="st6" d="M116.29826,109.80425c-1.0444,3.1766-2.4335,6.2398-4.13519,9.1184"/>
		<path class="st6" d="M114.45436,110.79185c-1.0507,2.457-2.1479,4.8942-3.29079,7.3097"/>
		<path class="st6" d="M109.67166,114.99225c-0.2711,0.6392-0.4538,1.3159-0.5411,2.0048"/>
		<path class="st6" d="M118.84956,119.43905c-0.6963,0.9337-1.5418,1.756-2.49449,2.426"/>
		<path class="st6" d="M127.51546,120.98375c-0.4169,0.1924-0.4844,0.7462-0.4935,1.2052
			c-0.0244,1.2369-0.0489,2.4738-0.0734,3.7107c-0.4698,0.0225-0.8832,0.3017-1.2688,0.5711
			c-0.724,0.5057-1.4565,1.019-2.0302,1.6904c-0.0793,0.0927-0.18501,0.1987-0.3027,0.1665s-0.0555-0.27361,0.041-0.1989"/>
		<path class="st6" d="M123.30046,122.44305c-0.657,1.37611-1.0825,2.8623-1.2533,4.3777"/>
		<path class="st6" d="M124.43907,122.64865c-0.83021,1.5638-1.51891,3.2026-2.055,4.89"/>
		<path class="st6" d="M125.66956,123.80535c-0.896,1.3432-1.792,2.6863-2.688,4.0294"/>
		<path class="st6" d="M55.34167,103.06565c1.5617,0.8464,3.1427,1.6572,4.7412,2.4318c0.9831,0.47639,1.9968,0.946,3.0836,1.0583
			c-0.9997,2.1363-0.2556,4.724-1.0064,6.9598c-0.0279,0.0833-0.084,0.183-0.171,0.1711
			c-0.0871-0.0118-0.01321-0.1891,0.0309-0.1132"/>
		<path class="st6" d="M47.78347,110.37055c-0.0013-0.0769-0.123-0.0961-0.176-0.04031c-0.0531,0.0558-0.0543,0.1415-0.0529,0.21851
			c0.0411,2.2573-0.4088,4.49129-0.8569,6.70399c0.4591,0.2797,0.9637,0.48441,1.4877,0.6039"/>
		<path class="st6" d="M40.08657,116.00845c0.4163,0.409,0.9689,0.6432,1.5073,0.86819c1.1074,0.4628,2.2146,0.9254,3.322,1.3882
			c-0.1226,1.3228-0.2452,2.64571-0.3677,3.96851c-0.00809,0.087-0.0341,0.1952-0.1199,0.2118
			c-0.0857,0.0167-0.0923-0.17001-0.0167-0.12621"/>
		<path class="st6" d="M33.58317,123.74025c-0.0341-0.1511-0.2804-0.0065-0.272,0.1482c0.0139,0.2547,0.2527,0.4298,0.468,0.5667
			c1.1041,0.7022,2.2288,1.4136,3.4888,1.76611c-0.087-0.1031-0.174-0.20641-0.261-0.3095"/>
		<path class="st6" d="M34.56147,121.89645c0.9782,1.1313,2.0115,2.2149,3.0951,3.24551c0.1742,0.1657,0.384,0.34219,0.6227,0.3128
			c0.0004-0.1205,0.0008-0.2411,0.0011-0.3617"/>
		<path class="st6" d="M35.81837,119.63315c-0.0135,0.1601,0.0458,0.3165,0.1074,0.4649c0.561,1.35329,1.3892,2.5953,2.4229,3.6334
			c0.2041,0.2047,0.4662,0.4171,0.7489,0.35719c0.0006-0.0897,0.001-0.1793,0.00151-0.269"/>
		<path class="st6" d="M36.91587,117.84695c0.7711,1.9766,1.7406,3.8757,2.8893,5.6594c0.1546,0.24001,0.364,0.5061,0.6494,0.4946
			c0.0321-0.4098-0.0528-0.82809-0.242-1.19299"/>
		<path class="st6" d="M39.15567,117.73735c0.6624,1.9178,1.4189,3.8032,2.2658,5.647c0.0141-0.2491,0.0283-0.49799,0.0424-0.74699"
			/>
		<path class="st6" d="M42.20317,112.91845c0.9008,1.482,2.4577,2.4791,3.3392,3.9727"/>
		<path class="st6" d="M49.43447,110.48635c1.2019,1.1143,2.3463,2.2907,3.4268,3.52299c0.355,0.4047,0.7044,0.81731,0.9911,1.273
			c0.2253,0.3581,0.4107,0.7414,0.5516,1.1403"/>
		<path class="st6" d="M48.49957,113.39555c0.2929,0.4091,0.6916,0.7283,1.0849,1.0419c1.2365,0.986,2.4729,1.972,3.7093,2.958
			c0.1396,0.1114,0.295,0.284,0.215,0.4437"/>
		<path class="st6" d="M48.14437,115.76785c0.8872,0.6703,1.7744,1.3405,2.6616,2.01089c0.4909,0.3708,0.9899,0.7462,1.5627,0.97041
			c0.1245-0.0849,0.2026-0.2339,0.2014-0.38461"/>
		<path class="st6" d="M49.68047,106.28375c0.16261,0.40839,0.4573,0.74799,0.7494,1.0765
			c2.2549,2.5374,4.7168,5.0052,6.0637,8.12109c0.0231-0.1615,0.0462-0.323,0.0694-0.4846"/>
		<path class="st6" d="M52.01786,104.36065c2.2521,2.0101,3.9706,4.6126,4.9348,7.4732c0.42,1.2459,0.7186,2.5766,1.5297,3.6114"/>
		<path class="st6" d="M57.60167,106.51995c1.1323,2.4416,1.8528,5.0735,2.1223,7.7513c0.0378-0.1826,0.0756-0.3651,0.1134-0.5476"
			/>
		<path class="st6" d="M59.20726,100.07705c0.4042,1.2585,0.9385,2.4753,1.5915,3.6246c0.1659,0.2921,0.4274,0.6222,0.7569,0.5572"
			/>
		<path class="st6" d="M61.71807,98.72345c1.16449,4.2364,2.50439,8.4244,4.0152,12.5501"/>
		<path class="st6" d="M63.39457,107.37665c0.4066,1.6216,0.8816,3.2261,1.423,4.8079c0.00751-0.154,0.015-0.3081,0.0226-0.4621"/>
		<path class="st6" d="M66.23157,108.34965c0.2818,1.0569,0.6196,2.0989,1.01151,3.1201"/>
		<path class="st6" d="M63.71597,99.18115c0.5837,1.72559,1.1673,3.45129,1.751,5.1769"/>
		<path class="st6" d="M86.64657,95.61815c0.1312,3.2284,0.00169,6.4672-0.3871,9.6747c-0.1857,1.53291-0.431,3.0779-0.2704,4.6138
			c-0.2912-0.0569-0.5932-0.0569-0.8844-0.0001c0.04169-1.9415,0.0832-3.883,0.1249-5.82439"/>
		<path class="st6" d="M85.05476,95.25845c0.0316,1.4856,0.0632,2.9713,0.0948,4.45679"/>
		<path class="st6" d="M82.29857,92.44015c0.335,2.0008,0.67,4.0016,1.0049,6.0025"/>
		<path class="st6" d="M93.26196,99.72175c0.53011,4.1939,0.4504,8.4644-0.2358,12.6355c0.0036-0.1813,0.0073-0.36269,0.011-0.5441"
			/>
		<path class="st6" d="M90.67267,102.80775c0.1981,2.38821,0.39629,4.7765,0.5945,7.1648c0.0408,0.4923,0.0817,0.9846,0.1225,1.4768
			"/>
		<path class="st6" d="M94.97697,112.43145c1.4989-4.9575,2.4135-10.0912,2.7191-15.2613"/>
		<path class="st6" d="M96.12237,99.35195c-0.00301,2.4468-0.1312,4.8935-0.38361,7.3273
			c-0.07899,0.7613-0.17509,1.53899-0.5158,2.2244"/>
		<path class="st6" d="M99.35557,99.98825c-0.0379,4.303-0.8486,8.598-2.38181,12.6187"/>
		<path class="st6" d="M98.41146,112.99945c1.2999-2.6904,2.357-5.4982,3.15411-8.3779"/>
		<path class="st6" d="M103.35976,104.90585c-0.2599,2.0956-1.0564,4.1225-2.2931,5.8342"/>
		<path class="st6" d="M106.68107,101.98985c-0.1743,0.9413-0.3485,1.8826-0.5228,2.824"/>
		<path class="st6" d="M108.78556,104.76455c-1.1097,2.3387-2.2717,4.6525-3.4851,6.9392c-0.4721,0.8899-0.98499,1.8124-1.828,2.364
			"/>
		<path class="st6" d="M104.20917,110.89525c-0.5961,1.1273-1.1922,2.2545-1.78851,3.3817"/>
		<path class="st6" d="M121.95866,115.26825c-0.6804,1.5679-1.4067,3.116-2.1774,4.6415"/>
	</g>
	<g>
		<path class="st4" d="M171.66754,32.53756c-0.01469-0.176-0.8362-1.5249-0.29889-2.8692
			c0.53729-1.3443,1.6026-2.7328,2.3308-3.2071c0.7282-0.4743,1.3587-0.7042,2.0723-0.6457
			c0.7137,0.0584,1.9651,0.1902,2.38051,0.2144c0.4155,0.0244,2.08229,0.1804,2.7325,0.1851
			c0.64999,0.0048,0.80159,0.4055,1.7742,0.0289c0.9726-0.3766,1.5836-0.8411,2.214-1.071
			c0.6306-0.2298,2.15579,0.3514,2.84009,0.7667c0.68451,0.4153,1.18311,0.7281,1.7697,0.679
			c0.5865-0.049,1.99931,0.6007,2.8159,1.891c0.8166,1.2901,0.8947,0.8112,1.5107,1.114c0.616,0.303,1.1145,0.6156,1.40311,1.2412
			c0.2885,0.6256,0.4843,1.5543,0.4111,2.092c-0.07321,0.5376,0.80229,2.5318,1.93649,3.3819
			c1.1342,0.8503,5.0255,2.8876,6.30141,3.3125c1.27589,0.425,1.7502,1.1531,2.5372,1.3827
			c0.787,0.2295,0.88969,0.0438,1.7939,0.2636c0.9043,0.2196,2.49779,0.2046,5.3187,2.1541
			c2.8208,1.9497,5.37761,3.5669,6.7075,4.6371c1.3297,1.0701,1.6133,1.6371,2.90889,2.2966
			c1.29541,0.6595,3.0162,1.4608,4.11111,1.8417c1.09509,0.381,4.33159,3.0638,5.9697,5.7028
			c1.63809,2.6391,1.31589,4.438,3.2325,6.1678c1.9165,1.7299,3.9361,5.4003,4.42549,7.7219
			c0.48941,2.3217,0.69,3.309,1.2527,5.8017c0.56281,2.4927,0.6904,4.7266,1.57591,7.5467
			c0.88528,2.8201,2.29428,7.6637,3.14519,9.3646c0.85101,1.7007,2.51871,5.4004,5.81821,6.0106
			c3.2995,0.61021,6.99438-1.1161,7.2243-0.48569c0.22989,0.6306-3.7579,3.7989-8.23041,3.9955
			c-4.4724,0.1967-12.14301-5.3639-16.79379-15.0751c-4.65091-9.7113-7.9991-9.49049-7.9991-9.49049s-0.3614,1.3297,0.09329,1.8232
			s2.4492,1.0356,3.3976,1.7833c0.94841,0.7476,2.13651,1.5343,2.6452,3.3818c0.5089,1.8475,0.49431,2.3803,1.4088,4.1349
			c0.9144,1.75449,1.8629,2.5022,2.435,2.9859c0.57201,0.4838,1.1145,0.61559,1.1344,1.5589
			c0.01971,0.9435,0.1174,0.699-0.29279,2.15089c-0.4102,1.45181-0.56641,2.4099-0.49271,3.99841
			c0.0737,1.5886,0.4014,2.6834,0.12309,3.5927c-0.2784,0.9092-1.08469,1.8626-1.0992,2.3953
			c-0.0146,0.5328,0.2397,0.7479-0.34189,0.8555c-0.58171,0.1077-2.33151,0.3721-2.79591,0.4699
			c-0.46429,0.0979-0.92879-0.5129-0.92879-0.5129s-1.52991,0.0688-2.23381,0.1276c-0.7038,0.0588-1.36859-0.1218-1.63741,0.196
			c-0.26869,0.3177-1.45158,0.2984-1.45158,0.2984l0.0143-1.2415c0,0-2.07251-0.063-2.44881,0.3819s0.8255-2.1363,1.9155-2.5227
			c1.0899-0.3864,2.68831-0.3428,3.42131-0.7584c0.7332-0.4157,2.2775-1.7261,2.59959-3.5249
			c0.3222-1.7989,0.2681-3.1529,0.1653-3.6758c-0.1028-0.523,0.03391-1.007,0.04851-1.5397
			c0.0145-0.5329-0.45491-1.2024-0.94861-1.4565c-0.49379-0.25401-10.0421-8.49281-10.97079-9.0058
			c-0.92889-0.5129-1.32971-0.36131-1.5549-1.64191c-0.2252-1.28059-1.0029-3.5191-1.3159-4.438
			c-0.3131-0.9188-0.66541-2.3069-0.73869-2.478c-0.07341-0.1711-2.02821,1.17361-3.69,1.7851
			c-1.6618,0.6114-3.48,0.7634-3.8318,1.5015c-0.3517,0.7382-0.7619,2.18999,0.1524,3.23579
			c0.91418,1.04581,1.4167,2.2442,1.30589,3.6119c-0.1107,1.36781-0.11171,2.9035-0.36549,4.106
			c-0.25391,1.2025-0.43941,2.5173-0.23871,3.5047c0.2007,0.9873,0.28891,2.0431,0.48471,2.9718
			c0.19569,0.9286-0.01422,1.9503-0.3954,2.3365c-0.3811,0.3862-0.87471,0.8409-0.96761,1.144
			c-0.0927,0.3031,0.00031,0.7088-0.03369,1.7157c-0.03401,1.0069-0.0144,1.2416-0.49321,1.8722
			c-0.4789,0.6307-1.07019,1.3298-1.07019,1.3298l-0.46512-3.4459c0,0-0.33739-0.5033-1.35858,1.41299
			c-1.0211,1.91631-0.6105,1.882-1.13831,2.6348c-0.52769,0.7529-3.2795,1.042-4.28641,1.0081
			c-1.0069-0.034-4.30139,0.1232-4.30139,0.1232s-1.3295,0.3474-1.97461,0.4013c-0.64529,0.054-1.35399,0.0541-1.35399,0.0541
			l0.7916-1.1292l-2.24831,0.6603c0,0,0.55211-1.1683,1.14331-1.8674c0.5912-0.6992,1.554-1.1931,2.61479-1.2226
			c1.0607-0.0297,2.83989,0.0579,3.4557-0.348c0.61571-0.4058,1.73981-1.0904,2.7368-1.8825
			c0.9969-0.7921,1.3049-0.6407,1.9939-1.5843c0.689-0.9434,1.04561-1.623,1.04561-1.623
			c0.5275-1.46159,0.3907-0.9776,0.5078-2.4049c0.1169-1.4274,0.44429-1.7501-0.896-5.7726
			c-1.3403-4.0224-2.0056-6.3294-2.07431-7.1506c-0.0686-0.8211,0.3078-0.55721-0.0052-1.47601
			c-0.3131-0.919-0.8264-1.40759-0.80719-2.5905c0.0192-1.1829,0.71309-2.06779,1.27499-3.1188
			c0.5619-1.0511,1.7784-3.4563,2.6041-4.8838c0.8257-1.42751,2.3011-4.2677,2.3011-4.2677s-5.48999-3.4985-7.3235-5.6488
			c-1.83359-2.1502-2.4839-2.8636-3.0656-3.4647c-0.5818-0.6011-2.27339-1.7591-2.27339-1.7591s-0.4592,0.8652-1.0603,1.447
			c-0.601,0.5819-3.35809,0.1036-3.89571,0.0303c-0.53769-0.0731-1.80859-0.4394-2.50769-0.3219
			c-0.6989,0.1175-0.70381,0.0588-1.40741,0.8264c-0.70369,0.7676-1.12399,1.3933-1.12399,1.3933l-0.313-0.9188
			c0,0-0.8551,1.0756-0.7233,0.5329c0.1319-0.5426,0.6694-1.1781,1.1433-1.8674c0.474-0.6894,0.5619-1.0511,1.4758-1.4228
			c0.91411-0.3717,1.3295-0.3474,1.8085-0.2692c0.4791,0.078,1.0705,0.0876,1.0705,0.0876s1.2464,0.073,1.9503,0.0142
			s1.00681-0.6748,0.68901-0.9436c-0.31781-0.2687-0.7431-0.4103-0.9093-0.2783c-0.16611,0.132-0.5424,0.5769-0.5424,0.5769
			s-0.00011-0.7088-0.1712-0.6354c-0.1711,0.0733-0.78189,0.5378-0.94809,0.6699c-0.16621,0.132-0.58661,0.0491-0.12231-0.7576
			c0.46411-0.8067,0.71811-1.3003,1.22151-1.6377c0.5033-0.3374,0.4935-0.4548,0.8504-0.4256
			c0.35689,0.0293,0.8358,0.1074,0.8358,0.1074s0.2883-0.792,0.42499-1.2759c0.1367-0.4839,0.4397-1.0999,0.30281-1.3247
			c-0.1369-0.2248-2.8262-3.4258-3.54021-4.9017c-0.71391-1.4761-1.13451-2.2678-1.8286-2.0917
			c-0.694,0.1762-1.79401-0.2635-2.74699,0.3477c-0.953,0.6113-1.2364,0.7531-1.955,0.636
			c-0.7186-0.1172-1.6376-0.5128-1.7794-0.7963c-0.1418-0.2834-1.32471-0.3027-1.72549-0.1511
			c-0.40071,0.1516-2.41951,0.025-3.20671-0.9132c-0.7872-0.9383-1.22249-1.906-1.203-2.3802
			c0.01941-0.4741,0.1071-1.5446,0.49829-1.1048c0.39111,0.4398,0.92392,0.4544,0.92392,0.4544s-0.46471-1.3197,0.02908-1.0657
			c0.49382,0.2541,0.95341,0.8063,1.05591,0.6205c0.1026-0.1856-0.2838-1.2756,0.27841-0.9091
			c0.56229,0.3664,0.81149,0.5228,0.81149,0.5228s-0.274-1.1584,0.034-1.007c0.308,0.1515,0.4938,0.254,0.7431,0.4104
			c0.2493,0.1564-0.1273-0.8162,0.2197-0.9043c0.34711-0.088,0.4106-0.0343,0.6698,0.2393c0.259,0.2737,0.4837-0.572,0.4837-0.572
			s-0.5573-0.3078-1.04131-0.4445c-0.48389-0.1367-0.56699-0.4251-0.76259-0.645c-0.1956-0.22-0.8165-0.5815-0.84081-0.166
			c-0.02441,0.4154-0.90421,0.489-0.93359,0.1371c-0.0294-0.352-0.25911-0.2737-0.53282-0.0146
			c-0.27359,0.2592-0.68408,1.0023-0.80148,0.3033c-0.11751-0.6989-0.47452-1.4369-0.5428-0.8406
			c-0.0683,0.5964-0.3712,1.2124-0.46899,0.748c-0.0979-0.4644-0.3815-1.0313-0.3815-1.0313l-0.7626,0.0637l-0.30321-0.8015
			c0,0-0.4691,0.748-0.48869,0.5134c-0.01971-0.2347-0.22031-1.222-0.22031-1.222l-0.3566,0.6796L171.66754,32.53756z"/>
		<path class="st6" d="M176.40155,39.73286c1.1877-0.2506,2.33701-0.6821,3.39619-1.2751
			c0.86911-0.4865,1.6842-1.084,2.61681-1.4339c0.66679-0.2502,1.388-0.3712,2.00459-0.728
			c0.595-0.3443,1.05951-0.8904,1.67461-1.1977c0.86459-0.432,2.0262-0.406,2.5883-1.1922
			c0.0416-0.0582,0.08009-0.1262,0.07069-0.1971c-0.0217-0.1627-0.24541-0.1882-0.4081-0.1663
			c-0.8773,0.1181-1.75081,0.3516-2.63361,0.2875c-1.39259-0.1013-2.6599-0.9329-4.0549-0.9934
			c-1.1796-0.051-2.4037,0.451-3.5125,0.0453c-0.4749-0.1739-0.8755-0.4995-1.304-0.7682
			c-0.8226-0.5158-1.7715-0.8285-2.73959-0.9027c-0.826-0.0635-1.81931,0.1574-2.1221,0.9286
			c-0.11162,0.2838-0.0385,0.6983,0.2608,0.7566"/>
		<path class="st6" d="M173.15155,31.88316c-0.12849,0.4156,0.1396,0.9105,0.55789,1.0299
			c0.11641-0.2922,0.24751-0.5784,0.39261-0.8574"/>
		<path class="st6" d="M174.25066,32.20646c-0.05391,0.3595,0.04739,0.7397,0.27289,1.0248
			c0.2737-0.3115,0.49451-0.6692,0.6506-1.0533c-0.02969,0.4415,0.1416,0.8926,0.45689,1.2031
			c0.28481-0.3096,0.47861-0.702,0.5513-1.1164c0.08621,0.3818,0.17241,0.7637,0.25861,1.1455
			c0.04291,0.1896,0.19189,0.4341,0.364,0.3438c0.0645-0.0339,0.0974-0.1061,0.12581-0.1732
			c0.10539-0.2489,0.21069-0.498,0.31609-0.7469c-0.01279,0.4854,0.0345,1.0766,0.46991,1.2913
			c0.0974-0.2915,0.1947-0.583,0.29219-0.8745c0.04431,0.4833,0.21011,0.9549,0.4781,1.3595
			c0.2542-0.2903,0.3802-0.6892,0.33881-1.073c0.2057,0.2777,0.09419,0.785,0.4173,0.9073
			c0.19749,0.0747,0.42039-0.0888,0.48819-0.2888c0.06801-0.1999,0.02512-0.4185-0.01839-0.6251
			c0.0143,0.3876,0.2523,0.7588,0.59839,0.9337c0.15511-0.3176,0.23801-0.6703,0.2404-1.0239
			c0.15831,0.2115,0.31659,0.423,0.4749,0.6345c0.1945-0.137,0.33421-0.3497,0.38269-0.5825
			c0.08252,0.1735,0.16492,0.3472,0.24742,0.5207c0.1299-0.1506,0.25989-0.3012,0.3898-0.4519
			c-0.04631,0.2218,0.15979,0.4583,0.38579,0.4428c0.226-0.0156,0.39771-0.2781,0.32141-0.4914
			c0.04259,0.3252,0.1425,0.6428,0.2939,0.9339c0.2298-0.1896,0.42949-0.4157,0.58919-0.6673
			c0.08191,0.2945,0.1638,0.5891,0.24571,0.8836c0.22589-0.1159,0.39578-0.336,0.45059-0.584
			c-0.0262,0.3318,0.1501,0.6715,0.4364,0.8413c0.01201-0.1377,0.07561-0.2703,0.17551-0.3657
			c0.05809,0.1388,0.11629,0.2777,0.1745,0.4165c0.17929-0.2777,0.25699-0.6196,0.2151-0.9475"/>
		<path class="st6" d="M180.40656,37.89426c0.04039-0.5258,0.3196-1.0286,0.74469-1.3408c0.10361,0.2754,0.2386,0.539,0.4016,0.7841
			c-0.04109-0.3513,0.02681-0.7145,0.1918-1.0274c0.0334-0.0634,0.0793-0.1308,0.1499-0.1429
			c0.1134-0.0196,0.1902,0.1089,0.23199,0.216c0.0829,0.2121,0.1656,0.4244,0.24841,0.6365
			c-0.06441-0.3608-0.02121-0.74,0.12259-1.0771c0.03111-0.073,0.08861-0.1562,0.16679-0.1432
			c0.05022,0.0082,0.08411,0.0539,0.11252,0.096c0.17039,0.2518,0.34079,0.5036,0.51109,0.7554
			c-0.0713-0.4188-0.0472-0.8536,0.0697-1.2621c0.35339,0.0248,0.5162,0.4431,0.59769,0.788
			c-0.03468-0.378,0.05731-0.7666,0.258-1.0888c0.14601-0.0234,0.24942,0.138,0.29552,0.2785
			c0.0461,0.1406,0.1002,0.3096,0.2433,0.3469c-0.00171-0.0709,0.09999-0.156,0.1064-0.0854"/>
		<path class="st6" d="M174.51495,27.25726c-0.39311,0.3838-0.75031,0.8045-1.06551,1.2545
			c-0.11079,0.1582-0.21111,0.3908-0.0719,0.5247"/>
		<path class="st6" d="M183.73474,28.18205c0.33351-0.6172,0.81071-1.1561,1.38301-1.562
			c0.22189-0.1573,0.4724-0.2992,0.7444-0.3008c0.2804-0.0017,0.5405,0.1467,0.7576,0.3239
			c0.41389,0.338,0.72569,0.7993,0.8851,1.3093c0.1088,0.3483,0.13449,0.7643-0.1002,1.0437
			c-0.11211,0.1335-0.2704,0.2188-0.42799,0.293c-0.23451,0.1102-0.47711,0.2031-0.72511,0.2776
			c-0.1738,0.0523-0.35599,0.0958-0.5354,0.0688c-0.1794-0.0269-0.3566-0.1392-0.41109-0.3123"/>
		<path class="st6" d="M184.43605,28.21556c0.60069-0.413,1.3969-0.5269,2.0892-0.2989c0.02699,0.22,0.0239,0.4436-0.009,0.6627"/>
		<path class="st6" d="M185.03944,27.75886c0.0013-0.3274,0.34311-0.6084,0.66451-0.5466
			c-0.0264,0.1921,0.0097,0.3924,0.1013,0.5634"/>
		<path class="st6" d="M184.12155,28.42126c0.00859,0.3667,0.0202,0.7464,0.17979,1.0768
			c0.15941,0.3304,0.5103,0.5983,0.8726,0.5407"/>
		<path class="st6" d="M184.23055,30.10666c0.23801,0.1574,0.50751,0.2665,0.7878,0.3189
			c0.66241,0.124,1.34041-0.069,1.97591-0.2932c0.54709-0.193,1.1256-0.4444,1.414-0.9477
			c0.2905-0.5069,0.2119-1.1357,0.1245-1.7134"/>
		<path class="st6" d="M189.22285,30.05676c-0.5899,1.2065-1.9929,1.9595-3.32451,1.7844"/>
		<path class="st6" d="M180.50665,42.81065c1.03099,0.1252,2.05319-0.2846,2.95668-0.7967
			c0.90352-0.5121,1.75092-1.1377,2.72-1.5111c0.50772-0.1957,1.04152-0.3189,1.54512-0.5247
			c0.7735-0.3162,1.46629-0.828,1.9957-1.4746c0.3214-0.3924,0.5939-0.8862,0.5011-1.3848"/>
		<path class="st6" d="M185.68095,37.34615c-0.7444,0.5566-1.49471,1.1128-2.31841,1.5436
			c-0.82359,0.4305-1.7301,0.734-2.65939,0.7495"/>
		<path class="st6" d="M188.51955,37.92445c0.17351,0.6716-0.0605,1.432-0.5818,1.8898c-0.06-0.0348-0.09399-0.1096-0.0806-0.1776"
			/>
		<path class="st6" d="M189.15225,37.49355c0.12129,0.3472,0.15599,0.7243,0.09979,1.0877
			c-0.03859,0.2498-0.1821,0.5421-0.43489,0.5402"/>
		<path class="st6" d="M190.98744,32.65245c0.35281-0.0634,0.68001-0.2597,0.90221-0.541
			c0.09869-0.1248,0.1769-0.2652,0.2814-0.3854c0.34439-0.3966,0.97659-0.5059,1.4342-0.2482"/>
		<path class="st6" d="M195.09734,31.58586c0.96552,1.1559,0.33711,2.7745-0.83879,3.4815"/>
		<path class="st6" d="M195.05734,32.81585c-0.50879,1.3278-1.68089,2.3819-3.0551,2.7476"/>
		<path class="st6" d="M194.62334,37.00766c-0.291,0.6829-0.6545,1.3453-1.1666,1.8826
			c-0.45949,0.4821-1.0239,0.8491-1.58269,1.2114c-0.12941,0.0839-0.25861,0.1677-0.388,0.2516
			c-0.67821,0.4397-1.3793,0.9026-1.79872,1.5936"/>
		<path class="st6" d="M191.51855,41.54335c0.4166-0.2855,0.83319-0.5708,1.24979-0.8563
			c1.1734-0.8042,2.41911-1.7008,2.87181-3.0494"/>
		<path class="st6" d="M196.21915,37.32925c0.20041,0.8676,0.1088,1.8001-0.25681,2.612
			c-0.36549,0.812-1.0029,1.4989-1.78529,1.9239"/>
		<path class="st6" d="M197.37825,39.89655c-0.1188,1.1048-0.617,2.1653-1.39149,2.962"/>
		<path class="st6" d="M197.21385,47.53925c-0.8132,2.0419-0.64052,4.3209-0.84601,6.5091
			c-0.02159,0.2285-0.0636,0.4854-0.25229,0.6158c-0.2341,0.1618-0.5549,0.0392-0.79701-0.1103
			c-0.6337-0.391-1.17299-0.9508-1.87329-1.2044c-0.57021-0.2066-1.2905-0.2488-1.5948-0.7735"/>
		<path class="st6" d="M192.05365,55.11655c0.4622,0.1706,0.9245,0.3413,1.38669,0.512c1.38991,0.5131,2.793,1.0328,4.03461,1.8412
			c0.5448,0.3546,1.13,0.7829,1.77391,0.6928c0.54909-0.077,0.98299-0.5312,1.20729-1.0384
			c0.2243-0.5071,0.28011-1.0694,0.36281-1.6178c0.17119-1.1356,0.47238-2.2605,0.99699-3.2822
			c0.28419-0.5538,0.63361-1.0772,0.8512-1.6604c0.48511-1.2999,0.2327-2.8479-0.64009-3.9263"/>
		<path class="st6" d="M203.15164,47.62856c0.38681,0.8009,0.2014,1.7481-0.0047,2.6133
			c-0.1315,0.5522-0.27319,1.1146-0.58179,1.5909c-0.3087,0.4764-0.81882,0.8591-1.38641,0.8655"/>
		<path class="st6" d="M204.02734,49.44255c0.0847,0.3775-0.0217,0.7701-0.1451,1.1368c-0.23039,0.6853-0.5291,1.3591-0.992,1.9144
			c-0.46269,0.5554-1.1064,0.9856-1.82329,1.0781"/>
		<path class="st6" d="M198.50204,42.27285c-0.43309,1.2502-1.41989,2.2971-2.6423,2.8034"/>
		<path class="st6" d="M198.32704,44.24086c-0.3293,0.62-0.8703,1.1249-1.51149,1.4108"/>
		<path class="st6" d="M200.14384,41.14355c0.07671,0.4812,0.01831,0.9832-0.1669,1.434"/>
		<path class="st6" d="M202.84595,42.77475c0.8933-0.9123,2.1881-1.4163,3.4631-1.348"/>
		<path class="st6" d="M203.09685,41.87856c0.43449-0.2858,0.8726-0.5735,1.35429-0.7694
			c0.48181-0.1959,1.01611-0.2961,1.52571-0.1924"/>
		<path class="st6" d="M203.87933,40.81585c0.18831-0.3022,0.60991-0.4326,0.93591-0.2895"/>
		<path class="st6" d="M207.74075,67.53786c0.69089,0.2573,1.3817,0.5146,2.07269,0.7719
			c0.36951,0.1376,0.7437,0.2776,1.0658,0.5049c1.80101,1.27061,1.11551,4.4282,2.82851,5.8151
			c0.67999,0.5507,1.4442,0.5101,2.2258,0.7593c0.67509,0.2155,0.81821,0.6696,1.2059,1.2293"/>
		<path class="st6" d="M216.89584,75.75876c-0.414-1.7637-0.82809-3.52731-1.2421-5.2909
			c-0.1162-0.4953-0.23341-0.9934-0.43381-1.4609c-0.65289-1.5233-2.12389-2.5853-2.75099-4.1194"/>
		<path class="st6" d="M215.15915,68.56075c-0.31509-0.9686-1.02051-1.6707-1.1875-2.7359
			c-0.0988-0.6307-0.06531-1.2798-0.2056-1.9026"/>
		<path class="st6" d="M215.30664,69.05985c-0.47159-2.2344-0.4695-4.5676,0.0063-6.8011"/>
		<path class="st6" d="M216.10484,65.50945c-0.14189-0.3325-0.07451-0.7129,0.0009-1.0664
			c0.435-2.0444,1.04851-4.1898,0.4021-6.1775"/>
		<path class="st6" d="M217.51814,58.17825c0.09961,1.1926,0.19931,2.3852,0.29901,3.5779"/>
		<path class="st6" d="M220.18715,61.80946c1.0583,4.3939,1.4637,8.9724,0.881,13.4542c-0.14529,1.117-0.3515,2.2475-0.18759,3.3619
			c0.0694,0.47269,0.2054,0.9439,0.16199,1.4197c-0.04359,0.4758-0.3293,0.97559-0.79669,1.0748"/>
		<path class="st6" d="M219.24594,79.47045c0.1949,0.3829,0.487,0.7159,0.8412,0.95901
			c0.10701,0.07349,0.22911,0.1413,0.35861,0.131c0.12939-0.0103,0.25589-0.1328,0.22369-0.2585"/>
		<path class="st6" d="M219.61455,78.96896c0.2309,0.4436,0.65089,0.7848,1.13251,0.9199
			c-0.00572-0.0812-0.01131-0.1623-0.01711-0.2434"/>
		<path class="st6" d="M220.01614,78.42635c0.1676,0.146,0.3353,0.2921,0.5029,0.4382"/>
		<path class="st6" d="M219.34555,81.83105c-0.00211,0.8189,0.32649,1.6337,0.89619,2.2218
			c0.32291,0.3335,0.82001,0.605,1.2372,0.4014c0.13101-0.064,0.23981-0.1698,0.3766-0.2201
			c0.1992-0.0732,0.4277-0.0144,0.6051,0.1022c0.17731,0.1165,0.31351,0.2846,0.44659,0.4498"/>
		<path class="st6" d="M220.10175,82.53526c-0.03889,0.6562,0.3109,1.321,0.8739,1.6604c0.0406-0.0504,0.08121-0.1007,0.1219-0.1511
			"/>
		<path class="st6" d="M221.49844,83.18385c0.18811,0.3013,0.33989,0.62531,0.45131,0.9625"/>
		<path class="st6" d="M224.89015,82.33166c-0.4006-0.6506-0.50951-1.4474-0.4474-2.2089
			c0.06219-0.76151,0.2838-1.4997,0.5042-2.2313"/>
		<path class="st6" d="M225.44995,79.10455c0.1407-0.6249,0.28139-1.2499,0.42209-1.8749
			c0.149-0.6615,0.29871-1.3302,0.29321-2.0083c-0.00551-0.675-0.16431-1.3377-0.29161-2.0005
			c-0.4142-2.1579-0.4971-4.3791-0.24489-6.5618"/>
		<path class="st6" d="M225.78714,71.60806c0.1519-1.7397,1.3515-3.2745,1.41211-5.0198
			c0.0369-1.0639-0.35699-2.1275-0.18561-3.1783c0.0663-0.4063,0.21541-0.7942,0.3114-1.1946
			c0.29361-1.2247,0.0632-2.5658-0.62239-3.6222"/>
		<path class="st6" d="M226.94014,79.06946c-0.11809-1.3825,0.62581-2.6693,1.22771-3.9196
			c1.24071-2.5773,1.9606-5.40421,2.10361-8.2611c0.01959-0.3929,0.02969-0.7933,0.15689-1.1656
			c0.08231-0.24129,0.2115-0.46329,0.3271-0.6905c0.95509-1.8782,0.9514-4.2139-0.00951-6.0892"/>
		<path class="st6" d="M208.02934,82.76105c-0.16501-0.5176-0.33189-1.061-0.2341-1.5954c0.0807-0.44151,0.3354-0.831,0.617-1.1804
			c0.1917-0.2379,0.40221-0.4666,0.66209-0.6273c0.89021-0.5506,2.1315-0.1876,3.019-0.7424"/>
		<path class="st6" d="M202.13844,80.37096c-0.00259,0.4751,0.11031,0.9503,0.32651,1.3733
			c0.08389,0.1642,0.18829,0.3259,0.3446,0.4236c0.11589,0.0725,0.25369,0.1055,0.36659,0.1824
			c0.2621,0.17879,0.3197,0.5327,0.377,0.8447c0.2626,1.4255,1.0051,2.7581,2.0791,3.7315"/>
		<path class="st6" d="M208.96115,84.72585c0.72969,0.8589,0.80699,2.2085,0.17999,3.1451
			c-0.25589,0.3824-0.6209,0.7142-0.72499,1.1624c-0.04482,0.1933-0.03671,0.3943-0.02791,0.5925
			c0.0573,1.2843,0.13609,2.5677,0.2364,3.8493"/>
		<path class="st6" d="M205.30775,88.61665c-0.01791,0.3992,0.18039,0.7718,0.36159,1.1282
			c0.69521,1.3676,1.2144,2.8248,1.54071,4.324"/>
		<path class="st6" d="M207.60745,96.63216c0.18869,0.8979-0.18161,1.81779-0.16611,2.7351
			c0.0032,0.1926,0.0233,0.3874-0.015,0.5762c-0.03729,0.1829-0.1275,0.35-0.1936,0.5247
			c-0.1599,0.4225-0.17569,0.8981-0.0444,1.3302"/>
		<path class="st6" d="M204.73555,101.41235c-1.1768,0.6359-1.74921,2.1192-2.98331,2.6352
			c-0.2878,0.1203-0.59659,0.1801-0.90291,0.2391c-0.68129,0.1313-1.43109,0.2524-2.03319-0.0925"/>
		<path class="st6" d="M193.94196,107.03226c0.35538-0.4858,0.86919-0.8319,1.3989-1.1181
			c0.37799-0.2041,0.80589-0.3877,1.22549-0.2958"/>
		<path class="st6" d="M195.21455,106.32915c0.39659,0.2442,0.67079,0.6777,0.72139,1.1407"/>
		<path class="st6" d="M193.02045,105.63915c0.407,0.2013,0.7515,0.5268,0.97549,0.9218"/>
		<path class="st6" d="M226.93025,107.40845c0.42809-0.9425,1.384-1.6231,2.4146-1.7193"/>
		<path class="st6" d="M226.02295,105.47836c0.51649,0.1655,0.9427,0.5905,1.1096,1.1067"/>
		<path class="st6" d="M228.10725,106.56165c0.3488,0.3586,0.52019,0.882,0.45099,1.3774"/>
		<path class="st6" d="M232.56895,107.82275c-0.2769-0.727,0.114-1.6393,0.8315-1.9402c0.2408-0.101,0.517-0.1454,0.70569-0.3259
			c0.13901-0.1327,0.20911-0.3203,0.2711-0.5023c0.6403-1.87949,0.86931-3.8979,0.66661-5.87289"/>
		<path class="st6" d="M234.11465,99.32115c-0.14641,0.7202-0.2928,1.44041-0.43921,2.16061
			c-0.0744,0.36629-0.149,0.7335-0.2645,1.089c-0.1312,0.4041-0.3138,0.7893-0.4958,1.1731
			c-0.28581,0.60239-0.5947,1.23289-1.1438,1.61089"/>
		<path class="st6" d="M226.14655,83.01145c1.59441,0.8564,3.1754,1.7687,4.53751,2.9606
			c1.36209,1.1919,2.50499,2.689,3.0282,4.4219"/>
		<path class="st6" d="M230.23405,83.04066c0.4834,0.6578,0.68309,1.517,0.53949,2.32059"/>
		<path class="st6" d="M231.68704,84.28175c0.08011,0.4521,0.06381,0.9211-0.0473,1.3665"/>
		<path class="st6" d="M232.16795,85.12846c0.0938,0.351,0.0611,0.7344-0.09071,1.0646"/>
		<path class="st6" d="M232.50294,86.27975c-0.0159,0.1148-0.06779,0.2245-0.1463,0.3097"/>
		<path class="st6" d="M229.70465,83.14786c0.05609,0.3889,0.1122,0.7776,0.16809,1.1665"/>
		<path class="st6" d="M225.87115,87.02126c0.36189,0.5617,0.83139,1.054,1.37518,1.4421
			c1.61922,1.1556,3.83531,1.3692,5.24771,2.77c0.431,0.4274,0.81549,0.9796,1.40919,1.1056"/>
		<path class="st6" d="M230.25375,87.99796c0.1924,0.5597-0.1562,1.2444-0.72211,1.4182"/>
		<path class="st6" d="M231.14055,88.62076c-0.0872,0.2613-0.1779,0.5289-0.3524,0.742
			c-0.17439,0.2131-0.45351,0.3633-0.7231,0.3069"/>
		<path class="st6" d="M231.88374,89.50405c-0.1761,0.0976-0.2668,0.2944-0.3801,0.46091
			c-0.1134,0.1664-0.3002,0.3242-0.49519,0.27409c-0.007-0.07629-0.01401-0.1525-0.02101-0.2289"/>
		<path class="st6" d="M232.52655,90.81966c-0.0731,0.0654-0.1461,0.1309-0.21921,0.1964"/>
		<path class="st6" d="M232.98204,91.26096c-0.01619,0.0408-0.03249,0.0815-0.0488,0.1223"/>
		<path class="st6" d="M231.09525,92.39725c0.6404,0.4675,1.28081,0.9349,1.9211,1.4023
			c0.18991,0.1387,0.38121,0.2786,0.54071,0.4515c0.41849,0.4538,0.5755,1.0832,0.71779,1.68401"/>
		<path class="st6" d="M234.37904,94.22215c0.229,0.7722,0.91141,1.39111,1.70221,1.5439"/>
		<path class="st6" d="M235.96124,93.94946c0.42061,0.1671,0.7601,0.5269,0.90251,0.9564
			c0.14249,0.4296,0.0853,0.9208-0.1519,1.3062"/>
		<path class="st6" d="M232.79115,68.03506c2.92209,2.5245,5.1976,5.791,6.55319,9.4066
			c0.2733,0.7288,0.51089,1.4761,0.61591,2.2473c0.10909,0.8013,0.0737,1.61819,0.2029,2.4165
			c0.1851,1.1441,0.69991,2.2045,1.2084,3.246"/>
		<path class="st6" d="M236.03694,63.70686c0.52661,1.4786,0.68939,3.0852,0.47,4.6394"/>
		<path class="st6" d="M236.91234,64.94675c0.41821,0.817,0.8466,1.7535,0.53831,2.6179"/>
		<path class="st6" d="M238.01305,66.13106c0.3907,0.67509,0.312,1.5908-0.188,2.1894"/>
		<path class="st6" d="M238.75385,67.35825c0.18149,0.2315,0.13901,0.5686,0.0278,0.84081
			c-0.1665,0.40739-0.4686,0.7579-0.8468,0.98289"/>
		<path class="st6" d="M239.32465,68.22755c0.1095,0.608-0.19901,1.2691-0.73531,1.5758"/>
		<path class="st6" d="M239.63034,69.79595c-0.019,0.2662-0.1214,0.526-0.2894,0.73351"/>
		<path class="st6" d="M240.04065,70.35465c-0.07401,0.33791-0.23911,0.6556-0.47321,0.9105"/>
		<path class="st6" d="M229.08604,75.76836c0.6265,0.07,1.1801,0.4292,1.6857,0.8058c1.47881,1.1017,2.77791,2.44389,3.83081,3.9576
			"/>
		<path class="st6" d="M228.16174,76.77496c-0.01909,0.0181-0.0475-0.0212-0.03169-0.0421
			c0.0159-0.0209,0.0468-0.02081,0.073-0.0183c0.6282,0.0601,1.22279,0.4096,1.5809,0.9291"/>
		<path class="st6" d="M251.27014,100.18675c-0.0098-0.1174-0.01959-0.2347-0.02939-0.3519"/>
		<path class="st6" d="M252.02315,100.31946c0.29179,0.19289,0.5274,0.4698,0.6713,0.7886
			c0.0927,0.2052,0.1479,0.4377,0.09331,0.6561c-0.0545,0.2184-0.2413,0.4136-0.46611,0.4235"/>
		<path class="st6" d="M253.01065,100.85285c0.2216,0.3683,0.29539,0.8227,0.20189,1.2422"/>
		<path class="st6" d="M254.05165,101.04755c0.19969,0.0026,0.23709,0.285,0.20799,0.4826"/>
		<path class="st6" d="M254.96085,101.23676c0.00819,0.0977,0.0164,0.1955,0.02449,0.2932"/>
	</g>
	<g>
		<path class="st5" d="M285.56577,85.56852c0,0-1.89838-1.60149-1.51727-2.9823c0.3812-1.3808,2.78619-3.0945,4.56589-3.7549
			c1.77979-0.6603,4.44061-1.8205,4.7739-1.9514c0.3334-0.1308,4.2381-1.3562,7.02341-0.14149
			c2.7854,1.2147,4.55881,2.59589,5.24289,4.82809c0.68402,2.2321,1.9454,4.6608,2.34399,5.7739
			c0.39862,1.1131,1.61841,2.7501,2.31482,3.0538c0.69629,0.3037,5.6066,0.95329,7.7193,2.3167s13.4086,7.008,16.5451,8.4312
			c3.13638,1.4231,9.62918,6.299,11.0159,6.7933c1.38678,0.4942,6.3916,5.108,8.06378,6.7213
			c1.67221,1.6133,10.54501,10.787,13.54422,13.9183s19.38928,12.9314,23.6088,15.54509
			c4.21948,2.61371,11.8317,5.0495,29.91968,6.14211c0.33932-0.01781,3.10092,0.7446-0.13718,1.70821
			c-3.2381,0.96359-28.70102,1.9588-42.65182-2.41251c-13.95068-4.3714-22.65228-5.95619-24.24149-5.9863
			c-1.58911-0.03-3.19019-0.2863-3.71411,0.535c-0.5239,0.82129-0.0419,1.36299,0.80902,2.45239
			c0.85089,1.0894,2.1424,1.9288,2.20758,3.17281c0.06531,1.244-0.04779,1.24989,0.02332,2.60699
			c0.0712,1.3571,0.11868,2.2618,0.4101,3.4939c0.29141,1.23221,0.67221,2.00601-0.18509,2.95821
			c-0.85721,0.9521-0.9288,1.74969-1.4765,2.11859c-0.54761,0.36891-0.99402,0.50571-1.42862,0.86871
			c-0.4346,0.36299-1.28589,1.4283-1.30368,1.08899c-0.01779-0.33929,0.02408-1.7023,0.02408-1.7023
			s-1.55948,0.5354-1.90469,0.44011c-0.34518-0.09531-1.3096,0.97589-1.3096,0.97589s-0.76157-1.54759-0.44611-2.01779
			c0.31561-0.47011,0.4884-1.4998,1.1373-2.1008c0.6488-0.6011,0.83942-1.2915,1.35742-2.22591
			c0.51801-0.9343,0.44089-2.4045,0.06009-3.1783c-0.38071-0.7739-4.57611-5.0898-5.42108-6.0661
			c-0.845-0.9763-4.33221-4.7625-4.33221-4.7625l-7.28479-2.6797c0,0,0.26688,5.089,0.22498,6.452
			c-0.0419,1.36301,0.3092,1.57141,0.69592,2.45831c0.38669,0.88699,0.97589,1.30969,0.452,2.13089
			c-0.52402,0.8213-0.73831,1.0594-1.03009,1.9819c-0.29181,0.9225-0.12531,1.9344-0.1969,2.7319
			c-0.07162,0.79759,0.19608,1.5773-0.66711,2.4164s-1.63699,1.21989-2.0834,1.3567c-0.4465,0.1368-0.87509,0.6129-1.2919,1.31509
			c-0.41681,0.7023-2.5773,0.58881-2.5773,0.58881l0.12531-1.9344c0,0-0.71411-0.6429-1.35699,0.0712
			c-0.64301,0.7141-2.41092,1.60071-2.41092,1.60071s-0.0174-2.49391,0.85172-3.21991c0.8692-0.726,2.18469-1.58879,3.17291-2.2076
			c0.9881-0.6189,2.19647-1.36259,2.36929-2.3923c0.17279-1.02969-0.17792-3.3927-0.9632-5.3927
			c-0.78531-2.00009-2.37961-6.4525-3.13531-7.88699c-0.75558-1.4346-1.14191-4.47621-0.87381-5.851
			c-0.125-0.22031-5.21759-7.8298-3.7905-5.24451c0.19571,0.3546-2.4848-4.5285-3.57019-5.3694
			c-0.89529-0.6935-4.93921-5.5243-4.93921-5.5243s-2.7916,0.8268-3.65479,1.6658c-0.86319,0.8391-1.38721,1.6604-1.57181,2.4639
			c-0.18469,0.8035-0.52438,2.9759-0.52438,2.9759l-0.92801-2.5595c0,0-1.72641,1.6781-2.71448,2.29691
			c-0.98822,0.6189,0.16089-1.25581,0.16089-1.25581l-1.54172,0.8747c0,0-0.6311,0.9403-1.83359,1.7971
			c-1.20251,0.8569-2.04791,2.03519-1.97632,1.23769c0.07159-0.7976-0.55908-2.01189-0.55908-2.01189s-1.0835,0.964-0.90469,0.0474
			c0.17868-0.9165,1.61368-3.82681,1.61368-3.82681s0.38712-1.2677,0.2384-1.9403c-0.14868-0.6726-0.72559-3.0238-0.72559-3.0238
			s1.0174,2.1013,2.14828,2.042c1.13089-0.0594,2.04752,0.1194,2.92261-0.4935c0.875-0.6129,1.48239-2.0056,1.48239-2.0056
			l-1.03519-2.44051c0,0,1.24359,2.0894,2.11859,1.4765c0.87509-0.6129,1.42871-0.8687,1.9704-1.3507
			c0.54172-0.4821,1.4346-0.7557-0.08899-1.6964c-1.5235-0.9407-4.30841-4.3101-5.04031-5.2923
			c-0.73199-0.9822-0.79718-2.2262-0.85059-3.244s0.14951-3.6366-0.017-4.6485c-0.1665-1.0119-0.88062-1.6548-1.47571-2.19061
			c-0.59509-0.5358-0.9877-1.5358-1.1601-2.6608s-0.06531-1.244-1.11871-1.8691c-1.05341-0.6252-0.47009-0.3156-1.4519-1.7383
			c-0.9819-1.4227-0.80908-2.4524-1.19577-3.3393c-0.38672-0.8869-0.63663-1.3274-1.4342-1.399
			c-0.79752-0.07159-1.8331-0.3575-2.17242-0.3397c-0.33929,0.0178-1.55948,0.5354-1.55948,0.5354L285.56577,85.56852z"/>
		<path class="st7" d="M309.48428,117.09542c0.4071,0.2815,0.81531,0.0388,1.27368-0.1479
			c2.0957-0.8533,4.06412-2.0188,5.82001-3.44611c0.74771-0.6078,1.5192-1.409,1.44193-2.3695
			c-0.04282-0.5312-0.34521-1.003-0.66013-1.433c-0.7106-0.9701-1.53281-1.8584-2.4454-2.6416
			c-0.42899-0.36819-0.8866-0.7231-1.18378-1.20409c-0.4274-0.6916-0.4577-1.6108-0.07669-2.3291c0,0-1.04352-3.1199-2.46771-3.7809
			c-1.42429-0.661-7.1781,1.8478-7.49591,3.581s0.8624,4.21719,2.59299,5.24129c1.73053,1.024,3.82452,1.4747,3.70581,2.2594
			c-0.11859,0.7847-1.83328,1.5764-2.31689,2.1097c-0.56641,0.6248-1.7977-0.2792-1.7977-0.2792l-4.1749,2.9902
			c0,0-1.15662,2.6772-2.01901,2.4989c-0.86249-0.1784-2.9176,0.3814-3.3645-0.045s-1.5658-2.4681-1.12558-0.9718
			c0.38678,1.3143,0.55258,3.245,0.42758,3.7266c-0.125,0.4817-1.3746,2.242-1.50818,3.5743
			c-0.10291,1.0266,0.85468,0.28761,0.85468,0.28761s0.08133,0.6405,0.21521,1.3677c0.16559,0.9002,0.63501,1.0774,1.03091,0.7264
			c0.97449-0.8638,3.21088-2.8702,3.6037-3.0931c0.39279-0.2228,0.13107,1.1881,0.57867,0.8757
			c0.44751-0.3124,2.79611-2.769,2.79611-2.769l1.03281,2.6254c0,0,0.5452-3.3689,1.14841-4.10851
			c0.60309-0.7396,0.39978-1.4463,1.52667-1.73859c1.12683-0.2923,0,0,0,0L309.48428,117.09542"/>
		<path class="st6" d="M303.88837,105.79552c0,0,0.04211,0.8035,1.72861,2.2368c1.68649,1.4334,2.96442,1.9035,3.97922,2.4769
			s0.4227,1.2311-0.9729,1.9309s-2.0018,1.0897-2.86639,1.6722c-0.86472,0.58241-0.94931,0.6764-1.55081,1.1555
			s-1.50821,0.2581-1.50821,0.2581"/>
		<path class="st6" d="M291.19928,85.66412c1.3573-0.1249,2.72571-0.1283,4.08362-0.0102
			c0.84259,0.0733,1.77878,0.1686,2.45117-0.3446c0.42911-0.32751,0.6701-0.86951,0.68311-1.4092
			c0.01291-0.5397-0.18768-1.0723-0.50699-1.5076"/>
		<path class="st6" d="M293.99496,82.61962c-0.63239,0.2255-1.3176,0.3009-1.98389,0.2185
			c-1.0275-0.127-2.05441-0.6209-3.0563-0.3597c-0.4892,0.1276-0.91321,0.4244-1.35129,0.6768
			c-0.70041,0.4037-1.46082,0.7032-2.24829,0.8858c-0.16422,0.038-0.40762,0.0136-0.40921-0.1549"/>
		<path class="st6" d="M285.43637,81.58282c0.11639,0.1314,0.0527,0.3386-0.03598,0.4901
			c-0.08862,0.1515-0.20151,0.3146-0.1644,0.4861c0.0372,0.1716,0.33698,0.2396,0.37,0.0672"/>
		<path class="st6" d="M294.87988,84.35302c0.2189-0.0098,0.43781-0.0196,0.65671-0.0293
			c0.4733-0.0211,0.97598-0.0519,1.36218-0.3265c0.38611-0.2746,0.56891-0.8875,0.23959-1.2282"/>
		<path class="st6" d="M294.08688,79.26192c-0.6109-0.18961-1.25992-0.2554-1.89651-0.19241"/>
		<path class="st6" d="M292.11728,79.62892c0.4791,0.2061,0.97629,0.4159,1.4978,0.4074
			c0.52139-0.0086,1.07639-0.2981,1.22369-0.7984"/>
		<path class="st6" d="M295.49457,78.84103c0.5675,0.5664,1.13501,1.1328,1.70251,1.6993"/>
		<path class="st6" d="M299.13348,83.66512c0.1203,0.8424,0.02631,1.7146-0.27069,2.5121
			c-0.25131,0.6747-0.64221,1.2898-0.90491,1.9602c-0.2627,0.6704-0.38831,1.4431-0.0954,2.1008"/>
		<path class="st6" d="M296.74768,88.01812c-0.32379,1.5481-0.0412,3.1511,0.24149,4.70721
			c0.09311,0.5126,0.18631,1.02509,0.27942,1.5377c0.09311,0.5122,0.1907,1.0369,0.45749,1.4839"/>
		<path class="st6" d="M303.67017,95.58342c1.47162-0.60889,2.50742-1.6487,3.8396-2.4353
			c0.43512-0.2569,0.95001-0.2712,1.37592-0.5158c0.66849-0.3841,1.01788-1.1765,1.4118-1.8075"/>
		<path class="st6" d="M354.77097,125.31472c0.17892,0.6468,0.08331,1.3365-0.06088,1.99191
			c-0.7059,3.2086-2.58871,6.1445-5.21021,8.1246c-0.5336,0.403-1.1153,0.78839-1.44049,1.3727
			c-0.36502,0.6559-0.34482,1.453-0.2644,2.1993c0.19409,1.8015,0.68329,3.57091,1.44229,5.21631"/>
		<path class="st6" d="M337.86099,141.08562c-1.93082-2.0195-3.68323-4.4395-3.91782-7.22359
			c-0.26169-3.10681,1.40979-6.20521,0.81421-9.26561c-0.18481-0.9499-0.58679-1.8759-0.53381-2.8422
			c0.0491-0.8942,0.48282-1.7158,0.9068-2.50449c0.7547-1.4036,1.54022-2.84531,2.77481-3.853"/>
		<path class="st6" d="M336.58017,112.76692c-0.38229,0.9691-0.8895,1.8893-1.2027,2.8829
			c-0.1763,0.55959-0.28918,1.1368-0.40179,1.71249c-0.16199,0.8288-0.32401,1.6575-0.48599,2.48621
			c-0.1528,0.78159-0.30621,1.5713-0.27979,2.3672"/>
		<path class="st6" d="M334.86758,112.93732c-1.91641,3.65269-2.11081,8.16389-0.51559,11.9679"/>
		<path class="st6" d="M348.48859,121.53912c-0.02661,0.0611-0.05331,0.1222-0.0799,0.1833
			c1.15259,1.89941,0.50189,4.2924-0.4696,6.2904c-0.35361,0.7272-0.75391,1.44231-1.3056,2.0334
			c-0.3736,0.4003-0.8125,0.73911-1.1557,1.16591c-1.2236,1.5215-0.95721,3.71359-0.62711,5.63809"/>
		<path class="st6" d="M345.69168,133.31812c0.0451-0.6344,0.44489-1.19749,0.93408-1.60379
			c0.48923-0.4063,1.06873-0.6851,1.62192-0.9987c0.77039-0.437,1.513-0.96159,2.03339-1.6783
			c0.52042-0.71671,0.79391-1.6532,0.55832-2.507"/>
		<path class="st6" d="M348.35559,125.90302c1.2005-0.218,2.1929-1.2909,2.31677-2.5047"/>
		<path class="st6" d="M324.67529,159.14043c-0.11801-0.58611,0.35028-1.12201,0.82761-1.48201
			c0.47726-0.36009,1.03568-0.69919,1.22906-1.26489"/>
		<path class="st6" d="M326.34808,158.53223c-0.0636,0.0396-0.03781-0.10431,0.03461-0.1235
			c0.53848-0.14349,1.15347,0.2856,1.20477,0.8405"/>
		<path class="st6" d="M327.52567,157.23923c0.6326,0.07419,1.16571,0.65579,1.18481,1.2925
			c0.00198,0.06509-0.01089,0.1451-0.07211,0.1673c-0.0611,0.02231-0.11069-0.0997-0.04559-0.1013"/>
		<path class="st6" d="M328.62228,155.79073c0.71991,0.2865,1.33078,0.8381,1.6893,1.52499"/>
		<path class="st6" d="M349.1459,161.24933c-0.04364-1.2769,0.54376-2.56041,1.53867-3.362"/>
		<path class="st6" d="M350.56247,159.35992c0.49609-0.01041,0.9873,0.2737,1.22571,0.70889"/>
		<path class="st6" d="M351.56247,158.22443c0.58279,0.1158,1.06219,0.6344,1.13202,1.2245"/>
		<path class="st6" d="M351.09027,155.78052c0.8707-0.10559,1.7803,0.42131,2.1221,1.22911"/>
		<path class="st6" d="M350.36569,143.41243c-0.84241-1.4216-0.63141-3.38721,0.49368-4.5975"/>
		<path class="st6" d="M351.86008,143.65112c-0.00189-1.17101,0.22989-2.3418,0.67789-3.42371"/>
		<path class="st6" d="M351.15979,143.60432c0.02838,0.0858-0.02072,0.2341-0.09201,0.1783
			c-0.02679-1.09151,0.10629-2.1868,0.39389-3.2401"/>
		<path class="st6" d="M352.89297,143.85793c0.05679-0.9424,0.3168-1.8721,0.75711-2.70731"/>
		<path class="st6" d="M357.65277,138.31252c0.48611-0.97089,1.33722-1.75359,2.34531-2.1568"/>
		<path class="st6" d="M359.27048,138.93832c0.40781-1.1172,1.3222-2.0381,2.4364-2.4539"/>
		<path class="st6" d="M373.98749,133.78282c-0.8765,1.1091-1.5535,2.3754-1.98901,3.7202"/>
		<path class="st6" d="M375.87079,134.60942c-0.13281,0.8101-0.43872,1.59131-0.8913,2.27611"/>
		<path class="st6" d="M378.46979,136.25122c0.22549,0.6389,0.0708,1.3963-0.3869,1.89571"/>
		<path class="st6" d="M351.31857,117.93112c1.31741,0.9119,2.17392,2.4576,2.24881,4.0581"/>
		<path class="st6" d="M340.84866,112.45012c0.50412-0.31879,1.1315-0.3513,1.72751-0.3728
			c0.37231-0.0135,0.74921-0.0259,1.11301,0.0541c1.0639,0.234,1.82831,1.2047,2.8692,1.5256"/>
		<path class="st6" d="M336.78107,109.77342c3.06201-0.7404,6.42572-0.1291,9.0314,1.6413
			c0.5137,0.349,1.03943,0.81239,1.09021,1.4313"/>
		<path class="st6" d="M336.15378,109.22813c0.23419-0.41451,0.70129-0.6378,1.15701-0.7758
			c1.20148-0.3639,2.52798-0.2995,3.6886,0.1791"/>
		<path class="st6" d="M319.97568,112.01782c1.02899-0.3114,2.13211-0.142,3.20721-0.1368
			c1.0752,0.0053,2.26379-0.22089,2.918-1.0741"/>
		<path class="st6" d="M313.6539,103.52412c-0.38101,0.7183-0.35071,1.6375,0.07669,2.3291
			c0.29718,0.481,0.75479,0.8359,1.18378,1.20409c0.9126,0.7832,1.7348,1.6715,2.4454,2.6416
			c0.31491,0.43,0.61731,0.9018,0.66013,1.433c0.07727,0.9605-0.69421,1.7617-1.44193,2.3695
			c-1.75589,1.42731-3.7243,2.5928-5.82001,3.44611c-0.45837,0.1867-1.0127,0.3497-1.4198,0.0682"/>
		<path class="st6" d="M306.69058,110.93682c-0.09961,0.5004-0.0907,1.0221,0.026,1.5188"/>
		<path class="st6" d="M305.03177,111.21282c0.43042,0.8163,1.12051,1.4931,1.94492,1.9076"/>
		<path class="st6" d="M307.7919,110.68872c-0.04382,0.3007-0.08771,0.6014-0.13162,0.9021"/>
		<path class="st6" d="M314.51569,106.34432c0.93188-1.1465,1.72778-2.4035,2.3656-3.7363"/>
		<path class="st6" d="M314.55579,106.88982c1.19031-1.1968,2.276-2.4976,3.24069-3.8826"/>
		<path class="st6" d="M315.33337,107.33392c1.55551-0.8213,2.9451-1.9555,4.06131-3.3151"/>
		<path class="st6" d="M312.33926,100.71872c0.61823,1.3894,1.0177,2.8758,1.17963,4.3879"/>
		<path class="st6" d="M313.09488,100.56282c0.1691-0.0605,0.31421,0.1322,0.3858,0.29691
			c0.6506,1.49609,0.74948,3.225,0.2735,4.7856"/>
		<path class="st6" d="M361.68488,142.60173c-0.13629,0.5273-0.2063,1.07179-0.20779,1.61639
			c-0.00031,0.10719,0.11639,0.25299,0.17108,0.1608"/>
		<path class="st6" d="M359.77597,142.16333c-0.20349,0.48959-0.32748,1.0121-0.36591,1.54089"/>
		<path class="st6" d="M361.11798,142.43872c-0.18732,0.2618-0.2626,0.6011-0.20361,0.9176
			c0.04471-0.2708,0.08942-0.5416,0.13422-0.81239"/>
		<path class="st6" d="M363.90909,142.64943c-0.34152,0.28119-0.47351,0.7901-0.3118,1.20189"/>
		<path class="st6" d="M365.87097,143.72023c0.1178,0.4825,0.3526,0.9359,0.67862,1.31059"/>
		<path class="st6" d="M363.10748,142.69022c-0.15359,0.10251-0.24609,0.2899-0.2341,0.47411
			c0.08078-0.1534,0.16168-0.3069,0.24249-0.4603"/>
		<path class="st6" d="M365.45428,144.20262c-0.10049,0.2563-0.1098,0.5472-0.02609,0.8094"/>
		<path class="st6" d="M368.05588,144.59273c0.06369,0.42299,0.42081,0.78499,0.8429,0.8544"/>
		<path class="st6" d="M370.66528,145.08482c0.22061,0.5936,0.72339,1.0751,1.32599,1.26981"/>
		<path class="st6" d="M374.22189,145.98093c-0.12701,0.1808-0.17062,0.4178-0.11621,0.632"/>
		<path class="st6" d="M376.50589,147.10432c0.00638,0.1188,0.0127,0.23759,0.01907,0.35649
			c0.10632,0.0666,0.2377,0.0923,0.36133,0.07051"/>
		<path class="st6" d="M378.82748,147.35422c0.06711,0.08391,0.13409,0.1678,0.20108,0.2516"/>
		<path class="st6" d="M381.31216,148.28452c0.0596-0.0031,0.11911-0.0062,0.17862-0.00929"/>
		<path class="st6" d="M299.57559,118.51112c-1.2377,0.9995-2.30402,2.2106-3.13861,3.5649
			c1.09192,0.28011,2.00421-1.1498,3.12671-1.04559c-0.7999,0.9911-1.5997,1.98209-2.39951,2.9731
			c1.0448-0.2833,1.9274-1.2384,3.0029-1.1149c0.04871,0.3547,0.05548,0.7151,0.02008,1.0714"/>
		<path class="st6" d="M302.36407,105.80582c0.40289,0.5316,0.80569,1.0631,1.20862,1.5947
			c0.54568,0.72,1.10788,1.45551,1.8696,1.9413c0.76169,0.4857,1.77698,0.6777,2.5715,0.2477"/>
		<path class="st6" d="M306.01877,116.78542c0.09952,0.6232,0.10941,1.2605,0.02951,1.8865"/>
		<path class="st6" d="M307.11407,116.86063c0.07071,0.58659-0.00461,1.19019-0.21701,1.7416"/>
		<path class="st6" d="M308.17297,116.26942c-0.00128,0.4041-0.00259,0.8083-0.00391,1.21239"/>
		<path class="st6" d="M309.07227,116.22802c0.16501,0.3721,0.23911,0.784,0.21432,1.1903"/>
		<path class="st6" d="M310.18237,116.56572c0.0047,0.0893,0.0094,0.1786,0.0141,0.2678"/>
		<path class="st6" d="M311.28119,117.31322c0.0141,0.89149,0.3089,1.7765,0.83218,2.4984"/>
		<path class="st6" d="M327.35507,136.88522c0.97839,1.0932,2.25052,1.9211,3.64621,2.3732
			c0.1113,0.036,0.2988-0.06461,0.20111-0.1288"/>
		<path class="st6" d="M322.55359,129.60863c0.73779,1.39949,1.54068,2.7937,2.6778,3.8936
			c0.31799,0.3076,0.65952,0.58949,1.0007,0.871c0.3176,0.2621,0.63519,0.52419,0.9527,0.78629
			c1.32239,1.09131,2.64468,2.18271,3.96698,3.274c0.50412,0.416,1.05942,0.8524,1.71252,0.8764"/>
		<path class="st6" d="M334.46497,140.59142c0.51291-0.633,0.80994-1.4377,0.83121-2.25209"/>
		<path class="st6" d="M336.30829,139.34622c-0.2229,0.5997-0.4458,1.19949-0.66861,1.79919"/>
		<path class="st6" d="M334.32458,136.64732c0.12869,0.5222-0.18042,1.04199-0.47592,1.49139"/>
		<path class="st6" d="M332.47739,134.99622c-0.06039,0.3634-0.1207,0.72691-0.18112,1.09041"/>
		<path class="st6" d="M329.08838,133.97023c0.0141,0.26779,0.02811,0.5356,0.04221,0.8035
			C329.11649,134.50583,329.10248,134.23802,329.08838,133.97023"/>
		<path class="st6" d="M330.94058,131.05682c0.09909,0.21941,0.19809,0.43871,0.29721,0.6581"/>
		<path class="st6" d="M332.78217,130.15102c0.01172,0.22321,0.02341,0.4463,0.03513,0.66951
			C332.80557,130.59732,332.79388,130.37422,332.78217,130.15102"/>
		<path class="st6" d="M330.11398,119.81172c0.9957,3.2736,2.5914,6.3636,4.6842,9.07069"/>
		<path class="st6" d="M330.71777,124.91162c0.87021,1.8447,2.0058,3.5639,3.3609,5.0883
			c0.07681,0.0863,0.19171,0.18021,0.2944,0.127c0.1026-0.05321-0.05331-0.2478-0.08749-0.13741"/>
		<path class="st6" d="M355.64099,129.59242c-1.3038,3.1701-3.78271,5.84109-6.8468,7.3774
			c-0.42902,0.21521-0.89713,0.4342-1.13071,0.8535"/>
		<path class="st6" d="M383.34177,146.56923c-0.08499,0.8131,0.04611,1.6478,0.37631,2.3956"/>
		<path class="st6" d="M385.28479,146.32672c-0.03333,0.8532-0.06671,1.70641-0.10001,2.5596"/>
		<path class="st6" d="M386.90579,148.25972c0.0188,0.3571,0.03748,0.7142,0.05618,1.0713"/>
		<path class="st6" d="M389.39969,149.60712c-0.0423,0.31851,0.01849,0.6499,0.17099,0.93271"/>
		<path class="st6" d="M391.43219,149.22893c0.04639,0.48549,0.22229,0.9581,0.5047,1.3557"/>
		<path class="st6" d="M392.78027,149.83412c-0.02481,0.2802,0.14691,0.56711,0.4057,0.6776"/>
		<path class="st6" d="M394.66867,150.95082c0.0484,0.1328,0.0968,0.2655,0.14523,0.3983"/>
		<path class="st6" d="M396.97668,150.81992c0.00229,0.04471,0.0047,0.08931,0.00699,0.13391"/>
		<path class="st6" d="M293.28189,78.67262c0.4776-0.2075,1.0466,0.078,1.3627,0.4918"/>
	</g>
	<path class="st8" d="M123.5065,79.23647c0.0108-0.0204,0.38324,15.17239-13.99984,21.76928"/>
</g>
<path class="st8" d="M337.61328,79.23647c0,0-2.97049,22.24096-20.25351,30.46246"/>
</svg>
