<?xml version="1.0" encoding="utf-8"?>
<!-- Generator: Adobe Illustrator 23.0.2, SVG Export Plug-In . SVG Version: 6.00 Build 0)  -->
<svg version="1.1" id="Layer_1" xmlns="http://www.w3.org/2000/svg" xmlns:xlink="http://www.w3.org/1999/xlink" x="0px" y="0px"
	 viewBox="0 0 900 1010.97223" style="enable-background:new 0 0 900 1010.97223;" xml:space="preserve">
<style type="text/css">
    @import url('https://fonts.googleapis.com/css?family=Roboto:300,400,700');
	.st0{font-family:'Roboto';font-weight: 400;}
	.st1{font-size:15px;}
	.st2{fill:none;stroke:#000000;stroke-width:0.5;stroke-miterlimit:10;}
	.st3{font-family:'Roboto';font-weight: 300; font-style:italic}
</style>
<g id="godzilladibu02.psd_2_">
	
		<image style="overflow:visible;" width="2599" height="2989" id="godzilladibu02_2_" xlink:href="BE620035A3644042.png"  transform="matrix(0.33306 0.01081 -0.01081 0.33306 1.04499 -22.47308)">
	</image>
</g>
<g>
	<g>
		<g>
			
				<image style="overflow:visible;" width="1077" height="965" xlink:href="BE620035A3644046.png"  transform="matrix(0.24 0 0 0.24 665.0022 156.41774)">
			</image>
		</g>
	</g>
</g>
<g>
	<g>
		
			<image style="overflow:visible;" width="516" height="878" xlink:href="BE620035A3644041.png"  transform="matrix(0.24 0 0 0.24 208.5222 290.33774)">
		</image>
	</g>
	<g>
		
			<image style="overflow:visible;" width="730" height="796" xlink:href="BE620035A3644043.png"  transform="matrix(0.24 0 0 0.24 227.0022 154.25774)">
		</image>
	</g>
	<g>
		
			<image style="overflow:visible;" width="700" height="708" xlink:href="BE620035A3644040.png"  transform="matrix(0.24 0 0 0.24 326.12219 71.21774)">
		</image>
	</g>
	<g>
		
			<image style="overflow:visible;" width="548" height="542" xlink:href="BE620035A364404E.png"  transform="matrix(0.24 0 0 0.24 429.3222 42.41773)">
		</image>
	</g>
</g>
<g>
	<text transform="matrix(1 0 0 1 742.55676 24.83887)" class="st0 st1">Small brain</text>
</g>
<line class="st2" x1="773.51251" y1="175.4753" x2="773.51251" y2="197.46112"/>
<g>
	<text transform="matrix(1 0 0 1 769.25671 171.92911)" class="st0 st1">Atomic breath</text>
</g>
<line class="st2" x1="595.23053" y1="334.15302" x2="696.02985" y2="334.15302"/>
<text transform="matrix(1 0 0 1 698.95526 340.54321)" class="st0 st1">Heart</text>
<g>
	<text transform="matrix(1 0 0 1 699.94727 506.81439)" class="st0 st1">Lungs</text>
</g>
<g>
	<text transform="matrix(1 0 0 1 699.94727 524.31897)" class="st3 st1">Can breathe under water</text>
</g>
<path class="st2" d="M598.64404,403.15475c0,0,19.81647,88.18332,97.99988,98.89291"/>
<path class="st2" d="M265.11288,317.42419c0,0,0.66052,25.10086,24.11002,27.74307"/>
<g>
	<text transform="matrix(1 0 0 1 131.35165 296.28656)"><tspan x="0" y="0" class="st0 st1">Electrical discharge</tspan><tspan x="0" y="18" class="st0 st1">through dorsal plates</tspan></text>
</g>
<g>
	<text transform="matrix(1 0 0 1 65.81908 619.62524)"><tspan x="0" y="0" class="st3 st1">Skin texture</tspan><tspan x="0" y="18" class="st3 st1">was inspired</tspan><tspan x="0" y="36" class="st3 st1">by the keloid</tspan><tspan x="0" y="54" class="st3 st1">scars seen</tspan><tspan x="0" y="72" class="st3 st1">on Hiroshima</tspan><tspan x="0" y="90" class="st3 st1">survivors</tspan></text>
</g>
<text transform="matrix(1 0 0 1 65.81915 581.6438)"><tspan x="0" y="0" class="st0 st1">Carbon scales</tspan><tspan x="0" y="18" class="st0 st1">covering body</tspan></text>
<path class="st2" d="M158.95691,530.78156c0,0-29.96329,15.05182-30.05499,37.98157"/>
<line class="st2" x1="715.5658" y1="731.43884" x2="651.27283" y2="731.43884"/>
<text transform="matrix(1 0 0 1 720.75342 736.54272)" class="st0 st1">Bones</text>
<path class="st2" d="M721.50623,654.82397c0,0-26.75226-35.66968-73.0824-27.27197"/>
<g>
	<text transform="matrix(1 0 0 1 720.75409 671.80872)" class="st0 st1">Muscles</text>
</g>
<path class="st2" d="M575.86145,509.98438c0,0,60.34222,2.96234,96.67242,40.61365"/>
<g>
	<text transform="matrix(1 0 0 1 670.22211 564.65936)" class="st0 st1">Atomic furnace</text>
</g>
<text transform="matrix(1 0 0 1 631.24994 265.90128)" class="st0 st1">Uranium pockets</text>
<path class="st2" d="M709.75934,34.56834c0,0,6.93579-13.87153,26.75226-13.87153"/>
<path class="st2" d="M480.20398,78.96597c41.15582,11.0885,76.8255,58.64803,93.66949,98.28098"/>
<g>
	<text transform="matrix(1 0 0 1 389.92865 81.9385)" class="st0 st1">Heat inducer</text>
</g>
<line class="st2" x1="574.37671" y1="306.19485" x2="684.09344" y2="306.19485"/>
<g>
	<text transform="matrix(1 0 0 1 687.72607 310.15823)" class="st0 st1">Sternum</text>
</g>
<path class="st2" d="M594.68079,288.21921c0,0,35.66962,5.94495,49.54114-16.84399"/>
</svg>
