<?xml version="1.0" encoding="utf-8"?>
<!-- Generator: Adobe Illustrator 23.0.2, SVG Export Plug-In . SVG Version: 6.00 Build 0)  -->
<svg version="1.1" id="Layer_1" xmlns="http://www.w3.org/2000/svg" xmlns:xlink="http://www.w3.org/1999/xlink" x="0px" y="0px"
	 viewBox="0 0 425 520.72833" style="enable-background:new 0 0 425 520.72833;" xml:space="preserve">
<style type="text/css">
    @import url('https://fonts.googleapis.com/css?family=Roboto:300,400,700');
	.st0{font-family:'Roboto';font-weight: 400;}
	.st1{font-size:15px;}
	.st2{fill:none;stroke:#000000;stroke-width:0.5;stroke-miterlimit:10;}
	.st3{font-family:'Roboto';font-weight: 300; font-style:italic}
</style>
<g id="godzilladibu02.psd_2_">
	
		<image style="overflow:visible;" width="2599" height="2989" id="godzilladibu02_2_" xlink:href="DF9007709BA15FE0.png"  transform="matrix(0.16442 0.00534 -0.00534 0.16442 4.155 10.0247)">
	</image>
</g>
<g>
	<g>
		<g>
			
				<image style="overflow:visible;" width="597" height="554" xlink:href="DF9007709BA15FE1.png"  transform="matrix(0.24 0 0 0.24 313.64221 79.85773)">
			</image>
		</g>
	</g>
</g>
<g>
	<g>
		
			<image style="overflow:visible;" width="407" height="586" xlink:href="DF9007709BA15FE7.png"  transform="matrix(0.24 0 0 0.24 88.2822 146.09773)">
		</image>
	</g>
	<g>
		
			<image style="overflow:visible;" width="513" height="546" xlink:href="DF9007709BA15FE2.png"  transform="matrix(0.24 0 0 0.24 97.40221 78.89774)">
		</image>
	</g>
	<g>
		
			<image style="overflow:visible;" width="498" height="502" xlink:href="DF9007709BA15FE3.png"  transform="matrix(0.24 0 0 0.24 146.3622 37.85773)">
		</image>
	</g>
	<g>
		
			<image style="overflow:visible;" width="423" height="420" xlink:href="DF9007709BA15FEE.png"  transform="matrix(0.24 0 0 0.24 197.2422 23.69773)">
		</image>
	</g>
</g>
<g>
	<text transform="matrix(1 0 0 1 222.44489 20.90779)" class="st0 st1">Small brain</text>
</g>
<line class="st2" x1="389.98593" y1="96.74744" x2="389.98593" y2="118.73325"/>
<g>
	<text transform="matrix(1 0 0 1 374.34802 73.68907)"><tspan x="0" y="0" class="st0 st1">Atomic</tspan><tspan x="0" y="18" class="st0 st1">breath</tspan></text>
</g>
<line class="st2" x1="295.44382" y1="188.75848" x2="362.20773" y2="188.75848"/>
<text transform="matrix(1 0 0 1 366.64819 194.33571)" class="st0 st1">Heart</text>
<g>
	<text transform="matrix(1 0 0 1 340.81094 268.73697)" class="st0 st1">Lungs</text>
</g>
<g>
	<text transform="matrix(1 0 0 1 340.81094 286.24152)"><tspan x="0" y="0" class="st3 st1">Can breathe</tspan><tspan x="0" y="18" class="st3 st1">under water</tspan></text>
</g>
<path class="st2" d="M295.20386,218.28743c0,0,11.71933,37.39984,42.61362,44.7169"/>
<path class="st2" d="M88.09039,163.89958c0,0,9.07669,40.56818,48.91409,40.56818"/>
<g>
	<text transform="matrix(1 0 0 1 6.36166 124.06278)"><tspan x="0" y="0" class="st0 st1">Electrical</tspan><tspan x="0" y="18" class="st0 st1">discharge through</tspan><tspan x="0" y="36" class="st0 st1">dorsal plates</tspan></text>
</g>
<g>
	<text transform="matrix(1 0 0 1 1.8048 410.81613)"><tspan x="0" y="0" class="st3 st1">Skin texture</tspan><tspan x="0" y="18" class="st3 st1">was inspired</tspan><tspan x="0" y="36" class="st3 st1">by the keloid</tspan><tspan x="0" y="54" class="st3 st1">scars seen</tspan><tspan x="0" y="72" class="st3 st1">on Hiroshima</tspan><tspan x="0" y="90" class="st3 st1">survivors</tspan></text>
</g>
<text transform="matrix(1 0 0 1 1.8048 372.83469)"><tspan x="0" y="0" class="st0 st1">Carbon scales</tspan><tspan x="0" y="18" class="st0 st1">covering body</tspan></text>
<path class="st2" d="M90.06451,300.8342c0,0-48.18198,10.95062-48.99499,57.29208"/>
<text transform="matrix(1 0 0 1 362.4306 391.05981)" class="st0 st1">Bones</text>
<g>
	<text transform="matrix(1 0 0 1 362.43079 364.62558)" class="st0 st1">Muscles</text>
</g>
<path class="st2" d="M279.28091,281.70352c0,0,57.72357,115.44714-0.81302,194.30896"/>
<g>
	<text transform="matrix(1 0 0 1 227.34596 482.81625)"><tspan x="0" y="0" class="st0 st1">Atomic</tspan><tspan x="0" y="18" class="st0 st1">furnace</tspan></text>
</g>
<text transform="matrix(1 0 0 1 67.23556 74.97813)" class="st0 st1">Uranium pockets</text>
<path class="st2" d="M300.22897,15.65692c0,0,15.41556-1.6984,26.16547,14.94888"/>
<path class="st2" d="M208.87254,41.70152c31.38397,5.85567,60.06844,31.26337,76.91243,70.89632"/>
<g>
	<text transform="matrix(1 0 0 1 118.59721 44.67408)" class="st0 st1">Heat inducer</text>
</g>
<line class="st2" x1="284.3461" y1="172.10768" x2="327.24838" y2="172.10768"/>
<g>
	<text transform="matrix(1 0 0 1 331.84177 175.99632)" class="st0 st1">Sternum</text>
</g>
<path class="st2" d="M289.85001,149.9962c0,0-40.65041-74.79674-105.69106-78.86178"/>
<path class="st2" d="M322.37033,328.858c0,0,30.0813-1.62601,42.27643,21.9512"/>
<line class="st2" x1="323.18335" y1="386.37289" x2="358.1427" y2="386.37289"/>
</svg>
