<?xml version="1.0" encoding="utf-8"?>
<!-- Generator: Adobe Illustrator 23.0.2, SVG Export Plug-In . SVG Version: 6.00 Build 0)  -->
<svg version="1.1" id="Layer_1" xmlns="http://www.w3.org/2000/svg" xmlns:xlink="http://www.w3.org/1999/xlink" x="0px" y="0px"
	 viewBox="0 0 1200 862.92139" style="enable-background:new 0 0 1200 862.92139;" xml:space="preserve">
<style type="text/css">
    @import url('https://fonts.googleapis.com/css?family=Roboto:300,400,700');
	.st0{opacity:0.8;}
	.st1{font-family:'Roboto';font-weight: 700;}
	.st2{font-size:23px;}
	.st3{fill:none;}
	.st4{font-family:'Roboto';font-weight: 400; font-style:italic;}
	.st5{font-size:15px;}
	.st6{font-family:'Roboto';font-weight: 400;}
	.st7{fill:#58595B;}
	.st8{font-family:'Roboto';font-weight: 300;}
	.st9{fill:none;stroke:#000000;stroke-width:0.5;stroke-miterlimit:10;}
	.st10{fill:none;stroke:#58595B;stroke-width:0.5;stroke-miterlimit:10;}
	.st11{fill:none;stroke:#62B5D7;stroke-width:0.5;stroke-miterlimit:10;}
	.st12{font-size:22px;}
	.st13{fill:#62B5D7;}
	.st14{font-size:10px;}
	.st15{opacity:0.5;fill:#FFFFFF;stroke:#FFFFFF;stroke-width:5;stroke-linecap:round;stroke-linejoin:round;stroke-miterlimit:10;}
	.st16{fill:none;stroke:#62B5D7;stroke-miterlimit:10;}
</style>
<g id="godzilladibu01.psd" class="st0">
	
		<image style="overflow:visible;" width="4940" height="4190" id="godzilladibu01_2_" xlink:href="B22DD8C8B27C5B8C.png"  transform="matrix(-0.17758 0 0 0.17758 1256.60364 116.71167)">
	</image>
</g>
<g id="godzilla.psd_1_">
	
		<image style="overflow:visible;" width="5669" height="4190" id="godzilla_2_" xlink:href="B22DD8C8B27C5B8D.png"  transform="matrix(0.19422 0 0 0.19422 -25.04661 40.68183)">
	</image>
</g>
<text transform="matrix(0.99888 0 0 1 7.76635 154.51332)" class="st1 st2">2019</text>
<rect x="6.77554" y="167.39389" class="st3" width="109.98143" height="108.99061"/>
<text transform="matrix(1 0 0 1 6.77551 178.64403)"><tspan x="0" y="0" class="st4 st5">Godzilla: King of </tspan><tspan x="0" y="18" class="st4 st5">the Monsters</tspan><tspan x="86.35986" y="18" class="st6 st5"> by </tspan><tspan x="0" y="36" class="st6 st5">Legendary Films </tspan><tspan x="0" y="54" class="st6 st5">and directed by </tspan><tspan x="0" y="72" class="st6 st5">Michael </tspan><tspan x="0" y="90" class="st6 st5">Dougherty</tspan></text>
<text transform="matrix(0.99888 0 0 1 1072.90173 278.36627)" class="st7 st1 st2">2014</text>
<rect x="1071.91101" y="291.24686" class="st3" width="109.98143" height="108.99061"/>
<text transform="matrix(1 0 0 1 1071.91101 302.49698)"><tspan x="0" y="0" class="st7 st4 st5">Godzilla </tspan><tspan x="56.39648" y="0" class="st7 st8 st5">by </tspan><tspan x="0" y="18" class="st7 st8 st5">Legendary Films </tspan><tspan x="0" y="36" class="st7 st8 st5">and directed by </tspan><tspan x="0" y="54" class="st7 st8 st5">Gareth Edwards</tspan></text>
<line class="st9" x1="138.46849" y1="47.59076" x2="594.5509" y2="47.59076"/>
<line class="st10" x1="665.67328" y1="124.78848" x2="1086.77332" y2="124.78848"/>
<line class="st11" x1="580.41174" y1="216.57431" x2="695.78766" y2="216.57431"/>
<text transform="matrix(1 0 0 1 610.37817 56.98794)"><tspan x="0" y="0" class="st4 st12">119.8</tspan><tspan x="4.16602" y="18" class="st4 st5">metres</tspan></text>
<text transform="matrix(1 0 0 1 619.28833 131.73099)"><tspan x="0" y="0" class="st7 st4 st12">108</tspan><tspan x="-4.74414" y="18" class="st7 st4 st5">metres</tspan></text>
<text transform="matrix(1 0 0 1 601.22241 211.46776)"><tspan x="0" y="0" class="st13 st4 st12">93</tspan><tspan x="24.19141" y="0" class="st13 st4 st14"> </tspan><tspan x="26.64258" y="0" class="st13 st4 st5">metres</tspan></text>
<text transform="matrix(1 0 0 1 582.72827 188.18141)" class="st13 st6 st5">Statue of Liberty</text>
<path class="st15" d="M736.33417,817.75427V790.2583h-2.05579v-1.67029h-26.33954l-11.17828-25.6972l-2.31274-2.05573v-3.46912
	c0.89941-0.12848,2.69818-0.89941,2.69818-3.98309s-2.69818-3.21216-2.69818-3.21216v-5.91034h2.05579l3.08368-2.18427V729.87
	h-5.39642v9.1225h-5.26788v-13.36255l-3.98309-5.78186v-15.16132h2.44122v-2.69818h-3.08368c0,0-1.86298-18.75891-1.86298-24.02692
	c0-5.26788,0-18.9516,0-18.9516l0.7066-0.70667v-2.44128h2.18427v-2.31268h-2.5697v-5.13947h2.5697v-1.92731h4.75397v-4.88245
	h-4.11151v-8.22302h1.79877v-5.39648h-5.01093v-1.28485h-1.67029v-3.98303h-1.79889v-8.99402h2.82672v-7.45215l-8.99396-3.85455
	h-2.82672v-14.51892c0,0-5.01099-0.3855-5.01099,0l-0.96088-0.25214c0,0,0.10498-0.73523-0.4201-1.05035
	c-0.52521-0.31506-2.62579-1.26038-2.62579-1.26038s-1.1554-3.0459-1.68054-3.99115
	c-0.52509-0.94531-0.84027-30.77417-0.84027-30.77417s0.21008-3.0459,1.05035-3.78113s0.84027-3.36102,0.84027-3.67615
	c0-0.31506,0.73523-0.63019,1.05029-0.73523c0.31512-0.10498,1.99554-0.31506,2.10059-0.63019
	c0.1051-0.31506,0.31512-4.5163,0.1051-5.46161c-0.21014-0.94525-0.52521-4.41132-0.63019-5.25153
	c-0.10504-0.84027-0.31512-12.70886-0.31512-12.70886s0.73517-1.57544,0.94531-2.41565
	c0.21002-0.84027,0.10504-1.89062-0.1051-2.52081c-0.21002-0.63019-0.52509-3.99118-0.52509-4.93643
	c0-0.94528,2.41565-2.41571,2.94086-3.57108c0.52515-1.15536,0.63019-11.02829,0.52515-12.18365
	c-0.10498-1.1553-0.4201-5.04147-0.21008-6.40689c0.21008-1.36539-0.10504-14.38928-0.52509-17.01511
	c-0.42017-2.62579-1.47052-9.66287-1.57556-10.71313c-0.10498-1.05035,0.10504-1.89059,0.10504-1.89059
	s1.36542-0.31506,1.99561-0.63019c0.63019-0.31506,1.5755-1.99561,1.68054-2.62579c0.10498-0.63022,0.73523-2.73083,1.15527-3.7811
	c0.42017-1.05035,1.05035-5.77676,1.05035-5.77676l7.87732,4.83142l11.44843-19.11566c0,0,1.68048,0,2.10065-0.52515
	c0.42017-0.52518,1.26038-0.63022,1.78558-1.15536c0.52509-0.52512,1.15527-1.99561,1.15527-1.99561s1.26038,0.52515,1.5755-0.63013
	c0.31506-1.15536,0.31506-1.99561,0.73523-2.52078c0.4201-0.52518,1.05029-1.26041,1.57544-2.41577
	c0.52521-1.15527,0.63019-3.25592,0.52521-3.88611c-0.10504-0.63019-0.73523-2.94092-0.84033-3.67615
	c-0.10498-0.7352,0.42017-2.52069,0.84033-3.15088c0.42004-0.63022,3.15088-5.0415,3.15088-5.0415l0.94531-4.41135
	l-23.73712-12.70877l-14.80939,25.94272c0,0-1.15533-3.67609-1.4704-4.51633c-0.31512-0.84024-1.26038-3.99121-1.99561-5.46164
	s-1.99561-2.83585-2.41577-4.6214c-0.4201-1.78549-0.63019-8.71756-1.05029-10.50311s-0.84021-1.89059-0.84021-2.52078
	s0-4.30627-0.63019-6.19684c-0.63019-1.89053-2.94092-4.93646-3.36102-5.88174c-0.42017-0.94531-2.73083-3.466-2.94092-4.20123
	c-0.21002-0.73523-1.05029-3.88617-1.26031-5.25159c-0.21014-1.36542-0.42017-4.41129,0.31506-5.98682
	c0.73523-1.57544,1.36542-3.36093,1.4704-5.46164c0.10504-2.10062-0.84021-3.46603-0.84021-4.72635
	c0-1.26038-0.42017-5.25159-0.31506-6.30188c0.10504-1.05032,0.52509-5.14658,0.94525-5.98679
	c0.42017-0.84024,0.73523-2.52078,0.73523-2.52078l19.53577-1.57547v-1.36539l-19.95593,0.21002c0,0-0.10504-2.31067-0.94525-3.7811
	l17.12012-8.82263l-0.21002-0.94525l-19.22076,5.88171c0,0-1.99561-1.78549-2.83582-2.41568l10.18799-11.65851l-1.05029-0.52515
	l-14.38934,10.18805l-3.04584-0.31512l-2.52081-15.12454h-1.15533l-2.73083,15.12454l-3.36102,0.21008l-14.38922-10.18805
	l-0.73529,0.63019l10.39819,11.65851c0,0-2.52081,1.26031-3.57117,2.94086l-9.55774-3.36102c0,0-0.52521-6.40689-0.94537-9.34781
	c-0.42004-2.94086-1.57544-10.18799-1.89056-12.07858c-0.31506-1.89056-0.63013-11.55347-0.52509-12.39371
	c0.10498-0.84021,0.42004-1.99557,0.73517-2.94086c0.31506-0.94531,0.21008-5.67166,0.4201-7.77237
	c0.21014-2.10062,0-3.25592-0.4201-4.30624c-0.4201-1.05029-1.05029-2.83585-1.4704-3.36102
	c-0.42017-0.52512-1.26038-1.05029-1.05035-1.68048s0.94525-2.20563,1.05035-3.15097c0.10504-0.94525,0-2.10062,0.21002-2.83585
	c0.21008-0.7352,0.63019-1.57544,0.94525-1.8905c0.31512-0.31512,1.47046-0.42014,1.47046-0.42014l0.78778-0.78778h2.67822v-1.10281
	h1.1554v-1.68048h-1.26038v-4.83144l1.05035-0.73521v-1.26039h-8.50763v-5.77676c0,0,1.89062-1.89052,2.41577-4.93646
	c0.52515-3.04588-0.42017-4.72641-1.05035-6.40689c-0.63013-1.68048-2.80328-6.12257-2.87207-9.25813
	c0,0-1.15637,5.1394-2.82672,6.03883c-1.67029,0.89943-1.54181,0.38544-1.79877-0.89943
	c-0.25696-1.28481-0.6424-1.92728-0.6424-1.92728s-2.44128,0.51393-2.56976,3.34062c-0.12848,2.82671,0.51392,3.59766,0,4.49701
	c-0.51392,0.89943-1.41333,0.89943-1.41333,0.89943s-0.51392,3.72606,0.51398,5.65334
	c1.02783,1.92734,2.44122,2.82671,2.44122,2.82671v5.78188h-8.22308v1.28487l0.57812,0.57816v4.9467h-1.34906v1.6703h1.54181
	l0.3855,1.02792h2.44122l0.12848,0.77094h1.79877v4.49695h1.15637v2.82669c0,0-1.41333-0.25696-1.54181,1.02792
	c-0.12848,1.28485,0.12848,2.44125,0.12848,2.44125s-1.15631,0.25696-1.41333,1.28479c-0.25696,1.02792,0,2.69821,0,2.69821
	s-1.15637,0.77097-1.02789,1.7988c0.12848,1.02792,1.54187,2.69821,1.54187,2.69821s-0.3855,3.72607,0.25696,5.13943
	c0.6424,1.41333,1.79877,3.46915,1.79877,3.46915v13.8764c0,0-0.77094,1.41336-0.89941,2.82669
	c-0.12848,1.41336-0.77087,8.35162-0.89935,10.66434c-0.12848,2.31277-0.25696,4.62549,0,6.68124
	c0.25696,2.05582,1.79877,7.58066,2.05573,8.99402s-0.25696,7.06674-0.25696,7.06674s-1.67029,3.08368-3.46912,5.1394
	c-1.79877,2.05576-6.29578,9.37949-7.06671,12.33466c-0.77087,2.95517-0.51392,7.3237,0.25696,8.60858
	c0.77094,1.28479,2.18427,2.82663,2.18427,2.82663s-1.02789,3.59763-0.51398,4.88251c0.51398,1.28482,2.69824,1.7988,2.69824,1.7988
	s1.79877,1.41333,1.79877,2.82669c0,1.4133-0.51392,8.737-0.6424,10.15036c-0.12848,1.41333,0,3.46909,0.12848,4.11154
	c0.12848,0.64243-1.28485,1.7988-1.15637,3.08368c0.12848,1.28485,1.41333,3.46909,1.41333,3.85452
	c0,0.38547,0.77094,2.9552,1.41339,4.36853c0.64246,1.41336,0.77094,3.72607,0.64246,5.13943c-0.12854,1.41333,0,15.8038,0,15.8038
	s-4.11157,4.75397-4.49701,6.55273c-0.3855,1.7988-0.3855,3.98303,1.92725,5.39639c2.31274,1.41333,5.1394,0.12848,5.78186,0.64246
	c0.64246,0.51392,1.41333,1.92728,1.41333,1.92728l-0.12848,8.73706c0,0-5.39636,8.86548-6.29584,10.27881
	c-0.89935,1.41336-2.1842,2.69821-1.79877,6.03885c0.38544,3.34061,3.72614,3.59756,3.72614,3.59756
	s0.38544,6.03885,0.77087,7.70917s0.77094,3.59763,0.89941,5.91034c0.12848,2.31281,0.12848,10.53586,0.25696,13.61951
	c0.12848,3.08368,0.25696,7.70917,0.12848,8.48004c-0.12848,0.77097-2.31274,2.44125-2.31274,4.36853
	s0.12854,2.69821,0.64246,3.46912c0.51392,0.77094,0.51392,2.1843,0.51392,2.95517c0,0.77094-0.25696,6.03885-0.38544,7.19522
	s-1.67029,4.62549-1.67029,6.93823s0.12848,9.89343,0.12848,12.20612c0,2.31281,0.51392,8.35162,0.51392,9.89343
	c0,1.54187-0.6424,4.23999-0.51392,6.68127c0.12848,2.44122-0.12848,4.75397,0.12848,6.03882
	c0.25696,1.28491,0.12848,3.85455,0,4.62549c-0.12848,0.77087-1.54187,0.25696-1.79883,1.67035
	c-0.25696,1.41333-0.64246,6.1673-0.64246,6.1673s-2.44116,2.44116-3.08368,3.46912c-0.6424,1.02789-2.44116,3.2121-3.08362,4.62549
	c-0.6424,1.41333-1.54187,3.2121-1.92731,3.98309c-0.38544,0.77087-0.12848,2.31268-0.38544,2.69812
	c-0.25696,0.3855-0.38544,1.92737-0.38544,1.54187s-5.01099,0-5.01099,0v14.51892H571.258l-8.99402,3.85455v7.45215h2.82672v8.99402
	h-1.79877v3.98303h-1.67041v1.28485h-5.01093v5.39648h1.79883v8.22302h-4.11151v4.88245h4.75397v1.92731h2.56964v5.13947h-2.56964
	v2.31268h2.1842v2.44128l0.70673,0.70667c0,0,0,13.68372,0,18.9516c0,5.26801-1.8631,24.02692-1.8631,24.02692h-3.08368v2.69818
	h2.44128v15.16132l-3.98309,5.78186v13.36255h-5.26788V729.87h-5.39636v12.20612l3.08362,2.18427h2.05579v5.91034
	c0,0-2.69824,0.12848-2.69824,3.21216s1.79877,3.85461,2.69824,3.98309v3.46912l-2.31281,2.05573l-11.17822,25.6972h-26.3396
	v1.67029H508.043v27.49597 M609.17914,323.59222l7.24719,2.52078l0.31506,1.57547l-1.68048,1.47043l-4.83142-0.10504
	L609.17914,323.59222z M617.47662,344.9136c-0.4201,0.52518-1.99561,1.78555-2.41571,2.31067
	c-0.42017,0.52518-1.05035,1.78555-1.15533,2.20572c-0.10504,0.42007-1.1554,0.42007-1.05029-0.1051
	c0.10498-0.52509-0.21014-5.56665-0.21014-6.19684c0-0.63013,0.31512-4.83145,0.10504-6.19678
	c-0.21002-1.36542-0.94525-2.20572-0.94525-2.20572s-0.52515-1.57544-0.63019-1.89053l4.09619,0.31509
	c0,0,0.63019,1.57544,0.63019,1.99557c0,0.42017,0.84027,2.31067,0.84027,3.15091c0,0.8403,0.10504,3.04596,0.21008,3.57114
	c0.10504,0.52509,0.94525,1.1553,0.94525,1.47043C617.89673,343.65323,617.89673,344.38843,617.47662,344.9136z"/>
<path class="st16" d="M736.33417,817.75427V790.2583h-2.05579v-1.67029h-26.33954l-11.17828-25.6972l-2.31274-2.05573v-3.46912
	c0.89941-0.12848,2.69818-0.89941,2.69818-3.98309s-2.69818-3.21216-2.69818-3.21216v-5.91034h2.05579l3.08368-2.18427V729.87
	h-5.39642v9.1225h-5.26788v-13.36255l-3.98309-5.78186v-15.16132h2.44122v-2.69818h-3.08368c0,0-1.86298-18.75891-1.86298-24.02692
	c0-5.26788,0-18.9516,0-18.9516l0.7066-0.70667v-2.44128h2.18427v-2.31268h-2.5697v-5.13947h2.5697v-1.92731h4.75397v-4.88245
	h-4.11151v-8.22302h1.79877v-5.39648h-5.01093v-1.28485h-1.67029v-3.98303h-1.79889v-8.99402h2.82672v-7.45215l-8.99396-3.85455
	h-2.82672v-14.51892c0,0-5.01099-0.3855-5.01099,0l-0.96088-0.25214c0,0,0.10498-0.73523-0.4201-1.05035
	c-0.52521-0.31506-2.62579-1.26038-2.62579-1.26038s-1.1554-3.0459-1.68054-3.99115
	c-0.52509-0.94531-0.84027-30.77417-0.84027-30.77417s0.21008-3.0459,1.05035-3.78113s0.84027-3.36102,0.84027-3.67615
	c0-0.31506,0.73523-0.63019,1.05029-0.73523c0.31512-0.10498,1.99554-0.31506,2.10059-0.63019
	c0.1051-0.31506,0.31512-4.5163,0.1051-5.46161c-0.21014-0.94525-0.52521-4.41132-0.63019-5.25153
	c-0.10504-0.84027-0.31512-12.70886-0.31512-12.70886s0.73517-1.57544,0.94531-2.41565
	c0.21002-0.84027,0.10504-1.89062-0.1051-2.52081c-0.21002-0.63019-0.52509-3.99118-0.52509-4.93643
	c0-0.94528,2.41565-2.41571,2.94086-3.57108c0.52515-1.15536,0.63019-11.02829,0.52515-12.18365
	c-0.10498-1.1553-0.4201-5.04147-0.21008-6.40689c0.21008-1.36539-0.10504-14.38928-0.52509-17.01511
	c-0.42017-2.62579-1.47052-9.66287-1.57556-10.71313c-0.10498-1.05035,0.10504-1.89059,0.10504-1.89059
	s1.36542-0.31506,1.99561-0.63019c0.63019-0.31506,1.5755-1.99561,1.68054-2.62579c0.10498-0.63022,0.73523-2.73083,1.15527-3.7811
	c0.42017-1.05035,1.05035-5.77676,1.05035-5.77676l7.87732,4.83142l11.44843-19.11566c0,0,1.68048,0,2.10065-0.52515
	c0.42017-0.52518,1.26038-0.63022,1.78558-1.15536c0.52509-0.52512,1.15527-1.99561,1.15527-1.99561s1.26038,0.52515,1.5755-0.63013
	c0.31506-1.15536,0.31506-1.99561,0.73523-2.52078c0.4201-0.52518,1.05029-1.26041,1.57544-2.41577
	c0.52521-1.15527,0.63019-3.25592,0.52521-3.88611c-0.10504-0.63019-0.73523-2.94092-0.84033-3.67615
	c-0.10498-0.7352,0.42017-2.52069,0.84033-3.15088c0.42004-0.63022,3.15088-5.0415,3.15088-5.0415l0.94531-4.41135
	l-23.73712-12.70877l-14.80939,25.94272c0,0-1.15533-3.67609-1.4704-4.51633c-0.31512-0.84024-1.26038-3.99121-1.99561-5.46164
	s-1.99561-2.83585-2.41577-4.6214c-0.4201-1.78549-0.63019-8.71756-1.05029-10.50311s-0.84021-1.89059-0.84021-2.52078
	s0-4.30627-0.63019-6.19684c-0.63019-1.89053-2.94092-4.93646-3.36102-5.88174c-0.42017-0.94531-2.73083-3.466-2.94092-4.20123
	c-0.21002-0.73523-1.05029-3.88617-1.26031-5.25159c-0.21014-1.36542-0.42017-4.41129,0.31506-5.98682
	c0.73523-1.57544,1.36542-3.36093,1.4704-5.46164c0.10504-2.10062-0.84021-3.46603-0.84021-4.72635
	c0-1.26038-0.42017-5.25159-0.31506-6.30188c0.10504-1.05032,0.52509-5.14658,0.94525-5.98679
	c0.42017-0.84024,0.73523-2.52078,0.73523-2.52078l19.53577-1.57547v-1.36539l-19.95593,0.21002c0,0-0.10504-2.31067-0.94525-3.7811
	l17.12012-8.82263l-0.21002-0.94525l-19.22076,5.88171c0,0-1.99561-1.78549-2.83582-2.41568l10.18799-11.65851l-1.05029-0.52515
	l-14.38934,10.18805l-3.04584-0.31512l-2.52081-15.12454h-1.15533l-2.73083,15.12454l-3.36102,0.21008l-14.38922-10.18805
	l-0.73529,0.63019l10.39819,11.65851c0,0-2.52081,1.26031-3.57117,2.94086l-9.55774-3.36102c0,0-0.52521-6.40689-0.94537-9.34781
	c-0.42004-2.94086-1.57544-10.18799-1.89056-12.07858c-0.31506-1.89056-0.63013-11.55347-0.52509-12.39371
	c0.10498-0.84021,0.42004-1.99557,0.73517-2.94086c0.31506-0.94531,0.21008-5.67166,0.4201-7.77237
	c0.21014-2.10062,0-3.25592-0.4201-4.30624c-0.4201-1.05029-1.05029-2.83585-1.4704-3.36102
	c-0.42017-0.52512-1.26038-1.05029-1.05035-1.68048s0.94525-2.20563,1.05035-3.15097c0.10504-0.94525,0-2.10062,0.21002-2.83585
	c0.21008-0.7352,0.63019-1.57544,0.94525-1.8905c0.31512-0.31512,1.47046-0.42014,1.47046-0.42014l0.78778-0.78778h2.67822v-1.10281
	h1.1554v-1.68048h-1.26038v-4.83144l1.05035-0.73521v-1.26039h-8.50763v-5.77676c0,0,1.89062-1.89052,2.41577-4.93646
	c0.52515-3.04588-0.42017-4.72641-1.05035-6.40689c-0.63013-1.68048-2.80328-6.12257-2.87207-9.25813
	c0,0-1.15637,5.1394-2.82672,6.03883c-1.67029,0.89943-1.54181,0.38544-1.79877-0.89943
	c-0.25696-1.28481-0.6424-1.92728-0.6424-1.92728s-2.44128,0.51393-2.56976,3.34062c-0.12848,2.82671,0.51392,3.59766,0,4.49701
	c-0.51392,0.89943-1.41333,0.89943-1.41333,0.89943s-0.51392,3.72606,0.51398,5.65334
	c1.02783,1.92734,2.44122,2.82671,2.44122,2.82671v5.78188h-8.22308v1.28487l0.57812,0.57816v4.9467h-1.34906v1.6703h1.54181
	l0.3855,1.02792h2.44122l0.12848,0.77094h1.79877v4.49695h1.15637v2.82669c0,0-1.41333-0.25696-1.54181,1.02792
	c-0.12848,1.28485,0.12848,2.44125,0.12848,2.44125s-1.15631,0.25696-1.41333,1.28479c-0.25696,1.02792,0,2.69821,0,2.69821
	s-1.15637,0.77097-1.02789,1.7988c0.12848,1.02792,1.54187,2.69821,1.54187,2.69821s-0.3855,3.72607,0.25696,5.13943
	c0.6424,1.41333,1.79877,3.46915,1.79877,3.46915v13.8764c0,0-0.77094,1.41336-0.89941,2.82669
	c-0.12848,1.41336-0.77087,8.35162-0.89935,10.66434c-0.12848,2.31277-0.25696,4.62549,0,6.68124
	c0.25696,2.05582,1.79877,7.58066,2.05573,8.99402s-0.25696,7.06674-0.25696,7.06674s-1.67029,3.08368-3.46912,5.1394
	c-1.79877,2.05576-6.29578,9.37949-7.06671,12.33466c-0.77087,2.95517-0.51392,7.3237,0.25696,8.60858
	c0.77094,1.28479,2.18427,2.82663,2.18427,2.82663s-1.02789,3.59763-0.51398,4.88251c0.51398,1.28482,2.69824,1.7988,2.69824,1.7988
	s1.79877,1.41333,1.79877,2.82669c0,1.4133-0.51392,8.737-0.6424,10.15036c-0.12848,1.41333,0,3.46909,0.12848,4.11154
	c0.12848,0.64243-1.28485,1.7988-1.15637,3.08368c0.12848,1.28485,1.41333,3.46909,1.41333,3.85452
	c0,0.38547,0.77094,2.9552,1.41339,4.36853c0.64246,1.41336,0.77094,3.72607,0.64246,5.13943c-0.12854,1.41333,0,15.8038,0,15.8038
	s-4.11157,4.75397-4.49701,6.55273c-0.3855,1.7988-0.3855,3.98303,1.92725,5.39639c2.31274,1.41333,5.1394,0.12848,5.78186,0.64246
	c0.64246,0.51392,1.41333,1.92728,1.41333,1.92728l-0.12848,8.73706c0,0-5.39636,8.86548-6.29584,10.27881
	c-0.89935,1.41336-2.1842,2.69821-1.79877,6.03885c0.38544,3.34061,3.72614,3.59756,3.72614,3.59756
	s0.38544,6.03885,0.77087,7.70917s0.77094,3.59763,0.89941,5.91034c0.12848,2.31281,0.12848,10.53586,0.25696,13.61951
	c0.12848,3.08368,0.25696,7.70917,0.12848,8.48004c-0.12848,0.77097-2.31274,2.44125-2.31274,4.36853
	s0.12854,2.69821,0.64246,3.46912c0.51392,0.77094,0.51392,2.1843,0.51392,2.95517c0,0.77094-0.25696,6.03885-0.38544,7.19522
	s-1.67029,4.62549-1.67029,6.93823s0.12848,9.89343,0.12848,12.20612c0,2.31281,0.51392,8.35162,0.51392,9.89343
	c0,1.54187-0.6424,4.23999-0.51392,6.68127c0.12848,2.44122-0.12848,4.75397,0.12848,6.03882
	c0.25696,1.28491,0.12848,3.85455,0,4.62549c-0.12848,0.77087-1.54187,0.25696-1.79883,1.67035
	c-0.25696,1.41333-0.64246,6.1673-0.64246,6.1673s-2.44116,2.44116-3.08368,3.46912c-0.6424,1.02789-2.44116,3.2121-3.08362,4.62549
	c-0.6424,1.41333-1.54187,3.2121-1.92731,3.98309c-0.38544,0.77087-0.12848,2.31268-0.38544,2.69812
	c-0.25696,0.3855-0.38544,1.92737-0.38544,1.54187s-5.01099,0-5.01099,0v14.51892H571.258l-8.99402,3.85455v7.45215h2.82672v8.99402
	h-1.79877v3.98303h-1.67041v1.28485h-5.01093v5.39648h1.79883v8.22302h-4.11151v4.88245h4.75397v1.92731h2.56964v5.13947h-2.56964
	v2.31268h2.1842v2.44128l0.70673,0.70667c0,0,0,13.68372,0,18.9516c0,5.26801-1.8631,24.02692-1.8631,24.02692h-3.08368v2.69818
	h2.44128v15.16132l-3.98309,5.78186v13.36255h-5.26788V729.87h-5.39636v12.20612l3.08362,2.18427h2.05579v5.91034
	c0,0-2.69824,0.12848-2.69824,3.21216s1.79877,3.85461,2.69824,3.98309v3.46912l-2.31281,2.05573l-11.17822,25.6972h-26.3396
	v1.67029H508.043v27.49597 M609.17914,323.59222l7.24719,2.52078l0.31506,1.57547l-1.68048,1.47043l-4.83142-0.10504
	L609.17914,323.59222z M617.47662,344.9136c-0.4201,0.52518-1.99561,1.78555-2.41571,2.31067
	c-0.42017,0.52518-1.05035,1.78555-1.15533,2.20572c-0.10504,0.42007-1.1554,0.42007-1.05029-0.1051
	c0.10498-0.52509-0.21014-5.56665-0.21014-6.19684c0-0.63013,0.31512-4.83145,0.10504-6.19678
	c-0.21002-1.36542-0.94525-2.20572-0.94525-2.20572s-0.52515-1.57544-0.63019-1.89053l4.09619,0.31509
	c0,0,0.63019,1.57544,0.63019,1.99557c0,0.42017,0.84027,2.31067,0.84027,3.15091c0,0.8403,0.10504,3.04596,0.21008,3.57114
	c0.10504,0.52509,0.94525,1.1553,0.94525,1.47043C617.89673,343.65323,617.89673,344.38843,617.47662,344.9136z"/>
</svg>
