<?xml version="1.0" encoding="utf-8"?>
<!-- Generator: Adobe Illustrator 23.0.2, SVG Export Plug-In . SVG Version: 6.00 Build 0)  -->
<svg version="1.1" id="Layer_1" xmlns="http://www.w3.org/2000/svg" xmlns:xlink="http://www.w3.org/1999/xlink" x="0px" y="0px"
	 viewBox="0 0 425 453.16074" style="enable-background:new 0 0 425 453.16074;" xml:space="preserve">
<style type="text/css">
    @import url('https://fonts.googleapis.com/css?family=Roboto:300,400,700');
	.st0{opacity:0.8;}
	.st1{font-family:'Roboto';font-weight: 700;}
	.st2{font-size:23px;}
	.st3{fill:none;}
	.st4{font-family:'Roboto';font-weight: 400; font-style:italic;}
	.st5{font-size:15px;}
	.st6{font-family:'Roboto';font-weight: 400;}
	.st7{fill:#58595B;}
	.st8{font-family:'Roboto';font-weight: 300;}
	.st9{fill:none;stroke:#58595B;stroke-width:0.5;stroke-miterlimit:10;}
	.st10{font-size:22px;}
	.st11{font-size:10px;}
	.st12{fill:none;stroke:#000000;stroke-width:0.5;stroke-miterlimit:10;}
	.st13{fill:#62B5D7;}
	.st14{fill:none;stroke:#62B5D7;stroke-width:0.5;stroke-miterlimit:10;}
	.st15{opacity:0.5;fill:#FFFFFF;stroke:#FFFFFF;stroke-width:3;stroke-linecap:round;stroke-linejoin:round;stroke-miterlimit:10;}
	.st16{fill:none;stroke:#62B5D7;stroke-linecap:round;stroke-linejoin:round;stroke-miterlimit:10;}
	.st17{fill:none;stroke:#62B5D7;stroke-linecap:round;stroke-linejoin:round;}
	.st18{fill:none;stroke:#62B5D7;stroke-linecap:round;stroke-linejoin:round;stroke-dasharray:0,2.89908;}
</style>
<g id="godzilladibu01.psd" class="st0">
	
		<image style="overflow:visible;" width="4940" height="4190" id="godzilladibu01_2_" xlink:href="186220D072C217AB.png"  transform="matrix(-0.07301 0 0 0.07301 452.7554 149.05437)">
	</image>
</g>
<g id="godzilla.psd_1_">
	
		<image style="overflow:visible;" width="5669" height="4190" id="godzilla_2_" xlink:href="186220D072C217A9.png"  transform="matrix(0.07894 0 0 0.07894 -17.54236 118.26392)">
	</image>
</g>
<text transform="matrix(0.99888 0 0 1 3.22405 23.17415)" class="st1 st2">2019</text>
<rect x="2.23324" y="36.05471" class="st3" width="213.0271" height="52.51366"/>
<text transform="matrix(1 0 0 1 2.23321 47.30482)"><tspan x="0" y="0" class="st4 st5">Godzilla: King of the Monsters </tspan><tspan x="0" y="18" class="st6 st5">by Legendary Films and </tspan><tspan x="0" y="36" class="st6 st5">directed by Michael Dougherty</tspan></text>
<text transform="matrix(0.99888 0 0 1 366.78949 23.17415)" class="st7 st1 st2">2014</text>
<rect x="253.90245" y="36.05471" class="st3" width="167.4492" height="51.52283"/>
<text transform="matrix(1 0 0 1 277.36536 47.30482)"><tspan x="0" y="0" class="st7 st4 st5">Godzilla </tspan><tspan x="56.39648" y="0" class="st7 st8 st5">by Legendary </tspan><tspan x="3.82324" y="18" class="st7 st8 st5">Films and directed by </tspan><tspan x="39.01611" y="36" class="st7 st8 st5">Gareth Edwards</tspan></text>
<line class="st9" x1="327.66379" y1="151.39238" x2="421.02139" y2="151.39238"/>
<text transform="matrix(1 0 0 1 2.23303 115.49236)"><tspan x="0" y="0" class="st4 st10">119.8</tspan><tspan x="54.1084" y="0" class="st4 st11"> </tspan><tspan x="56.55957" y="0" class="st4 st5">metres</tspan></text>
<text transform="matrix(1 0 0 1 336.83768 147.20914)"><tspan x="0" y="0" class="st7 st4 st10">108</tspan><tspan x="36.28711" y="0" class="st7 st4 st11"> </tspan><tspan x="38.73828" y="0" class="st7 st4 st5">metres</tspan></text>
<line class="st12" x1="2.52886" y1="120.46083" x2="111.00366" y2="120.46083"/>
<g>
	<text transform="matrix(1 0 0 1 196.59741 147.2095)"><tspan x="0" y="0" class="st13 st4 st10">93</tspan><tspan x="24.19141" y="0" class="st13 st4 st11"> </tspan><tspan x="26.64258" y="0" class="st13 st4 st5">metres</tspan></text>
	<text transform="matrix(1 0 0 1 178.10327 122.93232)" class="st13 st6 st5">Statue of Liberty</text>
</g>
<line class="st14" x1="215.37042" y1="189.48468" x2="259.84741" y2="189.48468"/>
<path class="st15" d="M287.61353,433.08209v-11.18164h-0.836v-0.67923h-10.71133l-4.54581-10.45013l-0.94052-0.836v-1.41074
	c0.36578-0.05228,1.09726-0.36578,1.09726-1.61978c0-1.25403-1.09726-1.30627-1.09726-1.30627v-2.40353h0.83603l1.25403-0.88824
	v-4.96381h-2.19455v3.70981h-2.14227v-5.43408l-1.61975-2.35129v-6.16553h0.99277v-1.09726h-1.25403
	c0,0-0.75763-7.62857-0.75763-9.77087c0-2.14224,0-7.70694,0-7.70694l0.28738-0.28735v-0.9928h0.88824v-0.94049h-1.04501v-2.09003
	h1.04501v-0.78375h1.93326v-1.9855h-1.672v-3.34402h0.73151v-2.19455h-2.03778v-0.52252h-0.67923v-1.61975h-0.73154v-3.65753
	h1.14951v-3.03052l-3.6575-1.5675h-1.14954v-5.90433c0,0-2.03778-0.15677-2.03778,0l-0.39078-0.10254
	c0,0,0.04272-0.29898-0.17084-0.42712s-1.06781-0.51257-1.06781-0.51257s-0.46985-1.23865-0.68341-1.62305
	c-0.21353-0.38443-0.34167-12.51474-0.34167-12.51474s0.08539-1.23865,0.42712-1.53766
	c0.34171-0.29898,0.34171-1.36679,0.34171-1.49493s0.29898-0.25629,0.42709-0.29898
	c0.12814-0.04272,0.81155-0.12814,0.85425-0.25629c0.04272-0.12811,0.12814-1.83661,0.04272-2.22104
	c-0.08542-0.3844-0.21356-1.79391-0.25626-2.13562c-0.04272-0.34171-0.12814-5.16821-0.12814-5.16821
	s0.29898-0.64069,0.3844-0.98239c0.08542-0.34167,0.04272-0.76883-0.04272-1.02509
	c-0.08542-0.25629-0.21353-1.62308-0.21353-2.00748c0-0.38443,0.98236-0.98239,1.19592-1.45224
	c0.21359-0.46985,0.25629-4.4848,0.21359-4.95465c-0.04272-0.46982-0.17087-2.05017-0.08545-2.60544
	c0.08545-0.55527-0.04272-5.85162-0.21356-6.91943s-0.59799-3.92953-0.64069-4.35666
	c-0.04272-0.42712,0.04269-0.76883,0.04269-0.76883s0.55527-0.12811,0.81155-0.25629
	c0.25629-0.12811,0.64069-0.81152,0.68341-1.06781c0.04269-0.25626,0.29898-1.1105,0.46982-1.53763
	c0.17087-0.42712,0.42712-2.34921,0.42712-2.34921l3.20343,1.96478l4.65567-7.77365c0,0,0.68338,0,0.85425-0.21356
	s0.51254-0.25629,0.72614-0.46985c0.21353-0.21353,0.46982-0.81152,0.46982-0.81152s0.51254,0.21356,0.64069-0.25626
	c0.12814-0.46985,0.12814-0.81155,0.29898-1.02512s0.42712-0.51254,0.64069-0.98239
	c0.21356-0.46982,0.25629-1.32407,0.21356-1.58035c-0.04269-0.25629-0.29898-1.19595-0.34171-1.49496
	c-0.04272-0.29898,0.17087-1.02509,0.34171-1.28134c0.17084-0.25629,1.28137-2.0502,1.28137-2.0502l0.38443-1.79395
	l-9.65302-5.16818l-6.02246,10.54996c0,0-0.46985-1.49493-0.59796-1.83661c-0.12814-0.34171-0.51257-1.62308-0.81155-2.22107
	c-0.29898-0.59796-0.81152-1.15323-0.98239-1.87933c-0.17084-0.7261-0.25627-3.54514-0.42711-4.27124
	c-0.17087-0.72614-0.34169-0.76883-0.34169-1.02512s0-1.75121-0.25629-2.52003c-0.25627-0.76881-1.19597-2.00748-1.36679-2.39189
	c-0.17087-0.38443-1.11053-1.4095-1.19597-1.7085c-0.08542-0.29898-0.42712-1.58037-0.51253-2.13562
	c-0.08545-0.55527-0.17087-1.79391,0.12811-2.43463c0.299-0.64067,0.55527-1.36678,0.59798-2.22104
	c0.04271-0.85425-0.34169-1.40952-0.34169-1.92204c0-0.51256-0.17087-2.13564-0.12813-2.56274
	c0.04271-0.42714,0.21355-2.09293,0.3844-2.43462c0.17087-0.34169,0.29898-1.0251,0.29898-1.0251l7.9445-0.64069v-0.55527
	l-8.11536,0.08542c0,0-0.04271-0.93967-0.3844-1.53763l6.96213-3.58786l-0.08542-0.3844l-7.81638,2.39189
	c0,0-0.81154-0.7261-1.15323-0.98238l4.14308-4.74109l-0.42711-0.21356l-5.85161,4.14311l-1.23865-0.12816l-1.02512-6.15059
	h-0.46985l-1.11052,6.15059l-1.36681,0.08545l-5.85158-4.14311l-0.29901,0.25627l4.22856,4.74109
	c0,0-1.02512,0.51253-1.45226,1.19594l-3.88681-1.36681c0,0-0.21356-2.60545-0.38443-3.80142
	c-0.17082-1.19594-0.64067-4.14308-0.76883-4.91191c-0.12811-0.76883-0.25624-4.69838-0.21353-5.04007
	s0.17082-0.81154,0.29898-1.19594c0.12813-0.38443,0.08542-2.30647,0.17084-3.16075c0.08543-0.85425,0-1.32407-0.17084-1.75119
	c-0.17087-0.42712-0.42714-1.15324-0.59798-1.36681c-0.17085-0.21355-0.51254-0.42711-0.42714-0.6834
	c0.08542-0.25627,0.38441-0.89696,0.42714-1.28137c0.04271-0.38441,0-0.85425,0.08542-1.15324
	c0.08542-0.29898,0.25629-0.64067,0.3844-0.7688c0.12816-0.12816,0.59798-0.17087,0.59798-0.17087l0.32036-0.32034h1.08916v-0.44849
	h0.46983v-0.68338h-0.51254v-1.96478l0.42714-0.29898v-0.51256h-3.45973v-2.3492c0,0,0.76883-0.7688,0.98241-2.00748
	c0.21356-1.23865-0.17087-1.92206-0.42714-2.60545c-0.25626-0.68338-1.14-2.48982-1.16798-3.76495
	c0,0-0.47026,2.09001-1.14951,2.45578c-0.67926,0.36577-0.62701,0.15675-0.73151-0.36577
	c-0.10449-0.52248-0.26125-0.78375-0.26125-0.78375s-0.99277,0.209-1.04501,1.35852c-0.05225,1.14951,0.20898,1.46303,0,1.82877
	c-0.209,0.36577-0.57475,0.36577-0.57475,0.36577s-0.209,1.51524,0.20901,2.299c0.41798,0.78378,0.99274,1.14952,0.99274,1.14952
	v2.35129h-3.34402v0.52251l0.23512,0.23511v2.01164h-0.54863v0.67926h0.627l0.15677,0.41801h0.99275l0.05225,0.31351h0.73151
	v1.82875h0.47026v1.14952c0,0-0.57475-0.10451-0.62701,0.41801c-0.05225,0.52251,0.05226,0.99277,0.05226,0.99277
	s-0.47025,0.10449-0.57477,0.52248c-0.10449,0.41801,0,1.09727,0,1.09727s-0.47023,0.31351-0.41798,0.73151
	c0.05225,0.41801,0.627,1.09726,0.627,1.09726s-0.15677,1.51526,0.10451,2.09001c0.26125,0.57477,0.73151,1.41078,0.73151,1.41078
	v5.64304c0,0-0.31352,0.57475-0.36577,1.14952c-0.05225,0.57475-0.31349,3.3963-0.36574,4.33679
	c-0.05225,0.94052-0.10451,1.88103,0,2.71703c0.10449,0.83601,0.73151,3.08278,0.836,3.65753
	c0.10449,0.57477-0.10449,2.87379-0.10449,2.87379s-0.67926,1.25401-1.41077,2.09001s-2.56027,3.81429-2.87379,5.01605
	c-0.31348,1.20177-0.20898,2.97829,0.10451,3.50079c0.31351,0.52249,0.88828,1.14949,0.88828,1.14949
	s-0.41801,1.46303-0.20903,1.98555c0.20903,0.52248,1.09727,0.73149,1.09727,0.73149s0.73151,0.57477,0.73151,1.14952
	c0,0.57474-0.209,3.55301-0.26125,4.12778s0,1.41077,0.05225,1.67203c0.05225,0.26123-0.52251,0.73151-0.47026,1.254
	c0.05225,0.52252,0.57475,1.41077,0.57475,1.5675c0,0.15677,0.31352,1.20178,0.57477,1.77652
	c0.26126,0.57477,0.31351,1.51526,0.26126,2.09003c-0.05228,0.57477,0,6.42685,0,6.42685s-1.67203,1.93326-1.82877,2.66476
	c-0.15677,0.73151-0.15677,1.61975,0.78375,2.19449c0.94049,0.57477,2.09001,0.05225,2.35127,0.26129
	c0.26125,0.20898,0.57474,0.78375,0.57474,0.78375l-0.05225,3.55304c0,0-2.19452,3.60526-2.56027,4.18002
	c-0.36574,0.57477-0.88826,1.09726-0.73151,2.45578c0.15674,1.35849,1.51527,1.46301,1.51527,1.46301
	s0.15675,2.45575,0.31349,3.13501c0.15675,0.67926,0.31352,1.46304,0.36577,2.40353
	c0.05225,0.94052,0.05225,4.28455,0.10449,5.53857c0.05225,1.254,0.10451,3.13501,0.05225,3.44852
	c-0.05225,0.31351-0.94052,0.99277-0.94052,1.77652s0.05228,1.09726,0.26128,1.41077
	c0.20898,0.31351,0.20898,0.88828,0.20898,1.20175c0,0.31351-0.10449,2.45578-0.15674,2.92603
	c-0.05225,0.47028-0.67926,1.88104-0.67926,2.82153c0,0.94052,0.05225,4.02332,0.05225,4.96381
	c0,0.94052,0.209,3.3963,0.209,4.02328c0,0.62701-0.26125,1.72427-0.209,2.71704c0.05226,0.99277-0.05225,1.93326,0.05226,2.45578
	c0.10449,0.52249,0.05225,1.5675,0,1.88101c-0.05226,0.31348-0.62701,0.10449-0.73151,0.67926
	c-0.10449,0.57474-0.26128,2.50803-0.26128,2.50803s-0.99274,0.99274-1.25401,1.41074
	c-0.26123,0.41803-0.99274,1.30627-1.25401,1.88104c-0.26123,0.57474-0.627,1.30624-0.78375,1.61975
	c-0.15674,0.31351-0.05225,0.94052-0.15674,1.09726c-0.10449,0.15677-0.15674,0.78378-0.15674,0.62701s-2.0378,0-2.0378,0v5.90433
	h-1.14949l-3.65755,1.5675v3.03052h1.14952v3.65753h-0.73151v1.61975h-0.67928v0.52252h-2.03777v2.19455h0.73151v3.34402h-1.672
	v1.9855h1.93326v0.78375h1.045v2.09003h-1.045v0.94049h0.88824v0.9928l0.2874,0.28735c0,0,0,5.5647,0,7.70694
	c0,2.1423-0.75766,9.77087-0.75766,9.77087h-1.25401v1.09726h0.99278v6.16553l-1.61978,2.35129v5.43408h-2.14226v-3.70981h-2.19452
	v4.96381l1.25401,0.88824h0.836v2.40353c0,0-1.09726,0.05225-1.09726,1.30627c0,1.254,0.73151,1.5675,1.09726,1.61978v1.41074
	l-0.94052,0.836l-4.54579,10.45013h-10.71135v0.67923h-0.836v11.18164 M235.90419,232.12427l2.94717,1.0251l0.12813,0.64069
	l-0.6834,0.59798l-1.96477-0.04271L235.90419,232.12427z M239.27847,240.79489c-0.17084,0.21358-0.81154,0.72612-0.98238,0.93967
	c-0.17085,0.21358-0.42714,0.72612-0.46985,0.89699c-0.04269,0.17082-0.46983,0.17082-0.42711-0.04274
	c0.04271-0.21355-0.08543-2.26376-0.08543-2.52003c0-0.25626,0.12814-1.96477,0.04271-2.52
	c-0.08542-0.55527-0.38441-0.89699-0.38441-0.89699s-0.21356-0.64067-0.25627-0.7688l1.66579,0.12813
	c0,0,0.25627,0.64067,0.25627,0.81154c0,0.17085,0.34171,0.93965,0.34171,1.28136c0,0.34172,0.04271,1.23868,0.08543,1.45224
	c0.04271,0.21355,0.38441,0.46982,0.38441,0.59798C239.44934,240.28233,239.44934,240.58133,239.27847,240.79489z"/>
<path class="st16" d="M287.61353,433.08209v-11.18164h-0.836v-0.67923h-10.71133l-4.54581-10.45013l-0.94052-0.836v-1.41074
	c0.36578-0.05228,1.09726-0.36578,1.09726-1.61978c0-1.25403-1.09726-1.30627-1.09726-1.30627v-2.40353h0.83603l1.25403-0.88824
	v-4.96381h-2.19455v3.70981h-2.14227v-5.43408l-1.61975-2.35129v-6.16553h0.99277v-1.09726h-1.25403
	c0,0-0.75763-7.62857-0.75763-9.77087c0-2.14224,0-7.70694,0-7.70694l0.28738-0.28735v-0.9928h0.88824v-0.94049h-1.04501v-2.09003
	h1.04501v-0.78375h1.93326v-1.9855h-1.672v-3.34402h0.73151v-2.19455h-2.03778v-0.52252h-0.67923v-1.61975h-0.73154v-3.65753
	h1.14951v-3.03052l-3.6575-1.5675h-1.14954v-5.90433c0,0-2.03778-0.15677-2.03778,0l-0.39078-0.10254
	c0,0,0.04272-0.29898-0.17084-0.42712s-1.06781-0.51257-1.06781-0.51257s-0.46985-1.23865-0.68341-1.62305
	c-0.21353-0.38443-0.34167-12.51474-0.34167-12.51474s0.08539-1.23865,0.42712-1.53766
	c0.34171-0.29898,0.34171-1.36679,0.34171-1.49493s0.29898-0.25629,0.42709-0.29898
	c0.12814-0.04272,0.81155-0.12814,0.85425-0.25629c0.04272-0.12811,0.12814-1.83661,0.04272-2.22104
	c-0.08542-0.3844-0.21356-1.79391-0.25626-2.13562c-0.04272-0.34171-0.12814-5.16821-0.12814-5.16821
	s0.29898-0.64069,0.3844-0.98239c0.08542-0.34167,0.04272-0.76883-0.04272-1.02509
	c-0.08542-0.25629-0.21353-1.62308-0.21353-2.00748c0-0.38443,0.98236-0.98239,1.19592-1.45224
	c0.21359-0.46985,0.25629-4.4848,0.21359-4.95465c-0.04272-0.46982-0.17087-2.05017-0.08545-2.60544
	c0.08545-0.55527-0.04272-5.85162-0.21356-6.91943s-0.59799-3.92953-0.64069-4.35666
	c-0.04272-0.42712,0.04269-0.76883,0.04269-0.76883s0.55527-0.12811,0.81155-0.25629
	c0.25629-0.12811,0.64069-0.81152,0.68341-1.06781c0.04269-0.25626,0.29898-1.1105,0.46982-1.53763
	c0.17087-0.42712,0.42712-2.34921,0.42712-2.34921l3.20343,1.96478l4.65567-7.77365c0,0,0.68338,0,0.85425-0.21356
	s0.51254-0.25629,0.72614-0.46985c0.21353-0.21353,0.46982-0.81152,0.46982-0.81152s0.51254,0.21356,0.64069-0.25626
	c0.12814-0.46985,0.12814-0.81155,0.29898-1.02512s0.42712-0.51254,0.64069-0.98239
	c0.21356-0.46982,0.25629-1.32407,0.21356-1.58035c-0.04269-0.25629-0.29898-1.19595-0.34171-1.49496
	c-0.04272-0.29898,0.17087-1.02509,0.34171-1.28134c0.17084-0.25629,1.28137-2.0502,1.28137-2.0502l0.38443-1.79395
	l-9.65302-5.16818l-6.02246,10.54996c0,0-0.46985-1.49493-0.59796-1.83661c-0.12814-0.34171-0.51257-1.62308-0.81155-2.22107
	c-0.29898-0.59796-0.81152-1.15323-0.98239-1.87933c-0.17084-0.7261-0.25627-3.54514-0.42711-4.27124
	c-0.17087-0.72614-0.34169-0.76883-0.34169-1.02512s0-1.75121-0.25629-2.52003c-0.25627-0.76881-1.19597-2.00748-1.36679-2.39189
	c-0.17087-0.38443-1.11053-1.4095-1.19597-1.7085c-0.08542-0.29898-0.42712-1.58037-0.51253-2.13562
	c-0.08545-0.55527-0.17087-1.79391,0.12811-2.43463c0.299-0.64067,0.55527-1.36678,0.59798-2.22104
	c0.04271-0.85425-0.34169-1.40952-0.34169-1.92204c0-0.51256-0.17087-2.13564-0.12813-2.56274
	c0.04271-0.42714,0.21355-2.09293,0.3844-2.43462c0.17087-0.34169,0.29898-1.0251,0.29898-1.0251l7.9445-0.64069v-0.55527
	l-8.11536,0.08542c0,0-0.04271-0.93967-0.3844-1.53763l6.96213-3.58786l-0.08542-0.3844l-7.81638,2.39189
	c0,0-0.81154-0.7261-1.15323-0.98238l4.14308-4.74109l-0.42711-0.21356l-5.85161,4.14311l-1.23865-0.12816l-1.02512-6.15059
	h-0.46985l-1.11052,6.15059l-1.36681,0.08545l-5.85158-4.14311l-0.29901,0.25627l4.22856,4.74109
	c0,0-1.02512,0.51253-1.45226,1.19594l-3.88681-1.36681c0,0-0.21356-2.60545-0.38443-3.80142
	c-0.17082-1.19594-0.64067-4.14308-0.76883-4.91191c-0.12811-0.76883-0.25624-4.69838-0.21353-5.04007
	s0.17082-0.81154,0.29898-1.19594c0.12813-0.38443,0.08542-2.30647,0.17084-3.16075c0.08543-0.85425,0-1.32407-0.17084-1.75119
	c-0.17087-0.42712-0.42714-1.15324-0.59798-1.36681c-0.17085-0.21355-0.51254-0.42711-0.42714-0.6834
	c0.08542-0.25627,0.38441-0.89696,0.42714-1.28137c0.04271-0.38441,0-0.85425,0.08542-1.15324
	c0.08542-0.29898,0.25629-0.64067,0.3844-0.7688c0.12816-0.12816,0.59798-0.17087,0.59798-0.17087l0.32036-0.32034h1.08916v-0.44849
	h0.46983v-0.68338h-0.51254v-1.96478l0.42714-0.29898v-0.51256h-3.45973v-2.3492c0,0,0.76883-0.7688,0.98241-2.00748
	c0.21356-1.23865-0.17087-1.92206-0.42714-2.60545c-0.25626-0.68338-1.14-2.48982-1.16798-3.76495
	c0,0-0.47026,2.09001-1.14951,2.45578c-0.67926,0.36577-0.62701,0.15675-0.73151-0.36577
	c-0.10449-0.52248-0.26125-0.78375-0.26125-0.78375s-0.99277,0.209-1.04501,1.35852c-0.05225,1.14951,0.20898,1.46303,0,1.82877
	c-0.209,0.36577-0.57475,0.36577-0.57475,0.36577s-0.209,1.51524,0.20901,2.299c0.41798,0.78378,0.99274,1.14952,0.99274,1.14952
	v2.35129h-3.34402v0.52251l0.23512,0.23511v2.01164h-0.54863v0.67926h0.627l0.15677,0.41801h0.99275l0.05225,0.31351h0.73151
	v1.82875h0.47026v1.14952c0,0-0.57475-0.10451-0.62701,0.41801c-0.05225,0.52251,0.05226,0.99277,0.05226,0.99277
	s-0.47025,0.10449-0.57477,0.52248c-0.10449,0.41801,0,1.09727,0,1.09727s-0.47023,0.31351-0.41798,0.73151
	c0.05225,0.41801,0.627,1.09726,0.627,1.09726s-0.15677,1.51526,0.10451,2.09001c0.26125,0.57477,0.73151,1.41078,0.73151,1.41078
	v5.64304c0,0-0.31352,0.57475-0.36577,1.14952c-0.05225,0.57475-0.31349,3.3963-0.36574,4.33679
	c-0.05225,0.94052-0.10451,1.88103,0,2.71703c0.10449,0.83601,0.73151,3.08278,0.836,3.65753
	c0.10449,0.57477-0.10449,2.87379-0.10449,2.87379s-0.67926,1.25401-1.41077,2.09001s-2.56027,3.81429-2.87379,5.01605
	c-0.31348,1.20177-0.20898,2.97829,0.10451,3.50079c0.31351,0.52249,0.88828,1.14949,0.88828,1.14949
	s-0.41801,1.46303-0.20903,1.98555c0.20903,0.52248,1.09727,0.73149,1.09727,0.73149s0.73151,0.57477,0.73151,1.14952
	c0,0.57474-0.209,3.55301-0.26125,4.12778s0,1.41077,0.05225,1.67203c0.05225,0.26123-0.52251,0.73151-0.47026,1.254
	c0.05225,0.52252,0.57475,1.41077,0.57475,1.5675c0,0.15677,0.31352,1.20178,0.57477,1.77652
	c0.26126,0.57477,0.31351,1.51526,0.26126,2.09003c-0.05228,0.57477,0,6.42685,0,6.42685s-1.67203,1.93326-1.82877,2.66476
	c-0.15677,0.73151-0.15677,1.61975,0.78375,2.19449c0.94049,0.57477,2.09001,0.05225,2.35127,0.26129
	c0.26125,0.20898,0.57474,0.78375,0.57474,0.78375l-0.05225,3.55304c0,0-2.19452,3.60526-2.56027,4.18002
	c-0.36574,0.57477-0.88826,1.09726-0.73151,2.45578c0.15674,1.35849,1.51527,1.46301,1.51527,1.46301
	s0.15675,2.45575,0.31349,3.13501c0.15675,0.67926,0.31352,1.46304,0.36577,2.40353
	c0.05225,0.94052,0.05225,4.28455,0.10449,5.53857c0.05225,1.254,0.10451,3.13501,0.05225,3.44852
	c-0.05225,0.31351-0.94052,0.99277-0.94052,1.77652s0.05228,1.09726,0.26128,1.41077
	c0.20898,0.31351,0.20898,0.88828,0.20898,1.20175c0,0.31351-0.10449,2.45578-0.15674,2.92603
	c-0.05225,0.47028-0.67926,1.88104-0.67926,2.82153c0,0.94052,0.05225,4.02332,0.05225,4.96381
	c0,0.94052,0.209,3.3963,0.209,4.02328c0,0.62701-0.26125,1.72427-0.209,2.71704c0.05226,0.99277-0.05225,1.93326,0.05226,2.45578
	c0.10449,0.52249,0.05225,1.5675,0,1.88101c-0.05226,0.31348-0.62701,0.10449-0.73151,0.67926
	c-0.10449,0.57474-0.26128,2.50803-0.26128,2.50803s-0.99274,0.99274-1.25401,1.41074
	c-0.26123,0.41803-0.99274,1.30627-1.25401,1.88104c-0.26123,0.57474-0.627,1.30624-0.78375,1.61975
	c-0.15674,0.31351-0.05225,0.94052-0.15674,1.09726c-0.10449,0.15677-0.15674,0.78378-0.15674,0.62701s-2.0378,0-2.0378,0v5.90433
	h-1.14949l-3.65755,1.5675v3.03052h1.14952v3.65753h-0.73151v1.61975h-0.67928v0.52252h-2.03777v2.19455h0.73151v3.34402h-1.672
	v1.9855h1.93326v0.78375h1.045v2.09003h-1.045v0.94049h0.88824v0.9928l0.2874,0.28735c0,0,0,5.5647,0,7.70694
	c0,2.1423-0.75766,9.77087-0.75766,9.77087h-1.25401v1.09726h0.99278v6.16553l-1.61978,2.35129v5.43408h-2.14226v-3.70981h-2.19452
	v4.96381l1.25401,0.88824h0.836v2.40353c0,0-1.09726,0.05225-1.09726,1.30627c0,1.254,0.73151,1.5675,1.09726,1.61978v1.41074
	l-0.94052,0.836l-4.54579,10.45013h-10.71135v0.67923h-0.836v11.18164 M235.90419,232.12427l2.94717,1.0251l0.12813,0.64069
	l-0.6834,0.59798l-1.96477-0.04271L235.90419,232.12427z M239.27847,240.79489c-0.17084,0.21358-0.81154,0.72612-0.98238,0.93967
	c-0.17085,0.21358-0.42714,0.72612-0.46985,0.89699c-0.04269,0.17082-0.46983,0.17082-0.42711-0.04274
	c0.04271-0.21355-0.08543-2.26376-0.08543-2.52003c0-0.25626,0.12814-1.96477,0.04271-2.52
	c-0.08542-0.55527-0.38441-0.89699-0.38441-0.89699s-0.21356-0.64067-0.25627-0.7688l1.66579,0.12813
	c0,0,0.25627,0.64067,0.25627,0.81154c0,0.17085,0.34171,0.93965,0.34171,1.28136c0,0.34172,0.04271,1.23868,0.08543,1.45224
	c0.04271,0.21355,0.38441,0.46982,0.38441,0.59798C239.44934,240.28233,239.44934,240.58133,239.27847,240.79489z"/>
<g>
	<g>
		<line class="st17" x1="231.2236" y1="151.54073" x2="231.2236" y2="151.54073"/>
		<line class="st18" x1="231.2236" y1="154.43979" x2="231.2236" y2="184.8801"/>
		<line class="st17" x1="231.2236" y1="186.32964" x2="231.2236" y2="186.32964"/>
	</g>
</g>
</svg>
