<?xml version="1.0" encoding="utf-8"?>
<!-- Generator: Adobe Illustrator 23.0.2, SVG Export Plug-In . SVG Version: 6.00 Build 0)  -->
<svg version="1.1" id="Layer_1" xmlns="http://www.w3.org/2000/svg" xmlns:xlink="http://www.w3.org/1999/xlink" x="0px" y="0px"
	 viewBox="0 0 425 703.5921" style="enable-background:new 0 0 425 703.5921;" xml:space="preserve">
<style type="text/css">
    @import url('https://fonts.googleapis.com/css?family=Roboto:300,400,700');
	.st0{fill:#C0E1EF;}
	.st1{fill:url(#SVGID_1_);}
	.st2{fill:url(#SVGID_2_);}
	.st3{opacity:0.5;}
	.st4{fill:#5DB6E6;stroke:#192D37;stroke-miterlimit:10;}
	.st5{fill:none;stroke:#192D37;stroke-width:0.35;stroke-miterlimit:10;}
	.st6{fill:none;stroke:#5DB6E6;stroke-linecap:round;stroke-linejoin:round;stroke-miterlimit:10;}
	.st7{fill:none;stroke:#5DB6E6;stroke-width:0.35;stroke-linecap:round;stroke-linejoin:round;stroke-miterlimit:10;}
	.st8{opacity:0.4118;fill:#82C5DF;enable-background:new    ;}
	.st9{opacity:0.4118;fill:#C0E1EF;enable-background:new    ;}
	.st10{fill:none;}
	.st11{fill:url(#SVGID_3_);}
	.st12{fill:url(#SVGID_4_);}
	.st13{opacity:0;fill:#FFFFFF;}
	.st14{opacity:0.01961;fill:#FFFFFF;}
	.st15{opacity:0.03922;fill:#FFFFFF;}
	.st16{opacity:0.05882;fill:#FFFFFF;}
	.st17{opacity:0.07843;fill:#FFFFFF;}
	.st18{opacity:0.09804;fill:#FFFFFF;}
	.st19{opacity:0.11765;fill:#FFFFFF;}
	.st20{opacity:0.13725;fill:#FFFFFF;}
	.st21{opacity:0.15686;fill:#FFFFFF;}
	.st22{opacity:0.17647;fill:#FFFFFF;}
	.st23{opacity:0.19608;fill:#FFFFFF;}
	.st24{opacity:0.21569;fill:#FFFFFF;}
	.st25{opacity:0.23529;fill:#FFFFFF;}
	.st26{opacity:0.2549;fill:#FFFFFF;}
	.st27{opacity:0.27451;fill:#FFFFFF;}
	.st28{opacity:0.29412;fill:#FFFFFF;}
	.st29{opacity:0.31373;fill:#FFFFFF;}
	.st30{opacity:0.33333;fill:#FFFFFF;}
	.st31{opacity:0.35294;fill:#FFFFFF;}
	.st32{opacity:0.37255;fill:#FFFFFF;}
	.st33{opacity:0.39216;fill:#FFFFFF;}
	.st34{opacity:0.41176;fill:#FFFFFF;}
	.st35{opacity:0.43137;fill:#FFFFFF;}
	.st36{opacity:0.45098;fill:#FFFFFF;}
	.st37{opacity:0.47059;fill:#FFFFFF;}
	.st38{opacity:0.4902;fill:#FFFFFF;}
	.st39{opacity:0.5098;fill:#FFFFFF;}
	.st40{opacity:0.52941;fill:#FFFFFF;}
	.st41{opacity:0.54902;fill:#FFFFFF;}
	.st42{opacity:0.56863;fill:#FFFFFF;}
	.st43{opacity:0.58824;fill:#FFFFFF;}
	.st44{opacity:0.60784;fill:#FFFFFF;}
	.st45{opacity:0.62745;fill:#FFFFFF;}
	.st46{opacity:0.64706;fill:#FFFFFF;}
	.st47{opacity:0.66667;fill:#FFFFFF;}
	.st48{opacity:0.68627;fill:#FFFFFF;}
	.st49{opacity:0.70588;fill:#FFFFFF;}
	.st50{opacity:0.72549;fill:#FFFFFF;}
	.st51{opacity:0.7451;fill:#FFFFFF;}
	.st52{opacity:0.76471;fill:#FFFFFF;}
	.st53{opacity:0.78431;fill:#FFFFFF;}
	.st54{opacity:0.80392;fill:#FFFFFF;}
	.st55{opacity:0.82353;fill:#FFFFFF;}
	.st56{opacity:0.84314;fill:#FFFFFF;}
	.st57{opacity:0.86275;fill:#FFFFFF;}
	.st58{opacity:0.88235;fill:#FFFFFF;}
	.st59{opacity:0.90196;fill:#FFFFFF;}
	.st60{opacity:0.92157;fill:#FFFFFF;}
	.st61{opacity:0.94118;fill:#FFFFFF;}
	.st62{opacity:0.96078;fill:#FFFFFF;}
	.st63{opacity:0.98039;fill:#FFFFFF;}
	.st64{fill:#FFFFFF;}
	.st65{font-family:'Roboto';font-weight: 300;}
	.st66{font-size:15px;}
	.st67{font-family:'Roboto';font-weight: 400;}
	.st68{font-size:21.18368px;}
	.st69{fill:url(#SVGID_5_);}
	.st70{display:none;}
	.st71{display:inline;fill:#C0E1EF;}
	.st72{display:inline;}
	.st73{fill:#C0E1EF;fill-opacity:0;}
	.st74{opacity:0.01961;fill:#C0E1EF;enable-background:new    ;}
	.st75{opacity:0.03922;fill:#C0E1EF;enable-background:new    ;}
	.st76{opacity:0.05882;fill:#C0E1EF;enable-background:new    ;}
	.st77{opacity:0.07843;fill:#C0E1EF;enable-background:new    ;}
	.st78{opacity:0.09804;fill:#C0E1EF;enable-background:new    ;}
	.st79{opacity:0.1177;fill:#C0E1EF;enable-background:new    ;}
	.st80{opacity:0.1373;fill:#C0E1EF;enable-background:new    ;}
	.st81{opacity:0.1569;fill:#C0E1EF;enable-background:new    ;}
	.st82{opacity:0.1765;fill:#C0E1EF;enable-background:new    ;}
	.st83{opacity:0.1961;fill:#C0E1EF;enable-background:new    ;}
	.st84{opacity:0.2157;fill:#C0E1EF;enable-background:new    ;}
	.st85{opacity:0.2353;fill:#C0E1EF;enable-background:new    ;}
	.st86{opacity:0.2549;fill:#C0E1EF;enable-background:new    ;}
	.st87{opacity:0.2745;fill:#C0E1EF;enable-background:new    ;}
	.st88{opacity:0.2941;fill:#C0E1EF;enable-background:new    ;}
	.st89{opacity:0.3137;fill:#C0E1EF;enable-background:new    ;}
	.st90{opacity:0.3333;fill:#C0E1EF;enable-background:new    ;}
	.st91{opacity:0.3529;fill:#C0E1EF;enable-background:new    ;}
	.st92{opacity:0.3726;fill:#C0E1EF;enable-background:new    ;}
	.st93{opacity:0.3922;fill:#C0E1EF;enable-background:new    ;}
	.st94{opacity:0.4314;fill:#C0E1EF;enable-background:new    ;}
	.st95{opacity:0.451;fill:#C0E1EF;enable-background:new    ;}
	.st96{opacity:0.4706;fill:#C0E1EF;enable-background:new    ;}
	.st97{opacity:0.4902;fill:#C0E1EF;enable-background:new    ;}
	.st98{opacity:0.5098;fill:#C0E1EF;enable-background:new    ;}
	.st99{opacity:0.5294;fill:#C0E1EF;enable-background:new    ;}
	.st100{opacity:0.549;fill:#C0E1EF;enable-background:new    ;}
	.st101{opacity:0.5686;fill:#C0E1EF;enable-background:new    ;}
	.st102{opacity:0.5882;fill:#C0E1EF;enable-background:new    ;}
	.st103{opacity:0.6078;fill:#C0E1EF;enable-background:new    ;}
	.st104{opacity:0.6274;fill:#C0E1EF;enable-background:new    ;}
	.st105{opacity:0.6471;fill:#C0E1EF;enable-background:new    ;}
	.st106{opacity:0.6667;fill:#C0E1EF;enable-background:new    ;}
	.st107{opacity:0.6863;fill:#C0E1EF;enable-background:new    ;}
	.st108{opacity:0.7059;fill:#C0E1EF;enable-background:new    ;}
	.st109{opacity:0.7255;fill:#C0E1EF;enable-background:new    ;}
	.st110{opacity:0.7451;fill:#C0E1EF;enable-background:new    ;}
	.st111{opacity:0.7647;fill:#C0E1EF;enable-background:new    ;}
	.st112{opacity:0.7843;fill:#C0E1EF;enable-background:new    ;}
	.st113{opacity:0.8039;fill:#C0E1EF;enable-background:new    ;}
	.st114{opacity:0.8235;fill:#C0E1EF;enable-background:new    ;}
	.st115{opacity:0.8431;fill:#C0E1EF;enable-background:new    ;}
	.st116{opacity:0.8627;fill:#C0E1EF;enable-background:new    ;}
	.st117{opacity:0.8824;fill:#C0E1EF;enable-background:new    ;}
	.st118{opacity:0.902;fill:#C0E1EF;enable-background:new    ;}
	.st119{opacity:0.9216;fill:#C0E1EF;enable-background:new    ;}
	.st120{opacity:0.9412;fill:#C0E1EF;enable-background:new    ;}
	.st121{opacity:0.9608;fill:#C0E1EF;enable-background:new    ;}
	.st122{opacity:0.9804;fill:#C0E1EF;enable-background:new    ;}
	.st123{display:none;fill:url(#SVGID_6_);}
	.st124{display:none;fill:url(#SVGID_7_);}
	.st125{display:inline;fill:#FFFFFF;fill-opacity:0;}
	.st126{display:inline;opacity:0.01961;fill:#FFFFFF;enable-background:new    ;}
	.st127{display:inline;opacity:0.03922;fill:#FFFFFF;enable-background:new    ;}
	.st128{display:inline;opacity:0.05882;fill:#FFFFFF;enable-background:new    ;}
	.st129{display:inline;opacity:0.07843;fill:#FFFFFF;enable-background:new    ;}
	.st130{display:inline;opacity:0.09804;fill:#FFFFFF;enable-background:new    ;}
	.st131{display:inline;opacity:0.1177;fill:#FFFFFF;enable-background:new    ;}
	.st132{display:inline;opacity:0.1373;fill:#FFFFFF;enable-background:new    ;}
	.st133{display:inline;opacity:0.1569;fill:#FFFFFF;enable-background:new    ;}
	.st134{display:inline;opacity:0.1765;fill:#FFFFFF;enable-background:new    ;}
	.st135{display:inline;opacity:0.1961;fill:#FFFFFF;enable-background:new    ;}
	.st136{display:inline;opacity:0.2157;fill:#FFFFFF;enable-background:new    ;}
	.st137{display:inline;opacity:0.2353;fill:#FFFFFF;enable-background:new    ;}
	.st138{display:inline;opacity:0.2549;fill:#FFFFFF;enable-background:new    ;}
	.st139{display:inline;opacity:0.2745;fill:#FFFFFF;enable-background:new    ;}
	.st140{display:inline;opacity:0.2941;fill:#FFFFFF;enable-background:new    ;}
	.st141{display:inline;opacity:0.3137;fill:#FFFFFF;enable-background:new    ;}
	.st142{display:inline;opacity:0.3333;fill:#FFFFFF;enable-background:new    ;}
	.st143{display:inline;opacity:0.3529;fill:#FFFFFF;enable-background:new    ;}
	.st144{display:inline;opacity:0.3726;fill:#FFFFFF;enable-background:new    ;}
	.st145{display:inline;opacity:0.3922;fill:#FFFFFF;enable-background:new    ;}
	.st146{display:inline;opacity:0.4118;fill:#FFFFFF;enable-background:new    ;}
	.st147{display:inline;opacity:0.4314;fill:#FFFFFF;enable-background:new    ;}
	.st148{display:inline;opacity:0.451;fill:#FFFFFF;enable-background:new    ;}
	.st149{display:inline;opacity:0.4706;fill:#FFFFFF;enable-background:new    ;}
	.st150{display:inline;opacity:0.4902;fill:#FFFFFF;enable-background:new    ;}
	.st151{display:inline;opacity:0.5098;fill:#FFFFFF;enable-background:new    ;}
	.st152{display:inline;opacity:0.5294;fill:#FFFFFF;enable-background:new    ;}
	.st153{display:inline;opacity:0.549;fill:#FFFFFF;enable-background:new    ;}
	.st154{display:inline;opacity:0.5686;fill:#FFFFFF;enable-background:new    ;}
	.st155{display:inline;opacity:0.5882;fill:#FFFFFF;enable-background:new    ;}
	.st156{display:inline;opacity:0.6078;fill:#FFFFFF;enable-background:new    ;}
	.st157{display:inline;opacity:0.6274;fill:#FFFFFF;enable-background:new    ;}
	.st158{display:inline;opacity:0.6471;fill:#FFFFFF;enable-background:new    ;}
	.st159{display:inline;opacity:0.6667;fill:#FFFFFF;enable-background:new    ;}
	.st160{display:inline;opacity:0.6863;fill:#FFFFFF;enable-background:new    ;}
	.st161{display:inline;opacity:0.7059;fill:#FFFFFF;enable-background:new    ;}
	.st162{display:inline;opacity:0.7255;fill:#FFFFFF;enable-background:new    ;}
	.st163{display:inline;opacity:0.7451;fill:#FFFFFF;enable-background:new    ;}
	.st164{display:inline;opacity:0.7647;fill:#FFFFFF;enable-background:new    ;}
	.st165{display:inline;opacity:0.7843;fill:#FFFFFF;enable-background:new    ;}
	.st166{display:inline;opacity:0.8039;fill:#FFFFFF;enable-background:new    ;}
	.st167{display:inline;opacity:0.8235;fill:#FFFFFF;enable-background:new    ;}
	.st168{display:inline;opacity:0.8431;fill:#FFFFFF;enable-background:new    ;}
	.st169{display:inline;opacity:0.8627;fill:#FFFFFF;enable-background:new    ;}
	.st170{display:inline;opacity:0.8824;fill:#FFFFFF;enable-background:new    ;}
	.st171{display:inline;opacity:0.902;fill:#FFFFFF;enable-background:new    ;}
	.st172{display:inline;opacity:0.9216;fill:#FFFFFF;enable-background:new    ;}
	.st173{display:inline;opacity:0.9412;fill:#FFFFFF;enable-background:new    ;}
	.st174{display:inline;opacity:0.9608;fill:#FFFFFF;enable-background:new    ;}
	.st175{display:inline;opacity:0.9804;fill:#FFFFFF;enable-background:new    ;}
	.st176{display:inline;fill:#FFFFFF;}
	.st177{display:none;opacity:0.5;}
	.st178{display:inline;fill:#82C5DF;stroke:#192D37;stroke-miterlimit:10;}
	.st179{display:inline;fill:#5EB6E6;stroke:#192D37;stroke-miterlimit:10;}
	.st180{display:inline;fill:none;stroke:#192D37;stroke-width:0.35;stroke-miterlimit:10;}
	.st181{display:inline;fill:none;stroke:#5EB6E6;stroke-linecap:round;stroke-linejoin:round;stroke-miterlimit:10;}
	
		.st182{display:inline;fill:none;stroke:#5EB6E6;stroke-width:0.35;stroke-linecap:round;stroke-linejoin:round;stroke-miterlimit:10;}
	.st183{display:none;opacity:0.4118;fill:#82C5DF;enable-background:new    ;}
	.st184{display:none;opacity:0.4118;fill:#C0E1EF;enable-background:new    ;}
	.st185{display:inline;fill:none;}
	.st186{display:none;fill:url(#SVGID_8_);}
</style>
<g>
	<rect x="38.2" y="399.20187" class="st0" width="348" height="224.20001"/>
</g>
<linearGradient id="SVGID_1_" gradientUnits="userSpaceOnUse" x1="-113.44214" y1="504.9306" x2="-45.0753" y2="504.9306" gradientTransform="matrix(-1 0 0 1 -11.87553 0)">
	<stop  offset="0" style="stop-color:#FFFFFF;stop-opacity:0"/>
	<stop  offset="0.89145" style="stop-color:#FFFFFF"/>
</linearGradient>
<polygon class="st1" points="33.19977,645.13214 101.5666,645.13214 101.5666,364.72903 33.19977,364.72903 "/>
<linearGradient id="SVGID_2_" gradientUnits="userSpaceOnUse" x1="219.7476" y1="362.87173" x2="241.24834" y2="362.87173" gradientTransform="matrix(0 -1 1 0 -147.23607 638.69897)">
	<stop  offset="0" style="stop-color:#FFFFFF;stop-opacity:0"/>
	<stop  offset="0.89145" style="stop-color:#FFFFFF"/>
</linearGradient>
<polygon class="st2" points="406.96954,397.45065 406.96954,418.95135 24.30178,418.95135 24.30178,397.45065 "/>
<g class="st3">
	<path class="st4" d="M149.10001,495.70001c0,0-0.39999,2.89999-1.10001,3.5c-0.8,0.60001-2.60001,1-3.60001,2.70001
		s-2.60001,3.5-1.8,4.5c0.89999,1,0.2,1.5,2.10001-0.79999c1.89999-2.29999,1.10001,0.70001,1.39999,1.60001
		s0.2,2.70001,1.2,0.10001s1.8-6.20001,2-4c0.10001,2.20001-0.39999,3.5,0.2,4.29999c0.60001,0.79999,0.89999-2.20001,1.7-3.39999
		c0.7-1.29999,1,1.89999,1.3,2.79999c0.3,0.79999,1.10001,1.5,1.39999-1.89999c0.3-3.39999-0.5-2.60001,0-4.60001
		c0.60001-1.89999,1.2-3.60001,1.2-3.60001l0.10001-2.20001l-5.60001-1.79999L149.10001,495.70001z"/>
	<path class="st4" d="M78.8,460.10001c0,0,0.1-1.89999,1.4-2.70001c1.3-0.79999,1.4-0.79999,2.8-2.10001
		c1.4-1.29999,2.7-2.10001,3.7-1.70001s0.8-0.29999,2.8-0.79999s2.6-1,3.4-0.39999s1.9-1,2.9-0.29999s2.2,0,2.9,0.29999
		c0.7,0.29999,1.7,0.20001,2.5,0.20001s2.3-1.20001,3.1-0.60001c0.8,0.60001,2,0.89999,2.4,1.20001s2.5-0.70001,2.9-0.20001
		s1.7,0.20001,2.3,0.79999c0.7,0.60001,1.3-0.20001,2.8,0.10001c1.5,0.29999,1.2,0.29999,3,0.5s2.8,0.79999,4.1,0.70001
		c1.3,0,3.3,0.20001,3.9,0.10001c0.7-0.20001,0.2-0.10001,1.4-1.29999c1.2-1.20001,2.2-2.39999,2.60001-1.20001
		c0.39999,1.20001-0.10001,1.70001,1.3,1.39999c1.3-0.29999,2.7-0.20001,2.7-0.20001s-0.2-0.5-0.10001-1.60001
		c0.10001-1.10001,0.8-1.39999,1.5-1.20001c0.8,0.20001-0.5,0.20001-0.89999-1.5s-1.60001-2.89999-0.2-2.70001
		c1.39999,0.10001,1.89999,1.39999,2.3,1.60001c0.39999,0.20001,0.60001-1.10001,1.2-2.10001c0.7-1,1.39999-1.60001,1.7-0.39999
		c0.2,1.10001,0.7,2.79999,0.7,2.79999s1.3-1.5,1.89999-2.10001c0.60001-0.70001,1.60001-1.39999,1.5-0.20001
		c-0.10001,1.20001-0.5,2.39999-0.5,2.89999c0.10001,0.5,0.8,0,1.39999-0.79999c0.60001-0.79999,0.2-1.5,0.60001-0.79999
		c0.5,0.70001,0.2,1.79999,0.7,1.70001c0.5-0.10001,2.60001,1.20001,2.5,0.20001s-0.5-1.79999-0.10001-3.29999
		c0.5-1.5,1.39999-2.10001,1.60001-0.89999c0.2,1.10001,2.60001-2.70001,3.8-1.10001c1.2,1.70001,1.3,3.29999,1.3,3.29999
		s2-2.89999,2.7-1.5c0.60001,1.39999,0,2.39999,0.39999,2.79999s2.60001-3.20001,3-2s0.2,1.89999,0.60001,2.29999
		c0.39999,0.39999,1.60001-2.29999,2.10001-1.89999s0,0.89999,0.3,1.5s0,1.39999,1.8,0.20001
		c1.8-1.20001,3.39999-2.60001,3.5-1.60001s-0.5,3.20001-0.5,3.20001s2.8-3.29999,2.8-1.89999s-0.10001,1.89999,0.10001,2.5
		s3.8-0.60001,2.60001,0.5c-1.2,1.20001-2.5,2.10001-2.89999,2.5s-1.2,1.20001-0.3,1.39999c0.89999,0.20001,0.8,2.79999,1.8,0.5
		s2-4.79999,2.10001-3.29999c0.2,1.5-0.3,1.5,1.2,0.89999s3.5-1,2.8,0s3.10001-0.29999,1.10001,1.5s-3.7,2-2.89999,2.39999
		c0.89999,0.29999,3.2,0.5,2,1.70001s2.39999,2.20001,2.2,0.89999c-0.2-1.29999-1-4.29999,0.3-4.29999s1.3,1.10001,1.7,1.79999
		c0.3,0.70001,0.5-1.5,1.8-1c1.3,0.39999,2.10001-0.20001,1.3,1.39999s0,1.39999,1.60001,2.20001c1.60001,0.79999,1.2,1-0.7,1.70001
		s-1.10001,0.89999-0.2,1.70001c0.89999,0.79999,1.7,3.79999,2.10001,1.89999c0.39999-2,1.7-4.39999,1.8-2.70001
		c0.10001,1.60001-1,2.5,1,2.10001s4.2-1.39999,2.7-0.10001c-1.60001,1.39999-3.10001,2-2.10001,2.20001
		c1.10001,0.20001,1.5-0.29999,2,0.39999c0.5,0.70001-0.10001,1.20001-0.7,1.60001c-0.5,0.39999,3,2.39999,4.10001,2
		c1.2-0.39999,3.3,0.70001,2.2,1.39999c-1.10001,0.70001-2.3,1.20001-1,1.70001c1.3,0.39999,4.3,0,3.39999,0.89999
		c-0.8,0.89999-1.39999,1.39999-0.60001,1.89999c0.8,0.5,2.89999,0.89999,2.39999,1.89999s0.5,2.29999,0.5,2.29999
		s1.10001,1.60001,2.39999,2.20001c1.3,0.60001,2.60001,1.20001,2,1.79999c-0.60001,0.70001,0.5,0.60001,1.2,2.5
		s1.39999,2.5,0.8,3.5c-0.5,1,0.10001,0.29999,0.60001,2.20001s0.39999,0.20001,2.7,1.20001s2.8,0.79999,3.10001,1.79999s1,1,2,2.5
		s-0.3,1.5,2.5,1s2.8-0.79999,3.8,0.5s1.5,1.60001,1.3,2.79999c-0.3,1.20001-0.60001,1.89999,1.7,1.5c2.3-0.5,2.39999-1.5,3,0.20001
		s0.89999,3.79999,1.8,3.20001c0.89999-0.60001,3.10001-2.60001,4-1s2.3,1.60001,3.5,2.89999s1.2,1,3.39999,1.5
		c2.3,0.49997,3.2,0.29999,2.89999,1.69998c-0.3,1.39996,0.60001,1.5,2.8,1.40002s3.3,0.20001,3.5,0.70001
		s0.10001,1.90002,2.5,1.29999c2.5-0.59998,4-1,3.70001,0.29999c-0.29999,1.40002,0.29999,2.40002,1.60001,2.20001
		c1.29999-0.20001,1.20001-0.70001,2.79999,0.09998c1.60001,0.79999,1.79999,0.40002,3.39999,1.5s5.60001,1,7.70001,2.90002
		s2.29999,2.40002,4.10001,2c1.79999-0.40002,4,0.40002,4.60001,1.20001s0.89999,1.5,3.70001,1.59998
		c2.79999,0.09998,5.10001-1,5.79999,0.59998c0.79999,1.59998-0.29999,0.70001,2.29999,1.59998
		c2.60001,0.90002,3.20001-0.40002,4.29999,1.09998c1.10001,1.5,2.10001-0.20001,3.60001,1.70001s3.20001-0.40002,3.5,1.09998
		s1.70001,2.90002-1.10001,3.09998s-5.79999-0.79999-8.39999-1.29999s-0.89999-0.29999-4.5-0.5
		c-3.60001-0.09998-5.70001-1.40002-6.20001-1.79999c-0.5-0.40002,1.20001,0.40002-3.29999,0.09998
		c-4.5-0.29999-3.89999-0.79999-7.60001-1.79999s-3.29999-0.70001-7.79999-1.20001s-4.29999-1.09998-8.10001-1.70001
		c-3.79999-0.70001-3.5-0.59998-8-0.90002c-4.5-0.29999-5.10001-1.20001-6.89999-1.5c-1.8-0.20001-1.89999-1.20001-3.60001-0.59998
		c-1.7,0.59998-12.10001-1.70001-14.5-2.29999c-2.39999-0.70001-7.10001-0.59998-7.60001-1.79999s-2.7,0.09998-4.2-0.09998
		c-1.5-0.20001-6-0.79999-6-0.79999s3.7,1.29999,4.3,2.5c0.7,1.20001,1.60001,1.90002,3.60001,1.59998
		c2-0.40002,4.10001-0.5,6.39999,0.90002c2.39999,1.5,3.5,1.09998,5.60001,3.09998s2.5,1.59998,3.7,4.20001
		c1.2,2.59998,1.3,2,1.5,4.59998s0.2,3.70001,0.2,3.70001s-0.89999-0.20001,0,1.40002c0.89999,1.59998,3,4.40002,0.5,3.59998
		c-2.5-0.90002-4.10001-2-4.10001-2s0.10001,3.79999-0.8,3.79999c-0.89999,0-1.89999-0.59998-2.8-2.29999
		c-0.89999-1.79999-2.3,0.59998-2.3,0.59998s-1.5-0.20001-1.89999-2.09998c-0.39999-2-0.39999-1.79999-1.10001-3.70001
		c-0.7-1.90002-1.5-3.29999-1.5-3.29999s-4.2,1.90002-6.10001,2.09998c-1.89999,0.20001-3.3,1.59998-6.10001,2s-5.39999,0.29999-6,0
		s0.89999,1.59998-3.10001,1.20001c-4-0.40002-10.60001-1-12.5-5.40002c-0.2-1.29999-4.7-3.79999-6.2-8.70001
		c0.10001-0.29999-1-3.5-1.39999-5c-0.5-1.5-0.8-3.79999-0.8-3.79999s-6.3,4.29999-10.3,2.5s-5.10001-2.70001-6.10001-5.09998
		c-1.10001-2.40002-2.10001-3.59998-2-6.10001c0.10001-2.5,0-4.29999-0.5-5.10001c-0.39999-0.89999-0.7-0.89999-2-3.10001
		s-2.10001-6.10001-3.60001-6.89999c-1.39999-0.79999-0.39999-0.89999-4.10001-0.89999s-5,0.5-8.5-0.89999
		s-5.8-1.39999-8.10001-4.70001c-2.3-3.29999-4.60001-4.79999-5.8-6.79999c-1.1-2-2.6-3.89999-3-4.10001s-1.1-0.10001-3.2-0.5
		c-2.1-0.5-4.1-1.39999-5.5-2.29999s-4.8-2.79999-6.4-3.10001c-1.7-0.39999-2-1.10001-3.6-0.79999c-1.6,0.29999-4.6-0.39999-6.7-1
		s-1.8,0.39999-4.2,0.5c-2.4,0.10001-3.5-0.60001-4.1-0.60001s-2.2,0.10001-4.1,0.5c-1.8,0.39999-1.8,0.5-4.4,0.10001
		s-2.6-0.39999-4.2-0.89999s-2.6-0.5-2.3-1.79999c0.3-1.20001-0.5-1.39999-1.6-1.89999c-1.1-0.60001-1.7-0.20001-2.3-2.39999
		c-0.6-2.20001-1.8-2.60001,0.1-3.29999S78.8,460.10001,78.8,460.10001z"/>
	<path class="st5" d="M79.7,458.70001c-0.3,0.29999-0.1,0.89999,0.4,1c0.4,0.10001,0.9,0,1.2-0.29999
		c0.7-0.5,1.4-1.20001,2.2-1.29999c0.3,0,0.7,0,1,0.10001c0.7,0.20001,1.4,0.5,2,0.79999"/>
	<path class="st5" d="M81.8,460.89999c0.3,0.5,0.9,0.79999,1.5,0.70001s1.1-0.39999,1.4-0.89999c-0.1-0.29999-0.6-0.5-0.9-0.29999"
		/>
	<path class="st5" d="M76.1,467.70001c0.6,0.20001,1.1-0.10001,1.7-0.39999c2.1-0.89999,4.4-1,6.6-0.29999
		c0,0.39999-0.4,0.70001-0.8,0.79999c-0.4,0.10001-0.8,0-1.2,0c-1.1,0-2.2,0.29999-3.1,0.89999"/>
	<path class="st5" d="M203.39999,485.10001c1.5,1,2.60001,2.5,3,4.20001c0.5,1.79999,0.2,4.29999,0.10001,6.20001
		c-0.10001,1.60001-1.3,3.39999-1.89999,0.89999c-0.5-1.89999-0.5-4-2.3-5.5c0.39999,0.29999,0.8,0.5,1.3,0.60001
		c-0.39999-0.10001-0.7-0.20001-1.10001-0.20001"/>
	<path class="st5" d="M136.3,466.39999c-0.3,2.89999,1.10001,5.70001,3.3,7.70001c2.2,1.89999,4.89999,3.10001,7.7,3.79999
		c2.5,0.70001,5.2,1.20001,7.8,1.39999c0.60001,0,1.2,0.10001,1.7-0.29999c0.3-0.20001,0.5-0.60001,0.8-0.89999
		c1.10001-1.20001,3-0.79999,4.5-0.29999C166,478.90002,170,479.70001,174,480.10001c0.7,0.10001,1.39999,0.10001,2,0.29999
		c0.89999,0.29999,1.7,0.89999,2.39999,1.5c3.2,2.60001,6.2,5.70001,10.10001,6.89999c1.89999,0.60001,4.2,0.79999,5.60001,2.10001
		c1.60001,1.5,1.8,3.79999,2.3,6s1.7,4.5,3.89999,4.70001c1.5-2.20001-1.2-5.5,0.10001-7.89999
		c1.7,1.10001,2.89999,3.10001,2.89999,5.20001c0.7-0.29999,1.10001-1.29999,0.8-2"/>
	<path class="st5" d="M148.8,457.20001c3.39999-0.5,7.10001,0.60001,9.60001,2.89999c1.10001,1.10001,2.10001,2.29999,3.3,3.20001
		c2.3,1.60001,5.39999,1.60001,8.10001,2.29999c2.5,0.60001,4.8,1.79999,7,3.10001c1.60001,0.89999,3.2,1.70001,4.60001,2.89999
		c0.8,0.70001,1.60001,1.5,2.5,2.20001c2.2,1.70001,5,2.39999,7.2,4.20001c2.10001,1.70001,3.60001,4.39999,6.2,5.29999
		c2,0.70001,4.8,0.39999,5.89999,2.29999"/>
	<path class="st5" d="M134.5,453.5c6.8,1.5,14,0.29999,20.89999,1.10001c2.2,0.29999,4.39999,0.79999,6.60001,1.29999
		c4.10001,1,8.2,2.20001,12,3.89999c4.39999,1.89999,8.60001,4.60001,12.2,7.79999"/>
	<path class="st5" d="M188.5,468.10001c4.39999,2.10001,6.60001,7,9.39999,10.89999c0.2,0.29999,0.5,0.60001,0.8,0.89999
		c0.3,0.20001,0.60001,0.29999,0.89999,0.5c2.8,1.29999,5.10001,3.5,6.60001,6.20001"/>
	<path class="st5" d="M151.3,495.29999c2.2-0.89999,3.89999-2.79999,4.60001-5.10001"/>
	<path class="st5" d="M152.5,491.70001c-1,1.10001-2.2,2.10001-3.5,2.79999c-0.60001,0.29999-1.3,0.5-1.89999,0.20001"/>
	<path class="st5" d="M147.3,492.89999c-0.39999,1.10001-1.3,2-2.3,2.39999"/>
	<path class="st5" d="M161.39999,507.10001c2.39999,1.5,3.7,4.29999,6,5.99997C169,514.19995,171,514.69995,172.89999,515
		c1.60001,0.29999,3.2,0.5,4.7,0.70001"/>
	<path class="st5" d="M170.60001,517c1.2,0.29999,2.39999,0.5,3.60001,0.70001c0.5,0.09998,1.3,0.09998,1.39999-0.5"/>
	<path class="st5" d="M174.7,516.5c0.89999,0.5,2,0.79999,3,0.59998"/>
	<path class="st5" d="M171.60001,519.20001c1.3,0.29999,2.8,0.29999,4.10001-0.09998"/>
	<path class="st5" d="M173.10001,521c1-0.29999,2-0.5,3-0.79999"/>
	<path class="st5" d="M181.7,493.39999c-2.5,4.79999-2.5,10.39999-2.5,15.79999c0,3.39999,0,6.80002,0.10001,10.10001
		c0,0.29999,0.10001,0.59998,0.3,0.59998c0.3,0,0.2-0.5,0-0.29999"/>
	<path class="st5" d="M207.2,503.60001c1.8,3.60001-0.3,7.70001,0.10001,11.49997c0.2,1.70001,1,3.40002,1.2,5.09998
		c0.3,2.09998-0.8,3.70001-2.2,5.09998c-1.39999,1.5-3,3.09998-5,3.40002"/>
	<path class="st5" d="M207.60001,517.5c-0.39999,2.70001-2.60001,5-5.2,5.59998"/>
	<path class="st5" d="M208.2,522.5c0.2,3-0.10001,6.09998-0.8,9c-0.2,0.90002-0.5,1.90002-1,2.70001
		c-0.7,1-1.7,1.70001-2.60001,2.40002"/>
	<path class="st5" d="M188.7,538.90002c1.89999,0.09998,3.7-0.70001,5.10001-1.90002c1.39999-1.20001,2.39999-2.90002,3.2-4.59998"
		/>
	<path class="st5" d="M192.8,538.29999c1.39999-0.20001,2.60001-0.90002,3.60001-1.79999c1-0.90002,1.8-2.09998,2.5-3.29999"/>
	<path class="st5" d="M206.8,540.90002c3.39999-2.59998,2.10001-5.59998,2.5-9.09998"/>
	<path class="st5" d="M208,534.90002c-0.39999,3-2.39999,5.70001-5.10001,6.90002"/>
	<path class="st5" d="M209.89999,521c0.60001,0.20001,1.3,0.09998,1.89999-0.20001c0.60001-0.29999,1-0.79999,1.39999-1.40002
		c2.2-3,3.2-6.79999,2.8-10.5"/>
	<path class="st5" d="M226.8,505c0.39999,4.5-1.2,9.20001-4.2,12.59998"/>
	<path class="st5" d="M233.2,508.39999c0.2-0.10001,0.39999,0.20001,0.39999,0.39999c0.8,3.5-0.2,7.20001-2.39999,10"/>
	<path class="st5" d="M241.60001,511.29999c1.3,3.70001,0.7,8-1.39999,11.29999"/>
	<path class="st5" d="M247.8,515.59998c0.2-0.20001,0.39999,0.09998,0.5,0.40002c0.8,3.09998,0.2,6.59998-1.5,9.29999"/>
	<path class="st5" d="M255,517.29999c0.8,2.90002,0.2,6.20001-1.60001,8.59998"/>
	<path class="st5" d="M261.20001,519.59998c1.10001,2.29999,1.10001,5.09998-0.20001,7.29999"/>
	<path class="st5" d="M269.20001,521.79999c-0.20001,0.59998,0,1.29999,0.10001,1.90002c0.5,2.09998,0,4.5-1.29999,6.29999"/>
	<path class="st5" d="M275.89999,524.70001c0.29999,1.5,0.29999,3,0,4.5c-0.20001,1.09998-0.70001,2.20001-1.70001,2.70001"/>
	<path class="st5" d="M283,526.70001c0.79999,2.20001,0.29999,4.79999-1.39999,6.40002"/>
	<path class="st5" d="M290.10001,528.5c0.10001-0.09998-0.20001-0.20001-0.20001-0.09998c-0.10001,0.09998,0,0.20001,0,0.40002
		c0.70001,1.79999,0.29999,4-1,5.40002"/>
	<path class="st5" d="M296.20001,531.09998c0.70001,1.40002,0.29999,3.29999-0.89999,4.20001"/>
	<path class="st5" d="M301.29999,532.90002c0.5,0.20001,0.79999,0.90002,0.79999,1.5c0,1-0.60001,1.90002-1.39999,2.40002"/>
	<path class="st5" d="M209.7,496.89999c-0.8,1.89999-0.39999,4-0.2,6c0.3,3.10001-0.2,6.20001-1.39999,9.10001"/>
	<path class="st5" d="M211.89999,500.79999c-0.8,1.70001-0.39999,3.70001-0.3,5.60001c0.10001,3-0.7,6.00003-2.39999,8.60001"/>
	<path class="st5" d="M203.3,488.60001c1.8,1,2.89999,3,2.89999,5"/>
	<path class="st5" d="M94.2,465.60001c0.5,2.29999,2.7,4.10001,5.1,3.89999"/>
	<path class="st5" d="M97.9,465.70001c1.2,1.79999,3,3.20001,5,3.89999"/>
	<path class="st5" d="M113.7,469.20001c1,1.60001,2.7,2.79999,4.5,3.20001"/>
	<path class="st5" d="M121,472.39999c0.3,1.5,1.3,2.89999,2.7,3.60001"/>
	<path class="st5" d="M125,472.89999c0.5,2.79999,1.6,5.5,3.10001,8"/>
	<path class="st5" d="M131,481.10001c1,2.70001,2.89999,5.20001,5.3,6.79999"/>
</g>
<g>
	<path class="st6" d="M195.7,40.79999c-0.60001-0.3-1.2-0.6-1.8-0.9c-4.7,3.7-6.89999,10.3-5.3,16.1c-1.3-1-3.2-0.7-4.5,0.3
		s-2,2.5-2.60001,4c-1.39999,3.5-2.10001,8.1,0.7,10.7c0.8,0.7,1.8,1.2,2.5,2c2.2,2.4,1.10001,6.2,1.39999,9.4
		c0.5,5.7,6.7,10.2,12.3,9c-1.8,2.1-1,5.4,1,7.4c1.89999,1.9,4.7,2.7,7.3,3.5"/>
	<path class="st6" d="M195.7,44.29999c-0.10001-3.3,1.60001-6.5,4.2-8.4c2.60001-1.9,6.2-2.4,9.3-1.3
		c1.60001-6.1,8.2-9.6,14.39999-11c3.89999-0.9,8.10001-1.2,11.89999,0.1c3.8,1.3,7.10001,4.5,7.7,8.5"/>
	<path class="st6" d="M238.39999,34.49999c2.8-3.9,8.10001-5.8,12.7-4.4c-0.5-2.5,0.60001-5.1,2.39999-6.8c1.8-1.7,4.3-2.7,6.8-3.1
		c3.70001-0.7,7.70001-0.5,11.10001,1.1s6.20001,4.8,7,8.5c0.10001,0.7,0.20001,1.5,0.29999,2.2"/>
	<path class="st6" d="M238.89999,25.19999c2.2-4.1,9.3-5.1,13.2-1.7"/>
	<path class="st7" d="M266.60001,44.29999c-0.70001-5,2.29999-10.3,7-12.3s10.60001-0.4,13.70001,3.6
		c0.20001,0.3,0.5,0.7,0.89999,0.6c0.39999-0.1,0.20001-0.9-0.10001-0.6"/>
	<path class="st7" d="M259.29999,33.19999c1.29999-2,3.70001-3.3,6.10001-3.3s4.79999,1.2,6.20001,3.2
		c0.29999-0.1,0.29999-0.6,0.10001-0.7"/>
	<path class="st6" d="M277.60001,25.69999c4.39999-4.7,12.70001-5,17.29999-0.5c4.70001-5.9,15.5-5,19.20001,1.6
		c5.20001-5.6,13.39999-8.2,20.89999-6.6c5.20001,1.1,10.5,5.7,9.20001,10.8c7-1,14.39999,4.2,15.79999,11.1
		c3.79999,0,7,3.9,6.5,7.6c5.10001,1.4,9.29999,5.6,10.70001,10.7c1.29999,5.1-0.29999,10.9-4,14.6"/>
	<path class="st7" d="M283.10001,40.99999c4.29999-4.6,10.5-7.6,16.79999-8c6.29999-0.5,12.79999,1.5,17.79999,5.5"/>
	<path class="st7" d="M291.79999,29.09999c-0.60001,0-0.39999-1,0.10001-1.4c3.39999-2.9,8.5-3.5,12.39999-1.4"/>
	<path class="st7" d="M309.39999,48.79999c2.10001-6,6.89999-11.1,12.79999-13.5c4.70001-1.9,10.39999-2.1,14.70001,0.6
		c4.29999,2.7,6.70001,8.6,4.39999,13.2c-0.10001-0.4-0.10001-0.8-0.20001-1.2"/>
	<path class="st7" d="M341.10001,41.39999c2.89999-1,6.29999-0.4,8.70001,1.5c2.39999,1.9,3.79999,5,3.60001,8
		c2.29999-1,5.10001,0.2,6.39999,2.3c1.39999,2.1,1.60001,4.7,1.29999,7.1"/>
	<path class="st6" d="M371.10001,69.09999c2.10001,2.9,3.5,6.3,4.10001,9.8c0.39999,2.4,0.29999,4.9-0.89999,7
		c-1.10001,1.9-3.20001,3.3-5.39999,3.5c-2.20001,0.2-4.5-0.8-6-2.5c-0.5,3.4-3.5,6.3-6.89999,6.5s-6.79999-2.9-6.60001-6.3"/>
	<path class="st7" d="M199.39999,49.39999c-2.10001,3.6-2.10001,8.4-0.10001,12c-2.10001,1.1-4,2.7-4.89999,4.8
		c-1,2.1-0.8,4.9,0.89999,6.5c1.89999,2,5.10001,1.9,7.89999,1.7c0.39999,5.8,5,11.1,10.7,12.2c1.7,0.3,3.7,0.3,5.10001-0.9"/>
	<path class="st7" d="M232.7,40.49999c-2.5,1.6-4.10001,4.4-4.5,7.3c-0.3,2.9,0.7,6,2.7,8.1c-2,1.4-4.2,3.1-4.89999,5.5
		c-0.8,2.4,0.60001,5.6,3.10001,5.7c0.3,3.2,2.39999,6.1,5.3,7.4c2,0.9,4.3,1,6.3,2.1c2,1,3.5,3.5,2.39999,5.4"/>
	<path class="st7" d="M302.29999,81.59999c0.89999-1.2,1.79999-2.5,3-3.4c2.20001-1.7,5.39999-2.1,8-0.9s4.70001,3.8,7.5,3.6
		c3.10001-0.2,4.79999-3.8,5.20001-6.9c3.60001,0.3,7,2.6,10.5,1.9c1.60001-0.3,3.10001-1.3,4.39999-2.4
		c2.29999-1.9,4.20001-4.4,4.89999-7.3c0.60001-2.9-0.39999-6.3-3-7.8s-6.5-0.1-7.10001,2.8c0.20001-2.9-1.70001-5.7-4.39999-6.7
		c-2.70001-0.9-6,0.1-7.60001,2.5"/>
	<path class="st7" d="M345.89999,66.99999c1.89999,2.3,3.79999,4.8,4.5,7.7c0.70001,2.9-0.29999,6.5-3,7.8"/>
	<path class="st7" d="M271.20001,45.89999c0.20001-0.7-0.89999-1-1.60001-0.8c-2.79999,0.5-5.70001,1.1-7.89999,2.7
		c-2.70001,1.9-4.20001,5.3-4,8.6c-1.5,0-2.89999-0.9-4.39999-0.9c-1.60001,0-3.10001,1.1-4.10001,2.5
		c-2.60001,3.6-2.39999,8.9,0.39999,12.4c2.8,3.5,7.70001,5,12,3.8c2-0.6,4-1.8,4.70001-3.8c0.79999-2.1,0-4.4-0.70001-6.4"/>
	<path class="st6" d="M267.20001,222.60001c-0.20001-3-2.70001-5.60001-5.60001-5.89999c-2.89999-0.3-6,1.7-6.8,4.60001
		c-0.39999-4.5-5.3-8-9.60001-6.89999c-2.60001-2.10001-6-3.7-9.3-3c-3.3,0.60001-6.2,4-5.39999,7.2
		c0.89999,0.60001,1.7,1.10001,2.60001,1.7c-4.2,0.10001-7.7,4.2-7.5,8.39999s3.8,7.8,7.89999,8.5
		c-4.8-0.8-9.89999,2.39999-11.10001,7.10001c-1.3,4.7,1.5,10.10001,6.10001,11.70001c1.39999,0.5,2.89999,0.70001,4.39999,0.79999
		c1.89999,0.20001,4,0.29999,5.60001-0.79999c1.60001-1.10001,2.10001-3.8,0.5-4.89999"/>
	<path class="st7" d="M244.89999,213.60001c2-3.7,7.2-5.3,10.89999-3.2c2.29999,1.3,3.89999,3.89999,3.5,6.5
		c-0.39999-0.3-0.89999-0.60001-1.29999-0.89999"/>
	<path class="st7" d="M265.5,223.89999c-0.39999,0-0.29999-0.7-0.10001-1c1.10001-1.3,2.70001-2.5,4.39999-2.3
		c1.70001,0.2,3.10001,2.2,2.29999,3.7c1.70001,0.3,3.5,0.10001,5.20001-0.5c-2-3.7,0.5-8.60001,4.5-10.10001
		c2.5-0.89999,5.39999-0.7,7.5,0.89999c2,1.60001,2.89999,4.8,1.5,7.10001c2.79999-1.3,6.5-1.39999,8.89999,0.60001
		s2.89999,6.2,0.5,8.2"/>
	<path class="st6" d="M295.10001,231.2c1.70001-1.60001,4.20001-2.2,6.5-1.60001c2.20001,0.60001,4.10001,2.5,4.70001,4.7
		c2.89999-3,7.70001-3.89999,11.5-2.2c3.79999,1.8,6.20001,6.10001,5.70001,10.2c-0.5,4.10001-3.79999,7.8-7.89999,8.60001
		c3,1.3,5,4.60001,4.79999,7.79999c-0.29999,3.29999-2.79999,6.20001-6,7c3.10001,2.79999,2.70001,8.39999-0.79999,10.79999
		c-2.60001,1.79999-6.20001,1.5-9.20001,0.39999c-4.70001-1.79999-8.60001-6.39999-8.10001-11.39999
		c0.20001-2.20001,1.5-4.39999,3.60001-5.20001c2.10001-0.79999,4.89999,0.60001,5.10001,2.79999"/>
	<path class="st6" d="M237.10001,257.89999c-1.89999,0-2.8,2.39999-2.60001,4.29999c0.60001,5.10001,5.89999,8.10001,10.8,9.39999
		c3,0.79999,6.2,0.89999,7.3-1.60001c0.39999-0.79999,1.2-1.39999,1.7-2.10001c0.89999-1.39999,1.90001-2.79999,2.8-4.29999"/>
	<path class="st7" d="M249.8,259.20001c3.89999,2.89999,8.90001,4.5,13.8,4.39999c1.89999,0,3.79999-0.39999,5.29999-1.60001
		c1.79999,2.89999,4.70001,5.20001,8,6.20001c1.70001,0.60001,3.60001,0.79999,5.29999,0.39999
		c3-0.70001,5.29999-3.39999,5.70001-6.39999c0.39999-3-1.29999-6.20001-4-7.5"/>
	<path class="st7" d="M248.3,249.7c-0.3,0.8-1.39999,0-1.8-0.7c-0.89999-1.7-1.7-3.5-1.8-5.5c-0.2-2.8,1.3-5.60001,3.60001-7
		c2.39999-1.39999,5.5-1.5,7.90001-0.10001c-0.60001,0.10001-1.2-0.10001-1.60001-0.5c-1-2.10001,0.89999-4.39999,2.79999-5.5
		c5.10001-2.8,12.10001-1.3,15.60001,3.3c1.5,2,2.39999,4.7,1.29999,6.89999"/>
	<path class="st7" d="M232.60001,231.5c0-0.39999,0-0.89999,0-1.3c2.7-2.3,6.39999-3.3,9.8-2.7c3.5,0.60001,6.60001,2.8,8.3,5.89999
		c0.3,0.5,0.5,1.2,0,1.60001"/>
	<path class="st7" d="M275.5,249.39999c1.29999-3.60001,4.89999-6.3,8.70001-6.5c3.89999-0.10001,7.70001,2.3,9.20001,5.8
		c-1-2.5,1.20001-5.60001,3.79999-6c2.70001-0.5,5.39999,1.10001,7,3.39999c1.60001,2.2,2.10001,5.3,0.79999,7.8
		c-1.29999,2.39999-4.79999,3.60001-7,2"/>
	<path class="st6" d="M240,272.10001c-1.60001,2.79999-1,6.70001,1.39999,8.89999c0.2,0.20001,0.39999,0.29999,0.39999,0.60001
		c0.10001,0.5-0.5,0.79999-1,0.89999c-2.2,0.60001-4.39999,1.20001-6.3,2.5c-1.8,1.29999-3.2,3.60001-2.7,5.79999
		c0.39999,2.20001,3.10001,3.89999,5.10001,2.70001c-1.89999,0.10001-3.8,0.20001-5.5,1.20001s-2.8,2.89999-2.2,4.70001
		c0.5,1.5,2.10001,2.39999,3.7,2.5C234.5,302.00003,236,301.50003,237.5,301.00003c-0.2,1.89999-0.39999,4.10001,0.8,5.60001
		c0.8,1,2,1.5,3.2,1.89999c2.3,0.60001,4.89999,0.60001,7-0.39999c2.2-1,3.8-3.20001,3.89999-5.60001
		c0.10001-1.89999-0.89999-3.79999-2.5-4.89999s-3.7-1.20001-5.5-0.39999c-0.3,1-0.60001,2.10001-0.39999,3.10001
		c0.3,1,1.39999,1.89999,2.39999,1.5c0-0.79999,0-1.5,0-2.29999"/>
	<path class="st6" d="M313.20001,276.39999c-0.60001,1.5,0.70001,3.10001,2.20001,3.60001s3.10001,0.39999,4.70001,0.70001
		c4.39999,1,6.89999,6.89999,4.5,10.70001c-2.10001,3.39999-7,5.29999-7.20001,9.29999c3.10001-0.60001,6,2.70001,5.70001,5.89999
		c-0.29999,3.10001-3,5.70001-6,6.70001c-3,1.10001-6.20001,1-9.39999,0.89999c2.10001,1,4.29999,2,5.60001,3.89999
		c1.29999,1.89999,1.5,4.79999-0.39999,6.29999c2.10001,0.79999,3.60001,3.10001,3.5,5.39999s-1.70001,4.39999-3.89999,5.10001
		c1,1.60001-1.5,4.29999,0.10001,5.39999c0.39999,0.29999,0.89999,0.29999,1.39999,0.39999
		c2.89999,0.60001,3.39999,5.10001,1.39999,7.20001c-2,2.20001-5.29999,2.60001-8.29999,2.79999
		c1.79999,2-0.10001,5.89999-2.79999,5.60001c2.10001,2.5-0.60001,7.20001-3.79999,6.60001
		c0.10001,1,0.10001,2.10001,0.20001,3.10001c2.89999-1.70001,7-0.79999,8.79999,2s1,7-1.79999,8.89999
		c2.70001-0.60001,5.5,1.10001,6.60001,3.60001c1,2.5,0.20001,5.60001-1.89999,7.39999c2-1.20001,4.70001-0.39999,6.29999,1.20001
		c1.60001,1.70001,2.29999,4,2.79999,6.29999"/>
	<path class="st6" d="M239.8,392.89999c-1.10001-2-0.7-4.60001,0.89999-6.20001c1.60001-1.60001,4.2-2,6.2-0.89999
		c0-1.60001,0-3.29999,0-4.89999c-1.7,0.39999-3.5-0.79999-4.10001-2.5c-0.60001-1.60001-0.10001-3.5,0.89999-5
		c-4.10001-0.10001-7.89999-3.70001-8.10001-7.79999c-0.2-4.10001,3.10001-8.10001,7.2-8.70001c0.8-0.10001,1.8-0.39999,1.7-1.10001
		c0-0.29999-0.2-0.60001-0.5-0.79999c-1.89999-1.89999-4.5-3-6.8-4.5s-4.39999-3.79999-4.39999-6.5s3.3-5.20001,5.60001-3.60001
		c0.5-1.29999,1.5-2.39999,2.7-3.10001c-2.39999,0.10001-4.8-1.70001-5.39999-4.10001c-0.60001-2.29999,0.5-5,2.60001-6.20001
		c1.39999-0.70001,3.3-1.29999,3.3-2.89999c0-1-1-1.79999-1.7-2.5c-3.10001-3.10001-1.89999-9.20001,2-11"/>
	<path class="st7" d="M264.70001,215.89999C265,215.7,264.80002,216.5,264.5,216.29999c-0.29999-0.2-0.10001-0.7,0-1
		c0.89999-1.7,2-3.60001,3.79999-4.39999c1.79999-0.8,4.39999,0,4.60001,2c-0.60001-3.8,1-7.8,4-10.2s7.29999-3,10.79999-1.60001
		c3.20001,1.3,5.89999,4.8,4.89999,8.10001"/>
	<path class="st6" d="M284.60001,208.3c1.89999,0.10001,3.79999-0.10001,5.70001,0.3c1.89999,0.39999,3.70001,1.60001,4.10001,3.5
		c2-0.89999,4.5,0.5,5.5,2.5s0.79999,4.39999,0.60001,6.60001c0,0.2-0.10001,0.39999-0.29999,0.5
		c-0.20001,0.10001-0.29999-0.3-0.10001-0.3"/>
	<path class="st6" d="M269.89999,210.7c-1.60001-2.10001-2.20001-5-1.39999-7.5c0.5-1.5,1.29999-3.39999,0.20001-4.5
		c-0.70001-0.7-1.79999-0.7-2.89999-0.8c-6.10001-0.60001-10.5-8.10001-8-13.7c0.5-1.2,1.29999-2.3,1.20001-3.60001
		c-0.20001-3.2-5-3.7-6.5-6.5c-1.10001-2.10001-0.10001-4.5,0.39999-6.8c0.60001-3.2,0.10001-6.5-1.39999-9.39999
		c-4.5,0.8-8.60001-5-6.3-8.89999c1.39999-2.39999,4.5-5.2,2.60001-7.2c-1.3,0-2.60001,0-3.89999,0
		c-1.60001-1.60001-1-4.39999-2.2-6.3c-1.89999-2.7-6-1.5-9.39999-1.7c-5-0.3-9.3-5.2-8.89999-10.30001c-2.3-2.2-5.8-3-8.8-2
		c0.39999-1.7-1.7-2.6-3.3-3.3c-4.39999-1.9-7.10001-7.3-5.89999-12c1.2-4.7,6-8.2,10.89999-7.8c0,1.9,0,3.8,0,5.8
		c-0.89999,0.3-1.8,0.7-2.60001,1"/>
	<path class="st6" d="M291.5,209.7C290.70001,208.8,292.10001,207.8,293.20001,207.3c3.5-1.7,5.29999-6.3,3.89999-9.89999
		c-0.79999-2-2.39999-4-1.5-5.89999c0.39999-0.89999,1.39999-1.5,2-2.3c0.89999-1.10001,1.20001-2.5,1.5-3.89999
		c1.39999-6.5,2.79999-13.5,0.39999-19.8c-0.70001-1.89999-1.79999-3.89999-0.89999-5.7c0.29999-0.7,0.89999-1.2,1.29999-1.8
		c1-1.60001,1-3.60001,1.5-5.5c0.5-1.8,2.29999-3.60001,4.10001-2.89999c1.10001,3.3,4.70001,5.5,8.10001,5
		c-0.10001-1.8-0.10001-3.5-0.20001-5.3c1.29999-1.39999,3.39999,0.3,4.89999,1.5c3.29999,2.5,8.39999,1.89999,11.10001-1.2
		c2.70001-3.10001,2.5-8.2-0.39999-11.10001c2.5,1.3,6,0.5,7.70001-1.8s1.29999-5.89999-0.79999-7.8"/>
	<path class="st6" d="M308.70001,102.59999c-2.79999,1.8-4.39999,5.6-3.10001,8.7s5.60001,4.6,8.29999,2.6
		c-2.10001,3.5-0.29999,8.4,2.89999,10.9s7.5,3.2,11.60001,3.40001c3.89999,0.2,7.89999,0,11.5-1.60001
		c3.60001-1.6,6.60001-4.9,7-8.8c2.89999,2.1,7,0.8,9.89999-1.3c7.29999-5.5,10.20001-16,6.89999-24.4
		c-0.39999-1.1-1.79999-2.3-2.60001-1.5"/>
	<path class="st7" d="M327.79999,109.59999c1.39999,1.8,3.70001,2.5,5.89999,3.1c4,1.1,8.20001,1.9,12.20001,1s7.79999-4,8.5-8.1"/>
	<path class="st7" d="M330.39999,86.09999c0.10001,5.6-5.29999,9.8-10.70001,11.4c-2.60001,0.8-5.5,1.2-8.10001,0.2
		s-4.60001-3.8-3.89999-6.4c-6,4.6-15.39999,3.9-20.70001-1.4c-2.20001-2.3-3.79999-5.4-3.39999-8.6s3.29999-6.1,6.5-5.8"/>
	<path class="st7" d="M232.10001,95.8c-1.8,3.8-0.10001,8.6,3.10001,11.4c3.10001,2.8,7.39999,4,11.5,4.8
		c2.7,0.5,5.5,0.8,8.10001,0.2c2.60001-0.7,5.10001-2.5,5.89999-5.1c-1.20001,2.9-0.5,6.5,1.39999,9
		c1.89999,2.6,4.70001,4.3,7.70001,5.3c8.10001,2.8,18.10001,0.6,23.10001-6.4c1.89999-2.8,3-6.2,2.5-9.6
		c-0.60001-3.3-2.89999-6.4-6.20001-7.4"/>
	<path class="st7" d="M291.10001,117.49999c2.29999,3.2,6.60001,4.6,10.5,4.2s7.60001-2.3,10.79999-4.6"/>
	<path class="st7" d="M219.8,93.19999c0.5-0.7,1.5,0.2,2,0.9c1.3,1.8,4,2.3,6.2,1.8s4.2-1.7,6.3-2.6s4.5-1.5,6.60001-0.6
		c3,1.3,4.10001,4.9,6.5,7.1c2.8,2.6,7.10001,2.9,10.8,2.1c2.39999-0.5,4.70001-1.5,6.39999-3.2s2.5-4.4,1.70001-6.7
		c-0.79999-2.3-3.60001-3.8-5.79999-2.8"/>
	<path class="st7" d="M227.60001,115.09999c0.60001,4.4,2.7,8.6,6.3,11.1c3.60001,2.60001,8.60001,3.2,12.39999,1.2
		c0.8-0.4,1.7-0.9,2.5-0.5c0.3,0.2,0.5,0.5,0.7,0.7c2.7,3.4,7.39999,5.00001,11.70001,4.10001
		c4.20001-0.89999,7.89999-4.30001,9-8.40001"/>
	<path class="st7" d="M274.10001,146.10001c1.10001,2.2,2.79999,4.10001,5,5.2c2.29999,1.3,5.20001,1.7,7.70001,0.89999
		c2.5-0.89999,4.5-3.2,4.70001-5.8c4.39999,3.89999,12,3.3,15.79999-1.2c1.29999-1.5,2.20001-3.60001,1.60001-5.5
		s-3.10001-3.2-4.70001-2"/>
	<path class="st7" d="M257.10001,139c-0.5,0.2-0.10001,1,0.39999,1.3c5.89999,3.8,13.39999,4.89999,20.10001,3
		s12.5-6.89999,15.39999-13.2c4.60001,2.60001,10.89999,1.89999,14.79999-1.60001"/>
	<path class="st7" d="M312.89999,282.39999c2.5,1.89999,2,6.29999-0.70001,7.79999c-2.70001,1.60001-6.5,0.29999-8-2.39999
		c-1.70001,0.70001-1.10001,3.20001-1.89999,4.79999c-1,2.10001-4.20001,2.20001-5.89999,0.70001s-2.20001-4-2.20001-6.29999
		c-0.89999,0-1.70001,0.10001-2.60001,0.10001c0.29999,1.10001,0.5,2.20001,0.10001,3.29999
		c-0.39999,1-1.60001,1.89999-2.60001,1.29999c-0.60001-0.29999-0.89999-1-1.20001-1.70001
		c-0.70001-1.89999-1.5-3.89999-2.20001-5.79999c-1.5,0.70001-3.10001,1.20001-4.70001,1.20001
		c-1.60001-0.10001-3.29999-0.89999-3.89999-2.39999c-0.20001,2.60001-2.70001,4.70001-5.20001,4.60001
		c-2.60001-0.10001-4.79999-2.5-4.79999-5.10001c0-1.5,1-3.10001,2.39999-3.10001"/>
	<path class="st7" d="M291.29999,305.20001c2-0.39999,4.29999,0.5,5.39999,2.29999c1.10001,1.70001,1.10001,4.20001-0.10001,5.89999
		c-1.79999-0.10001-3.70001-0.60001-5.29999-1.39999c0,0.60001,0,1.29999,0,1.89999c1.70001-0.39999,3.5-0.20001,4.89999,0.79999
		s2.20001,2.79999,1.79999,4.5c-0.5,1.60001-2.39999,2.79999-4,2.20001c-0.89999-0.29999-1.60001-1.20001-2.39999-1.79999
		c-0.79999-0.60001-2-1-2.79999-0.29999c-1.20001,0.89999-0.60001,3.39999-2.10001,3.89999c-0.39999,0.10001-0.70001,0-1.10001,0
		c-2.70001-0.5-5.70001-1.20001-7.10001-3.60001c-0.20001-0.29999-0.29999-0.60001-0.60001-0.79999c-0.60001-0.5-1.5,0-2,0.60001
		s-0.79999,1.29999-1.39999,1.79999s-1.39999,0.60001-2.10001,0.60001c-4.89999,0-9.39999-4.39999-9.39999-9.29999
		c0-1.70001,0.39999-3.70001-0.79999-5c-0.70001,0-1.29999,0.39999-2,0.60001c-2,0.39999-3.29999-2.29999-3.10001-4.29999
		c0.39999-3.89999,4.10001-7.20001,8-6.89999c3.89999,0.29999,7,4.70001,5.79999,8.39999c-0.89999,0.5-1.70001,1-2.60001,1.5
		c0.10001-1.79999-0.39999-3.60001-1.29999-5.20001"/>
	<path class="st7" d="M262.89999,311.70001c-2.79999-0.5-5.10001,2.29999-6.10001,5c-0.39999,1.20001-0.70001,2.5-0.5,3.79999
		s1.10001,2.5,2.39999,2.79999c0.70001,0.20001,1.39999,0.10001,2,0.5c0.70001,0.60001,0.5,1.70001,0.10001,2.5
		s-1,1.70001-0.89999,2.60001c0.10001,0.79999,0.70001,1.39999,1.29999,1.89999c2,1.79999,4.79999,3.20001,7.39999,2.39999
		c2.20001-0.70001,3.70001-3.29999,3.20001-5.60001"/>
	<path class="st7" d="M248.3,380.89999c-0.5-1.79999-0.89999-3.79999-0.2-5.5s3.10001-2.79999,4.5-1.60001
		c-0.10001-2,0.5-4.10001,1.7-5.70001c-3.10001-1.29999-5.2-4.70001-4.89999-8s3-6.29999,6.3-7
		c2-0.39999,4.60001,0.5,4.60001,2.60001c-0.5-2-1-4-0.79999-6s1.60001-4,3.5-4.5c2.5-0.60001,5,1.39999,5.89999,3.79999
		s0.5,5,0.10001,7.60001c1.39999-0.10001,2.89999,0.20001,4.10001,1c0.5-3.20001,4.5-5.29999,7.39999-4
		c2.89999,1.39999,3.89999,5.79999,1.70001,8.20001c1.79999-1.70001,5.20001,1.10001,4,3.20001
		c2.29999-3,7.70001-0.79999,8.60001,2.79999c0.79999,3.70001-1.60001,7.39999-4.60001,9.70001
		c3.29999-1.39999,7.39999-0.60001,9.79999,2s3,6.79999,1.20001,9.89999c1.79999-1.89999,5-2.39999,7.29999-1.20001
		c2.39999,1.20001,3.79999,4,3.39999,6.60001"/>
	<path class="st7" d="M273.79999,375.29999c-0.10001-0.5,0.20001-1,0.5-1.39999c1.89999-2.10001,5.60001-1.39999,7.39999,0.70001
		s2.29999,5.10001,2.5,7.89999c1.60001-0.70001,3.5-1,5.20001-0.39999c1.60001,0.60001,2.89999,2.39999,2.70001,4.10001"/>
	<path class="st7" d="M277.20001,353.29999c-0.39999-2.39999-0.39999-5,1-7s4.5-2.89999,6.39999-1.39999
		c0.89999-0.89999,0.60001-2.29999,0-3.39999c-0.60001-1-1.60001-1.89999-2-3c-0.5-1.20001-0.5-2.5-0.20001-3.70001
		c0.89999-3.39999,4.29999-5.79999,7.79999-5.79999s6.79999,2.5,7.89999,5.79999s0,7.20001-2.60001,9.5
		c2.29999,0.5,3.79999,2.79999,4,5.10001c0.29999,2.29999-0.5,4.60001-1.29999,6.70001"/>
</g>
<path class="st8" d="M195.10001,87.09999c0,0-8.39999-2.3-6.10001-8.4c2.3-6.1,1.2-7.7-0.8-11.1c-1.89999-3.5-1.89999-5.4,0.8-8.4
	c2.7-3.1,10.39999-3.8,11.5-3.5c1.2,0.4,0.8-8.8,5.39999-8.1c4.60001,0.8,8.8,7.7,7.7,11.1c-1.2,3.5-1.5,11.9,2.3,13.8
	s6.7-5.6,14.10001-2.4c7.39999,3.2,8.89999,13.2,8.89999,14.7s7.3,7.7,13.10001,5.4c5.79999-2.3,1.89999-9.2,8.10001-9.6
	c6.10001-0.4,9.20001,5.4,9.20001,8.4c0,3.1,3.10001,6.9,3.10001,9.6s-1.20001,10.7,3.79999,9.6c5-1.2,6.5-4.3,12.70001-4.2
	c6.20001,0.1,8.29999,5.2,5,9.4c-3.29999,4.3-2.20001,5.2-0.60001,6.1s7.29999-3.7,9.89999-6s6.79999,5.2,6,5.6
	s5.89999-9.5,9.39999-6.4s6.39999,5.5,10.70001-2c4.29999-7.6,7.39999-10.3,10-5.3c2.70001,5,5.79999,10-1.5,14.2
	s-7.70001,9.2-16.5,9.60001c-8.79999,0.39999-20.39999-7.30001-19.60001-2.7c0.79999,4.60001-4.10001,11.2-13.60001,10.60001
	c-9.39999-0.60001-16-5.2-15.20001-7.89999c0.79999-2.7-2.10001,1.8-8.79999,5.8c-6.79999,3.89999-11.5,5-14.2,1.2
	s-3.89999-7.8-6.5-7.7s-6.5,6.2-10.39999,1.89999c-3.8-4.2-1.60001-12.50001-4.60001-12.80001c-3.10001-0.3-8.39999,2-10.3,0.9
	c-1.89999-1.2-8.39999,1.2-8.39999-6.1c0-7.3-0.8-12.2,1.39999-13.1s-5.8,2.8-8,1.5c-2.2-1.2-2.60001-6.1-2.60001-7.7
	L195.10001,87.09999z"/>
<path class="st9" d="M260.39999,146.2c0,0,0,7.3,9.20001,10s13.10001,3.5,15.70001,1.5
	c2.70001-1.89999,4.60001-3.10001,7.70001-1.89999c3.10001,1.2,5.5-3.10001,6.10001-5c0.70001-1.89999,5.5-3.3,6.29999-4
	c0.79999-0.60001,4.79999,5.8,7.89999,2.39999c3.10001-3.39999,7.70001-9.89999,2.70001-7.60001c-5,2.3-7.70001,5-10,2.7
	s-5.79999-8.39999-9.20001-5c-3.5,3.5,0,2.7-6.10001,5.8s-8.39999,4.2-12.29999,3.8
	C274.60001,148.5,260.39999,146.2,260.39999,146.2z"/>
<path class="st9" d="M229.7,228c3.5-5,9.7-4.89999,9.7-0.5c-0.10001,4.39999,1.10001,6.7,4.2,6.7c3.10001,0,0-0.39999-0.39999,5
	s3.5,7.7,6.5,6.10001c3.10001-1.5,6.90001-6.5,10.00002-2.7s6.10001,8.39999,0.79999,10c-5.39999,1.5-6.10001-4.2-9.2-1.2
	c-3.10001,3.10001-11.5-5.39999-12.7-3.10001c-1.2,2.3-1.5,5-5.39999,3.5c-3.8-1.5-7.7-1.2-7.7-4.2c0-3.10001,3.8-4.2,5.39999-5
	c1.5-0.8,3.8-2.7,3.10001-3.8c-0.8-1.2-6.8-0.8-6.10001-4.8C228.5,229.89999,229.7,228,229.7,228z"/>
<path class="st9" d="M243.60001,271c9.2-1,8,1.10001,10.89999-3.10001c2.79999-4.29999,3.5-6,6.60001-4.29999
	s0.29999-4.79999,9,0.20001s9,6.60001,12.10001,5s4.29999-6.20001,3.20001-8.10001c-1.20001-1.89999-1.5-5.8-1.5-5.8
	c3.60001,9.3,3.39999,12.3,1.10001,15.7c-2.29999,3.5-3.5,4.20001-7.29999,5s-9.60001-1.5-11.5,3.5s0,9.60001-4.20001,10
	s-5.79999-3.10001-8.10001-0.39999c-2.3,2.70001-7.3,1.5-8.8,3.79999s-7.89999,5.20001-8.2,1.10001
	c-0.3-4.20001,4.7-7.20001,6.3-7.20001c1.5,0,3.8-1.5,3.10001-3.5c-0.8-1.89999-1.89999-3.10001-3.5-5.39999
	c-1.5-2.29999-0.60001-7.10001-0.60001-7.10001L243.60001,271z"/>
<path class="st9" d="M313.79999,287.5c-2.29999,7.29999-17.60001,9.5-18,10.70001c-2.89999,7.70001,2.70001,8.39999-3.5,9.60001
	c-6.10001,1.20001-10.39999,1.89999-13.39999-0.79999c-3.10001-2.70001-1.5-2.29999-5,1.20001s-12.5-0.29999-9.89999,0
	s5.70001,9.89999,13.39999,8.79999C285.10001,315.80002,293,312.70004,293,312.70004s3.89999-4.5,5.29999,1.39999
	s3.39999-1.5,1.39999,5.89999s-9.39999-3.10001-5.39999,10.20001c4.10001,13.20001-2.79999,14.39999-6.60001,9.89999
	c-3.70001-4.5-5-7.70001-5.79999-2.70001s3.89999,9.10001,3.5,12.29999C285,352.80002,280,357.40002,275,356.60001
	c-5-0.79999-14.60001-4.20001-5-0.79999c9.60001,3.5,13.79999,5.39999,14.60001,11.5c0.79999,6.10001,3.39999,8.60001-0.79999,11.5
	s-3.79999,7.70001-7.29999,8.79999c-3.5,1.20001-9.60001,5-9.60001,5s10,0,14.20001-0.79999s10.70001,0,14.60001-0.39999
	c3.79999-0.39999,10,0.89999,11.89999,0.29999s6.20001,2,7.29999,2c1.20001,0-4.20001-3.10001-4.60001-6.89999
	s-3.5-11.5-6.10001-11.5c-2.70001,0-2.29999-0.79999-3.5-3.79999c-1.20001-3.10001-1.5-4.60001-2.29999-6.5
	s-9.20001,0.79999-0.79999-6.5c8.39999-7.29999,7.29999-11.5,10-11.5s2.79999,4,6.5,0s3.5-6.89999,0.39999-8.10001
	s-6.5-0.79999-3.79999-5s6.29999-5.10001,3.89999-8.70001s-5.10001-2.79999-6.60001-4.39999c-1.5-1.5-3.5-3.79999-0.79999-6.89999
	s3.10001-1.89999,5.79999-1.5s1.39999,2,6.5-1.5s4.79999-8.5,2.20001-9s-5.60001,0.10001-6.39999-1
	c-0.79999-1.20001,1.89999-0.79999,4.20001-6.5s4.60001-6.5,1.89999-8.10001S313.79999,287.5,313.79999,287.5z"/>
<g>
	<rect x="51.1" y="606.79999" class="st10" width="329.70001" height="71.09998"/>
</g>
<radialGradient id="SVGID_3_" cx="278.10001" cy="539.0835" r="98.94201" gradientTransform="matrix(1 0 0 1 0 -137.88348)" gradientUnits="userSpaceOnUse">
	<stop  offset="0" style="stop-color:#FFFFFF"/>
	<stop  offset="0.7924" style="stop-color:#FFFFFF;stop-opacity:0"/>
</radialGradient>
<ellipse class="st11" cx="278.10001" cy="401.20001" rx="118" ry="75.20001"/>
<linearGradient id="SVGID_4_" gradientUnits="userSpaceOnUse" x1="321.52945" y1="504.9306" x2="389.8963" y2="504.9306">
	<stop  offset="0" style="stop-color:#FFFFFF;stop-opacity:0"/>
	<stop  offset="0.89145" style="stop-color:#FFFFFF"/>
</linearGradient>
<rect x="321.52945" y="364.72903" class="st12" width="68.36684" height="280.40311"/>
<g>
	<rect x="38.17508" y="540.11591" class="st13" width="327.2146" height="47.38984"/>
	<rect x="38.03601" y="541.24878" class="st14" width="328.02118" height="47.79375"/>
	<rect x="37.89695" y="542.38171" class="st15" width="328.82773" height="48.19766"/>
	<rect x="37.75789" y="543.51465" class="st16" width="329.63431" height="48.60157"/>
	<rect x="37.61882" y="544.64758" class="st17" width="330.44086" height="49.00549"/>
	<rect x="37.47976" y="545.78052" class="st18" width="331.24741" height="49.4094"/>
	<rect x="37.3407" y="546.91339" class="st19" width="332.05399" height="49.81331"/>
	<rect x="37.20164" y="548.04633" class="st20" width="332.86053" height="50.21722"/>
	<rect x="37.06257" y="549.17926" class="st21" width="333.66711" height="50.62114"/>
	<rect x="36.92351" y="550.31219" class="st22" width="334.47366" height="51.02505"/>
	<rect x="36.78445" y="551.44513" class="st23" width="335.28024" height="51.42896"/>
	<rect x="36.64539" y="552.578" class="st24" width="336.08679" height="51.83287"/>
	<rect x="36.50632" y="553.71094" class="st25" width="336.89337" height="52.23679"/>
	<rect x="36.36726" y="554.84387" class="st26" width="337.69992" height="52.6407"/>
	<rect x="36.2282" y="555.97681" class="st27" width="338.5065" height="53.04461"/>
	<rect x="36.08913" y="557.10974" class="st28" width="339.31305" height="53.44852"/>
	<rect x="35.95007" y="558.24261" class="st29" width="340.11963" height="53.85244"/>
	<rect x="35.81101" y="559.37555" class="st30" width="340.92618" height="54.25635"/>
	<rect x="35.67195" y="560.50848" class="st31" width="341.73276" height="54.66026"/>
	<rect x="35.53288" y="561.64142" class="st32" width="342.53931" height="55.06417"/>
	<rect x="35.39382" y="562.77429" class="st33" width="343.34589" height="55.46809"/>
	<rect x="35.25476" y="563.90723" class="st34" width="344.15244" height="55.872"/>
	<rect x="35.1157" y="565.04016" class="st35" width="344.95901" height="56.27591"/>
	<rect x="34.97663" y="566.1731" class="st36" width="345.76556" height="56.67982"/>
	<rect x="34.83757" y="567.30603" class="st37" width="346.57214" height="57.08374"/>
	<rect x="34.69851" y="568.4389" class="st38" width="347.37869" height="57.48765"/>
	<rect x="34.55944" y="569.57184" class="st39" width="348.18527" height="57.89156"/>
	<rect x="34.42038" y="570.70477" class="st40" width="348.99182" height="58.29548"/>
	<rect x="34.28132" y="571.83771" class="st41" width="349.7984" height="58.69939"/>
	<rect x="34.14226" y="572.97064" class="st42" width="350.60495" height="59.1033"/>
	<rect x="34.00319" y="574.10352" class="st43" width="351.4115" height="59.50721"/>
	<rect x="33.86413" y="575.23645" class="st44" width="352.21808" height="59.91113"/>
	<rect x="33.72507" y="576.36938" class="st45" width="353.02463" height="60.31504"/>
	<rect x="33.58601" y="577.50232" class="st46" width="353.83121" height="60.71895"/>
	<rect x="33.44695" y="578.63525" class="st47" width="354.63776" height="61.12286"/>
	<rect x="33.30788" y="579.76813" class="st48" width="355.44434" height="61.52678"/>
	<rect x="33.16882" y="580.90106" class="st49" width="356.25089" height="61.93069"/>
	<rect x="33.02975" y="582.034" class="st50" width="357.05746" height="62.3346"/>
	<rect x="32.89069" y="583.16693" class="st51" width="357.86401" height="62.73851"/>
	<rect x="32.75163" y="584.29987" class="st52" width="358.67059" height="63.14243"/>
	<rect x="32.61257" y="585.43274" class="st53" width="359.47714" height="63.54634"/>
	<rect x="32.4735" y="586.56567" class="st54" width="360.28372" height="63.95025"/>
	<rect x="32.33444" y="587.69861" class="st55" width="361.09027" height="64.35416"/>
	<rect x="32.19538" y="588.83154" class="st56" width="361.89685" height="64.75807"/>
	<rect x="32.05632" y="589.96442" class="st57" width="362.7034" height="65.16199"/>
	<rect x="31.91725" y="591.09735" class="st58" width="363.50998" height="65.5659"/>
	<rect x="31.77819" y="592.23029" class="st59" width="364.31653" height="65.96981"/>
	<rect x="31.63913" y="593.36322" class="st60" width="365.12311" height="66.37373"/>
	<rect x="31.50006" y="594.49615" class="st61" width="365.92966" height="66.77764"/>
	<rect x="31.361" y="595.62903" class="st62" width="366.73624" height="67.18155"/>
	<rect x="31.22194" y="596.76196" class="st63" width="367.54279" height="67.58546"/>
	<rect x="31.08288" y="597.8949" class="st64" width="368.34937" height="67.98937"/>
</g>
<g>
	<rect x="51.10291" y="21.01437" class="st10" width="128.30284" height="137.78854"/>
	<text transform="matrix(1 0 0 1 51.10283 32.26467)"><tspan x="0" y="0" class="st65 st66">During military </tspan><tspan x="0" y="18" class="st65 st66">tests, atomic </tspan><tspan x="0" y="36" class="st65 st66">bombs are </tspan><tspan x="0" y="54" class="st65 st66">exploded over an </tspan><tspan x="0" y="72" class="st65 st66">island in the Pacific</tspan></text>
</g>
<text transform="matrix(1 0 0 1 33.89759 32.31932)" class="st67 st68">1</text>
<g>
	<rect x="51.10291" y="309.66687" class="st10" width="153.12553" height="71.83109"/>
	<text transform="matrix(1 0 0 1 51.10283 320.91666)"><tspan x="0" y="0" class="st65 st66">Godzilla is a prehistoric </tspan><tspan x="0" y="18" class="st65 st66">sea monster awakened </tspan><tspan x="0" y="36" class="st65 st66">and empowered by the </tspan><tspan x="0" y="54" class="st65 st66">nuclear radiation</tspan></text>
</g>
<text transform="matrix(1 0 0 1 33.89759 320.9718)" class="st67 st68">2</text>
<g>
	<rect x="51.10291" y="606.82996" class="st10" width="329.72128" height="71.12188"/>
	<text transform="matrix(1 0 0 1 51.10283 618.08026)"><tspan x="0" y="0" class="st65 st66">Godzilla is an allegory representing relations </tspan><tspan x="0" y="18" class="st65 st66">between Japan and the US. First he is the enemy </tspan><tspan x="0" y="36" class="st65 st66">of Japan and attacks and destroys its cities, then </tspan><tspan x="0" y="54" class="st65 st66">later is a friend and defender of the country</tspan></text>
</g>
<text transform="matrix(1 0 0 1 33.89759 617.75024)" class="st67 st68">3</text>
<radialGradient id="SVGID_5_" cx="278.12299" cy="400.78342" r="98.92602" gradientUnits="userSpaceOnUse">
	<stop  offset="0" style="stop-color:#FFFFFF"/>
	<stop  offset="0.79243" style="stop-color:#FFFFFF;stop-opacity:0"/>
</radialGradient>
<ellipse class="st69" cx="278.12299" cy="400.78342" rx="117.98762" ry="75.17736"/>
<g class="st70">
	<rect x="38.22517" y="420.96548" class="st71" width="348" height="224.20001"/>
	<g class="st72">
		<rect x="38.22517" y="390.96548" class="st73" width="347.60001" height="34.60001"/>
		<rect x="38.22517" y="391.76547" class="st74" width="347.60001" height="34.39999"/>
		<rect x="38.22517" y="392.46548" class="st75" width="347.60001" height="34.20001"/>
		<rect x="38.22517" y="393.1655" class="st76" width="347.60001" height="34"/>
		<rect x="38.22517" y="393.86548" class="st77" width="347.60001" height="33.79999"/>
		<rect x="38.22517" y="394.6655" class="st78" width="347.60001" height="33.60001"/>
		<rect x="38.22517" y="395.36548" class="st79" width="347.60001" height="33.39999"/>
		<rect x="38.22517" y="396.06549" class="st80" width="347.60001" height="33.20001"/>
		<rect x="38.22517" y="396.76547" class="st81" width="347.60001" height="33"/>
		<rect x="38.22517" y="397.56549" class="st82" width="347.70001" height="32.79999"/>
		<rect x="38.22517" y="398.26547" class="st83" width="347.70001" height="32.60001"/>
		<rect x="38.22517" y="398.96548" class="st84" width="347.70001" height="32.39999"/>
		<rect x="38.22517" y="399.6655" class="st85" width="347.70001" height="32.20001"/>
		<rect x="38.22517" y="400.46548" class="st86" width="347.70001" height="32"/>
		<rect x="38.22517" y="401.1655" class="st87" width="347.70001" height="31.79999"/>
		<rect x="38.22517" y="401.86548" class="st88" width="347.70001" height="31.60001"/>
		<rect x="38.22517" y="402.56549" class="st89" width="347.70001" height="31.39999"/>
		<rect x="38.22517" y="403.36548" class="st90" width="347.70001" height="31.20001"/>
		<rect x="38.22517" y="404.06549" class="st91" width="347.70001" height="31"/>
		<rect x="38.22517" y="404.76547" class="st92" width="347.70001" height="30.70001"/>
		<rect x="38.22517" y="405.46548" class="st93" width="347.79999" height="30.5"/>
		<rect x="38.22517" y="406.26547" class="st9" width="347.79999" height="30.29999"/>
		<rect x="38.22517" y="406.96548" class="st94" width="347.79999" height="30.10001"/>
		<rect x="38.22517" y="407.6655" class="st95" width="347.79999" height="29.89999"/>
		<rect x="38.22517" y="408.36548" class="st96" width="347.79999" height="29.70001"/>
		<rect x="38.22517" y="409.1655" class="st97" width="347.79999" height="29.5"/>
		<rect x="38.22517" y="409.86548" class="st98" width="347.79999" height="29.29999"/>
		<rect x="38.22517" y="410.56549" class="st99" width="347.79999" height="29.10001"/>
		<rect x="38.22517" y="411.26547" class="st100" width="347.79999" height="28.89999"/>
		<rect x="38.22517" y="412.06549" class="st101" width="347.79999" height="28.70001"/>
		<rect x="38.22517" y="412.76547" class="st102" width="347.89999" height="28.5"/>
		<rect x="38.22517" y="413.46548" class="st103" width="347.89999" height="28.29999"/>
		<rect x="38.22517" y="414.1655" class="st104" width="347.89999" height="28.10001"/>
		<rect x="38.22517" y="414.96548" class="st105" width="347.89999" height="27.89999"/>
		<rect x="38.22517" y="415.6655" class="st106" width="347.89999" height="27.70001"/>
		<rect x="38.22517" y="416.36548" class="st107" width="347.89999" height="27.5"/>
		<rect x="38.22517" y="417.06549" class="st108" width="347.89999" height="27.29999"/>
		<rect x="38.22517" y="417.86548" class="st109" width="347.89999" height="27.10001"/>
		<rect x="38.22517" y="418.56549" class="st110" width="347.89999" height="26.89999"/>
		<rect x="38.22517" y="419.26547" class="st111" width="347.89999" height="26.70001"/>
		<rect x="38.22517" y="419.96548" class="st112" width="347.89999" height="26.5"/>
		<rect x="38.22517" y="420.76547" class="st113" width="348" height="26.29999"/>
		<rect x="38.22517" y="421.46548" class="st114" width="348" height="26.10001"/>
		<rect x="38.22517" y="422.1655" class="st115" width="348" height="25.89999"/>
		<rect x="38.22517" y="422.86548" class="st116" width="348" height="25.70001"/>
		<rect x="38.22517" y="423.6655" class="st117" width="348" height="25.5"/>
		<rect x="38.22517" y="424.36548" class="st118" width="348" height="25.29999"/>
		<rect x="38.22517" y="425.06549" class="st119" width="348" height="25.10001"/>
		<rect x="38.22517" y="425.76547" class="st120" width="348" height="24.89999"/>
		<rect x="38.22517" y="426.56549" class="st121" width="348" height="24.60001"/>
		<rect x="38.22517" y="427.26547" class="st122" width="348" height="24.39999"/>
		<rect x="38.22517" y="427.96548" class="st0" width="348" height="24.20001"/>
	</g>
</g>
<linearGradient id="SVGID_6_" gradientUnits="userSpaceOnUse" x1="321.52518" y1="643.14899" x2="389.92517" y2="643.14899" gradientTransform="matrix(1 0 0 1 0 -137.88348)">
	<stop  offset="0" style="stop-color:#FFFFFF;stop-opacity:0"/>
	<stop  offset="0.8914" style="stop-color:#FFFFFF"/>
</linearGradient>
<rect x="321.52518" y="365.06549" class="st123" width="68.39999" height="280.39999"/>
<linearGradient id="SVGID_7_" gradientUnits="userSpaceOnUse" x1="-139.77626" y1="643.14899" x2="-71.37626" y2="643.14899" gradientTransform="matrix(-1 0 0 1 -38.15109 -137.88348)">
	<stop  offset="0" style="stop-color:#FFFFFF;stop-opacity:0"/>
	<stop  offset="0.8914" style="stop-color:#FFFFFF"/>
</linearGradient>
<polygon class="st124" points="33.22517,645.46552 101.62517,645.46552 101.62517,365.06549 33.22517,365.06549 "/>
<g class="st70">
	<rect x="38.22517" y="540.46552" class="st125" width="327.20001" height="47.40002"/>
	<rect x="38.02517" y="541.56549" class="st126" width="328" height="47.79999"/>
	<rect x="37.92517" y="542.7655" class="st127" width="328.79999" height="48.20001"/>
	<rect x="37.82516" y="543.86554" class="st128" width="329.60001" height="48.59998"/>
	<rect x="37.62516" y="544.96552" class="st129" width="330.39999" height="49"/>
	<rect x="37.52517" y="546.16553" class="st130" width="331.20001" height="49.40002"/>
	<rect x="37.32516" y="547.2655" class="st131" width="332.10001" height="49.79999"/>
	<rect x="37.22517" y="548.36554" class="st132" width="332.89999" height="50.20001"/>
	<rect x="37.12516" y="549.56549" class="st133" width="333.70001" height="50.59998"/>
	<rect x="36.92517" y="550.66553" class="st134" width="334.5" height="51"/>
	<rect x="36.82516" y="551.7655" class="st135" width="335.29999" height="51.40002"/>
	<rect x="36.62516" y="552.96552" class="st136" width="336.10001" height="51.79999"/>
	<rect x="36.52517" y="554.06549" class="st137" width="336.89999" height="52.20001"/>
	<rect x="36.42517" y="555.16553" class="st138" width="337.70001" height="52.59998"/>
	<rect x="36.22517" y="556.36554" class="st139" width="338.5" height="53"/>
	<rect x="36.12516" y="557.46552" class="st140" width="339.29999" height="53.40002"/>
	<rect x="36.02517" y="558.56549" class="st141" width="340.10001" height="53.90002"/>
	<rect x="35.82516" y="559.7655" class="st142" width="340.89999" height="54.29999"/>
	<rect x="35.72517" y="560.86554" class="st143" width="341.70001" height="54.70001"/>
	<rect x="35.52517" y="561.96552" class="st144" width="342.5" height="55.09998"/>
	<rect x="35.42517" y="563.16553" class="st145" width="343.29999" height="55.5"/>
	<rect x="35.32516" y="564.2655" class="st146" width="344.20001" height="55.90002"/>
	<rect x="35.12516" y="565.36554" class="st147" width="345" height="56.29999"/>
	<rect x="35.02517" y="566.56549" class="st148" width="345.79999" height="56.70001"/>
	<rect x="34.82516" y="567.66553" class="st149" width="346.60001" height="57.09998"/>
	<rect x="34.72517" y="568.7655" class="st150" width="347.39999" height="57.5"/>
	<rect x="34.62516" y="569.96552" class="st151" width="348.20001" height="57.90002"/>
	<rect x="34.42517" y="571.06549" class="st152" width="349" height="58.29999"/>
	<rect x="34.32516" y="572.16553" class="st153" width="349.79999" height="58.70001"/>
	<rect x="34.12516" y="573.36554" class="st154" width="350.60001" height="59.09998"/>
	<rect x="34.02517" y="574.46552" class="st155" width="351.39999" height="59.5"/>
	<rect x="33.92517" y="575.56549" class="st156" width="352.20001" height="59.90002"/>
	<rect x="33.72517" y="576.7655" class="st157" width="353" height="60.29999"/>
	<rect x="33.62516" y="577.86554" class="st158" width="353.79999" height="60.70001"/>
	<rect x="33.42517" y="578.96552" class="st159" width="354.60001" height="61.09998"/>
	<rect x="33.32516" y="580.16553" class="st160" width="355.39999" height="61.5"/>
	<rect x="33.22517" y="581.2655" class="st161" width="356.29999" height="61.90002"/>
	<rect x="33.02517" y="582.36554" class="st162" width="357.10001" height="62.29999"/>
	<rect x="32.92517" y="583.56549" class="st163" width="357.89999" height="62.70001"/>
	<rect x="32.82516" y="584.66553" class="st164" width="358.70001" height="63.09998"/>
	<rect x="32.62516" y="585.7655" class="st165" width="359.5" height="63.5"/>
	<rect x="32.52517" y="586.96552" class="st166" width="360.29999" height="64"/>
	<rect x="32.32516" y="588.06549" class="st167" width="361.10001" height="64.40002"/>
	<rect x="32.22517" y="589.16553" class="st168" width="361.89999" height="64.79999"/>
	<rect x="32.12516" y="590.2655" class="st169" width="362.70001" height="65.20001"/>
	<rect x="31.92517" y="591.46552" class="st170" width="363.5" height="65.59998"/>
	<rect x="31.82516" y="592.56549" class="st171" width="364.29999" height="66"/>
	<rect x="31.62517" y="593.66553" class="st172" width="365.10001" height="66.40002"/>
	<rect x="31.52517" y="594.86554" class="st173" width="365.89999" height="66.79999"/>
	<rect x="31.42517" y="595.96552" class="st174" width="366.70001" height="67.20001"/>
	<rect x="31.22517" y="597.06549" class="st175" width="367.5" height="67.59998"/>
	<rect x="31.12517" y="598.2655" class="st176" width="368.29999" height="68"/>
</g>
<g class="st177">
	<path class="st178" d="M149.12517,495.6655c0,0-0.39999,2.89999-1.10001,3.5c-0.8,0.60001-2.60001,1-3.60001,2.70001
		s-2.60001,3.5-1.8,4.5c0.89999,1,0.2,1.5,2.10001-0.79999c1.89999-2.29999,1.10001,0.70001,1.39999,1.60001
		s0.2,2.70001,1.2,0.10001s1.8-6.20001,2-4c0.10001,2.20001-0.39999,3.5,0.2,4.29999c0.60001,0.79999,0.89999-2.20001,1.7-3.39999
		c0.7-1.29999,1,1.89999,1.3,2.79999c0.3,0.79999,1.10001,1.5,1.39999-1.89999c0.3-3.39999-0.5-2.60001,0-4.60001
		c0.60001-1.89999,1.2-3.60001,1.2-3.60001l0.10001-2.20001l-5.60001-1.79999L149.12517,495.6655z"/>
	<path class="st179" d="M78.82517,460.06549c0,0,0.1-1.89999,1.4-2.70001c1.3-0.79999,1.4-0.79999,2.8-2.10001
		c1.4-1.29999,2.7-2.10001,3.7-1.70001s0.8-0.29999,2.8-0.79999s2.6-1,3.4-0.39999s1.9-1,2.9-0.29999s2.2,0,2.9,0.29999
		c0.7,0.29999,1.7,0.20001,2.5,0.20001s2.3-1.20001,3.1-0.60001c0.8,0.60001,2,0.89999,2.4,1.20001s2.5-0.70001,2.9-0.20001
		s1.7,0.20001,2.3,0.79999c0.7,0.60001,1.3-0.20001,2.8,0.10001c1.5,0.29999,1.2,0.29999,3,0.5s2.8,0.79999,4.1,0.70001
		c1.3,0,3.3,0.20001,3.9,0.10001c0.7-0.20001,0.2-0.10001,1.4-1.29999c1.19999-1.20001,2.19999-2.39999,2.6-1.20001
		c0.39999,1.20001-0.10001,1.70001,1.3,1.39999c1.3-0.29999,2.7-0.20001,2.7-0.20001s-0.2-0.5-0.10001-1.60001
		c0.10001-1.10001,0.8-1.39999,1.5-1.20001c0.8,0.20001-0.5,0.20001-0.89999-1.5s-1.60001-2.89999-0.2-2.70001
		c1.39999,0.10001,1.89999,1.39999,2.3,1.60001c0.39999,0.20001,0.60001-1.10001,1.2-2.10001c0.7-1,1.39999-1.60001,1.7-0.39999
		c0.2,1.10001,0.7,2.79999,0.7,2.79999s1.3-1.5,1.89999-2.10001c0.60001-0.70001,1.60001-1.39999,1.5-0.20001
		c-0.10001,1.20001-0.5,2.39999-0.5,2.89999c0.10001,0.5,0.8,0,1.39999-0.79999c0.60001-0.79999,0.2-1.5,0.60001-0.79999
		c0.5,0.70001,0.2,1.79999,0.7,1.70001c0.5-0.10001,2.60001,1.20001,2.5,0.20001s-0.5-1.79999-0.10001-3.29999
		c0.5-1.5,1.39999-2.10001,1.60001-0.89999c0.2,1.10001,2.60001-2.70001,3.8-1.10001c1.2,1.70001,1.3,3.29999,1.3,3.29999
		s2-2.89999,2.7-1.5c0.60001,1.39999,0,2.39999,0.39999,2.79999s2.60001-3.20001,3-2s0.2,1.89999,0.60001,2.29999
		c0.39999,0.39999,1.60001-2.29999,2.10001-1.89999s0,0.89999,0.3,1.5s0,1.39999,1.8,0.20001
		c1.8-1.20001,3.39999-2.60001,3.5-1.60001s-0.5,3.20001-0.5,3.20001s2.8-3.29999,2.8-1.89999s-0.10001,1.89999,0.10001,2.5
		s3.8-0.60001,2.60001,0.5c-1.2,1.20001-2.5,2.10001-2.89999,2.5s-1.2,1.20001-0.3,1.39999c0.89999,0.20001,0.8,2.79999,1.8,0.5
		s2-4.79999,2.10001-3.29999c0.2,1.5-0.3,1.5,1.2,0.89999s3.5-1,2.8,0s3.10001-0.29999,1.10001,1.5s-3.7,2-2.89999,2.39999
		c0.89999,0.29999,3.2,0.5,2,1.70001s2.39999,2.20001,2.2,0.89999c-0.2-1.29999-1-4.29999,0.3-4.29999s1.3,1.10001,1.7,1.79999
		c0.3,0.70001,0.5-1.5,1.8-1c1.3,0.39999,2.10001-0.20001,1.3,1.39999s0,1.39999,1.60001,2.20001c1.60001,0.79999,1.2,1-0.7,1.70001
		s-1.10001,0.89999-0.2,1.70001c0.89999,0.79999,1.7,3.79999,2.10001,1.89999c0.39999-2,1.7-4.39999,1.8-2.70001
		c0.10001,1.60001-1,2.5,1,2.10001s4.2-1.39999,2.7-0.10001c-1.60001,1.39999-3.10001,2-2.10001,2.20001
		c1.10001,0.20001,1.5-0.29999,2,0.39999c0.5,0.70001-0.10001,1.20001-0.7,1.60001c-0.5,0.39999,3,2.39999,4.10001,2
		c1.2-0.39999,3.3,0.70001,2.2,1.39999c-1.10001,0.70001-2.3,1.20001-1,1.70001c1.3,0.39999,4.3,0,3.39999,0.89999
		c-0.8,0.89999-1.39999,1.39999-0.60001,1.89999c0.8,0.5,2.89999,0.89999,2.39999,1.89999s0.5,2.29999,0.5,2.29999
		s1.10001,1.60001,2.39999,2.20001c1.3,0.60001,2.60001,1.20001,2,1.79999c-0.60001,0.70001,0.5,0.60001,1.2,2.5
		s1.39999,2.5,0.8,3.5c-0.5,1,0.10001,0.29999,0.60001,2.20001s0.39999,0.20001,2.7,1.20001s2.8,0.79999,3.10001,1.79999s1,1,2,2.5
		s-0.3,1.5,2.5,1s2.8-0.79999,3.8,0.5s1.5,1.60001,1.3,2.79999c-0.3,1.20001-0.60001,1.89999,1.7,1.5c2.3-0.5,2.39999-1.5,3,0.20001
		s0.89999,3.79999,1.8,3.20001c0.89999-0.60001,3.10001-2.60001,4-1s2.3,1.60001,3.5,2.89999s1.2,1,3.39999,1.5
		c2.3,0.5,3.2,0.29999,2.89999,1.70001c-0.3,1.39996,0.60001,1.5,2.8,1.40002s3.3,0.20001,3.5,0.70001
		s0.10001,1.90002,2.50002,1.29999c2.5-0.59998,4-1,3.70001,0.29999c-0.29999,1.40002,0.29999,2.40002,1.60001,2.20001
		c1.29999-0.20001,1.20001-0.70001,2.79999,0.09998c1.60001,0.79999,1.79999,0.40002,3.39999,1.5s5.60001,1,7.70001,2.90002
		s2.29999,2.40002,4.10001,2c1.79999-0.40002,4,0.40002,4.60001,1.20001s0.89999,1.5,3.70001,1.59998
		c2.79999,0.09998,5.10001-1,5.79999,0.59998c0.79999,1.59998-0.29999,0.70001,2.29999,1.59998
		c2.60001,0.90002,3.20001-0.40002,4.29999,1.09998c1.10001,1.5,2.10001-0.20001,3.60001,1.70001s3.20001-0.40002,3.5,1.09998
		s1.70001,2.90002-1.10001,3.09998s-5.79999-0.79999-8.39999-1.29999s-0.89999-0.29999-4.5-0.5
		c-3.60001-0.09998-5.70001-1.40002-6.20001-1.79999c-0.5-0.40002,1.20001,0.40002-3.29999,0.09998
		c-4.5-0.29999-3.89999-0.79999-7.60001-1.79999s-3.29999-0.70001-7.79999-1.20001s-4.29999-1.09998-8.10001-1.70001
		c-3.79999-0.70001-3.5-0.59998-8.00002-0.90002c-4.5-0.29999-5.10001-1.20001-6.89999-1.5
		c-1.8-0.20001-1.89999-1.20001-3.60001-0.59998c-1.7,0.59998-12.10001-1.70001-14.5-2.29999
		c-2.39999-0.70001-7.10001-0.59998-7.60001-1.79999s-2.7,0.09998-4.2-0.09998c-1.5-0.20001-6-0.79999-6-0.79999
		s3.7,1.29999,4.3,2.5c0.7,1.20001,1.60001,1.90002,3.60001,1.59998c2-0.40002,4.10001-0.5,6.39999,0.90002
		c2.39999,1.5,3.5,1.09998,5.60001,3.09998s2.5,1.59998,3.7,4.20001c1.2,2.59998,1.3,2,1.5,4.59998s0.2,3.70001,0.2,3.70001
		s-0.89999-0.20001,0,1.40002c0.89999,1.59998,3,4.40002,0.5,3.59998c-2.5-0.90002-4.10001-2-4.10001-2s0.10001,3.79999-0.8,3.79999
		c-0.89999,0-1.89999-0.59998-2.8-2.29999c-0.89999-1.79999-2.3,0.59998-2.3,0.59998s-1.5-0.20001-1.89999-2.09998
		c-0.39999-2-0.39999-1.79999-1.10001-3.70001c-0.7-1.90002-1.5-3.29999-1.5-3.29999s-4.2,1.90002-6.10001,2.09998
		c-1.89999,0.20001-3.3,1.59998-6.10001,2s-5.39999,0.29999-6,0s0.89999,1.59998-3.10001,1.20001
		c-4-0.40002-10.60001-1-12.5-5.40002c-0.2-1.29999-4.7-3.79999-6.2-8.70001c0.10001-0.29999-1-3.5-1.39999-5
		c-0.5-1.5-0.8-3.79999-0.8-3.79999s-6.3,4.29999-10.3,2.5s-5.10001-2.70001-6.10001-5.09998
		c-1.10001-2.40002-2.10001-3.59998-2-6.10004c0.10001-2.5,0-4.29999-0.5-5.10001c-0.39999-0.89999-0.7-0.89999-2-3.10001
		s-2.10001-6.10001-3.60001-6.89999c-1.39999-0.79999-0.39999-0.89999-4.10001-0.89999s-5,0.5-8.5-0.89999
		s-5.8-1.39999-8.10001-4.70001c-2.3-3.29999-4.60001-4.79999-5.8-6.79999c-1.1-2-2.6-3.89999-3-4.10001s-1.1-0.10001-3.2-0.5
		c-2.1-0.5-4.1-1.39999-5.5-2.29999s-4.8-2.79999-6.4-3.10001c-1.7-0.39999-2-1.10001-3.6-0.79999c-1.6,0.29999-4.6-0.39999-6.7-1
		s-1.8,0.39999-4.2,0.5c-2.4,0.10001-3.5-0.60001-4.1-0.60001s-2.2,0.10001-4.1,0.5c-1.8,0.39999-1.8,0.5-4.4,0.10001
		s-2.6-0.39999-4.2-0.89999s-2.6-0.5-2.3-1.79999c0.3-1.20001-0.5-1.39999-1.6-1.89999c-1.1-0.60001-1.7-0.20001-2.3-2.39999
		c-0.6-2.20001-1.8-2.60001,0.1-3.29999S78.82517,460.06549,78.82517,460.06549z"/>
	<path class="st180" d="M79.72517,458.6655c-0.3,0.29999-0.1,0.89999,0.4,1c0.4,0.10001,0.9,0,1.2-0.29999
		c0.7-0.5,1.4-1.20001,2.2-1.29999c0.3,0,0.7,0,1,0.10001c0.7,0.20001,1.4,0.5,2,0.79999"/>
	<path class="st180" d="M81.82517,460.86548c0.3,0.5,0.9,0.79999,1.5,0.70001s1.1-0.39999,1.4-0.89999
		c-0.1-0.29999-0.6-0.5-0.9-0.29999"/>
	<path class="st180" d="M76.12517,467.6655c0.6,0.20001,1.1-0.10001,1.7-0.39999c2.1-0.89999,4.4-1,6.6-0.29999
		c0,0.39999-0.4,0.70001-0.8,0.79999c-0.4,0.10001-0.8,0-1.2,0c-1.1,0-2.2,0.29999-3.1,0.89999"/>
	<path class="st180" d="M203.42516,485.06549c1.5,1,2.60001,2.5,3,4.20001c0.5,1.79999,0.2,4.29999,0.10001,6.20001
		c-0.10001,1.60001-1.3,3.39999-1.89999,0.89999c-0.5-1.89999-0.5-4-2.3-5.5c0.39999,0.29999,0.8,0.5,1.3,0.60001
		c-0.39999-0.10001-0.7-0.20001-1.10001-0.20001"/>
	<path class="st180" d="M136.32516,466.36548c-0.3,2.89999,1.10001,5.70001,3.3,7.70001c2.2,1.89999,4.89999,3.10001,7.7,3.79999
		c2.5,0.70001,5.2,1.20001,7.8,1.39999c0.60001,0,1.2,0.10001,1.7-0.29999c0.3-0.20001,0.5-0.60001,0.8-0.89999
		c1.10001-1.20001,3-0.79999,4.5-0.29999c3.89999,1.10001,7.89999,1.89999,11.89999,2.29999c0.7,0.10001,1.39999,0.10001,2,0.29999
		c0.89999,0.29999,1.7,0.89999,2.39999,1.5c3.2,2.60001,6.2,5.70001,10.10001,6.89999c1.89999,0.60001,4.2,0.79999,5.60001,2.10001
		c1.60001,1.5,1.8,3.79999,2.3,6s1.7,4.5,3.89999,4.70001c1.5-2.20001-1.2-5.5,0.10001-7.89999
		c1.7,1.10001,2.89999,3.10001,2.89999,5.20001c0.7-0.29999,1.10001-1.29999,0.8-2"/>
	<path class="st180" d="M148.82516,457.1655c3.39999-0.5,7.10001,0.60001,9.60001,2.89999
		c1.10001,1.10001,2.10001,2.29999,3.3,3.20001c2.3,1.60001,5.39999,1.60001,8.10001,2.29999c2.5,0.60001,4.8,1.79999,7,3.10001
		c1.60001,0.89999,3.2,1.70001,4.60001,2.89999c0.8,0.70001,1.60001,1.5,2.5,2.20001c2.2,1.70001,5,2.39999,7.2,4.20001
		c2.10001,1.70001,3.60001,4.39999,6.2,5.29999c2,0.70001,4.8,0.39999,5.89999,2.29999"/>
	<path class="st180" d="M134.52516,453.46548c6.8,1.5,14,0.29999,20.89999,1.10001c2.2,0.29999,4.39999,0.79999,6.60001,1.29999
		c4.10001,1,8.2,2.20001,12,3.89999c4.39999,1.89999,8.60001,4.60001,12.2,7.79999"/>
	<path class="st180" d="M188.52516,468.06549c4.39999,2.10001,6.60001,7,9.39999,10.89999c0.2,0.29999,0.5,0.60001,0.8,0.89999
		c0.3,0.20001,0.60001,0.29999,0.89999,0.5c2.8,1.29999,5.10001,3.5,6.60001,6.20001"/>
	<path class="st180" d="M151.32516,495.26547c2.2-0.89999,3.89999-2.79999,4.60001-5.10001"/>
	<path class="st180" d="M152.52516,491.6655c-1,1.10001-2.2,2.10001-3.5,2.79999c-0.60001,0.29999-1.3,0.5-1.89999,0.20001"/>
	<path class="st180" d="M147.32516,492.86548c-0.39999,1.10001-1.3,2-2.3,2.39999"/>
	<path class="st180" d="M161.42516,507.06549c2.39999,1.5,3.7,4.29999,6,6c1.60001,1.09998,3.60001,1.59998,5.5,1.90002
		c1.60001,0.29999,3.2,0.5,4.7,0.70001"/>
	<path class="st180" d="M170.62517,516.96552c1.2,0.29999,2.39999,0.5,3.60001,0.70001c0.5,0.09998,1.3,0.09998,1.39999-0.5"/>
	<path class="st180" d="M174.72516,516.46552c0.89999,0.5,2,0.79999,3,0.59998"/>
	<path class="st180" d="M171.62517,519.16553c1.3,0.29999,2.8,0.29999,4.10001-0.09998"/>
	<path class="st180" d="M173.12517,520.96552c1-0.29999,2-0.5,3-0.79999"/>
	<path class="st180" d="M181.72516,493.36548c-2.5,4.79999-2.5,10.39999-2.5,15.79999c0,3.40002,0,6.80005,0.10001,10.10004
		c0,0.29999,0.10001,0.59998,0.3,0.59998c0.3,0,0.2-0.5,0-0.29999"/>
	<path class="st180" d="M207.22516,503.56549c1.8,3.60001-0.3,7.70001,0.10001,11.5c0.2,1.70001,1,3.40002,1.2,5.09998
		c0.3,2.09998-0.8,3.70001-2.2,5.09998c-1.39999,1.5-3,3.09998-5,3.40002"/>
	<path class="st180" d="M207.62517,517.46552c-0.39999,2.70001-2.60001,5-5.2,5.59998"/>
	<path class="st180" d="M208.22516,522.46552c0.2,3-0.10001,6.09998-0.8,9c-0.2,0.90002-0.5,1.90002-1,2.70001
		c-0.7,1-1.7,1.70001-2.60001,2.40002"/>
	<path class="st180" d="M188.72516,538.86554c1.89999,0.09998,3.7-0.70001,5.10001-1.90002
		c1.39999-1.20001,2.39999-2.90002,3.2-4.59998"/>
	<path class="st180" d="M192.82516,538.2655c1.39999-0.20001,2.60001-0.90002,3.60001-1.79999c1-0.90002,1.8-2.09998,2.5-3.29999"/>
	<path class="st180" d="M206.82516,540.86554c3.39999-2.59998,2.10001-5.59998,2.5-9.09998"/>
	<path class="st180" d="M208.02516,534.86554c-0.39999,3-2.39999,5.70001-5.10001,6.90002"/>
	<path class="st180" d="M209.92516,520.96552c0.60001,0.20001,1.3,0.09998,1.89999-0.20001
		c0.60001-0.29999,1-0.79999,1.39999-1.40002c2.2-3,3.2-6.79999,2.8-10.50003"/>
	<path class="st180" d="M226.82516,504.96548c0.39999,4.5-1.2,9.20004-4.2,12.60001"/>
	<path class="st180" d="M233.22516,508.36548c0.2-0.10001,0.39999,0.20001,0.39999,0.39999
		c0.8,3.50003-0.2,7.20004-2.39999,10.00003"/>
	<path class="st180" d="M241.62517,511.26547c1.3,3.70004,0.7,8.00003-1.39999,11.30002"/>
	<path class="st180" d="M247.82516,515.56549c0.2-0.20001,0.39999,0.09998,0.5,0.40002c0.8,3.09998,0.2,6.59998-1.5,9.29999"/>
	<path class="st180" d="M255.02516,517.2655c0.8,2.90002,0.2,6.20001-1.60001,8.59998"/>
	<path class="st180" d="M261.22519,519.56549c1.10001,2.29999,1.10001,5.09998-0.20001,7.29999"/>
	<path class="st180" d="M269.22519,521.7655c-0.20001,0.59998,0,1.29999,0.10001,1.90002c0.5,2.09998,0,4.5-1.29999,6.29999"/>
	<path class="st180" d="M275.92517,524.66553c0.29999,1.5,0.29999,3,0,4.5c-0.20001,1.09998-0.70001,2.20001-1.70001,2.70001"/>
	<path class="st180" d="M283.02518,526.66553c0.79999,2.20001,0.29999,4.79999-1.39999,6.40002"/>
	<path class="st180" d="M290.12518,528.46552c0.10001-0.09998-0.20001-0.20001-0.20001-0.09998
		c-0.10001,0.09998,0,0.20001,0,0.40002c0.70001,1.79999,0.29999,4-1,5.40002"/>
	<path class="st180" d="M296.22519,531.06549c0.70001,1.40002,0.29999,3.29999-0.89999,4.20001"/>
	<path class="st180" d="M301.32516,532.86554c0.5,0.20001,0.79999,0.90002,0.79999,1.5c0,1-0.60001,1.90002-1.39999,2.40002"/>
	<path class="st180" d="M209.72516,496.86548c-0.8,1.89999-0.39999,4-0.2,6c0.3,3.10001-0.2,6.20001-1.39999,9.10001"/>
	<path class="st180" d="M211.92516,500.76547c-0.8,1.70001-0.39999,3.70001-0.3,5.60001c0.10001,3-0.7,6.00006-2.39999,8.60004"/>
	<path class="st180" d="M203.32516,488.56549c1.8,1,2.89999,3,2.89999,5"/>
	<path class="st180" d="M94.22517,465.56549c0.5,2.29999,2.7,4.10001,5.1,3.89999"/>
	<path class="st180" d="M97.92517,465.6655c1.2,1.79999,3,3.20001,5,3.89999"/>
	<path class="st180" d="M113.72517,469.1655c1,1.60001,2.7,2.79999,4.5,3.20001"/>
	<path class="st180" d="M121.02517,472.36548c0.3,1.5,1.3,2.89999,2.7,3.60001"/>
	<path class="st180" d="M125.02517,472.86548c0.5,2.79999,1.6,5.5,3.1,8"/>
	<path class="st180" d="M131.02516,481.06549c1,2.70001,2.89999,5.20001,5.3,6.79999"/>
</g>
<g class="st70">
	<path class="st181" d="M195.72516,40.76549c-0.60001-0.3-1.2-0.6-1.8-0.9c-4.7,3.7-6.89999,10.3-5.3,16.1c-1.3-1-3.2-0.7-4.5,0.3
		s-2,2.5-2.60001,4c-1.39999,3.5-2.10001,8.10001,0.7,10.7c0.8,0.7,1.8,1.2,2.5,2c2.2,2.4,1.10001,6.2,1.39999,9.4
		c0.5,5.7,6.7,10.2,12.3,9c-1.8,2.1-1,5.4,1,7.4c1.89999,1.9,4.7,2.7,7.3,3.5"/>
	<path class="st181" d="M195.72516,44.26549c-0.10001-3.3,1.60001-6.5,4.2-8.4c2.60001-1.9,6.2-2.4,9.3-1.3
		c1.60001-6.1,8.2-9.6,14.39999-11c3.89999-0.9,8.10001-1.2,11.89999,0.1c3.8,1.3,7.10001,4.5,7.7,8.5"/>
	<path class="st181" d="M238.42516,34.46549c2.8-3.9,8.10001-5.8,12.7-4.4c-0.5-2.5,0.60001-5.1,2.39999-6.8
		c1.8-1.7,4.30002-2.7,6.80002-3.1c3.70001-0.7,7.70001-0.5,11.10001,1.1s6.20001,4.8,7,8.5c0.10001,0.7,0.20001,1.5,0.29999,2.2"/>
	<path class="st181" d="M238.92516,25.16549c2.2-4.1,9.3-5.1,13.2-1.7"/>
	<path class="st182" d="M266.62518,44.26549c-0.70001-5,2.29999-10.3,7-12.3s10.60001-0.4,13.70001,3.6
		c0.20001,0.3,0.5,0.7,0.89999,0.6c0.39999-0.1,0.20001-0.9-0.10001-0.6"/>
	<path class="st182" d="M259.32516,33.16549c1.29999-2,3.70001-3.3,6.10001-3.3s4.79999,1.2,6.20001,3.2
		c0.29999-0.1,0.29999-0.6,0.10001-0.7"/>
	<path class="st181" d="M277.62518,25.66549c4.39999-4.7,12.70001-5,17.29999-0.5c4.70001-5.9,15.5-5,19.20001,1.6
		c5.20001-5.6,13.39999-8.2,20.89999-6.6c5.20001,1.1,10.5,5.7,9.20001,10.8c7-1,14.39999,4.2,15.79999,11.1
		c3.79999,0,7,3.9,6.5,7.6c5.10001,1.4,9.29999,5.6,10.70001,10.7c1.29999,5.10001-0.29999,10.9-4,14.60001"/>
	<path class="st182" d="M283.12518,40.96549c4.29999-4.6,10.5-7.6,16.79999-8c6.29999-0.5,12.79999,1.5,17.79999,5.5"/>
	<path class="st182" d="M291.82516,29.06549c-0.60001,0-0.39999-1,0.10001-1.4c3.39999-2.9,8.5-3.5,12.39999-1.4"/>
	<path class="st182" d="M309.42517,48.76549c2.10001-6,6.89999-11.1,12.79999-13.5c4.70001-1.9,10.39999-2.1,14.70001,0.6
		c4.29999,2.7,6.70001,8.6,4.39999,13.2c-0.10001-0.4-0.10001-0.8-0.20001-1.2"/>
	<path class="st182" d="M341.12518,41.36549c2.89999-1,6.29999-0.4,8.70001,1.5c2.39999,1.9,3.79999,5,3.60001,8
		c2.29999-1,5.10001,0.2,6.39999,2.3c1.39999,2.1,1.60001,4.7,1.29999,7.1"/>
	<path class="st181" d="M371.12518,69.06549c2.10001,2.9,3.5,6.3,4.10001,9.8c0.39999,2.4,0.29999,4.9-0.89999,7
		c-1.10001,1.9-3.20001,3.3-5.39999,3.5c-2.20001,0.2-4.5-0.8-6-2.5c-0.5,3.4-3.5,6.3-6.89999,6.5s-6.79999-2.9-6.60001-6.3"/>
	<path class="st182" d="M199.42516,49.36549c-2.10001,3.6-2.10001,8.4-0.10001,12c-2.10001,1.1-4,2.7-4.89999,4.80001
		c-1,2.1-0.8,4.9,0.89999,6.5c1.89999,2,5.10001,1.9,7.89999,1.7c0.39999,5.8,5,11.1,10.7,12.2c1.7,0.3,3.7,0.3,5.10001-0.9"/>
	<path class="st182" d="M232.72516,40.46549c-2.5,1.6-4.10001,4.4-4.5,7.3c-0.3,2.9,0.7,6,2.7,8.1c-2,1.4-4.2,3.1-4.89999,5.5
		c-0.8,2.4,0.60001,5.6,3.10001,5.7c0.3,3.2,2.39999,6.1,5.3,7.4c2,0.9,4.3,1,6.3,2.1c2,1,3.5,3.5,2.39999,5.4"/>
	<path class="st182" d="M302.32516,81.56549c0.89999-1.2,1.79999-2.5,3-3.4c2.20001-1.7,5.39999-2.1,8-0.9s4.70001,3.8,7.5,3.6
		c3.10001-0.2,4.79999-3.8,5.20001-6.9c3.60001,0.3,7,2.6,10.5,1.9c1.60001-0.3,3.10001-1.3,4.39999-2.4
		c2.29999-1.9,4.20001-4.4,4.89999-7.3c0.60001-2.90001-0.39999-6.3-3-7.8s-6.5-0.1-7.10001,2.8
		c0.20001-2.9-1.70001-5.7-4.39999-6.7c-2.70001-0.9-6,0.1-7.60001,2.5"/>
	<path class="st182" d="M345.92517,66.96549c1.89999,2.3,3.79999,4.8,4.5,7.7c0.70001,2.9-0.29999,6.5-3,7.8"/>
	<path class="st182" d="M271.22519,45.86549c0.20001-0.7-0.89999-1-1.60001-0.8c-2.79999,0.5-5.70001,1.1-7.89999,2.7
		c-2.70001,1.9-4.20001,5.3-4,8.6c-1.5,0-2.90001-0.9-4.40001-0.9c-1.60001,0-3.10001,1.1-4.10001,2.5
		c-2.60001,3.6-2.39999,8.90001,0.39999,12.40001c2.8,3.5,7.70003,5,12.00002,3.8c2-0.6,4-1.8,4.70001-3.8
		c0.79999-2.1,0-4.4-0.70001-6.40001"/>
	<path class="st181" d="M267.22519,222.56549c-0.20001-3-2.70001-5.60001-5.60001-5.89999c-2.89999-0.3-6.00002,1.7-6.80002,4.60001
		c-0.39999-4.5-5.3-8-9.60001-6.89999c-2.60001-2.10001-6-3.7-9.3-3c-3.3,0.60001-6.2,4-5.39999,7.2
		c0.89999,0.60001,1.7,1.10001,2.60001,1.7c-4.2,0.10001-7.7,4.2-7.5,8.39999s3.8,7.8,7.89999,8.5
		c-4.8-0.8-9.89999,2.39999-11.10001,7.10001c-1.3,4.7,1.5,10.10001,6.10001,11.70001c1.39999,0.5,2.89999,0.70001,4.39999,0.79999
		c1.89999,0.20001,4,0.29999,5.60001-0.79999c1.60001-1.10001,2.10001-3.8,0.5-4.89999"/>
	<path class="st182" d="M244.92516,213.56549c2-3.7,7.2-5.3,10.89999-3.2c2.3,1.3,3.90001,3.89999,3.50002,6.5
		c-0.39999-0.3-0.89999-0.60001-1.29999-0.89999"/>
	<path class="st182" d="M265.52518,223.86548c-0.39999,0-0.29999-0.7-0.10001-1c1.10001-1.3,2.70001-2.5,4.39999-2.3
		c1.70001,0.2,3.10001,2.2,2.29999,3.7c1.70001,0.3,3.5,0.10001,5.20001-0.5c-2-3.7,0.5-8.60001,4.5-10.10001
		c2.5-0.89999,5.39999-0.7,7.5,0.89999c2,1.60001,2.89999,4.8,1.5,7.10001c2.79999-1.3,6.5-1.39999,8.89999,0.60001
		s2.89999,6.2,0.5,8.2"/>
	<path class="st181" d="M295.12518,231.16548c1.70001-1.60001,4.20001-2.2,6.5-1.60001c2.20001,0.60001,4.10001,2.5,4.70001,4.7
		c2.89999-3,7.70001-3.89999,11.5-2.2c3.79999,1.8,6.20001,6.10001,5.70001,10.2c-0.5,4.10001-3.79999,7.8-7.89999,8.60001
		c3,1.3,5,4.60001,4.79999,7.79999c-0.29999,3.29999-2.79999,6.20001-6,7c3.10001,2.79999,2.70001,8.39999-0.79999,10.79999
		c-2.60001,1.79999-6.20001,1.5-9.20001,0.39999c-4.70001-1.79999-8.60001-6.39999-8.10001-11.39999
		c0.20001-2.20001,1.5-4.39999,3.60001-5.20001c2.10001-0.79999,4.89999,0.60001,5.10001,2.79999"/>
	<path class="st181" d="M237.12517,257.86548c-1.89999,0-2.8,2.39999-2.60001,4.29999c0.60001,5.10001,5.89999,8.10001,10.8,9.39999
		c3,0.79999,6.2,0.89999,7.3-1.60001c0.39999-0.79999,1.2-1.39999,1.7-2.10001c0.89999-1.39999,1.90002-2.79999,2.80002-4.29999"/>
	<path class="st182" d="M249.82516,259.1655c3.89999,2.89999,8.90002,4.5,13.80002,4.39999
		c1.89999,0,3.79999-0.39999,5.29999-1.60001c1.79999,2.89999,4.70001,5.20001,8,6.20001
		c1.70001,0.60001,3.60001,0.79999,5.29999,0.39999c3-0.70001,5.29999-3.39999,5.70001-6.39999c0.39999-3-1.29999-6.20001-4-7.5"/>
	<path class="st182" d="M248.32516,249.66548c-0.3,0.8-1.39999,0-1.8-0.7c-0.89999-1.7-1.7-3.5-1.8-5.5
		c-0.2-2.8,1.3-5.60001,3.60001-7c2.39999-1.39999,5.5-1.5,7.90002-0.10001c-0.60002,0.10001-1.20001-0.10001-1.60002-0.5
		c-1-2.10001,0.89999-4.39999,2.8-5.5c5.10001-2.8,12.10001-1.3,15.60001,3.3c1.5,2,2.39999,4.7,1.29999,6.89999"/>
	<path class="st182" d="M232.62517,231.46548c0-0.39999,0-0.89999,0-1.3c2.7-2.3,6.39999-3.3,9.8-2.7
		c3.5,0.60001,6.60001,2.8,8.3,5.89999c0.3,0.5,0.5,1.2,0,1.60001"/>
	<path class="st182" d="M275.52518,249.36548c1.29999-3.60001,4.89999-6.3,8.70001-6.5c3.89999-0.10001,7.70001,2.3,9.20001,5.8
		c-1-2.5,1.20001-5.60001,3.79999-6c2.70001-0.5,5.39999,1.10001,7,3.39999c1.60001,2.2,2.10001,5.3,0.79999,7.8
		c-1.29999,2.39999-4.79999,3.60001-7,2"/>
	<path class="st181" d="M240.02516,272.06549c-1.60001,2.79999-1,6.70001,1.39999,8.89999
		c0.2,0.20001,0.39999,0.29999,0.39999,0.60001c0.10001,0.5-0.5,0.79999-1,0.89999c-2.2,0.60001-4.39999,1.20001-6.3,2.5
		c-1.8,1.29999-3.2,3.60001-2.7,5.79999c0.39999,2.20001,3.10001,3.89999,5.10001,2.70001c-1.89999,0.10001-3.8,0.20001-5.5,1.20001
		s-2.8,2.89999-2.2,4.70001c0.5,1.5,2.10001,2.39999,3.7,2.5c1.60001,0.10001,3.10001-0.39999,4.60001-0.89999
		c-0.2,1.89999-0.39999,4.10001,0.8,5.60001c0.8,1,2,1.5,3.2,1.89999c2.3,0.60001,4.89999,0.60001,7-0.39999
		c2.2-1,3.8-3.20001,3.89999-5.60001c0.10001-1.89999-0.89999-3.79999-2.5-4.89999s-3.7-1.20001-5.5-0.39999
		c-0.3,1-0.60001,2.10001-0.39999,3.10001c0.3,1,1.39999,1.89999,2.39999,1.5c0-0.79999,0-1.5,0-2.29999"/>
	<path class="st181" d="M313.22519,276.36548c-0.60001,1.5,0.70001,3.10001,2.20001,3.60001s3.10001,0.39999,4.70001,0.70001
		c4.39999,1,6.89999,6.89999,4.5,10.70001c-2.10001,3.39999-7,5.29999-7.20001,9.29999c3.10001-0.60001,6,2.70001,5.70001,5.89999
		c-0.29999,3.10001-3,5.70001-6,6.70001c-3,1.10001-6.20001,1-9.39999,0.89999c2.10001,1,4.29999,2,5.60001,3.89999
		c1.29999,1.89999,1.5,4.79999-0.39999,6.29999c2.10001,0.79999,3.60001,3.10001,3.5,5.39999s-1.70001,4.39999-3.89999,5.10001
		c1,1.60001-1.5,4.29999,0.10001,5.39999c0.39999,0.29999,0.89999,0.29999,1.39999,0.39999
		c2.89999,0.60001,3.39999,5.10001,1.39999,7.20001c-2,2.20001-5.29999,2.60001-8.29999,2.79999
		c1.79999,2-0.10001,5.89999-2.79999,5.60001c2.10001,2.5-0.60001,7.20001-3.79999,6.60001
		c0.10001,1,0.10001,2.10001,0.20001,3.10001c2.89999-1.70001,7-0.79999,8.79999,2s1,7-1.79999,8.89999
		c2.70001-0.60001,5.5,1.10001,6.60001,3.60001c1,2.5,0.20001,5.60001-1.89999,7.39999c2-1.20001,4.70001-0.39999,6.29999,1.20001
		c1.60001,1.70001,2.29999,4,2.79999,6.29999"/>
	<path class="st181" d="M239.82516,392.86548c-1.10001-2-0.7-4.60001,0.89999-6.20001c1.60001-1.60001,4.2-2,6.2-0.89999
		c0-1.60001,0-3.29999,0-4.89999c-1.7,0.39999-3.5-0.79999-4.10001-2.5c-0.60001-1.60001-0.10001-3.5,0.89999-5
		c-4.10001-0.10001-7.89999-3.70001-8.10001-7.79999c-0.2-4.10001,3.10001-8.10001,7.2-8.70001c0.8-0.10001,1.8-0.39999,1.7-1.10001
		c0-0.29999-0.2-0.60001-0.5-0.79999c-1.89999-1.89999-4.5-3-6.8-4.5s-4.39999-3.79999-4.39999-6.5s3.3-5.20001,5.60001-3.60001
		c0.5-1.29999,1.5-2.39999,2.7-3.10001c-2.39999,0.10001-4.8-1.70001-5.39999-4.10001c-0.60001-2.29999,0.5-5,2.60001-6.20001
		c1.39999-0.70001,3.3-1.29999,3.3-2.89999c0-1-1-1.79999-1.7-2.5c-3.10001-3.10001-1.89999-9.20001,2-11"/>
	<path class="st182" d="M264.72519,215.86548c0.29999-0.2,0.10001,0.60001-0.20001,0.39999c-0.29999-0.2-0.10001-0.7,0-1
		c0.89999-1.7,2-3.60001,3.79999-4.39999c1.79999-0.8,4.39999,0,4.60001,2c-0.60001-3.8,1-7.8,4-10.2s7.29999-3,10.79999-1.60001
		c3.20001,1.3,5.89999,4.8,4.89999,8.10001"/>
	<path class="st181" d="M284.62518,208.26549c1.89999,0.10001,3.79999-0.10001,5.70001,0.3
		c1.89999,0.39999,3.70001,1.60001,4.10001,3.5c2-0.89999,4.5,0.5,5.5,2.5s0.79999,4.39999,0.60001,6.60001
		c0,0.2-0.10001,0.39999-0.29999,0.5c-0.20001,0.10001-0.29999-0.3-0.10001-0.3"/>
	<path class="st181" d="M269.92517,210.66548c-1.60001-2.10001-2.20001-5-1.39999-7.5c0.5-1.5,1.29999-3.39999,0.20001-4.5
		c-0.70001-0.7-1.79999-0.7-2.89999-0.8c-6.10001-0.60001-10.50002-8.10001-8-13.7c0.5-1.2,1.29999-2.3,1.20001-3.60001
		c-0.20001-3.2-5.00002-3.7-6.50002-6.5c-1.10001-2.10001-0.10001-4.5,0.39999-6.8c0.60001-3.2,0.10001-6.5-1.39999-9.39999
		c-4.5,0.8-8.60001-5-6.3-8.89999c1.39999-2.39999,4.5-5.2,2.60001-7.2c-1.3,0-2.60001,0-3.89999,0
		c-1.60001-1.60001-1-4.39999-2.2-6.3c-1.89999-2.7-6-1.5-9.39999-1.7c-5-0.3-9.3-5.2-8.89999-10.3c-2.3-2.2-5.8-3-8.8-2
		c0.39999-1.7-1.7-2.6-3.3-3.3c-4.39999-1.9-7.10001-7.3-5.89999-12c1.2-4.7,6-8.2,10.89999-7.8c0,1.9,0,3.8,0,5.8
		c-0.89999,0.3-1.8,0.7-2.60001,1"/>
	<path class="st181" d="M291.52518,209.66548c-0.79999-0.89999,0.60001-1.89999,1.70001-2.39999
		c3.5-1.7,5.29999-6.3,3.89999-9.89999c-0.79999-2-2.39999-4-1.5-5.89999c0.39999-0.89999,1.39999-1.5,2-2.3
		c0.89999-1.10001,1.20001-2.5,1.5-3.89999c1.39999-6.5,2.79999-13.5,0.39999-19.8c-0.70001-1.89999-1.79999-3.89999-0.89999-5.7
		c0.29999-0.7,0.89999-1.2,1.29999-1.8c1-1.60001,1-3.60001,1.5-5.5c0.5-1.8,2.29999-3.60001,4.10001-2.89999
		c1.10001,3.3,4.70001,5.5,8.10001,5c-0.10001-1.8-0.10001-3.5-0.20001-5.3c1.29999-1.39999,3.39999,0.3,4.89999,1.5
		c3.29999,2.5,8.39999,1.89999,11.10001-1.2c2.70001-3.10001,2.5-8.2-0.39999-11.10001c2.5,1.3,6,0.5,7.70001-1.8
		s1.29999-5.89999-0.79999-7.8"/>
	<path class="st181" d="M308.72519,102.56549c-2.79999,1.8-4.39999,5.6-3.10001,8.7s5.60001,4.6,8.29999,2.6
		c-2.10001,3.5-0.29999,8.4,2.89999,10.9s7.5,3.2,11.60001,3.39999c3.89999,0.2,7.89999,0,11.5-1.59999
		c3.60001-1.6,6.60001-4.9,7-8.8c2.89999,2.1,7,0.8,9.89999-1.3c7.29999-5.5,10.20001-16,6.89999-24.4
		c-0.39999-1.1-1.79999-2.3-2.60001-1.5"/>
	<path class="st182" d="M327.82516,109.56549c1.39999,1.8,3.70001,2.5,5.89999,3.1c4,1.1,8.20001,1.9,12.20001,1s7.79999-4,8.5-8.1"
		/>
	<path class="st182" d="M330.42517,86.06549c0.10001,5.6-5.29999,9.8-10.70001,11.4c-2.60001,0.8-5.5,1.2-8.10001,0.2
		s-4.60001-3.8-3.89999-6.4c-6,4.6-15.39999,3.9-20.70001-1.4c-2.20001-2.3-3.79999-5.4-3.39999-8.6s3.29999-6.1,6.5-5.8"/>
	<path class="st182" d="M232.12517,95.7655c-1.8,3.8-0.10001,8.6,3.10001,11.4c3.10001,2.8,7.39999,4,11.5,4.8
		c2.7,0.5,5.5,0.8,8.10001,0.2c2.60002-0.7,5.10002-2.5,5.90001-5.1c-1.20001,2.9-0.5,6.5,1.39999,9
		c1.89999,2.6,4.70001,4.3,7.70001,5.3c8.10001,2.8,18.10001,0.6,23.10001-6.4c1.89999-2.8,3-6.2,2.5-9.6
		c-0.60001-3.3-2.89999-6.4-6.20001-7.4"/>
	<path class="st182" d="M291.12518,117.46549c2.29999,3.2,6.60001,4.6,10.5,4.2s7.60001-2.3,10.79999-4.6"/>
	<path class="st182" d="M219.82516,93.16549c0.5-0.7,1.5,0.2,2,0.9c1.3,1.8,4,2.3,6.2,1.8s4.2-1.7,6.3-2.6s4.5-1.5,6.60001-0.6
		c3,1.3,4.10001,4.9,6.5,7.1c2.8,2.6,7.10001,2.9,10.80002,2.1c2.39999-0.5,4.70001-1.5,6.39999-3.2s2.5-4.4,1.70001-6.7
		c-0.79999-2.3-3.60001-3.8-5.79999-2.8"/>
	<path class="st182" d="M227.62517,115.06549c0.60001,4.4,2.7,8.6,6.3,11.1c3.60001,2.6,8.60001,3.19999,12.39999,1.2
		c0.8-0.4,1.7-0.9,2.5-0.5c0.3,0.2,0.5,0.5,0.7,0.7c2.7,3.39999,7.40001,4.99999,11.70003,4.1
		c4.20001-0.89999,7.89999-4.3,9-8.39999"/>
	<path class="st182" d="M274.12518,146.06549c1.10001,2.2,2.79999,4.10001,5,5.2c2.29999,1.3,5.20001,1.7,7.70001,0.89999
		c2.5-0.89999,4.5-3.2,4.70001-5.8c4.39999,3.89999,12,3.3,15.79999-1.2c1.29999-1.5,2.20001-3.60001,1.60001-5.5
		s-3.10001-3.2-4.70001-2"/>
	<path class="st182" d="M257.12518,138.96548c-0.5,0.2-0.10001,1,0.39999,1.3c5.89999,3.8,13.39999,4.89999,20.10001,3
		s12.5-6.89999,15.39999-13.2c4.60001,2.60001,10.89999,1.89999,14.79999-1.60001"/>
	<path class="st182" d="M312.92517,282.36548c2.5,1.89999,2,6.29999-0.70001,7.79999c-2.70001,1.60001-6.5,0.29999-8-2.39999
		c-1.70001,0.70001-1.10001,3.20001-1.89999,4.79999c-1,2.10001-4.20001,2.20001-5.89999,0.70001s-2.20001-4-2.20001-6.29999
		c-0.89999,0-1.70001,0.10001-2.60001,0.10001c0.29999,1.10001,0.5,2.20001,0.10001,3.29999
		c-0.39999,1-1.60001,1.89999-2.60001,1.29999c-0.60001-0.29999-0.89999-1-1.20001-1.70001
		c-0.70001-1.89999-1.5-3.89999-2.20001-5.79999c-1.5,0.70001-3.10001,1.20001-4.70001,1.20001
		c-1.60001-0.10001-3.29999-0.89999-3.89999-2.39999c-0.20001,2.60001-2.70001,4.70001-5.20001,4.60001
		c-2.60001-0.10001-4.79999-2.5-4.79999-5.10001c0-1.5,1-3.10001,2.39999-3.10001"/>
	<path class="st182" d="M291.32516,305.1655c2-0.39999,4.29999,0.5,5.39999,2.29999
		c1.10001,1.70001,1.10001,4.20001-0.10001,5.89999c-1.79999-0.10001-3.70001-0.60001-5.29999-1.39999
		c0,0.60001,0,1.29999,0,1.89999c1.70001-0.39999,3.5-0.20001,4.89999,0.79999s2.20001,2.79999,1.79999,4.5
		c-0.5,1.60001-2.39999,2.79999-4,2.20001c-0.89999-0.29999-1.60001-1.20001-2.39999-1.79999c-0.79999-0.60001-2-1-2.79999-0.29999
		c-1.20001,0.89999-0.60001,3.39999-2.10001,3.89999c-0.39999,0.10001-0.70001,0-1.10001,0
		c-2.70001-0.5-5.70001-1.20001-7.10001-3.60001c-0.20001-0.29999-0.29999-0.60001-0.60001-0.79999c-0.60001-0.5-1.5,0-2,0.60001
		s-0.79999,1.29999-1.39999,1.79999s-1.39999,0.60001-2.10001,0.60001c-4.89999,0-9.39999-4.39999-9.39999-9.29999
		c0-1.70001,0.39999-3.70001-0.79999-5c-0.70001,0-1.29999,0.39999-2,0.60001c-2,0.39999-3.29999-2.29999-3.10001-4.29999
		c0.39999-3.89999,4.10001-7.20001,8-6.89999c3.89999,0.29999,7,4.70001,5.79999,8.39999c-0.89999,0.5-1.70001,1-2.60001,1.5
		c0.10001-1.79999-0.39999-3.60001-1.29999-5.20001"/>
	<path class="st182" d="M262.92517,311.6655c-2.79999-0.5-5.10001,2.29999-6.10001,5c-0.39999,1.20001-0.70001,2.5-0.5,3.79999
		s1.10001,2.5,2.39999,2.79999c0.70001,0.20001,1.39999,0.10001,2,0.5c0.70001,0.60001,0.5,1.70001,0.10001,2.5
		s-1,1.70001-0.89999,2.60001c0.10001,0.79999,0.70001,1.39999,1.29999,1.89999c2,1.79999,4.79999,3.20001,7.39999,2.39999
		c2.20001-0.70001,3.70001-3.29999,3.20001-5.60001"/>
	<path class="st182" d="M248.32516,380.86548c-0.5-1.79999-0.89999-3.79999-0.2-5.5s3.10001-2.79999,4.5-1.60001
		c-0.10001-2,0.5-4.10001,1.7-5.70001c-3.10001-1.29999-5.2-4.70001-4.89999-8s3-6.29999,6.3-7
		c2.00002-0.39999,4.60002,0.5,4.60002,2.60001c-0.5-2-1-4-0.79999-6s1.60001-4,3.5-4.5c2.5-0.60001,5,1.39999,5.89999,3.79999
		s0.5,5,0.10001,7.60001c1.39999-0.10001,2.89999,0.20001,4.10001,1c0.5-3.20001,4.5-5.29999,7.39999-4
		c2.89999,1.39999,3.89999,5.79999,1.70001,8.20001c1.79999-1.70001,5.20001,1.10001,4,3.20001
		c2.29999-3,7.70001-0.79999,8.60001,2.79999c0.79999,3.70001-1.60001,7.39999-4.60001,9.70001
		c3.29999-1.39999,7.39999-0.60001,9.79999,2s3,6.79999,1.20001,9.89999c1.79999-1.89999,5-2.39999,7.29999-1.20001
		c2.39999,1.20001,3.79999,4,3.39999,6.60001"/>
	<path class="st182" d="M273.82516,375.26547c-0.10001-0.5,0.20001-1,0.5-1.39999c1.89999-2.10001,5.60001-1.39999,7.39999,0.70001
		s2.29999,5.10001,2.5,7.89999c1.60001-0.70001,3.5-1,5.20001-0.39999c1.60001,0.60001,2.89999,2.39999,2.70001,4.10001"/>
	<path class="st182" d="M277.22519,353.26547c-0.39999-2.39999-0.39999-5,1-7s4.5-2.89999,6.39999-1.39999
		c0.89999-0.89999,0.60001-2.29999,0-3.39999c-0.60001-1-1.60001-1.89999-2-3c-0.5-1.20001-0.5-2.5-0.20001-3.70001
		c0.89999-3.39999,4.29999-5.79999,7.79999-5.79999s6.79999,2.5,7.89999,5.79999s0,7.20001-2.60001,9.5
		c2.29999,0.5,3.79999,2.79999,4,5.10001c0.29999,2.29999-0.5,4.60001-1.29999,6.70001"/>
</g>
<path class="st183" d="M195.12517,87.06549c0,0-8.39999-2.3-6.10001-8.4c2.3-6.1,1.2-7.7-0.8-11.1
	c-1.89999-3.5-1.89999-5.40001,0.8-8.40001c2.7-3.1,10.39999-3.8,11.5-3.5c1.2,0.4,0.8-8.8,5.39999-8.1
	c4.60001,0.8,8.8,7.7,7.7,11.1c-1.2,3.5-1.5,11.90001,2.3,13.80001s6.7-5.6,14.10001-2.4c7.39999,3.2,8.89999,13.2,8.89999,14.7
	s7.3,7.7,13.10001,5.4c5.8-2.3,1.89999-9.2,8.10002-9.6c6.10001-0.4,9.20001,5.4,9.20001,8.4c0,3.1,3.10001,6.9,3.10001,9.6
	s-1.20001,10.7,3.79999,9.6c5-1.2,6.5-4.3,12.70001-4.2c6.20001,0.1,8.29999,5.2,5,9.4c-3.29999,4.3-2.20001,5.2-0.60001,6.1
	s7.29999-3.7,9.89999-6s6.79999,5.2,6,5.6s5.89999-9.5,9.39999-6.4s6.39999,5.5,10.70001-2c4.29999-7.6,7.39999-10.3,10-5.3
	c2.70001,5,5.79999,10-1.5,14.2s-7.70001,9.19999-16.5,9.6c-8.79999,0.39999-20.39999-7.3-19.60001-2.69999
	c0.79999,4.6-4.10001,11.19999-13.60001,10.6c-9.39999-0.60001-16-5.2-15.20001-7.89999c0.79999-2.69999-2.10001,1.8-8.79999,5.8
	c-6.79999,3.89999-11.50002,5-14.20001,1.2s-3.89999-7.8-6.5-7.7s-6.5,6.2-10.39999,1.89999
	c-3.8-4.19999-1.60001-12.49999-4.60001-12.8c-3.10001-0.3-8.39999,2-10.3,0.9c-1.89999-1.2-8.39999,1.2-8.39999-6.1
	c0-7.3-0.8-12.2,1.39999-13.1s-5.8,2.8-8,1.5c-2.2-1.2-2.60001-6.1-2.60001-7.7L195.12517,87.06549z"/>
<path class="st184" d="M260.42517,146.16548c0,0,0,7.3,9.20001,10s13.10001,3.5,15.70001,1.5
	c2.70001-1.89999,4.60001-3.10001,7.70001-1.89999c3.10001,1.2,5.5-3.10001,6.10001-5c0.70001-1.89999,5.5-3.3,6.29999-4
	c0.79999-0.60001,4.79999,5.8,7.89999,2.39999c3.10001-3.39999,7.70001-9.89999,2.70001-7.60001c-5,2.3-7.70001,5-10,2.7
	s-5.79999-8.39999-9.20001-5c-3.5,3.5,0,2.7-6.10001,5.8s-8.39999,4.2-12.29999,3.8
	C274.62518,148.46548,260.42517,146.16548,260.42517,146.16548z"/>
<path class="st184" d="M229.72516,227.96548c3.5-5,9.7-4.89999,9.7-0.5c-0.10001,4.39999,1.10001,6.7,4.2,6.7
	c3.10001,0,0-0.39999-0.39999,5s3.5,7.7,6.5,6.10001c3.10001-1.5,6.90002-6.5,10.00003-2.7s6.10001,8.39999,0.79999,10
	c-5.40001,1.5-6.10002-4.2-9.20001-1.2c-3.10001,3.10001-11.5-5.39999-12.7-3.10001c-1.2,2.3-1.5,5-5.39999,3.5
	c-3.8-1.5-7.7-1.2-7.7-4.2c0-3.10001,3.8-4.2,5.39999-5c1.5-0.8,3.8-2.7,3.10001-3.8c-0.8-1.2-6.8-0.8-6.10001-4.8
	C228.52516,229.86548,229.72516,227.96548,229.72516,227.96548z"/>
<path class="st184" d="M243.62517,270.96548c9.2-1,8,1.10001,10.89999-3.10001c2.8-4.29999,3.50002-6,6.60002-4.29999
	s0.29999-4.79999,9,0.20001s9,6.60001,12.10001,5s4.29999-6.20001,3.20001-8.10001c-1.20001-1.89999-1.5-5.8-1.5-5.8
	c3.60001,9.3,3.39999,12.3,1.10001,15.7c-2.29999,3.5-3.5,4.20001-7.29999,5s-9.60001-1.5-11.5,3.5s0,9.60001-4.20001,10
	s-5.79999-3.10001-8.10002-0.39999c-2.3,2.70001-7.3,1.5-8.8,3.79999s-7.89999,5.20001-8.2,1.10001
	c-0.3-4.20001,4.7-7.20001,6.3-7.20001c1.5,0,3.8-1.5,3.10001-3.5c-0.8-1.89999-1.89999-3.10001-3.5-5.39999
	c-1.5-2.29999-0.60001-7.10001-0.60001-7.10001L243.62517,270.96548z"/>
<path class="st184" d="M313.82516,287.46548c-2.29999,7.29999-17.60001,9.5-18,10.70001
	c-2.89999,7.70001,2.70001,8.39999-3.5,9.60001c-6.10001,1.20001-10.39999,1.89999-13.39999-0.79999
	c-3.10001-2.70001-1.5-2.29999-5,1.20001s-12.5-0.29999-9.89999,0s5.70001,9.89999,13.39999,8.79999
	c7.70001-1.20001,15.60001-4.29999,15.60001-4.29999s3.89999-4.5,5.29999,1.39999s3.39999-1.5,1.39999,5.89999
	s-9.39999-3.10001-5.39999,10.20001c4.10001,13.20001-2.79999,14.39999-6.60001,9.89999c-3.70001-4.5-5-7.70001-5.79999-2.70001
	s3.89999,9.10001,3.5,12.29999c-0.39999,3.10001-5.39999,7.70001-10.39999,6.89999c-5-0.79999-14.60001-4.20001-5-0.79999
	c9.60001,3.5,13.79999,5.39999,14.60001,11.5c0.79999,6.10001,3.39999,8.60001-0.79999,11.5s-3.79999,7.70001-7.29999,8.79999
	c-3.5,1.20001-9.60001,5-9.60001,5s10,0,14.20001-0.79999s10.70001,0,14.60001-0.39999c3.79999-0.39999,10,0.89999,11.89999,0.29999
	s6.20001,2,7.29999,2c1.20001,0-4.20001-3.10001-4.60001-6.89999s-3.5-11.5-6.10001-11.5c-2.70001,0-2.29999-0.79999-3.5-3.79999
	c-1.20001-3.10001-1.5-4.60001-2.29999-6.5s-9.20001,0.79999-0.79999-6.5c8.39999-7.29999,7.29999-11.5,10-11.5s2.79999,4,6.5,0
	s3.5-6.89999,0.39999-8.10001s-6.5-0.79999-3.79999-5s6.29999-5.10001,3.89999-8.70001s-5.10001-2.79999-6.60001-4.39999
	c-1.5-1.5-3.5-3.79999-0.79999-6.89999s3.10001-1.89999,5.79999-1.5s1.39999,2,6.5-1.5s4.79999-8.5,2.20001-9
	s-5.60001,0.10001-6.39999-1c-0.79999-1.20001,1.89999-0.79999,4.20001-6.5s4.60001-6.5,1.89999-8.10001
	S313.82516,287.46548,313.82516,287.46548z"/>
<g class="st70">
	<rect x="51.12516" y="606.7655" class="st185" width="329.70001" height="71.09998"/>
</g>
<radialGradient id="SVGID_8_" cx="278.12518" cy="539.04901" r="98.94201" gradientTransform="matrix(1 0 0 1 0 -137.88348)" gradientUnits="userSpaceOnUse">
	<stop  offset="0" style="stop-color:#FFFFFF"/>
	<stop  offset="0.7924" style="stop-color:#FFFFFF;stop-opacity:0"/>
</radialGradient>
<ellipse class="st186" cx="278.12518" cy="401.1655" rx="118" ry="75.20001"/>
</svg>
