<svg xmlns="http://www.w3.org/2000/svg" viewBox="0 0 391.09 193.39"><defs><style>.cls-1{fill:#022832;}.cls-2{fill:#f91935;}.cls-3{fill:#e2e2dc;}</style></defs><g id="Layer_2" data-name="Layer 2"><g id="Layer_1-2" data-name="Layer 1"><path class="cls-1" d="M261.09.09a65.37,65.37,0,0,1-65.31,65.3C159.43,65.82,130,35.68,129.91,0H0C1.17,107,88.26,193.39,195.55,193.39S389.92,107,391.09,0h-130Z"/><path class="cls-1" d="M261.09.09a65.37,65.37,0,0,1-65.31,65.3C159.43,65.82,130,35.68,129.91,0H0C1.17,107,88.26,193.39,195.55,193.39S389.92,107,391.09,0h-130Z"/><path class="cls-1" d="M261.09.09a65.37,65.37,0,0,1-65.31,65.3C159.43,65.82,130,35.68,129.91,0H0C1.17,107,88.26,193.39,195.55,193.39S389.92,107,391.09,0h-130Z"/><path class="cls-1" d="M261.09.09a65.37,65.37,0,0,1-65.31,65.3C159.43,65.82,130,35.68,129.91,0H0C1.17,107,88.26,193.39,195.55,193.39S389.92,107,391.09,0h-130Z"/><path class="cls-1" d="M261.09.09a65.37,65.37,0,0,1-65.31,65.3C159.43,65.82,130,35.68,129.91,0H0C1.17,107,88.26,193.39,195.55,193.39S389.92,107,391.09,0h-130Z"/><path class="cls-1" d="M261.09.09a65.37,65.37,0,0,1-65.31,65.3C159.43,65.82,130,35.68,129.91,0H0C1.17,107,88.26,193.39,195.55,193.39S389.92,107,391.09,0h-130Z"/><path class="cls-1" d="M261.09.09a65.37,65.37,0,0,1-65.31,65.3C159.43,65.82,130,35.68,129.91,0H0C1.17,107,88.26,193.39,195.55,193.39S389.92,107,391.09,0h-130Z"/><path class="cls-1" d="M261.09.09a65.37,65.37,0,0,1-65.31,65.3C159.43,65.82,130,35.68,129.91,0H0C1.17,107,88.26,193.39,195.55,193.39S389.92,107,391.09,0h-130Z"/><path class="cls-1" d="M261.09.09a65.37,65.37,0,0,1-65.31,65.3C159.43,65.82,130,35.68,129.91,0H0C1.17,107,88.26,193.39,195.55,193.39S389.92,107,391.09,0h-130Z"/><path class="cls-1" d="M261.09.09a65.37,65.37,0,0,1-65.31,65.3C159.43,65.82,130,35.68,129.91,0H0C1.17,107,88.26,193.39,195.55,193.39S389.92,107,391.09,0h-130Z"/><path class="cls-1" d="M261.09.09a65.37,65.37,0,0,1-65.31,65.3C159.43,65.82,130,35.68,129.91,0H0C1.17,107,88.26,193.39,195.55,193.39S389.92,107,391.09,0h-130Z"/><path class="cls-1" d="M196,7.92c3.24.11,7.18-4.22,7.24-7.92H187.78C187.88,4.58,191.16,7.76,196,7.92Z"/><path class="cls-1" d="M196,7.92c3.24.11,7.18-4.22,7.24-7.92H187.78C187.88,4.58,191.16,7.76,196,7.92Z"/><path class="cls-1" d="M196,7.92c3.24.11,7.18-4.22,7.24-7.92H187.78C187.88,4.58,191.16,7.76,196,7.92Z"/><path class="cls-1" d="M196,7.92c3.24.11,7.18-4.22,7.24-7.92H187.78C187.88,4.58,191.16,7.76,196,7.92Z"/><path class="cls-1" d="M196,7.92c3.24.11,7.18-4.22,7.24-7.92H187.78C187.88,4.58,191.16,7.76,196,7.92Z"/><path class="cls-1" d="M196,7.92c3.24.11,7.18-4.22,7.24-7.92H187.78C187.88,4.58,191.16,7.76,196,7.92Z"/><path class="cls-1" d="M196,7.92c3.24.11,7.18-4.22,7.24-7.92H187.78C187.88,4.58,191.16,7.76,196,7.92Z"/><path class="cls-1" d="M196,7.92c3.24.11,7.18-4.22,7.24-7.92H187.78C187.88,4.58,191.16,7.76,196,7.92Z"/><path class="cls-1" d="M196,7.92c3.24.11,7.18-4.22,7.24-7.92H187.78C187.88,4.58,191.16,7.76,196,7.92Z"/><path class="cls-1" d="M196,7.92c3.24.11,7.18-4.22,7.24-7.92H187.78C187.88,4.58,191.16,7.76,196,7.92Z"/><path class="cls-1" d="M196,7.92c3.24.11,7.18-4.22,7.24-7.92H187.78C187.88,4.58,191.16,7.76,196,7.92Z"/><path class="cls-2" d="M195.78,65.39A65.37,65.37,0,0,0,261.09.09V0H203.27c-.06,3.7-4,8-7.24,7.92-4.87-.16-8.15-3.34-8.25-7.92H129.91C130,35.68,159.43,65.82,195.78,65.39Z"/><path class="cls-3" d="M262.46,163.54a136.85,136.85,0,0,0,20.14-10.67A181.94,181.94,0,0,0,301,139.62a184.67,184.67,0,0,0,16.49-15.39A178,178,0,0,0,332,107a214.79,214.79,0,0,0,22.95-38.81,319.31,319.31,0,0,0,15.77-42.76,185.34,185.34,0,0,1-11.47,44.6,172.52,172.52,0,0,1-22.45,40.57l-3.59,4.59c-1.22,1.51-2.51,3-3.76,4.45s-2.58,2.9-3.89,4.34l-2,2.14c-.68.7-1.38,1.36-2.07,2a153.28,153.28,0,0,1-17.68,15.11A143.07,143.07,0,0,1,284,155.42,99.67,99.67,0,0,1,262.46,163.54Z"/><path class="cls-3" d="M255.85,149.51a163.79,163.79,0,0,0,18.21-10.36c1.46-.93,2.9-1.91,4.34-2.87s2.85-2,4.24-3c2.79-2.06,5.58-4.12,8.25-6.32a180.1,180.1,0,0,0,29-29.37,169.35,169.35,0,0,0,11.75-16.95,182,182,0,0,0,9.77-18.23A236.38,236.38,0,0,0,355.05,23a145.31,145.31,0,0,1-9.35,41.26,145.18,145.18,0,0,1-21.12,37.05,159.9,159.9,0,0,1-14.38,15.84,151.53,151.53,0,0,1-16.5,13.55,141.75,141.75,0,0,1-18.18,11A106.22,106.22,0,0,1,255.85,149.51Z"/><path class="cls-3" d="M249.78,134.61a139.19,139.19,0,0,0,16.36-9.22,170,170,0,0,0,15-11,168.78,168.78,0,0,0,13.67-12.5c1-1.13,2.16-2.2,3.2-3.33l3.11-3.43c2-2.35,4-4.68,5.84-7.15a153.15,153.15,0,0,0,10.52-15.19c1.68-2.58,3.14-5.31,4.66-8,.76-1.34,1.4-2.75,2.12-4.12s1.46-2.73,2.08-4.15a244.23,244.23,0,0,0,13.14-35.07,135.17,135.17,0,0,1-8.85,36.93,130.65,130.65,0,0,1-8.26,17.31c-1.52,2.82-3.31,5.48-5,8.19s-3.65,5.29-5.66,7.79A136.2,136.2,0,0,1,298.83,106,131.77,131.77,0,0,1,284,118.14a122.81,122.81,0,0,1-16.41,9.8A88.75,88.75,0,0,1,249.78,134.61Z"/><path class="cls-3" d="M244.39,120a134.31,134.31,0,0,0,14.49-8.71,162.75,162.75,0,0,0,13.31-10.15,152.51,152.51,0,0,0,22.89-24c1.73-2.16,3.27-4.46,4.88-6.71s3.08-4.6,4.46-7c.71-1.19,1.48-2.34,2.12-3.57l2-3.64c.7-1.2,1.26-2.48,1.9-3.71s1.3-2.46,1.85-3.74a224.73,224.73,0,0,0,11.77-31.57,119.07,119.07,0,0,1-7.43,33.42,117.85,117.85,0,0,1-7.3,15.67c-1.35,2.56-3,5-4.46,7.44-1.66,2.37-3.26,4.78-5.05,7.06a117.76,117.76,0,0,1-24.76,24.08,111.89,111.89,0,0,1-14.72,9A79.71,79.71,0,0,1,244.39,120Z"/><path class="cls-3" d="M238.49,105.05a127,127,0,0,0,12.6-7.82q6-4.22,11.58-9a136.06,136.06,0,0,0,20-21,123.85,123.85,0,0,0,8.19-12,140.8,140.8,0,0,0,6.93-12.8,203.62,203.62,0,0,0,10.46-27.61,100.24,100.24,0,0,1-6.11,29.45,101.36,101.36,0,0,1-6.36,13.81c-.59,1.13-1.22,2.23-1.9,3.3l-2,3.25c-1.45,2.09-2.87,4.21-4.44,6.21A101.39,101.39,0,0,1,265.56,92a94.52,94.52,0,0,1-13,7.79A69.09,69.09,0,0,1,238.49,105.05Z"/><path class="cls-3" d="M231.75,89.37a90.12,90.12,0,0,0,10.83-6.48,112.8,112.8,0,0,0,9.82-7.62,112.8,112.8,0,0,0,16.7-18,129.22,129.22,0,0,0,12.65-21.17,233.05,233.05,0,0,0,9.46-23.36,88.14,88.14,0,0,1-5.11,25.17A87.85,87.85,0,0,1,273.91,60.8,81.78,81.78,0,0,1,255.29,79,73.23,73.23,0,0,1,244,85.44,50,50,0,0,1,231.75,89.37Z"/><path class="cls-3" d="M225,75.94A107.39,107.39,0,0,0,242.7,63.63,99.26,99.26,0,0,0,257.25,48.4a92.49,92.49,0,0,0,6-8.67c1-1.47,1.77-3,2.66-4.56.44-.76.81-1.57,1.23-2.35s.85-1.55,1.2-2.37a179,179,0,0,0,8.08-20.08,66.89,66.89,0,0,1-3.72,21.89,67.31,67.31,0,0,1-4.52,10.31c-.86,1.68-1.89,3.26-2.87,4.88s-2.11,3.13-3.28,4.61A68.27,68.27,0,0,1,245.52,67.4a63.92,63.92,0,0,1-9.86,5.34A45.38,45.38,0,0,1,225,75.94Z"/></g></g></svg>