<svg xmlns="http://www.w3.org/2000/svg" viewBox="0 0 391.09 193.39"><defs><style>.cls-1{fill:#022832;}.cls-2{fill:#f91935;}.cls-3{fill:#e2e2dc;}</style></defs><g id="Layer_2" data-name="Layer 2"><g id="Layer_1-2" data-name="Layer 1"><path class="cls-1" d="M130,193.3A65.38,65.38,0,0,1,195.31,128c36.35-.42,65.79,29.71,65.87,65.39H391.09C389.92,86.39,302.83,0,195.55,0S1.17,86.39,0,193.39H130Z"/><path class="cls-1" d="M130,193.3A65.38,65.38,0,0,1,195.31,128c36.35-.42,65.79,29.71,65.87,65.39H391.09C389.92,86.39,302.83,0,195.55,0S1.17,86.39,0,193.39H130Z"/><path class="cls-1" d="M130,193.3A65.38,65.38,0,0,1,195.31,128c36.35-.42,65.79,29.71,65.87,65.39H391.09C389.92,86.39,302.83,0,195.55,0S1.17,86.39,0,193.39H130Z"/><path class="cls-1" d="M130,193.3A65.38,65.38,0,0,1,195.31,128c36.35-.42,65.79,29.71,65.87,65.39H391.09C389.92,86.39,302.83,0,195.55,0S1.17,86.39,0,193.39H130Z"/><path class="cls-1" d="M130,193.3A65.38,65.38,0,0,1,195.31,128c36.35-.42,65.79,29.71,65.87,65.39H391.09C389.92,86.39,302.83,0,195.55,0S1.17,86.39,0,193.39H130Z"/><path class="cls-1" d="M130,193.3A65.38,65.38,0,0,1,195.31,128c36.35-.42,65.79,29.71,65.87,65.39H391.09C389.92,86.39,302.83,0,195.55,0S1.17,86.39,0,193.39H130Z"/><path class="cls-1" d="M130,193.3A65.38,65.38,0,0,1,195.31,128c36.35-.42,65.79,29.71,65.87,65.39H391.09C389.92,86.39,302.83,0,195.55,0S1.17,86.39,0,193.39H130Z"/><path class="cls-1" d="M130,193.3A65.38,65.38,0,0,1,195.31,128c36.35-.42,65.79,29.71,65.87,65.39H391.09C389.92,86.39,302.83,0,195.55,0S1.17,86.39,0,193.39H130Z"/><path class="cls-1" d="M130,193.3A65.38,65.38,0,0,1,195.31,128c36.35-.42,65.79,29.71,65.87,65.39H391.09C389.92,86.39,302.83,0,195.55,0S1.17,86.39,0,193.39H130Z"/><path class="cls-1" d="M130,193.3A65.38,65.38,0,0,1,195.31,128c36.35-.42,65.79,29.71,65.87,65.39H391.09C389.92,86.39,302.83,0,195.55,0S1.17,86.39,0,193.39H130Z"/><path class="cls-1" d="M130,193.3A65.38,65.38,0,0,1,195.31,128c36.35-.42,65.79,29.71,65.87,65.39H391.09C389.92,86.39,302.83,0,195.55,0S1.17,86.39,0,193.39H130Z"/><path class="cls-1" d="M195.06,185.48c-3.24-.11-7.18,4.21-7.24,7.91h15.49C203.22,188.82,199.94,185.63,195.06,185.48Z"/><path class="cls-1" d="M195.06,185.48c-3.24-.11-7.18,4.21-7.24,7.91h15.49C203.22,188.82,199.94,185.63,195.06,185.48Z"/><path class="cls-1" d="M195.06,185.48c-3.24-.11-7.18,4.21-7.24,7.91h15.49C203.22,188.82,199.94,185.63,195.06,185.48Z"/><path class="cls-1" d="M195.06,185.48c-3.24-.11-7.18,4.21-7.24,7.91h15.49C203.22,188.82,199.94,185.63,195.06,185.48Z"/><path class="cls-1" d="M195.06,185.48c-3.24-.11-7.18,4.21-7.24,7.91h15.49C203.22,188.82,199.94,185.63,195.06,185.48Z"/><path class="cls-1" d="M195.06,185.48c-3.24-.11-7.18,4.21-7.24,7.91h15.49C203.22,188.82,199.94,185.63,195.06,185.48Z"/><path class="cls-1" d="M195.06,185.48c-3.24-.11-7.18,4.21-7.24,7.91h15.49C203.22,188.82,199.94,185.63,195.06,185.48Z"/><path class="cls-1" d="M195.06,185.48c-3.24-.11-7.18,4.21-7.24,7.91h15.49C203.22,188.82,199.94,185.63,195.06,185.48Z"/><path class="cls-1" d="M195.06,185.48c-3.24-.11-7.18,4.21-7.24,7.91h15.49C203.22,188.82,199.94,185.63,195.06,185.48Z"/><path class="cls-1" d="M195.06,185.48c-3.24-.11-7.18,4.21-7.24,7.91h15.49C203.22,188.82,199.94,185.63,195.06,185.48Z"/><path class="cls-1" d="M195.06,185.48c-3.24-.11-7.18,4.21-7.24,7.91h15.49C203.22,188.82,199.94,185.63,195.06,185.48Z"/><path class="cls-2" d="M195.31,128A65.38,65.38,0,0,0,130,193.3v.09h57.82c.06-3.7,4-8,7.24-7.91,4.88.15,8.16,3.34,8.25,7.91h57.87C261.1,157.71,231.66,127.58,195.31,128Z"/><path class="cls-3" d="M128.64,29.85A137.75,137.75,0,0,0,108.5,40.52,180.3,180.3,0,0,0,73.66,69.16a179.13,179.13,0,0,0-14.54,17.2,214.85,214.85,0,0,0-22.94,38.81,318.07,318.07,0,0,0-15.77,42.77,185.52,185.52,0,0,1,11.46-44.61A171.94,171.94,0,0,1,54.33,82.77l3.58-4.59c1.23-1.51,2.51-3,3.76-4.46s2.58-2.9,3.89-4.33l2-2.14c.67-.7,1.38-1.37,2.07-2A151.34,151.34,0,0,1,87.29,50.09,142.66,142.66,0,0,1,107.06,38,99.75,99.75,0,0,1,128.64,29.85Z"/><path class="cls-3" d="M135.25,43.89A163.5,163.5,0,0,0,117,54.24c-1.47.94-2.9,1.92-4.35,2.88s-2.85,2-4.24,3c-2.79,2.07-5.57,4.12-8.24,6.32a180.49,180.49,0,0,0-29,29.37,168.94,168.94,0,0,0-11.76,17A182,182,0,0,0,49.71,131,235.31,235.31,0,0,0,36,170.44,144.59,144.59,0,0,1,66.51,92.12,161,161,0,0,1,80.89,76.28a153.68,153.68,0,0,1,16.5-13.55,143.46,143.46,0,0,1,18.19-11A105.91,105.91,0,0,1,135.25,43.89Z"/><path class="cls-3" d="M141.31,58.78A139.19,139.19,0,0,0,125,68a169.6,169.6,0,0,0-15,11A166.85,166.85,0,0,0,96.24,91.46c-1,1.13-2.15,2.21-3.2,3.34l-3.1,3.42c-2,2.35-4,4.68-5.84,7.16a152.49,152.49,0,0,0-10.52,15.18c-1.69,2.59-3.14,5.31-4.67,8-.75,1.35-1.39,2.76-2.11,4.13s-1.46,2.73-2.09,4.15a245,245,0,0,0-13.14,35.07A135.51,135.51,0,0,1,60.42,135a133.08,133.08,0,0,1,8.26-17.3c1.53-2.82,3.32-5.49,5-8.2s3.64-5.28,5.66-7.78A135.11,135.11,0,0,1,92.26,87.43a130.78,130.78,0,0,1,14.83-12.18,123.35,123.35,0,0,1,16.42-9.8A88.89,88.89,0,0,1,141.31,58.78Z"/><path class="cls-3" d="M146.71,73.43a136,136,0,0,0-14.49,8.71,163.82,163.82,0,0,0-13.31,10.15,153,153,0,0,0-22.9,24c-1.72,2.16-3.27,4.46-4.88,6.71s-3.08,4.6-4.46,7c-.7,1.19-1.48,2.35-2.12,3.58l-2,3.64c-.69,1.2-1.25,2.47-1.9,3.7s-1.3,2.46-1.84,3.74A223.53,223.53,0,0,0,67,176.25a118.81,118.81,0,0,1,14.74-49.09c1.35-2.55,3-5,4.46-7.43s3.25-4.79,5-7.06A117.32,117.32,0,0,1,116,88.59a110.72,110.72,0,0,1,14.71-9A80.07,80.07,0,0,1,146.71,73.43Z"/><path class="cls-3" d="M152.6,88.35A125.06,125.06,0,0,0,140,96.17q-6,4.22-11.59,9a137,137,0,0,0-20,21,125.24,125.24,0,0,0-8.19,12,141.76,141.76,0,0,0-6.93,12.79,202.77,202.77,0,0,0-10.45,27.61,100.42,100.42,0,0,1,12.46-43.26c.6-1.12,1.22-2.23,1.91-3.3l2-3.24c1.44-2.1,2.86-4.21,4.43-6.22a101.63,101.63,0,0,1,21.85-21.09,96.67,96.67,0,0,1,13-7.79A69.19,69.19,0,0,1,152.6,88.35Z"/><path class="cls-3" d="M159.34,104a91,91,0,0,0-10.83,6.49A112.14,112.14,0,0,0,122,136.17a128.2,128.2,0,0,0-12.65,21.18,233.55,233.55,0,0,0-9.47,23.36,89.88,89.88,0,0,1,17.3-48.11,81.42,81.42,0,0,1,18.63-18.19A72.42,72.42,0,0,1,147.08,108,50,50,0,0,1,159.34,104Z"/><path class="cls-3" d="M166.08,117.45a108.86,108.86,0,0,0-17.69,12.31A98.79,98.79,0,0,0,133.85,145a88.7,88.7,0,0,0-6,8.66c-1,1.48-1.77,3-2.67,4.56-.44.77-.81,1.57-1.23,2.35s-.84,1.56-1.2,2.37A179.88,179.88,0,0,0,114.7,183a67.11,67.11,0,0,1,3.72-21.89,69,69,0,0,1,4.52-10.32c.86-1.68,1.89-3.26,2.87-4.87s2.11-3.13,3.29-4.61A68,68,0,0,1,145.57,126a63.92,63.92,0,0,1,9.86-5.34A45.69,45.69,0,0,1,166.08,117.45Z"/></g></g></svg>