<svg xmlns="http://www.w3.org/2000/svg" viewBox="0 0 367.26 392.89"><defs><style>.cls-1{fill:#d8d8d8;}.cls-2{fill:none;stroke:#d8d8d8;stroke-miterlimit:10;stroke-width:6px;}.cls-3{fill:#43a7bf;}.cls-4{fill:#070707;}</style></defs><g id="Layer_2" data-name="Layer 2"><g id="Layer_4" data-name="Layer 4"><circle class="cls-1" cx="341.72" cy="233.83" r="13.34"/><circle class="cls-1" cx="253.13" cy="222.34" r="11.49"/><circle class="cls-1" cx="224.02" cy="332.89" r="11.49"/><path class="cls-2" d="M341.72,239.13v67.14a29.37,29.37,0,0,1-29.37,29.37H282.12a29.38,29.38,0,0,1-29.38-29.37V231"/><path class="cls-2" d="M224,361.81v-1.29a29.37,29.37,0,0,0,29.37,29.37h81.49a29.38,29.38,0,0,0,29.38-29.37V249.21a16.86,16.86,0,0,0-16.86-16.85h0"/><rect class="cls-1" x="245.91" y="224.96" width="14.68" height="17.36" rx="5.14"/><rect class="cls-1" x="84.57" y="34.32" width="14.68" height="32.85" rx="5.14"/><rect class="cls-1" x="216.68" y="335.7" width="14.68" height="17.36" rx="5.14"/><path class="cls-2" d="M91.91,51.34V37.4A34.41,34.41,0,0,1,126.32,3H234s79.8,6.47,103.82,93.84A110.09,110.09,0,0,1,341.72,126v99"/><rect class="cls-3" y="59.34" width="181.45" height="288.34" rx="23.66"/><rect class="cls-4" x="19.74" y="79.77" width="144" height="144"/><circle class="cls-1" cx="91.91" cy="283.3" r="49.5"/><circle class="cls-3" cx="91.91" cy="283.3" r="33.77"/><circle class="cls-1" cx="91.91" cy="283.3" r="26.25"/></g></g></svg>