<svg xmlns="http://www.w3.org/2000/svg" viewBox="0 0 391.15 391.15"><defs><style>.cls-1{fill:#022832;}.cls-2{fill:#f91935;}.cls-3{fill:#c6c6c1;}.cls-4{fill:#9e9e98;}</style></defs><g id="Layer_2" data-name="Layer 2"><g id="Layer_1-2" data-name="Layer 1"><circle class="cls-1" cx="195.57" cy="195.57" r="195.57"/><circle class="cls-1" cx="195.57" cy="195.57" r="195.57"/><circle class="cls-1" cx="195.57" cy="195.57" r="195.57"/><circle class="cls-1" cx="195.57" cy="195.57" r="195.57"/><circle class="cls-1" cx="195.57" cy="195.57" r="195.57"/><circle class="cls-1" cx="195.57" cy="195.57" r="195.57"/><circle class="cls-1" cx="195.57" cy="195.57" r="195.57"/><circle class="cls-1" cx="195.57" cy="195.57" r="195.57"/><circle class="cls-1" cx="195.57" cy="195.57" r="195.57"/><circle class="cls-1" cx="195.57" cy="195.57" r="195.57"/><circle class="cls-1" cx="195.57" cy="195.57" r="195.57"/><path class="cls-2" d="M195.34,128c36.51-.43,66.06,30,65.88,65.88s-29.58,65.31-65.52,65.27A65.58,65.58,0,0,1,195.34,128Zm8,65.72c.06-4.76-3.27-8.08-8.26-8.24-3.26-.11-7.22,4.26-7.24,8a7.75,7.75,0,0,0,15.5.26Z"/><path class="cls-3" d="M98.55,41A137.9,137.9,0,0,0,80.43,54.87a180.67,180.67,0,0,0-29.66,34,179.55,179.55,0,0,0-11.5,19.35A214.61,214.61,0,0,0,23,150.26,317.89,317.89,0,0,0,14.48,195a185.68,185.68,0,0,1,4-45.88,172.65,172.65,0,0,1,15.48-43.71l2.79-5.11c1-1.69,2-3.34,3-5S41.77,92,42.83,90.4L44.42,88c.55-.8,1.14-1.58,1.71-2.37A152.4,152.4,0,0,1,61.08,67.79a143.68,143.68,0,0,1,17.51-15.2A100.47,100.47,0,0,1,98.55,41Z"/><path class="cls-3" d="M107.37,53.79A165,165,0,0,0,91.11,67c-1.29,1.16-2.54,2.37-3.81,3.55S84.81,73,83.61,74.22c-2.41,2.5-4.82,5-7.09,7.59a180,180,0,0,0-23.76,33.74A167.1,167.1,0,0,0,44,134.2a181.78,181.78,0,0,0-6.64,19.58,237.46,237.46,0,0,0-7,41.15A144.54,144.54,0,0,1,47.5,112.67a160.09,160.09,0,0,1,11.58-18,151.36,151.36,0,0,1,14-16.07A142.69,142.69,0,0,1,89.25,64.73,106.85,106.85,0,0,1,107.37,53.79Z"/><path class="cls-3" d="M115.8,67.49a139.19,139.19,0,0,0-14.62,11.78,173.88,173.88,0,0,0-13,13.29,169.75,169.75,0,0,0-11.42,14.57c-.85,1.29-1.77,2.53-2.61,3.82l-2.5,3.88c-1.58,2.65-3.18,5.28-4.59,8a155.26,155.26,0,0,0-7.88,16.71c-1.23,2.83-2.22,5.75-3.28,8.66-.53,1.45-.93,2.95-1.41,4.42s-1,2.93-1.37,4.43a243.58,243.58,0,0,0-7.2,36.76,135.41,135.41,0,0,1,2.65-37.89,131.85,131.85,0,0,1,5.31-18.43c1-3,2.37-5.95,3.61-8.91s2.73-5.81,4.3-8.61a135.13,135.13,0,0,1,10.38-16.18A129.57,129.57,0,0,1,84.75,89.36,123.59,123.59,0,0,1,99.34,77,88.83,88.83,0,0,1,115.8,67.49Z"/><path class="cls-3" d="M123.53,81.05a135.56,135.56,0,0,0-12.86,11,162.8,162.8,0,0,0-11.46,12.2,152.69,152.69,0,0,0-18.63,27.45c-1.35,2.42-2.5,4.94-3.71,7.42s-2.29,5.05-3.26,7.64c-.49,1.29-1.07,2.56-1.5,3.88l-1.39,3.92c-.49,1.3-.83,2.65-1.27,4s-.88,2.64-1.2,4a224.28,224.28,0,0,0-6.43,33.07,118.72,118.72,0,0,1,1.84-34.18,117,117,0,0,1,4.63-16.66c.91-2.74,2.09-5.38,3.17-8.07,1.25-2.61,2.43-5.25,3.82-7.79a117.47,117.47,0,0,1,20.47-27.82,110.7,110.7,0,0,1,13-11.27A80.33,80.33,0,0,1,123.53,81.05Z"/><path class="cls-3" d="M131.8,94.8a124.27,124.27,0,0,0-11.14,9.78,146.05,146.05,0,0,0-10,10.75,137.21,137.21,0,0,0-16.26,24,126.32,126.32,0,0,0-6.11,13.14,145.09,145.09,0,0,0-4.73,13.77,203.45,203.45,0,0,0-5.77,28.95,99.82,99.82,0,0,1,1.18-30,101,101,0,0,1,4-14.67c.4-1.21.84-2.4,1.34-3.57l1.45-3.53c1.08-2.31,2.13-4.63,3.35-6.86a101.54,101.54,0,0,1,18.09-24.4,95.4,95.4,0,0,1,11.53-9.82A69.07,69.07,0,0,1,131.8,94.8Z"/><path class="cls-3" d="M141,109.15a90.29,90.29,0,0,0-9.61,8.18A112,112,0,0,0,109.47,147a129,129,0,0,0-9,23A233.73,233.73,0,0,0,95,194.56a89.89,89.89,0,0,1,9.15-50.29,81.64,81.64,0,0,1,15.38-21,73,73,0,0,1,10.06-8.21A50.29,50.29,0,0,1,141,109.15Z"/><path class="cls-3" d="M149.88,121.29a108.39,108.39,0,0,0-15.43,15,99.06,99.06,0,0,0-11.84,17.42,88.86,88.86,0,0,0-4.46,9.53c-.71,1.61-1.25,3.28-1.88,4.93-.31.83-.55,1.68-.83,2.52s-.58,1.68-.8,2.54A180.72,180.72,0,0,0,110,194.42a66.71,66.71,0,0,1,.06-22.2,67.73,67.73,0,0,1,2.77-10.92c.57-1.8,1.33-3.53,2-5.28s1.57-3.44,2.48-5.09a68,68,0,0,1,13.73-17.84,63.7,63.7,0,0,1,8.85-6.89A45.58,45.58,0,0,1,149.88,121.29Z"/><path class="cls-4" d="M291.81,347.55a138.57,138.57,0,0,0,18.12-13.84,180.14,180.14,0,0,0,29.65-34,177.06,177.06,0,0,0,11.51-19.35,214.77,214.77,0,0,0,16.26-42,318.28,318.28,0,0,0,8.52-44.78,185.58,185.58,0,0,1-4,45.88,172.52,172.52,0,0,1-15.48,43.71l-2.79,5.11c-1,1.69-2,3.34-3,5s-2.07,3.29-3.13,4.92l-1.6,2.44c-.55.8-1.13,1.57-1.7,2.36a152.48,152.48,0,0,1-15,17.81A142.81,142.81,0,0,1,311.76,336,99.64,99.64,0,0,1,291.81,347.55Z"/><path class="cls-4" d="M283,334.79a163.28,163.28,0,0,0,16.26-13.21c1.29-1.16,2.54-2.37,3.81-3.55s2.49-2.42,3.69-3.67c2.41-2.49,4.82-5,7.09-7.59A180.74,180.74,0,0,0,337.6,273a170.62,170.62,0,0,0,8.81-18.65A182.65,182.65,0,0,0,353,234.8a235.62,235.62,0,0,0,7-41.14,144.37,144.37,0,0,1-17.18,82.25,161.51,161.51,0,0,1-11.58,18,153.62,153.62,0,0,1-14,16.08,141.83,141.83,0,0,1-16.13,13.87A106.12,106.12,0,0,1,283,334.79Z"/><path class="cls-4" d="M274.56,321.09a139.19,139.19,0,0,0,14.62-11.78,171.9,171.9,0,0,0,13-13.29,166.4,166.4,0,0,0,11.43-14.57c.85-1.29,1.76-2.53,2.61-3.82l2.5-3.88c1.58-2.65,3.18-5.28,4.58-8A152.57,152.57,0,0,0,331.22,249c1.23-2.83,2.22-5.75,3.28-8.66.52-1.45.92-2.94,1.41-4.41s1-2.94,1.37-4.44a244.83,244.83,0,0,0,7.2-36.76,135,135,0,0,1-2.66,37.89,131.81,131.81,0,0,1-5.3,18.43c-1,3-2.37,6-3.61,8.91-1.4,2.89-2.73,5.81-4.3,8.61a135.58,135.58,0,0,1-10.38,16.18,130.69,130.69,0,0,1-12.63,14.45A123.5,123.5,0,0,1,291,311.59,88.83,88.83,0,0,1,274.56,321.09Z"/><path class="cls-4" d="M266.83,307.53a135.54,135.54,0,0,0,12.85-11,163,163,0,0,0,11.47-12.21,152.69,152.69,0,0,0,18.63-27.45c1.35-2.42,2.49-4.94,3.71-7.42s2.28-5,3.26-7.64c.49-1.29,1.07-2.56,1.5-3.87l1.39-3.93c.49-1.3.83-2.64,1.26-4s.88-2.65,1.21-4A224.28,224.28,0,0,0,328.54,193a119.44,119.44,0,0,1-1.84,34.18,117.92,117.92,0,0,1-4.63,16.66c-.91,2.75-2.1,5.39-3.18,8.07-1.24,2.61-2.42,5.26-3.81,7.79a118,118,0,0,1-20.47,27.83,111.56,111.56,0,0,1-13,11.26A80.1,80.1,0,0,1,266.83,307.53Z"/><path class="cls-4" d="M258.56,293.79A127.21,127.21,0,0,0,269.7,284a146.05,146.05,0,0,0,9.95-10.75,136.91,136.91,0,0,0,16.25-24A122.48,122.48,0,0,0,302,236.07a142.21,142.21,0,0,0,4.74-13.76,204.85,204.85,0,0,0,5.77-28.95,99.45,99.45,0,0,1-1.19,30,101.47,101.47,0,0,1-4,14.68c-.41,1.2-.84,2.4-1.34,3.57l-1.45,3.53c-1.08,2.3-2.13,4.62-3.35,6.85a101.81,101.81,0,0,1-18.09,24.4,95.27,95.27,0,0,1-11.53,9.82A69.66,69.66,0,0,1,258.56,293.79Z"/><path class="cls-4" d="M249.33,279.43a89.34,89.34,0,0,0,9.62-8.17,115.2,115.2,0,0,0,8.44-9.13,113.66,113.66,0,0,0,13.5-20.55,129.8,129.8,0,0,0,9-23A235.7,235.7,0,0,0,295.38,194a89.95,89.95,0,0,1-9.15,50.3,82,82,0,0,1-15.39,21,73.14,73.14,0,0,1-10,8.22A50.13,50.13,0,0,1,249.33,279.43Z"/><path class="cls-4" d="M240.48,267.29a108.39,108.39,0,0,0,15.43-15.05,99.61,99.61,0,0,0,11.84-17.42,89.62,89.62,0,0,0,4.46-9.52c.71-1.62,1.25-3.29,1.88-4.94.31-.83.54-1.68.83-2.52s.58-1.68.8-2.53a181.17,181.17,0,0,0,4.66-21.14,67,67,0,0,1-.07,22.2,67.88,67.88,0,0,1-2.77,10.91c-.57,1.8-1.32,3.53-2,5.29S274,236,273,237.66a68.08,68.08,0,0,1-13.73,17.83,63,63,0,0,1-8.84,6.89A45.58,45.58,0,0,1,240.48,267.29Z"/></g></g></svg>