<svg xmlns="http://www.w3.org/2000/svg" viewBox="0 0 483.52 436.38"><defs><style>.cls-1{fill:#020202;}.cls-2{fill:#d8d8d8;}.cls-3{fill:#646464;}.cls-4{fill:#d3cdcd;}.cls-5{fill:#fff;}.cls-6{fill:#a6a6a6;}</style></defs><g id="Layer_2" data-name="Layer 2"><g id="Layer_3" data-name="Layer 3"><path class="cls-1" d="M5.28,0h473a5.27,5.27,0,0,1,5.28,5.28V431.1a5.27,5.27,0,0,1-5.28,5.28H5.28A5.27,5.27,0,0,1,0,431.1V5.28A5.27,5.27,0,0,1,5.28,0ZM71.93,416.94H458.78a5.29,5.29,0,0,0,5.28-5.29v-1.13q0-112.42,0-224.86,0-80.24.07-160.46c0-3.81-.18-6-5.19-5.95-69.1.07-138.2-.16-207.3-.2-31.43,0-62.87.25-94.3.31-28.5.06-57,0-85.48,0h0a5.22,5.22,0,0,0-5.16,5.24v387A5.29,5.29,0,0,0,71.93,416.94Z"/><path class="cls-2" d="M66.64,416.94V19.64c2-.1,3.59-.26,5.21-.26,28.49,0,57,0,85.48,0,31.43-.06,62.87-.33,94.3-.31,69.1,0,138.2.27,207.3.2,5,0,5.2,2.14,5.19,5.95q-.12,80.23-.07,160.46,0,112.43,0,224.86v6.42ZM86.5,218.11c-2.13,92.71,74.75,178.42,177.37,179.34,106.3.95,190-91.64,180.12-195.44-7.93-83.65-78.4-162.77-179-162.88C162.84,39,84.49,124.22,86.5,218.11Z"/><path class="cls-3" d="M86.5,218.11c-2-93.89,76.34-179.1,178.48-179,100.61.11,171.08,79.23,179,162.88,9.85,103.8-73.82,196.39-180.12,195.44C161.25,396.53,84.37,310.82,86.5,218.11ZM242.76,279l-24.67-14.45-66.54,73.31a156,156,0,0,0,60.71,35.25Zm68.67-108.14,66.49-73.25a154.86,154.86,0,0,0-60.71-35.25q-15.58,48.09-30.48,94.09Zm-46-3.56a51,51,0,1,0,50.88,51C316.33,190.32,293.3,167.24,265.42,167.27Zm-58.57,79.67-90.06,44.41L133,317.9l80.52-60Zm115.77-58.48,90-44.4-16.21-26.57-80.5,60Z"/><path class="cls-4" d="M242.76,279l-30.5,94.11a156,156,0,0,1-60.71-35.25l66.54-73.31Z"/><path class="cls-4" d="M311.43,170.83l-24.7-14.41q14.86-45.9,30.48-94.09a154.86,154.86,0,0,1,60.71,35.25Z"/><path class="cls-5" d="M265.42,167.27c27.88,0,50.91,23,50.88,51a51,51,0,1,1-50.88-51Zm39.43,51.16A39.58,39.58,0,1,0,265,257.89,39.56,39.56,0,0,0,304.85,218.43Z"/><path class="cls-4" d="M206.85,246.94l6.7,11L133,317.9l-16.24-26.55Z"/><path class="cls-4" d="M322.62,188.46l-6.67-11,80.5-60,16.21,26.57Z"/><path class="cls-6" d="M304.85,218.43a39.58,39.58,0,1,1-39.51-39.84A39.6,39.6,0,0,1,304.85,218.43Zm-12.89,0a26.7,26.7,0,1,0-26.74,26.66A26.82,26.82,0,0,0,292,218.41Z"/><path class="cls-5" d="M292,218.41a26.7,26.7,0,1,1-26.38-27A26.87,26.87,0,0,1,292,218.41Z"/><rect class="cls-2" x="11.41" y="19.05" width="39.91" height="397.89" rx="6.72"/></g></g></svg>