<svg xmlns="http://www.w3.org/2000/svg" viewBox="0 0 347.66 223.57"><defs><style>.cls-1{fill:#707070;}.cls-2{fill:#b6b6b6;}.cls-3{fill:#fff;}.cls-4{fill:red;}.cls-5{fill:#a1a1ff;}</style></defs><g id="Layer_2" data-name="Layer 2"><g id="Layer_2-2" data-name="Layer 2"><path class="cls-1" d="M55,220.57H51.6c-12.85,0-25.71,0-38.56,0A12.77,12.77,0,0,1,0,207.73c0-2.13,0-4.26,0-6.39V14C0,5.36,5.38,0,14,0H334c8.21,0,13.69,5.37,13.69,13.57,0,24.57-.09,49.14-.08,73.72q0,59.71.09,119.45c0,8.44-5.35,13.81-13.84,13.81H292.64q-2.06-6.76-4.1-13.48c-3.33-10.87-6.64-21.75-10-32.59a2.21,2.21,0,0,0-1.63-1.21c-6.18-.08-12.36,0-18.54,0H117.9c-15.51,0-31,0-46.51,0a2.13,2.13,0,0,0-2.46,1.86q-6.65,22-13.44,44C55.36,219.56,55.17,220,55,220.57Zm119-202.68H27.68c-5.36,0-8.83,3.35-8.84,8.64q0,60.35,0,120.68c0,5.89,3.31,9.13,9.14,9.13q145.57,0,291.14.11c6.17,0,9.87-4.09,9.78-9.86-.23-15.17-.09-30.35-.09-45.52V26.93c0-5.77-3.26-9-9-9ZM329.25,206.46a5.85,5.85,0,0,0,5.59,6.07,6,6,0,0,0,6-5.89,5.85,5.85,0,0,0-5.95-5.93A5.69,5.69,0,0,0,329.25,206.46Zm-310.84.22a5.63,5.63,0,0,0-5.57-6,5.92,5.92,0,0,0-.18,11.83A5.65,5.65,0,0,0,18.41,206.68ZM335.16,8.32a5.6,5.6,0,0,0-5.9,5.44,5.73,5.73,0,0,0,5.66,6.13,6,6,0,0,0,5.95-5.5A5.72,5.72,0,0,0,335.16,8.32ZM18.42,14.13A5.55,5.55,0,0,0,12.69,8.3,5.65,5.65,0,0,0,7,14a5.88,5.88,0,0,0,5.79,5.9A5.72,5.72,0,0,0,18.42,14.13Z"/><path class="cls-2" d="M64.13,223.57c1.72-5.52,3.4-10.81,5-16.13,2.64-8.63,5.3-17.27,7.83-25.94a1.88,1.88,0,0,1,2.19-1.64q10.08.12,20.16.12c9.71,0,19.43-.08,29.15-.08H245c7.85,0,15.7,0,23.55,0a1.86,1.86,0,0,1,2.18,1.63c3.72,12.27,7.56,24.51,11.34,36.76.52,1.69.93,3.41,1.45,5.32Zm65.59-31.4a7.57,7.57,0,0,0-8,7.58,7.76,7.76,0,0,0,7.84,7.81,7.65,7.65,0,0,0,7.54-7.67A7.44,7.44,0,0,0,129.72,192.17Zm119,7.49a7.54,7.54,0,0,0-7.77,7.83,7.7,7.7,0,0,0,7.71,7.52,7.84,7.84,0,0,0,7.72-7.77A7.69,7.69,0,0,0,248.72,199.66Zm-142,7.68a7.33,7.33,0,0,0-7.59-7.69,7.62,7.62,0,0,0-7.8,7.79A7.81,7.81,0,0,0,99.2,215,7.61,7.61,0,0,0,106.71,207.34ZM225.93,200a7.68,7.68,0,1,0-7.72,7.48A7.65,7.65,0,0,0,225.93,200Z"/><path class="cls-3" d="M173.94,17.89H319.8c5.74,0,9,3.27,9,9v74.14c0,15.17-.14,30.35.09,45.52.09,5.77-3.61,9.87-9.78,9.86q-145.58-.19-291.14-.11c-5.83,0-9.14-3.24-9.14-9.13q0-60.34,0-120.68c0-5.29,3.48-8.64,8.84-8.64H173.94Zm-.42,118.33c32,0,63.93-.06,95.9.06,4.47,0,7.7-2.52,7.65-7.71q-.29-27.07,0-54.15c.05-5.17-3.19-7.65-7.71-7.64q-65.74.16-131.48.07-30.36,0-60.73,0c-4.66,0-7,2.29-7,6.83,0,18.65,0,37.3.06,55.95a8.78,8.78,0,0,0,1.63,4.53c1.26,1.85,3.41,2.06,5.55,2.06Q125.47,136.2,173.52,136.22ZM32,51.59H315.61V48H32ZM315.62,33.16H32.09v3.49H315.62Z"/><path class="cls-3" d="M329.25,206.46a5.69,5.69,0,0,1,5.67-5.75,5.85,5.85,0,0,1,5.95,5.93,6,6,0,0,1-6,5.89A5.85,5.85,0,0,1,329.25,206.46Z"/><path class="cls-3" d="M18.41,206.68a5.65,5.65,0,0,1-5.75,5.83,5.92,5.92,0,0,1,.18-11.83A5.63,5.63,0,0,1,18.41,206.68Z"/><path class="cls-3" d="M335.16,8.32a5.72,5.72,0,0,1,5.71,6.07,6,6,0,0,1-5.95,5.5,5.73,5.73,0,0,1-5.66-6.13A5.6,5.6,0,0,1,335.16,8.32Z"/><path class="cls-3" d="M18.42,14.13a5.72,5.72,0,0,1-5.63,5.78A5.88,5.88,0,0,1,7,14,5.65,5.65,0,0,1,12.69,8.3,5.55,5.55,0,0,1,18.42,14.13Z"/><path class="cls-3" d="M129.72,192.17a7.44,7.44,0,0,1,7.39,7.72,7.65,7.65,0,0,1-7.54,7.67,7.76,7.76,0,0,1-7.84-7.81A7.57,7.57,0,0,1,129.72,192.17Z"/><path class="cls-3" d="M248.72,199.66a7.69,7.69,0,0,1,7.66,7.58,7.84,7.84,0,0,1-7.72,7.77,7.7,7.7,0,0,1-7.71-7.52A7.54,7.54,0,0,1,248.72,199.66Z"/><path class="cls-3" d="M106.71,207.34A7.61,7.61,0,0,1,99.2,215a7.81,7.81,0,0,1-7.88-7.58,7.62,7.62,0,0,1,7.8-7.79A7.33,7.33,0,0,1,106.71,207.34Z"/><path class="cls-3" d="M225.93,200a7.68,7.68,0,1,1-7.73-7.89A7.67,7.67,0,0,1,225.93,200Z"/><path class="cls-4" d="M173.52,136.22q-48.06,0-96.11,0c-2.14,0-4.29-.21-5.55-2.06a8.78,8.78,0,0,1-1.63-4.53c-.11-18.65-.08-37.3-.06-55.95,0-4.54,2.31-6.82,7-6.83q30.36,0,60.73,0,65.74,0,131.48-.07c4.52,0,7.76,2.47,7.71,7.64q-.27,27.08,0,54.15c.05,5.19-3.18,7.73-7.65,7.71C237.45,136.16,205.48,136.22,173.52,136.22ZM215,77.49H132.19a7.85,7.85,0,0,0-.17,1c0,15.19,0,30.37,0,45.56,0,1.8,1,1.66,2.16,1.66h78.7c.71,0,1.41-.09,2.16-.13Zm31.74,42.11a18.08,18.08,0,0,0,18.18-17.66c.07-10-7.89-18.39-17.6-18.47-10.33-.09-18.53,7.74-18.63,17.79A17.93,17.93,0,0,0,246.74,119.6Zm-146.55,0a17.84,17.84,0,0,0,18.24-17.7,18.06,18.06,0,1,0-18.24,17.7Z"/><path class="cls-5" d="M32,51.59V48H315.61v3.56Z"/><path class="cls-5" d="M315.62,33.16v3.49H32.09V33.16Z"/><path class="cls-3" d="M215,77.49v48.08c-.75,0-1.45.13-2.16.13h-78.7c-1.16,0-2.16.14-2.16-1.66.06-15.19,0-30.37,0-45.56a7.85,7.85,0,0,1,.17-1ZM195.44,80c-.8,2-1.78,4.06-2.44,6.2a61.91,61.91,0,0,0-1.73,7.36,47.74,47.74,0,0,0,3.4,27.68c.31.71,1,1.79,1.49,1.8,4.84.14,9.68.08,14.64.08V80Zm-59.07,43.14c4.89,0,9.61,0,14.32,0a2.12,2.12,0,0,0,1.49-1.22,79.14,79.14,0,0,0,3.39-10.6,48.18,48.18,0,0,0-3.36-30C152,80.71,151.39,80,151,80c-4.83-.09-9.66-.06-14.58-.06Z"/><path class="cls-3" d="M246.74,119.6a17.93,17.93,0,0,1-18.05-18.34c.1-10.05,8.3-17.88,18.63-17.79,9.71.08,17.67,8.44,17.6,18.47A18.08,18.08,0,0,1,246.74,119.6Z"/><path class="cls-3" d="M100.19,119.58a18.07,18.07,0,1,1,18.24-17.7A17.87,17.87,0,0,1,100.19,119.58Z"/><path d="M195.44,80H210.8v43.12c-5,0-9.8.06-14.64-.08-.52,0-1.18-1.09-1.49-1.8a47.74,47.74,0,0,1-3.4-27.68A61.91,61.91,0,0,1,193,86.19C193.66,84.05,194.64,82,195.44,80Z"/><path d="M136.37,123.13V79.9c4.92,0,9.75,0,14.58.06.44,0,1,.75,1.26,1.28a48.18,48.18,0,0,1,3.36,30,79.14,79.14,0,0,1-3.39,10.6,2.12,2.12,0,0,1-1.49,1.22C146,123.17,141.26,123.13,136.37,123.13Z"/></g></g></svg>