<?xml version="1.0" encoding="utf-8"?>
<!-- Generator: Adobe Illustrator 24.0.1, SVG Export Plug-In . SVG Version: 6.00 Build 0)  -->
<svg version="1.1" id="Layer_1" xmlns="http://www.w3.org/2000/svg" xmlns:xlink="http://www.w3.org/1999/xlink" x="0px" y="0px"
	 viewBox="0 0 425 2075" style="enable-background:new 0 0 425 2075;" xml:space="preserve">
<style type="text/css">
    @import url('https://fonts.googleapis.com/css?family=Roboto:300,500,700');
	.st0{fill:#231F20;}
	.st1{font-family:'Roboto';font-weight: 300;}
	.st2{font-size:15px;}
	.st3{font-family:'Roboto';font-weight: 700;}
	.st4{font-size:18.17451px;}
	.st5{fill:#E71B5E;}
	.st6{font-size:36px;}
	.st7{font-family:'Roboto';font-weight: 500;}
	.st8{font-size:16px;}
	.st9{letter-spacing:19;}
	.st10{letter-spacing:11;}
	.st11{fill:none;}
	.st12{font-family:'Roboto';font-weight: 300;font-style: italic;}
	.st13{font-size:21px;}
</style>
<image style="overflow:visible;" width="818" height="3636" xlink:href="../img/comIndex-m.png"  transform="matrix(0.4997 0 0 0.4997 3.43452 208.50452)">
</image>
<g>
	<g>
		<g>
			<g>
				<text transform="matrix(1 0 0 1 54.08206 238.28125)" class="st0 st1 st2">0</text>
			</g>
			<g>
				<text transform="matrix(1 0 0 1 115.97048 238.75586)" class="st0 st1 st2">0.2</text>
			</g>
			<g>
				<text transform="matrix(1 0 0 1 187.59549 238.75586)" class="st0 st1 st2">0.4</text>
			</g>
			<g>
				<text transform="matrix(1 0 0 1 259.21268 238.75586)" class="st0 st1 st2">0.6</text>
			</g>
			<g>
				<text transform="matrix(1 0 0 1 330.83768 238.75586)" class="st0 st1 st2">0.8</text>
			</g>
			<g>
				<text transform="matrix(1 0 0 1 402.45877 238.75586)" class="st0 st1 st2">1.0</text>
			</g>
		</g>
	</g>
</g>
<g>
	<text transform="matrix(1 0 0 1 359.55435 338.75977)"><tspan x="0" y="0" class="st0 st3 st4">From 1 </tspan><tspan x="0" y="18.33789" class="st0 st3 st4">to 0.8</tspan></text>
</g>
<text transform="matrix(1 0 0 1 359.55423 395.07349)" class="st5 st3 st6">1</text>
<g>
	<text transform="matrix(1 0 0 1 359.55447 413.07587)"><tspan x="0" y="0" class="st0 st7 st8">Chinese </tspan><tspan x="0" y="16.02539" class="st0 st7 st8">city</tspan></text>
</g>
<g>
	<text transform="matrix(1 0 0 1 159.24442 77.87976)"><tspan x="0" y="0" class="st0 st1 st2">4</tspan><tspan x="12.60498" y="0" class="st0 st1 st2 st9">	</tspan><tspan x="36" y="0" class="st0 st1 st2">Shenzhen</tspan></text>
</g>
<g>
	<text transform="matrix(1 0 0 1 159.24442 97.98035)"><tspan x="0" y="0" class="st0 st1 st2">10</tspan><tspan x="20.91797" y="0" class="st0 st1 st2 st10">	</tspan><tspan x="36" y="0" class="st0 st1 st2">Shanghai</tspan></text>
</g>
<g>
	<text transform="matrix(1 0 0 1 159.24442 118.974)"><tspan x="0" y="0" class="st0 st1 st2">13</tspan><tspan x="20.91797" y="0" class="st0 st1 st2 st10">	</tspan><tspan x="36" y="0" class="st0 st1 st2">Hong Kong</tspan></text>
</g>
<g>
	<text transform="matrix(1 0 0 1 159.24442 140.99353)"><tspan x="0" y="0" class="st0 st1 st2">17</tspan><tspan x="20.91797" y="0" class="st0 st1 st2 st10">	</tspan><tspan x="36" y="0" class="st0 st1 st2">Beijing</tspan></text>
</g>
<g>
	<text transform="matrix(1 0 0 1 159.24442 159.73035)"><tspan x="0" y="0" class="st0 st1 st2">20</tspan><tspan x="20.91797" y="0" class="st0 st1 st2 st10">	</tspan><tspan x="36" y="0" class="st0 st1 st2">Guangzhou</tspan></text>
</g>
<text transform="matrix(1 0 0 1 334.85977 599.77246)" class="st5 st3 st6">8</text>
<g>
	<text transform="matrix(1 0 0 1 334.85904 619.43127)"><tspan x="0" y="0" class="st0 st7 st8">Chinese </tspan><tspan x="0" y="16.02539" class="st0 st7 st8">cities</tspan></text>
</g>
<g>
	<text transform="matrix(1 0 0 1 334.85941 561.49396)" class="st0 st3 st4">0.8 to 0.6</text>
</g>
<g>
	<text transform="matrix(1 0 0 1 263.8981 991.98889)"><tspan x="0" y="0" class="st0 st7 st8">Chinese </tspan><tspan x="0" y="16.02539" class="st0 st7 st8">cities</tspan></text>
</g>
<text transform="matrix(1 0 0 1 263.89798 971.99072)" class="st5 st3 st6">41</text>
<g>
	<text transform="matrix(1 0 0 1 263.89798 936.75793)" class="st0 st3 st4">0.6 to 0.4</text>
</g>
<g>
	<text transform="matrix(1 0 0 1 191.94278 1483.10901)"><tspan x="0" y="0" class="st0 st7 st8">Chinese </tspan><tspan x="0" y="16.02539" class="st0 st7 st8">cities</tspan></text>
</g>
<text transform="matrix(1 0 0 1 191.94302 1464.28174)" class="st5 st3 st6">174</text>
<g>
	<text transform="matrix(1 0 0 1 191.94315 1429.88281)" class="st0 st3 st4">0.4 to 0.2</text>
</g>
<g>
	<text transform="matrix(1 0 0 1 103.55837 1887.79492)"><tspan x="0" y="0" class="st0 st7 st8">Chinese </tspan><tspan x="0" y="16.02539" class="st0 st7 st8">cities</tspan></text>
</g>
<text transform="matrix(1 0 0 1 103.55874 1868.96777)" class="st5 st3 st6">67</text>
<g>
	<text transform="matrix(1 0 0 1 103.55849 1834.56885)" class="st0 st3 st4">0.2 to 0</text>
</g>
<g>
	<text transform="matrix(1 0 0 1 4.52884 1140.46582)"><tspan x="0" y="0" class="st0 st7 st8">Lower</tspan><tspan x="8.28516" y="17.02588" class="st0 st7 st8">half</tspan></text>
</g>
<g>
	<text transform="matrix(1 0 0 1 5.1343 1095.50684)"><tspan x="0" y="0" class="st0 st7 st8">Upper</tspan><tspan x="7.67969" y="17.02588" class="st0 st7 st8">half</tspan></text>
</g>
<g>
	<text transform="matrix(1 0 0 1 1.46243 283.92969)" class="st0 st7 st8">Top 20</text>
</g>
<g>
	<rect x="94.43324" y="1936.16919" class="st11" width="219.35263" height="52.30691"/>
	<text transform="matrix(1 0 0 1 94.4324 1947.41919)"><tspan x="0" y="0" class="st0 st12 st2">Yichun in Heilongjiang province is </tspan><tspan x="0" y="17" class="st0 st12 st2">the lowest ranking Chinese </tspan><tspan x="0" y="34" class="st0 st12 st2">for both years</tspan></text>
</g>
<g>
	<rect x="53.01713" y="2031.8114" class="st11" width="163.77362" height="38.97888"/>
	<text transform="matrix(1 0 0 1 53.01669 2043.06152)"><tspan x="0" y="0" class="st0 st12 st2">Aleppo in Syria is the lowest </tspan><tspan x="0" y="17" class="st0 st12 st2">ranked city</tspan></text>
</g>
<g>
	<rect x="2.23977" y="173.90088" class="st11" width="124.24374" height="35.29708"/>
	<text transform="matrix(1 0 0 1 2.23989 185.151)"><tspan x="0" y="0" class="st0 st12 st2">New York retains </tspan><tspan x="0" y="17" class="st0 st12 st2">the top spot</tspan></text>
</g>
<g>
	<text transform="matrix(1 0 0 1 154.7709 54.22054)" class="st0 st3 st13">2019 report</text>
</g>
<g>
	<text transform="matrix(1 0 0 1 359.5538 290.40201)"><tspan x="0" y="0" class="st0 st1 st2">Shenzhen</tspan><tspan x="0" y="16.97803" class="st0 st1 st2">(4th)</tspan></text>
</g>
<rect x="164.04655" y="10.70685" class="st5" width="18.0947" height="5.32066"/>
<text transform="matrix(1 0 0 1 187.64249 18.68768)" class="st0 st1 st8">Chinese city</text>
</svg>
