<?xml version="1.0" encoding="utf-8"?>
<!-- Generator: Adobe Illustrator 24.0.1, SVG Export Plug-In . SVG Version: 6.00 Build 0)  -->
<svg version="1.1" id="Layer_1" xmlns="http://www.w3.org/2000/svg" xmlns:xlink="http://www.w3.org/1999/xlink" x="0px" y="0px"
	 viewBox="0 0 960 2075" style="enable-background:new 0 0 960 2075;" xml:space="preserve">
<style type="text/css">
    @import url('https://fonts.googleapis.com/css?family=Roboto:100,300,500,700');
	.st0{fill:#231F20;}
	.st1{font-family:'Roboto';font-weight: 700;}
	.st2{font-size:18.17451px;}
	.st3{font-family:'Roboto';font-weight: 300;}
	.st4{font-size:15px;}
	.st5{fill:#E71B5E;}
	.st6{font-size:36px;}
	.st7{font-family:'Roboto';font-weight: 500;}
	.st8{font-size:16px;}
	.st9{letter-spacing:19;}
	.st10{letter-spacing:11;}
	.st11{fill:none;}
	.st12{font-family:'Roboto';font-weight: 300;font-style: italic;}
	.st13{font-size:21px;}
</style>
<image style="overflow:visible;" width="1604" height="3636" xlink:href="../img/comIndex-d.png"  transform="matrix(0.49964 0 0 0.49964 80.8336 208.50452)">
</image>
<g>
	<text transform="matrix(1 0 0 1 76.74001 326.99573)"><tspan x="0" y="0" class="st0 st1 st2">From 1 </tspan><tspan x="0" y="18.33789" class="st0 st1 st2">to 0.8</tspan></text>
</g>
<g>
	<g>
		<g>
			<g>
				<text transform="matrix(1 0 0 1 430.62628 238.28125)" class="st0 st3 st4">0</text>
			</g>
			<g>
				<text transform="matrix(1 0 0 1 357.59332 238.75586)" class="st0 st3 st4">0.2</text>
			</g>
			<g>
				<text transform="matrix(1 0 0 1 285.96832 238.75586)" class="st0 st3 st4">0.4</text>
			</g>
			<g>
				<text transform="matrix(1 0 0 1 214.35115 238.75586)" class="st0 st3 st4">0.6</text>
			</g>
			<g>
				<text transform="matrix(1 0 0 1 142.72615 238.75586)" class="st0 st3 st4">0.8</text>
			</g>
			<g>
				<text transform="matrix(1 0 0 1 71.10506 238.75586)" class="st0 st3 st4">1.0</text>
			</g>
		</g>
	</g>
</g>
<g>
	<g>
		<g>
			<g>
				<text transform="matrix(1 0 0 1 524.14923 238.28125)" class="st0 st3 st4">0</text>
			</g>
			<g>
				<text transform="matrix(1 0 0 1 586.03766 238.75586)" class="st0 st3 st4">0.2</text>
			</g>
			<g>
				<text transform="matrix(1 0 0 1 657.66266 238.75586)" class="st0 st3 st4">0.4</text>
			</g>
			<g>
				<text transform="matrix(1 0 0 1 729.27985 238.75586)" class="st0 st3 st4">0.6</text>
			</g>
			<g>
				<text transform="matrix(1 0 0 1 800.90485 238.75586)" class="st0 st3 st4">0.8</text>
			</g>
			<g>
				<text transform="matrix(1 0 0 1 872.52594 238.75586)" class="st0 st3 st4">1.0</text>
			</g>
		</g>
	</g>
</g>
<text transform="matrix(1 0 0 1 76.65504 383.30933)" class="st5 st1 st6">5</text>
<text transform="matrix(1 0 0 1 136.76418 603.94971)" class="st5 st1 st6">15</text>
<g>
	<text transform="matrix(1 0 0 1 140.48354 623.60852)"><tspan x="0" y="0" class="st0 st7 st8">Chinese </tspan><tspan x="0" y="16.02539" class="st0 st7 st8">cities</tspan></text>
</g>
<g>
	<text transform="matrix(1 0 0 1 78.13979 401.31183)"><tspan x="0" y="0" class="st0 st7 st8">Chinese </tspan><tspan x="0" y="16.02539" class="st0 st7 st8">cities</tspan></text>
</g>
<g>
	<text transform="matrix(1 0 0 1 824.29181 326.99573)"><tspan x="0" y="0" class="st0 st1 st2">From 1 </tspan><tspan x="0" y="18.33789" class="st0 st1 st2">to 0.8</tspan></text>
</g>
<text transform="matrix(1 0 0 1 824.20752 383.30933)" class="st5 st1 st6">1</text>
<g>
	<text transform="matrix(1 0 0 1 825.6922 401.31183)"><tspan x="0" y="0" class="st0 st7 st8">Chinese </tspan><tspan x="0" y="16.02539" class="st0 st7 st8">city</tspan></text>
</g>
<g>
	<text transform="matrix(1 0 0 1 215.16994 991.98889)"><tspan x="0" y="0" class="st0 st7 st8">Chinese </tspan><tspan x="0" y="16.02539" class="st0 st7 st8">cities</tspan></text>
</g>
<g>
	<text transform="matrix(1 0 0 1 280.2616 1483.10938)"><tspan x="0" y="0" class="st0 st7 st8">Chinese </tspan><tspan x="0" y="16.02539" class="st0 st7 st8">cities</tspan></text>
</g>
<text transform="matrix(1 0 0 1 215.16977 971.99072)" class="st5 st1 st6">57</text>
<g>
	<text transform="matrix(1 0 0 1 254.64656 66.87976)"><tspan x="0" y="0" class="st0 st3 st4">6</tspan><tspan x="12.60498" y="0" class="st0 st3 st4 st9">	</tspan><tspan x="36" y="0" class="st0 st3 st4">Shenzhen</tspan></text>
</g>
<g>
	<text transform="matrix(1 0 0 1 254.64656 86.98035)"><tspan x="0" y="0" class="st0 st3 st4">12</tspan><tspan x="20.91797" y="0" class="st0 st3 st4 st10">	</tspan><tspan x="36" y="0" class="st0 st3 st4">Hong Kong</tspan></text>
</g>
<g>
	<text transform="matrix(1 0 0 1 254.64656 107.974)"><tspan x="0" y="0" class="st0 st3 st4">14</tspan><tspan x="20.91797" y="0" class="st0 st3 st4 st10">	</tspan><tspan x="36" y="0" class="st0 st3 st4">Shanghai</tspan></text>
</g>
<g>
	<text transform="matrix(1 0 0 1 254.64656 129.99353)"><tspan x="0" y="0" class="st0 st3 st4">15</tspan><tspan x="20.91797" y="0" class="st0 st3 st4 st10">	</tspan><tspan x="36" y="0" class="st0 st3 st4">Guangzhou</tspan></text>
</g>
<g>
	<text transform="matrix(1 0 0 1 254.64656 148.73035)"><tspan x="0" y="0" class="st0 st3 st4">20</tspan><tspan x="20.91797" y="0" class="st0 st3 st4 st10">	</tspan><tspan x="36" y="0" class="st0 st3 st4">Beijing</tspan></text>
</g>
<g>
	<text transform="matrix(1 0 0 1 592.94342 66.87976)"><tspan x="0" y="0" class="st0 st3 st4">4</tspan><tspan x="12.60498" y="0" class="st0 st3 st4 st9">	</tspan><tspan x="36" y="0" class="st0 st3 st4">Shenzhen</tspan></text>
</g>
<g>
	<text transform="matrix(1 0 0 1 592.94342 86.98035)"><tspan x="0" y="0" class="st0 st3 st4">10</tspan><tspan x="20.91797" y="0" class="st0 st3 st4 st10">	</tspan><tspan x="36" y="0" class="st0 st3 st4">Shanghai</tspan></text>
</g>
<g>
	<text transform="matrix(1 0 0 1 592.94342 107.974)"><tspan x="0" y="0" class="st0 st3 st4">13</tspan><tspan x="20.91797" y="0" class="st0 st3 st4 st10">	</tspan><tspan x="36" y="0" class="st0 st3 st4">Hong Kong</tspan></text>
</g>
<g>
	<text transform="matrix(1 0 0 1 592.94342 129.99353)"><tspan x="0" y="0" class="st0 st3 st4">17</tspan><tspan x="20.91797" y="0" class="st0 st3 st4 st10">	</tspan><tspan x="36" y="0" class="st0 st3 st4">Beijing</tspan></text>
</g>
<g>
	<text transform="matrix(1 0 0 1 592.94342 148.73035)"><tspan x="0" y="0" class="st0 st3 st4">20</tspan><tspan x="20.91797" y="0" class="st0 st3 st4 st10">	</tspan><tspan x="36" y="0" class="st0 st3 st4">Guangzhou</tspan></text>
</g>
<g>
	<text transform="matrix(1 0 0 1 142.05617 561.49396)" class="st0 st1 st2">0.8 to 0.6</text>
</g>
<text transform="matrix(1 0 0 1 804.92712 599.77246)" class="st5 st1 st6">8</text>
<g>
	<text transform="matrix(1 0 0 1 804.92639 619.43127)"><tspan x="0" y="0" class="st0 st7 st8">Chinese </tspan><tspan x="0" y="16.02539" class="st0 st7 st8">cities</tspan></text>
</g>
<g>
	<text transform="matrix(1 0 0 1 804.92682 561.49396)" class="st0 st1 st2">0.8 to 0.6</text>
</g>
<g>
	<text transform="matrix(1 0 0 1 215.16994 936.75793)" class="st0 st1 st2">0.6 to 0.4</text>
</g>
<g>
	<text transform="matrix(1 0 0 1 733.96545 991.98889)"><tspan x="0" y="0" class="st0 st7 st8">Chinese </tspan><tspan x="0" y="16.02539" class="st0 st7 st8">cities</tspan></text>
</g>
<text transform="matrix(1 0 0 1 733.96533 971.99072)" class="st5 st1 st6">41</text>
<g>
	<text transform="matrix(1 0 0 1 733.96539 936.75793)" class="st0 st1 st2">0.6 to 0.4</text>
</g>
<text transform="matrix(1 0 0 1 280.26181 1464.28223)" class="st5 st1 st6">171</text>
<g>
	<text transform="matrix(1 0 0 1 280.26172 1429.8833)" class="st0 st1 st2">0.4 to 0.2</text>
</g>
<g>
	<text transform="matrix(1 0 0 1 662.01013 1483.10901)"><tspan x="0" y="0" class="st0 st7 st8">Chinese </tspan><tspan x="0" y="16.02539" class="st0 st7 st8">cities</tspan></text>
</g>
<text transform="matrix(1 0 0 1 662.01038 1464.28174)" class="st5 st1 st6">174</text>
<g>
	<text transform="matrix(1 0 0 1 662.01056 1429.88281)" class="st0 st1 st2">0.4 to 0.2</text>
</g>
<g>
	<text transform="matrix(1 0 0 1 324.24353 1887.79492)"><tspan x="0" y="0" class="st0 st7 st8">Chinese </tspan><tspan x="0" y="16.02539" class="st0 st7 st8">cities</tspan></text>
</g>
<text transform="matrix(1 0 0 1 324.24368 1868.96777)" class="st5 st1 st6">43</text>
<g>
	<text transform="matrix(1 0 0 1 324.24365 1834.56885)" class="st0 st1 st2">0.2 to 0</text>
</g>
<g>
	<text transform="matrix(1 0 0 1 573.62573 1887.79492)"><tspan x="0" y="0" class="st0 st7 st8">Chinese </tspan><tspan x="0" y="16.02539" class="st0 st7 st8">cities</tspan></text>
</g>
<text transform="matrix(1 0 0 1 573.6261 1868.96777)" class="st5 st1 st6">67</text>
<g>
	<text transform="matrix(1 0 0 1 573.62585 1834.56885)" class="st0 st1 st2">0.2 to 0</text>
</g>
<g>
	<text transform="matrix(1 0 0 1 461.59601 1140.46582)"><tspan x="0" y="0" class="st0 st7 st8">Lower</tspan><tspan x="8.28516" y="17.02588" class="st0 st7 st8">half</tspan></text>
</g>
<g>
	<text transform="matrix(1 0 0 1 462.20148 1095.50684)"><tspan x="0" y="0" class="st0 st7 st8">Upper</tspan><tspan x="7.67969" y="17.02588" class="st0 st7 st8">half</tspan></text>
</g>
<g>
	<text transform="matrix(1 0 0 1 458.5296 283.92969)" class="st0 st7 st8">Top 20</text>
</g>
<g>
	<rect x="564.50067" y="1936.16919" class="st11" width="219.35263" height="52.30691"/>
	<text transform="matrix(1 0 0 1 564.49976 1947.41919)"><tspan x="0" y="0" class="st0 st12 st4">Yichun in Heilongjiang province is </tspan><tspan x="0" y="17" class="st0 st12 st4">the lowest ranking Chinese city </tspan><tspan x="0" y="34" class="st0 st12 st4">for both years</tspan></text>
</g>
<g>
	<rect x="311.13855" y="1991.46313" class="st11" width="128.52905" height="65.51307"/>
	<text transform="matrix(1 0 0 1 315.50684 2002.71313)"><tspan x="0" y="0" class="st0 st12 st4">Kisangani in Congo </tspan><tspan x="29.65527" y="17" class="st0 st12 st4">ranked bottom </tspan><tspan x="76.60449" y="36.02539" class="st0 st12 st4">in 2017</tspan></text>
</g>
<g>
	<rect x="523.08453" y="2031.8114" class="st11" width="163.77362" height="38.97888"/>
	<text transform="matrix(1 0 0 1 523.08405 2043.06152)"><tspan x="0" y="0" class="st0 st12 st4">Aleppo in Syria is the lowest </tspan><tspan x="0" y="17" class="st0 st12 st4">ranked city</tspan></text>
</g>
<g>
	<rect x="418.55655" y="173.90088" class="st11" width="124.24374" height="35.29708"/>
	<text transform="matrix(1 0 0 1 418.55664 185.151)"><tspan x="0" y="0" class="st0 st12 st4">New York retains </tspan><tspan x="0" y="17" class="st0 st12 st4">the top spot</tspan></text>
</g>
<g>
	<text transform="matrix(1 0 0 1 250.00406 43.22054)" class="st0 st1 st13">2017 report</text>
</g>
<g>
	<text transform="matrix(1 0 0 1 588.47046 43.22054)" class="st0 st1 st13">2019 report</text>
</g>
<g>
	<text transform="matrix(1 0 0 1 830.26245 289.40201)" class="st0 st3 st4">Shenzhen (4th)</text>
</g>
<g>
	<text transform="matrix(1 0 0 1 38.15974 292.90735)" class="st0 st3 st4">Shenzhen (6th)</text>
</g>
<rect x="431.54654" y="10.70685" class="st5" width="18.0947" height="5.32066"/>
<text transform="matrix(1 0 0 1 455.14249 18.68768)" class="st0 st3 st8">Chinese city</text>
</svg>
