<?xml version="1.0" encoding="utf-8"?>
<!-- Generator: Adobe Illustrator 24.0.1, SVG Export Plug-In . SVG Version: 6.00 Build 0)  -->
<svg version="1.1" id="Layer_1" xmlns="http://www.w3.org/2000/svg" xmlns:xlink="http://www.w3.org/1999/xlink" x="0px" y="0px"
	 viewBox="0 0 425 390" style="enable-background:new 0 0 425 390;" xml:space="preserve">
<style type="text/css">
    @import url('https://fonts.googleapis.com/css?family=Roboto:100,300,700');
	.st0{fill:#010101;}
	.st1{font-family:'Roboto';font-weight: 300;}
	.st2{font-size:15px;}
	.st3{font-family:'Roboto';font-weight: 100;}
	.st4{fill:#999999;}
	.st5{fill:#A7A9AC;}
	.st6{font-family:'Roboto';font-weight: 700;}
	.st7{font-size:12px;}
	.st8{fill:#01B8A4;}
</style>
<image style="overflow:visible;" width="806" height="728" xlink:href="../img/population.png"  transform="matrix(0.49888 0 0 0.49888 21.61001 3.86473)">
</image>
<text transform="matrix(1 0 0 1 94.41704 17.73328)" class="st0 st1 st2">Total population</text>
<text transform="matrix(1 0 0 1 246.4292 17.73328)" class="st0 st1 st2">Urban population</text>
<g>
	<g>
		<text transform="matrix(1 0 0 1 8.30728 362.50232)" class="st0 st3 st2">0</text>
		<text transform="matrix(1 0 0 1 8.30728 302.37531)" class="st0 st3 st2">2</text>
		<text transform="matrix(1 0 0 1 8.30728 242.24841)" class="st0 st3 st2">4</text>
		<text transform="matrix(1 0 0 1 8.30728 182.1218)" class="st0 st3 st2">6</text>
		<text transform="matrix(1 0 0 1 8.30728 121.99513)" class="st0 st3 st2">8</text>
		<text transform="matrix(1 0 0 1 0.09654 61.86868)" class="st0 st3 st2">10</text>
	</g>
</g>
<g>
	<text transform="matrix(1 0 0 1 258.39218 78.71731)" class="st4 st1 st2">2018</text>
</g>
<text transform="matrix(1 0 0 1 110.93188 112.48536)"><tspan x="0" y="0" class="st1 st2">The growth rate from </tspan><tspan x="8.65723" y="20" class="st1 st2">1900 to 2018: </tspan><tspan x="102.47314" y="20" class="st5 st6 st2">380%</tspan></text>
<g>
	<text transform="matrix(1 0 0 1 57.59673 383.99994)" class="st0 st3 st2">1900</text>
</g>
<g>
	<text transform="matrix(1 0 0 1 348.68472 383.99994)" class="st0 st3 st2">2050</text>
</g>
<g>
	<text transform="matrix(1 0 0 1 272.32465 383.99994)" class="st0 st3 st2">2020</text>
</g>
<g>
	<text transform="matrix(1 0 0 1 195.96053 383.99994)" class="st0 st3 st2">1990</text>
</g>
<g>
	<text transform="matrix(1 0 0 1 105.49655 383.99994)" class="st0 st3 st2">1950</text>
</g>
<text transform="matrix(1 0 0 1 292.8382 100.62195)" class="st0 st1 st7">Estimated</text>
<g>
	<text transform="matrix(1 0 0 1 1.00012 78.7172)" class="st0 st1 st2">In billion</text>
</g>
<text transform="matrix(1 0 0 1 204.79919 229.28087)" class="st8 st6 st2">1780%</text>
</svg>
